<svg width="40" height="41" viewBox="0 0 40 41" fill="none" xmlns="http://www.w3.org/2000/svg">
<g clip-path="url(#clip0_841_2743)">
<g clip-path="url(#clip1_841_2743)">
<path d="M35.833 9.69629C35.833 11.213 35.1163 12.563 34.0163 13.4296C33.2163 14.063 32.1997 14.4463 31.083 14.4463C28.4497 14.4463 26.333 12.3296 26.333 9.69629C26.333 8.57963 26.7163 7.57963 27.3497 6.76296H27.3663C28.2163 5.66296 29.5663 4.94629 31.083 4.94629C33.7163 4.94629 35.833 7.06296 35.833 9.69629Z" stroke="#FC3D45" stroke-width="2.5" stroke-linecap="round" stroke-linejoin="round"/>
<path d="M13.666 9.69629C13.666 12.3296 11.5493 14.4463 8.91602 14.4463C7.79936 14.4463 6.79936 14.063 5.98269 13.4296C4.88269 12.563 4.16602 11.213 4.16602 9.69629C4.16602 7.06296 6.28269 4.94629 8.91602 4.94629C10.4327 4.94629 11.7827 5.66296 12.6493 6.76296C13.2827 7.57963 13.666 8.57963 13.666 9.69629Z" stroke="#FC3D45" stroke-width="2.5" stroke-linecap="round" stroke-linejoin="round"/>
<path d="M35.833 31.8633C35.833 34.4966 33.7163 36.6133 31.083 36.6133C29.5663 36.6133 28.2163 35.8966 27.3663 34.7966H27.3497C26.7163 33.9966 26.333 32.98 26.333 31.8633C26.333 29.23 28.4497 27.1133 31.083 27.1133C32.1997 27.1133 33.1997 27.4966 34.0163 28.13V28.1466C35.1163 28.9966 35.833 30.3466 35.833 31.8633Z" stroke="#FC3D45" stroke-width="2.5" stroke-linecap="round" stroke-linejoin="round"/>
<path d="M13.666 31.8633C13.666 32.98 13.2827 33.98 12.6493 34.7966C11.7827 35.9133 10.4327 36.6133 8.91602 36.6133C6.28269 36.6133 4.16602 34.4966 4.16602 31.8633C4.16602 30.3466 4.88269 28.9966 5.98269 28.1466V28.13C6.78269 27.4966 7.79936 27.1133 8.91602 27.1133C11.5493 27.1133 13.666 29.23 13.666 31.8633Z" stroke="#FC3D45" stroke-width="2.5" stroke-linecap="round" stroke-linejoin="round"/>
<path d="M35.8327 20.7796C35.8327 23.4463 35.1827 25.9296 34.016 28.1296C33.216 27.4963 32.1993 27.113 31.0827 27.113C28.4493 27.113 26.3327 29.2296 26.3327 31.863C26.3327 32.9796 26.716 33.9796 27.3493 34.7963C25.1493 35.963 22.666 36.613 19.9993 36.613C17.3493 36.613 14.8493 35.963 12.6493 34.7963C13.2827 33.9963 13.666 32.9796 13.666 31.863C13.666 29.2296 11.5493 27.113 8.91602 27.113C7.79936 27.113 6.79936 27.4963 5.98269 28.1296C4.81602 25.9296 4.16602 23.4463 4.16602 20.7796C4.16602 18.1296 4.81602 15.6296 5.98269 13.4296C6.79936 14.063 7.79936 14.4463 8.91602 14.4463C11.5493 14.4463 13.666 12.3296 13.666 9.69629C13.666 8.57963 13.2827 7.57963 12.6493 6.76296C14.8493 5.59629 17.3493 4.94629 19.9993 4.94629C22.666 4.94629 25.1493 5.59629 27.3493 6.76296C26.716 7.56296 26.3327 8.57963 26.3327 9.69629C26.3327 12.3296 28.4493 14.4463 31.0827 14.4463C32.1993 14.4463 33.1993 14.063 34.016 13.4296C35.1827 15.6296 35.8327 18.1296 35.8327 20.7796Z" stroke="#FC3D45" stroke-width="2.5" stroke-linecap="round" stroke-linejoin="round"/>
</g>
</g>
<defs>
<clipPath id="clip0_841_2743">
<rect width="40" height="40" fill="white" transform="translate(0 0.780273)"/>
</clipPath>
<clipPath id="clip1_841_2743">
<rect width="40" height="40" fill="white" transform="translate(0 0.780273)"/>
</clipPath>
</defs>
</svg>
