<svg width="41" height="41" viewBox="0 0 41 41" fill="none" xmlns="http://www.w3.org/2000/svg">
<g clip-path="url(#clip0_841_2729)">
<g clip-path="url(#clip1_841_2729)">
<path d="M20.6602 25.7803C23.4216 25.7803 25.6602 23.5417 25.6602 20.7803C25.6602 18.0189 23.4216 15.7803 20.6602 15.7803C17.8988 15.7803 15.6602 18.0189 15.6602 20.7803C15.6602 23.5417 17.8988 25.7803 20.6602 25.7803Z" stroke="#FC3D45" stroke-width="2.5" stroke-miterlimit="10" stroke-linecap="round" stroke-linejoin="round"/>
<path d="M3.99414 22.247V19.3137C3.99414 17.5804 5.4108 16.147 7.1608 16.147C10.1775 16.147 11.4108 14.0137 9.89414 11.397C9.02747 9.89699 9.54414 7.94699 11.0608 7.08033L13.9441 5.43033C15.2608 4.64699 16.9608 5.11366 17.7441 6.43033L17.9274 6.74699C19.4274 9.36366 21.8941 9.36366 23.4108 6.74699L23.5941 6.43033C24.3774 5.11366 26.0774 4.64699 27.3941 5.43033L30.2774 7.08033C31.7941 7.94699 32.3108 9.89699 31.4441 11.397C29.9274 14.0137 31.1608 16.147 34.1774 16.147C35.9108 16.147 37.3441 17.5637 37.3441 19.3137V22.247C37.3441 23.9804 35.9274 25.4137 34.1774 25.4137C31.1608 25.4137 29.9274 27.547 31.4441 30.1637C32.3108 31.6804 31.7941 33.6137 30.2774 34.4804L27.3941 36.1304C26.0774 36.9137 24.3774 36.447 23.5941 35.1304L23.4108 34.8137C21.9108 32.197 19.4441 32.197 17.9274 34.8137L17.7441 35.1304C16.9608 36.447 15.2608 36.9137 13.9441 36.1304L11.0608 34.4804C9.54414 33.6137 9.02747 31.6637 9.89414 30.1637C11.4108 27.547 10.1775 25.4137 7.1608 25.4137C5.4108 25.4137 3.99414 23.9804 3.99414 22.247Z" stroke="#FC3D45" stroke-width="2.5" stroke-miterlimit="10" stroke-linecap="round" stroke-linejoin="round"/>
</g>
</g>
<defs>
<clipPath id="clip0_841_2729">
<rect width="40" height="40" fill="white" transform="translate(0.660156 0.780273)"/>
</clipPath>
<clipPath id="clip1_841_2729">
<rect width="40" height="40" fill="white" transform="translate(0.660156 0.780273)"/>
</clipPath>
</defs>
</svg>
