<svg width="41" height="40" viewBox="0 0 41 40" fill="none" xmlns="http://www.w3.org/2000/svg">
<g clip-path="url(#clip0_841_1922)">
<g clip-path="url(#clip1_841_1922)">
<path d="M14.4834 23.8834C14.4834 26.0334 16.1334 27.7667 18.1834 27.7667H22.3668C24.1501 27.7667 25.6001 26.25 25.6001 24.3834C25.6001 22.35 24.7168 21.6334 23.4001 21.1667L16.6834 18.8334C15.3668 18.3667 14.4834 17.65 14.4834 15.6167C14.4834 13.75 15.9334 12.2334 17.7168 12.2334H21.9001C23.9501 12.2334 25.6001 13.9667 25.6001 16.1167" stroke="#FC3D45" stroke-width="2.5" stroke-linecap="round" stroke-linejoin="round"/>
<path d="M20.0303 10V30" stroke="#FC3D45" stroke-width="2.5" stroke-linecap="round" stroke-linejoin="round"/>
<path d="M20.031 36.6664C29.2357 36.6664 36.6976 29.2044 36.6976 19.9997C36.6976 10.7949 29.2357 3.33301 20.031 3.33301C10.8262 3.33301 3.36426 10.7949 3.36426 19.9997C3.36426 29.2044 10.8262 36.6664 20.031 36.6664Z" stroke="#FC3D45" stroke-width="2.5" stroke-linecap="round" stroke-linejoin="round"/>
</g>
</g>
<defs>
<clipPath id="clip0_841_1922">
<rect width="40" height="40" fill="white" transform="translate(0.0302734)"/>
</clipPath>
<clipPath id="clip1_841_1922">
<rect width="40" height="40" fill="white" transform="translate(0.0302734)"/>
</clipPath>
</defs>
</svg>
