<svg width="45" height="45" viewBox="0 0 45 45" fill="none" xmlns="http://www.w3.org/2000/svg">
<g clip-path="url(#clip0_972_2359)">
<path d="M31.6863 0H13.3137C12.3937 0.000930699 11.5116 0.36681 10.8611 1.01734C10.2106 1.66788 9.84468 2.54993 9.84375 3.46992V41.5301C9.84468 42.4501 10.2106 43.3321 10.8611 43.9827C11.5116 44.6332 12.3937 44.9991 13.3137 45H31.6863C32.6063 44.9991 33.4884 44.6332 34.1389 43.9827C34.7894 43.3321 35.1553 42.4501 35.1562 41.5301V3.46992C35.1553 2.54993 34.7894 1.66788 34.1389 1.01734C33.4884 0.36681 32.6063 0.000930699 31.6863 0ZM16.875 1.40625H28.125V2.46094C28.1279 2.55407 28.1117 2.64681 28.0774 2.73344C28.0431 2.82007 27.9915 2.89875 27.9256 2.96464C27.8597 3.03052 27.781 3.08221 27.6944 3.11651C27.6077 3.1508 27.515 3.16699 27.4219 3.16406H17.5781C17.485 3.16699 17.3923 3.1508 17.3056 3.11651C17.219 3.08221 17.1403 3.03052 17.0744 2.96464C17.0085 2.89875 16.9569 2.82007 16.9226 2.73344C16.8883 2.64681 16.8721 2.55407 16.875 2.46094V1.40625ZM33.75 41.5301C33.75 42.0774 33.5326 42.6023 33.1456 42.9893C32.7586 43.3763 32.2336 43.5938 31.6863 43.5938H13.3137C12.7664 43.5938 12.2414 43.3763 11.8544 42.9893C11.4674 42.6023 11.25 42.0774 11.25 41.5301V3.46992C11.25 2.9226 11.4674 2.3977 11.8544 2.01069C12.2414 1.62367 12.7664 1.40625 13.3137 1.40625H15.4688V2.46094C15.4659 2.73873 15.5186 3.01429 15.6236 3.27149C15.7286 3.52868 15.8838 3.76234 16.0803 3.95878C16.2767 4.15521 16.5104 4.31048 16.7676 4.41549C17.0248 4.5205 17.3003 4.57313 17.5781 4.57031H27.4219C27.6997 4.57313 27.9752 4.5205 28.2324 4.41549C28.4896 4.31048 28.7233 4.15521 28.9197 3.95878C29.1162 3.76234 29.2714 3.52868 29.3764 3.27149C29.4814 3.01429 29.5341 2.73873 29.5312 2.46094V1.40625H31.6863C32.2336 1.40625 32.7586 1.62367 33.1456 2.01069C33.5326 2.3977 33.75 2.9226 33.75 3.46992V41.5301Z" fill="#FC3D45"/>
<path d="M21.4449 16.6148C21.3937 16.4862 21.3057 16.3756 21.1919 16.2968C21.0781 16.218 20.9435 16.1745 20.8051 16.1719C20.6639 16.172 20.5259 16.2147 20.4093 16.2943C20.2927 16.374 20.2027 16.4869 20.1512 16.6184L15.8692 27.5168C15.8103 27.6882 15.8199 27.8757 15.896 28.0402C15.972 28.2046 16.1086 28.3334 16.2773 28.3996C16.446 28.4658 16.6337 28.4643 16.8013 28.3955C16.969 28.3266 17.1035 28.1957 17.177 28.0301L18.5234 24.6094H23.0938L24.4473 28.0336C24.5002 28.1667 24.5926 28.2804 24.712 28.3596C24.8313 28.4387 24.972 28.4796 25.1152 28.4766C25.2032 28.4773 25.2904 28.4606 25.3719 28.4273C25.4581 28.3936 25.5368 28.3431 25.6035 28.2789C25.6702 28.2146 25.7235 28.1378 25.7604 28.0529C25.7974 27.9679 25.8171 27.8765 25.8186 27.7839C25.8201 27.6913 25.8033 27.5994 25.7692 27.5133L21.4449 16.6148ZM19.0754 23.2031L20.8086 18.791L22.5664 23.2031H19.0754ZM28.4762 18.9598C28.2897 18.9598 28.1109 19.0338 27.979 19.1657C27.8471 19.2976 27.7731 19.4764 27.7731 19.6629V27.7734C27.7731 27.9599 27.8471 28.1388 27.979 28.2706C28.1109 28.4025 28.2897 28.4766 28.4762 28.4766C28.6627 28.4766 28.8415 28.4025 28.9734 28.2706C29.1052 28.1388 29.1793 27.9599 29.1793 27.7734V19.6629C29.1793 19.4764 29.1052 19.2976 28.9734 19.1657C28.8415 19.0338 28.6627 18.9598 28.4762 18.9598ZM28.8664 16.875C28.8277 16.8497 28.7864 16.8285 28.7434 16.8117C28.7019 16.7924 28.6582 16.7783 28.6133 16.7695C28.5228 16.7515 28.4296 16.7515 28.3391 16.7695C28.293 16.7782 28.2482 16.7924 28.2055 16.8117C28.1639 16.8293 28.1239 16.8505 28.0859 16.875C28.0477 16.9004 28.0124 16.9299 27.9805 16.9629C27.9465 16.9938 27.9169 17.0293 27.8926 17.0684C27.8656 17.1066 27.8432 17.1479 27.8258 17.1914C27.8076 17.233 27.7946 17.2767 27.7871 17.3215C27.7819 17.367 27.7819 17.413 27.7871 17.4586C27.7871 17.6451 27.8612 17.8239 27.9931 17.9558C28.1249 18.0876 28.3038 18.1617 28.4902 18.1617C28.6759 18.1619 28.8541 18.0886 28.9859 17.9578C29.0513 17.8925 29.1032 17.815 29.1386 17.7296C29.1739 17.6442 29.1922 17.5528 29.1922 17.4604C29.1922 17.368 29.1739 17.2765 29.1386 17.1911C29.1032 17.1057 29.0513 17.0282 28.9859 16.9629C28.9497 16.929 28.9095 16.8995 28.8664 16.875Z" fill="white"/>
</g>
<defs>
<clipPath id="clip0_972_2359">
<rect width="45" height="45" fill="white"/>
</clipPath>
</defs>
</svg>
