<svg width="65" height="65" viewBox="0 0 65 65" fill="none" xmlns="http://www.w3.org/2000/svg">
<g clip-path="url(#clip0_841_2880)">
<g clip-path="url(#clip1_841_2880)">
<g clip-path="url(#clip2_841_2880)">
<path d="M28.05 1H36.68C43.9533 2.27333 50.0833 5.42 55.07 10.44C59.1233 14.52 62.0333 19.6767 63.8 25.91L63.84 38.11C62.98 41.9433 61.89 45.0867 60.57 47.54C56.27 55.5667 49.2733 60.9867 39.58 63.8L26.6 63.87C14.4467 60.8367 6.38333 53.6067 2.41 42.18C2.25667 41.7333 2.10667 40.9167 1.96 39.73C1.83333 38.7233 1.51333 37.9333 1 37.36V28.62C2.11333 24.22 2.91 21.49 3.39 20.43C8.13 9.92333 16.35 3.44667 28.05 1ZM40.1 20.46C43.6 24.43 40.53 29.37 37.14 32.13C32.27 36.1 24.52 40.62 27.02 47.83C29.21 54.15 36.38 56.33 42.29 53.63C47.1567 51.4033 50.95 47.2533 53.67 41.18C53.7816 40.9171 53.8296 40.6327 53.81 40.35C53.6433 38.45 52.67 37.9233 50.89 38.77C50.5582 38.9194 50.282 39.1676 50.1 39.48C47.36 44.06 41.6 50.28 35.89 47.58C35.5643 47.426 35.275 47.2046 35.041 46.9306C34.8071 46.6567 34.6338 46.3362 34.5327 45.9904C34.4317 45.6446 34.405 45.2813 34.4545 44.9244C34.504 44.5675 34.6286 44.2252 34.82 43.92C35.72 42.48 36.9567 41.2367 38.53 40.19C43.54 36.84 48.91 32.17 50.45 26.42C53.92 13.45 38.79 9.13 28.96 10.92C22.76 12.0467 17.5833 15.18 13.43 20.32C12.4767 21.5 11.8033 22.81 11.41 24.25C11.3486 24.4752 11.3382 24.7112 11.3796 24.9409C11.4209 25.1706 11.5129 25.3882 11.6489 25.5778C11.7849 25.7675 11.9615 25.9244 12.1658 26.0373C12.3701 26.1501 12.597 26.2159 12.83 26.23C13.8367 26.29 14.7367 25.89 15.53 25.03C21.04 19.07 27.72 15.54 36.05 17.9C37.65 18.36 39 19.2133 40.1 20.46ZM15.02 32.53C9.8 39.99 12.4 48.21 20.07 52.41C20.53 52.6633 20.97 52.6333 21.39 52.32C21.584 52.1708 21.7202 51.9592 21.775 51.7219C21.8298 51.4845 21.7997 51.2362 21.69 51.02C19.34 46.33 17.95 41.42 21.51 37.07C23.5367 34.59 26.36 32.1133 29.98 29.64C30.9267 28.9933 31.5733 28.1633 31.92 27.15C32.0614 26.728 32.0415 26.2689 31.864 25.8622C31.6865 25.4554 31.3642 25.1302 30.96 24.95C25.42 22.51 18.02 28.23 15.02 32.53Z" fill="#6706CF"/>
</g>
</g>
</g>
<defs>
<clipPath id="clip0_841_2880">
<rect width="64" height="64" fill="white" transform="translate(0.573242 0.826172)"/>
</clipPath>
<clipPath id="clip1_841_2880">
<rect width="64" height="64" fill="white" transform="translate(0.573242 0.826172)"/>
</clipPath>
<clipPath id="clip2_841_2880">
<rect width="64" height="63.4234" fill="white" transform="translate(0.573242 1.11426)"/>
</clipPath>
</defs>
</svg>
