<svg width="61" height="62" viewBox="0 0 61 62" fill="none" xmlns="http://www.w3.org/2000/svg">
<path d="M15.5034 0.665751C29.0334 0.895751 42.4534 0.645751 55.8934 0.685751C58.9334 0.695751 60.6334 2.79575 60.6234 5.67575C60.5768 19.8958 60.5701 33.2924 60.6034 45.8658C60.6103 46.8782 60.2516 47.8584 59.5934 48.6258C56.3734 52.3791 53.2268 56.0324 50.1534 59.5858C48.6834 61.2858 46.8834 61.0358 44.8534 61.0358C31.3134 61.0091 17.8101 60.9991 4.34344 61.0058C3.84357 61.0071 3.34836 60.9097 2.88617 60.7194C2.42398 60.529 2.00389 60.2493 1.64997 59.8963C1.29604 59.5433 1.01524 59.124 0.823649 58.6623C0.632056 58.2006 0.533436 57.7056 0.533437 57.2058L0.523438 14.6558C0.523438 13.3424 1.0101 12.2458 1.98344 11.3658L12.6234 1.74575C13.4142 1.03225 14.4438 0.646147 15.5034 0.665751ZM59.2734 5.16575C59.2734 4.35154 58.95 3.57067 58.3743 2.99493C57.7985 2.4192 57.0177 2.09575 56.2034 2.09575H15.5234C15.1203 2.09575 14.7211 2.17516 14.3486 2.32944C13.9761 2.48372 13.6377 2.70986 13.3526 2.99493C13.0675 3.28001 12.8414 3.61844 12.6871 3.99091C12.5328 4.36338 12.4534 4.76259 12.4534 5.16575V45.7858C12.4534 46.1889 12.5328 46.5881 12.6871 46.9606C12.8414 47.3331 13.0675 47.6715 13.3526 47.9566C13.6377 48.2416 13.9761 48.4678 14.3486 48.6221C14.7211 48.7763 15.1203 48.8558 15.5234 48.8558H56.2034C57.0177 48.8558 57.7985 48.5323 58.3743 47.9566C58.95 47.3808 59.2734 46.6 59.2734 45.7858V5.16575Z" fill="white"/>
<path d="M59.2741 45.7847C59.2741 46.5989 58.9507 47.3798 58.3749 47.9555C57.7992 48.5313 57.0183 48.8547 56.2041 48.8547H15.5241C15.1209 48.8547 14.7217 48.7753 14.3493 48.621C13.9768 48.4668 13.6384 48.2406 13.3533 47.9555C13.0682 47.6705 12.8421 47.332 12.6878 46.9596C12.5335 46.5871 12.4541 46.1879 12.4541 45.7847V5.16473C12.4541 4.76157 12.5335 4.36236 12.6878 3.98989C12.8421 3.61742 13.0682 3.27898 13.3533 2.99391C13.6384 2.70883 13.9768 2.4827 14.3493 2.32842C14.7217 2.17413 15.1209 2.09473 15.5241 2.09473H56.2041C57.0183 2.09473 57.7992 2.41817 58.3749 2.99391C58.9507 3.56965 59.2741 4.35051 59.2741 5.16473V45.7847ZM33.0941 25.4747C33.0941 24.7586 32.8096 24.0719 32.3033 23.5655C31.7969 23.0592 31.1102 22.7747 30.3941 22.7747C29.678 22.7747 28.9913 23.0592 28.4849 23.5655C27.9786 24.0719 27.6941 24.7586 27.6941 25.4747C27.6941 26.1908 27.9786 26.8776 28.4849 27.3839C28.9913 27.8903 29.678 28.1747 30.3941 28.1747C31.1102 28.1747 31.7969 27.8903 32.3033 27.3839C32.8096 26.8776 33.0941 26.1908 33.0941 25.4747ZM43.9841 25.4747C43.9841 24.7507 43.6965 24.0563 43.1845 23.5443C42.6725 23.0324 41.9781 22.7447 41.2541 22.7447C40.8956 22.7447 40.5406 22.8153 40.2094 22.9525C39.8782 23.0897 39.5772 23.2908 39.3237 23.5443C39.0702 23.7978 38.8691 24.0988 38.7319 24.43C38.5947 24.7612 38.5241 25.1162 38.5241 25.4747C38.5241 25.8332 38.5947 26.1882 38.7319 26.5195C38.8691 26.8507 39.0702 27.1516 39.3237 27.4051C39.5772 27.6586 39.8782 27.8597 40.2094 27.9969C40.5406 28.1341 40.8956 28.2047 41.2541 28.2047C41.9781 28.2047 42.6725 27.9171 43.1845 27.4051C43.6965 26.8932 43.9841 26.1988 43.9841 25.4747Z" fill="#111111"/>
<path d="M33.0934 25.4744C33.0934 26.1905 32.8089 26.8773 32.3025 27.3836C31.7962 27.89 31.1094 28.1744 30.3934 28.1744C29.6773 28.1744 28.9905 27.89 28.4842 27.3836C27.9778 26.8773 27.6934 26.1905 27.6934 25.4744C27.6934 24.7583 27.9778 24.0716 28.4842 23.5652C28.9905 23.0589 29.6773 22.7744 30.3934 22.7744C31.1094 22.7744 31.7962 23.0589 32.3025 23.5652C32.8089 24.0716 33.0934 24.7583 33.0934 25.4744Z" fill="white"/>
<path d="M43.9834 25.4751C43.9834 26.1992 43.6958 26.8935 43.1838 27.4055C42.6719 27.9175 41.9775 28.2051 41.2534 28.2051C40.8949 28.2051 40.5399 28.1345 40.2087 27.9973C39.8775 27.8601 39.5765 27.659 39.323 27.4055C39.0695 27.152 38.8684 26.8511 38.7312 26.5198C38.5941 26.1886 38.5234 25.8336 38.5234 25.4751C38.5234 25.1166 38.5941 24.7616 38.7312 24.4304C38.8684 24.0992 39.0695 23.7982 39.323 23.5447C39.5765 23.2912 39.8775 23.0901 40.2087 22.9529C40.5399 22.8157 40.8949 22.7451 41.2534 22.7451C41.9775 22.7451 42.6719 23.0327 43.1838 23.5447C43.6958 24.0567 43.9834 24.7511 43.9834 25.4751Z" fill="white"/>
</svg>
