<svg width="65" height="65" viewBox="0 0 65 65" fill="none" xmlns="http://www.w3.org/2000/svg">
<g clip-path="url(#clip0_841_2873)">
<g clip-path="url(#clip1_841_2873)">
<path d="M51.2097 19.4222L46.4526 24.1794C54.2369 31.9637 54.2369 44.5052 46.4526 52.1455C38.6681 59.9296 26.1266 59.9296 18.4864 52.1455C10.702 44.3611 10.702 31.8196 18.4864 24.1794L30.8117 11.8541L32.5416 10.1242V0.826172L13.9455 19.4222C3.56634 29.8014 3.56634 46.5234 13.9455 56.9026C24.3247 67.282 41.0467 67.282 51.2097 56.9026C61.5889 46.4513 61.5889 29.8014 51.2097 19.4222Z" fill="#FC3D45"/>
<path d="M41.9119 18.2691C43.8226 18.2691 45.3716 16.7201 45.3716 14.8094C45.3716 12.8986 43.8226 11.3496 41.9119 11.3496C40.0011 11.3496 38.4521 12.8986 38.4521 14.8094C38.4521 16.7201 40.0011 18.2691 41.9119 18.2691Z" fill="#FC3D45"/>
</g>
</g>
<defs>
<clipPath id="clip0_841_2873">
<rect width="64" height="64" fill="white" transform="translate(0.573242 0.826172)"/>
</clipPath>
<clipPath id="clip1_841_2873">
<rect width="52.9455" height="64" fill="white" transform="translate(6.10059 0.826172)"/>
</clipPath>
</defs>
</svg>
