<svg width="65" height="65" viewBox="0 0 65 65" fill="none" xmlns="http://www.w3.org/2000/svg">
<path d="M53.2585 21.9912V43.6512C53.2585 43.7493 53.2975 43.8434 53.3669 43.9128C53.4363 43.9822 53.5304 44.0212 53.6285 44.0212L57.7985 43.9712C57.8966 43.9712 57.9908 44.0102 58.0601 44.0796C58.1295 44.1489 58.1685 44.2431 58.1685 44.3412L58.1585 57.9512C58.1585 58.0493 58.1195 58.1434 58.0501 58.2128C57.9808 58.2822 57.8866 58.3212 57.7885 58.3212L44.0785 58.2912C43.9804 58.2912 43.8863 58.2522 43.8169 58.1828C43.7475 58.1134 43.7085 58.0193 43.7085 57.9212L43.7285 53.9512C43.7285 53.8531 43.6895 53.7589 43.6201 53.6896C43.5508 53.6202 43.4566 53.5812 43.3585 53.5812H21.7985C21.7491 53.5812 21.7001 53.5911 21.6546 53.6103C21.609 53.6295 21.5678 53.6576 21.5333 53.6931C21.4988 53.7285 21.4718 53.7705 21.4538 53.8165C21.4358 53.8626 21.4272 53.9118 21.4285 53.9612L21.4885 57.9312C21.4899 57.9806 21.4813 58.0298 21.4633 58.0759C21.4453 58.1219 21.4182 58.1639 21.3837 58.1993C21.3493 58.2347 21.308 58.2629 21.2625 58.2821C21.2169 58.3013 21.168 58.3112 21.1185 58.3112L7.34852 58.3012C7.25039 58.3012 7.15627 58.2622 7.08689 58.1928C7.0175 58.1234 6.97852 58.0293 6.97852 57.9312V44.3512C6.9785 44.3017 6.98839 44.2528 7.00761 44.2072C7.02682 44.1617 7.05497 44.1205 7.0904 44.086C7.12582 44.0515 7.1678 44.0244 7.21385 44.0064C7.2599 43.9884 7.30909 43.9799 7.35852 43.9812L11.4685 44.0312C11.5179 44.0325 11.5671 44.0239 11.6132 44.0059C11.6592 43.988 11.7012 43.9609 11.7366 43.9264C11.7721 43.8919 11.8002 43.8507 11.8194 43.8051C11.8386 43.7596 11.8485 43.7106 11.8485 43.6612V21.9912C11.8485 21.8931 11.8095 21.7989 11.7401 21.7296C11.6708 21.6602 11.5766 21.6212 11.4785 21.6212L7.34852 21.6312C7.29993 21.6312 7.25181 21.6216 7.20692 21.603C7.16203 21.5844 7.12124 21.5572 7.08689 21.5228C7.05253 21.4885 7.02527 21.4477 7.00668 21.4028C6.98809 21.3579 6.97852 21.3098 6.97852 21.2612V7.70119C6.9785 7.65175 6.98839 7.6028 7.00761 7.55725C7.02682 7.51169 7.05497 7.47045 7.0904 7.43596C7.12582 7.40147 7.1678 7.37443 7.21385 7.35643C7.2599 7.33844 7.30909 7.32985 7.35852 7.33119L21.0585 7.52119C21.1566 7.52119 21.2508 7.56017 21.3201 7.62956C21.3895 7.69895 21.4285 7.79306 21.4285 7.89119L21.4885 11.6412C21.4911 11.7376 21.5313 11.8291 21.6004 11.8964C21.6695 11.9636 21.7621 12.0012 21.8585 12.0012L43.3285 12.1312C43.4266 12.1312 43.5208 12.0922 43.5901 12.0228C43.6595 11.9534 43.6985 11.8593 43.6985 11.7612L43.7285 7.75119C43.7285 7.65306 43.7675 7.55895 43.8369 7.48956C43.9063 7.42017 44.0004 7.38119 44.0985 7.38119L57.7885 7.37119C57.8866 7.37119 57.9808 7.41017 58.0501 7.47956C58.1195 7.54895 58.1585 7.64306 58.1585 7.74119V21.2612C58.1585 21.3098 58.1489 21.3579 58.1304 21.4028C58.1118 21.4477 58.0845 21.4885 58.0501 21.5228C58.0158 21.5572 57.975 21.5844 57.9301 21.603C57.8852 21.6216 57.8371 21.6312 57.7885 21.6312L53.6285 21.6212C53.5304 21.6212 53.4363 21.6602 53.3669 21.7296C53.2975 21.7989 53.2585 21.8931 53.2585 21.9912ZM20.9685 43.9812C21.0332 43.9798 21.0976 43.9916 21.1576 44.0157C21.2177 44.0399 21.2723 44.0759 21.318 44.1217C21.3638 44.1674 21.3999 44.222 21.424 44.2821C21.4481 44.3421 21.4599 44.4065 21.4585 44.4712L21.4385 48.2112C21.4385 48.3385 21.4891 48.4606 21.5791 48.5506C21.6691 48.6406 21.7912 48.6912 21.9185 48.6912L43.2285 48.6812C43.3558 48.6812 43.4779 48.6306 43.5679 48.5406C43.6579 48.4506 43.7085 48.3285 43.7085 48.2012L43.7185 44.4512C43.7185 44.3239 43.7691 44.2018 43.8591 44.1118C43.9491 44.0218 44.0712 43.9712 44.1985 43.9712L48.0585 44.0112C48.1858 44.0112 48.3079 43.9606 48.3979 43.8706C48.4879 43.7806 48.5385 43.6585 48.5385 43.5312L48.5685 22.0812C48.5685 22.0182 48.5561 21.9557 48.532 21.8975C48.5079 21.8393 48.4725 21.7864 48.4279 21.7418C48.3834 21.6972 48.3304 21.6619 48.2722 21.6377C48.214 21.6136 48.1516 21.6012 48.0885 21.6012L44.2085 21.6412C44.0812 21.6412 43.9591 21.5906 43.8691 21.5006C43.7791 21.4106 43.7285 21.2885 43.7285 21.1612L43.7085 17.4812C43.7085 17.3539 43.6579 17.2318 43.5679 17.1418C43.4779 17.0518 43.3558 17.0012 43.2285 17.0012L21.8385 16.9612C21.7129 16.9612 21.5923 17.0104 21.5026 17.0982C21.4129 17.1861 21.3611 17.3056 21.3585 17.4312L21.2685 21.0912C21.266 21.215 21.2156 21.3331 21.128 21.4207C21.0404 21.5083 20.9224 21.5586 20.7985 21.5612L17.0385 21.6512C16.913 21.6538 16.7934 21.7055 16.7056 21.7953C16.6177 21.885 16.5685 22.0056 16.5685 22.1312L16.5785 43.5312C16.5785 43.6585 16.6291 43.7806 16.7191 43.8706C16.8091 43.9606 16.9312 44.0112 17.0585 44.0112L20.9685 43.9812Z" fill="#FF8267"/>
<path d="M20.9684 43.98L17.0584 44.01C16.9311 44.01 16.809 43.9594 16.7189 43.8694C16.6289 43.7794 16.5784 43.6573 16.5784 43.53L16.5684 22.13C16.5683 22.0044 16.6175 21.8838 16.7054 21.794C16.7933 21.7043 16.9128 21.6526 17.0384 21.65L20.7984 21.56C20.9222 21.5574 21.0403 21.5071 21.1279 21.4195C21.2155 21.3319 21.2658 21.2138 21.2684 21.09L21.3584 17.43C21.361 17.3044 21.4127 17.1849 21.5024 17.097C21.5922 17.0091 21.7128 16.9599 21.8384 16.96L43.2284 17C43.3557 17 43.4778 17.0505 43.5678 17.1405C43.6578 17.2306 43.7084 17.3527 43.7084 17.48L43.7284 21.16C43.7284 21.2873 43.7789 21.4094 43.8689 21.4994C43.959 21.5894 44.0811 21.64 44.2084 21.64L48.0884 21.6C48.1514 21.6 48.2138 21.6124 48.272 21.6365C48.3303 21.6606 48.3832 21.696 48.4278 21.7405C48.4723 21.7851 48.5077 21.838 48.5318 21.8963C48.5559 21.9545 48.5684 22.0169 48.5684 22.08L48.5384 43.53C48.5384 43.6573 48.4878 43.7794 48.3978 43.8694C48.3078 43.9594 48.1857 44.01 48.0584 44.01L44.1984 43.97C44.0711 43.97 43.949 44.0205 43.8589 44.1105C43.7689 44.2006 43.7184 44.3227 43.7184 44.45L43.7084 48.2C43.7084 48.3273 43.6578 48.4494 43.5678 48.5394C43.4778 48.6294 43.3557 48.68 43.2284 48.68L21.9184 48.69C21.7911 48.69 21.669 48.6394 21.5789 48.5494C21.4889 48.4594 21.4384 48.3373 21.4384 48.21L21.4584 44.47C21.4597 44.4052 21.448 44.3409 21.4238 44.2808C21.3997 44.2208 21.3637 44.1662 21.3179 44.1204C21.2721 44.0747 21.2175 44.0386 21.1575 44.0145C21.0974 43.9903 21.0331 43.9786 20.9684 43.98Z" fill="#FFDAD1"/>
</svg>
