<svg width="63" height="64" viewBox="0 0 63 64" fill="none" xmlns="http://www.w3.org/2000/svg">
<path d="M62.8345 63.1464C62.8345 63.2366 62.7992 63.3231 62.7364 63.3869C62.6736 63.4506 62.5885 63.4864 62.4997 63.4864H0.902152C0.813366 63.4864 0.728216 63.4506 0.665435 63.3869C0.602653 63.3231 0.567383 63.2366 0.567383 63.1464V0.446445C0.567383 0.356272 0.602653 0.269791 0.665435 0.206029C0.728216 0.142267 0.813366 0.106445 0.902152 0.106445H62.4997C62.5437 0.106445 62.5872 0.11524 62.6278 0.132326C62.6684 0.149413 62.7053 0.174457 62.7364 0.206029C62.7675 0.237601 62.7922 0.275082 62.809 0.316333C62.8258 0.357584 62.8345 0.401796 62.8345 0.446445V63.1464ZM20.1809 16.5564C20.1809 15.9571 19.9465 15.3822 19.5292 14.9584C19.1119 14.5346 18.5459 14.2964 17.9557 14.2964C17.3655 14.2964 16.7995 14.5346 16.3822 14.9584C15.9649 15.3822 15.7305 15.9571 15.7305 16.5564C15.7305 16.8532 15.788 17.1471 15.8998 17.4213C16.0117 17.6955 16.1756 17.9446 16.3822 18.1545C16.5888 18.3644 16.8342 18.5308 17.1041 18.6444C17.3741 18.758 17.6635 18.8164 17.9557 18.8164C18.2479 18.8164 18.5373 18.758 18.8072 18.6444C19.0772 18.5308 19.3225 18.3644 19.5292 18.1545C19.7358 17.9446 19.8997 17.6955 20.0115 17.4213C20.1234 17.1471 20.1809 16.8532 20.1809 16.5564ZM47.5729 16.5564C47.5729 15.9491 47.3354 15.3666 46.9125 14.9372C46.4897 14.5077 45.9162 14.2664 45.3182 14.2664C44.7201 14.2664 44.1466 14.5077 43.7238 14.9372C43.3009 15.3666 43.0634 15.9491 43.0634 16.5564C43.0634 17.1638 43.3009 17.7463 43.7238 18.1757C44.1466 18.6052 44.7201 18.8464 45.3182 18.8464C45.9162 18.8464 46.4897 18.6052 46.9125 18.1757C47.3354 17.7463 47.5729 17.1638 47.5729 16.5564ZM33.8966 19.8964C33.8966 19.2944 33.6611 18.717 33.242 18.2913C32.8228 17.8656 32.2543 17.6264 31.6615 17.6264C31.368 17.6264 31.0774 17.6852 30.8062 17.7992C30.535 17.9133 30.2886 18.0805 30.0811 18.2913C29.8736 18.5021 29.7089 18.7523 29.5966 19.0278C29.4843 19.3032 29.4265 19.5983 29.4265 19.8964C29.4265 20.1945 29.4843 20.4897 29.5966 20.7651C29.7089 21.0405 29.8736 21.2908 30.0811 21.5016C30.2886 21.7124 30.535 21.8796 30.8062 21.9937C31.0774 22.1077 31.368 22.1664 31.6615 22.1664C32.2543 22.1664 32.8228 21.9273 33.242 21.5016C33.6611 21.0759 33.8966 20.4985 33.8966 19.8964ZM21.5298 25.5964C21.5298 24.6364 21.1543 23.7156 20.4859 23.0367C19.8174 22.3578 18.9109 21.9764 17.9655 21.9764C17.0202 21.9764 16.1136 22.3578 15.4452 23.0367C14.7768 23.7156 14.4012 24.6364 14.4012 25.5964C14.4012 26.0718 14.4934 26.5426 14.6725 26.9818C14.8517 27.421 15.1142 27.82 15.4452 28.1562C15.7762 28.4923 16.1691 28.759 16.6015 28.9409C17.034 29.1228 17.4975 29.2164 17.9655 29.2164C18.4336 29.2164 18.8971 29.1228 19.3295 28.9409C19.762 28.759 20.1549 28.4923 20.4859 28.1562C20.8169 27.82 21.0794 27.421 21.2585 26.9818C21.4377 26.5426 21.5298 26.0718 21.5298 25.5964ZM48.8923 25.5964C48.8923 24.6337 48.5157 23.7104 47.8455 23.0296C47.1752 22.3489 46.2661 21.9664 45.3182 21.9664C44.3702 21.9664 43.4611 22.3489 42.7908 23.0296C42.1206 23.7104 41.744 24.6337 41.744 25.5964C41.744 26.0731 41.8364 26.5452 42.0161 26.9856C42.1957 27.426 42.459 27.8262 42.7908 28.1632C43.1227 28.5003 43.5167 28.7677 43.9504 28.9501C44.384 29.1326 44.8488 29.2264 45.3182 29.2264C45.7875 29.2264 46.2523 29.1326 46.6859 28.9501C47.1196 28.7677 47.5136 28.5003 47.8455 28.1632C48.1774 27.8262 48.4406 27.426 48.6202 26.9856C48.7999 26.5452 48.8923 26.0731 48.8923 25.5964ZM33.8966 28.9464C33.8966 28.3444 33.6611 27.767 33.242 27.3413C32.8228 26.9156 32.2543 26.6764 31.6615 26.6764C31.368 26.6764 31.0774 26.7352 30.8062 26.8492C30.535 26.9633 30.2886 27.1305 30.0811 27.3413C29.8736 27.5521 29.7089 27.8023 29.5966 28.0778C29.4843 28.3532 29.4265 28.6483 29.4265 28.9464C29.4265 29.2445 29.4843 29.5397 29.5966 29.8151C29.7089 30.0905 29.8736 30.3408 30.0811 30.5516C30.2886 30.7624 30.535 30.9296 30.8062 31.0437C31.0774 31.1577 31.368 31.2164 31.6615 31.2164C32.2543 31.2164 32.8228 30.9773 33.242 30.5516C33.6611 30.1259 33.8966 29.5485 33.8966 28.9464ZM20.1809 34.6364C20.1809 34.0344 19.9454 33.457 19.5263 33.0313C19.1071 32.6056 18.5386 32.3664 17.9458 32.3664C17.3531 32.3664 16.7846 32.6056 16.3654 33.0313C15.9462 33.457 15.7108 34.0344 15.7108 34.6364C15.7108 35.2385 15.9462 35.8159 16.3654 36.2416C16.7846 36.6673 17.3531 36.9064 17.9458 36.9064C18.5386 36.9064 19.1071 36.6673 19.5263 36.2416C19.9454 35.8159 20.1809 35.2385 20.1809 34.6364ZM47.5631 34.6464C47.5631 34.347 47.505 34.0505 47.3922 33.7739C47.2794 33.4973 47.114 33.246 46.9056 33.0342C46.6971 32.8225 46.4496 32.6546 46.1772 32.54C45.9049 32.4254 45.613 32.3664 45.3182 32.3664C44.7228 32.3664 44.1518 32.6067 43.7308 33.0342C43.3097 33.4618 43.0732 34.0418 43.0732 34.6464C43.0732 35.2511 43.3097 35.8311 43.7308 36.2586C44.1518 36.6862 44.7228 36.9264 45.3182 36.9264C45.613 36.9264 45.9049 36.8675 46.1772 36.7529C46.4496 36.6383 46.6971 36.4704 46.9056 36.2586C47.114 36.0469 47.2794 35.7956 47.3922 35.519C47.505 35.2423 47.5631 34.9459 47.5631 34.6464ZM35.2258 37.9964C35.2258 37.0364 34.8503 36.1156 34.1819 35.4367C33.5134 34.7578 32.6068 34.3764 31.6615 34.3764C30.7162 34.3764 29.8096 34.7578 29.1412 35.4367C28.4728 36.1156 28.0972 37.0364 28.0972 37.9964C28.0972 38.9565 28.4728 39.8773 29.1412 40.5562C29.8096 41.2351 30.7162 41.6164 31.6615 41.6164C32.6068 41.6164 33.5134 41.2351 34.1819 40.5562C34.8503 39.8773 35.2258 38.9565 35.2258 37.9964ZM21.5397 43.6764C21.5397 42.7137 21.1631 41.7904 20.4928 41.1096C19.8226 40.4289 18.9135 40.0464 17.9655 40.0464C17.0176 40.0464 16.1085 40.4289 15.4382 41.1096C14.7679 41.7904 14.3914 42.7137 14.3914 43.6764C14.3914 44.1531 14.4838 44.6252 14.6634 45.0656C14.8431 45.506 15.1063 45.9062 15.4382 46.2432C15.7701 46.5803 16.1641 46.8477 16.5978 47.0301C17.0314 47.2126 17.4962 47.3064 17.9655 47.3064C18.4349 47.3064 18.8997 47.2126 19.3333 47.0301C19.7669 46.8477 20.161 46.5803 20.4928 46.2432C20.8247 45.9062 21.088 45.506 21.2676 45.0656C21.4472 44.6252 21.5397 44.1531 21.5397 43.6764ZM47.5532 43.6864C47.5532 43.0844 47.3177 42.507 46.8986 42.0813C46.4794 41.6556 45.9109 41.4164 45.3182 41.4164C44.7254 41.4164 44.1569 41.6556 43.7377 42.0813C43.3186 42.507 43.0831 43.0844 43.0831 43.6864C43.0831 43.9845 43.1409 44.2797 43.2532 44.5551C43.3655 44.8305 43.5302 45.0808 43.7377 45.2916C43.9453 45.5024 44.1917 45.6696 44.4628 45.7837C44.734 45.8977 45.0246 45.9564 45.3182 45.9564C45.6117 45.9564 45.9023 45.8977 46.1735 45.7837C46.4447 45.6696 46.691 45.5024 46.8986 45.2916C47.1061 45.0808 47.2708 44.8305 47.3831 44.5551C47.4954 44.2797 47.5532 43.9845 47.5532 43.6864ZM33.8868 47.0464C33.8868 46.4444 33.6513 45.867 33.2321 45.4413C32.813 45.0156 32.2445 44.7764 31.6517 44.7764C31.0589 44.7764 30.4904 45.0156 30.0713 45.4413C29.6521 45.867 29.4166 46.4444 29.4166 47.0464C29.4166 47.6485 29.6521 48.2259 30.0713 48.6516C30.4904 49.0773 31.0589 49.3164 31.6517 49.3164C32.2445 49.3164 32.813 49.0773 33.2321 48.6516C33.6513 48.2259 33.8868 47.6485 33.8868 47.0464Z" fill="white"/>
</svg>
