<svg width="133" height="131" viewBox="0 0 133 131" fill="none" xmlns="http://www.w3.org/2000/svg">
<path d="M89.1008 12.356L23.9373 28.3461L0.766113 77.1929L18.5 118.644L112.5 118L132.234 58.7108L89.1008 12.356Z" fill="#BBBBBB" fill-opacity="0.12" stroke="#EC544A" stroke-width="0.20611" stroke-linecap="round" stroke-dasharray="2.47 2.47"/>
<path d="M79.8596 62.9268C78.8456 62.9268 77.887 63.0543 77.0348 63.2809C76.5985 63.397 76.2935 63.7931 76.2935 64.2488V70.8888V71.7419C76.2935 72.3791 76.8746 72.8484 77.4914 72.7156C78.224 72.5578 79.0231 72.4711 79.8596 72.4711C81.1795 72.4711 82.4086 72.6871 83.4284 73.057V70.8886V63.5125C82.4086 63.1428 81.1795 62.9268 79.8596 62.9268Z" fill="#953539"/>
<path d="M86.9973 62.9268C85.6773 62.9268 84.4482 63.1428 83.4285 63.5127V70.8888V73.0572C84.4482 72.6873 85.6773 72.4713 86.9973 72.4713C87.8337 72.4713 88.6327 72.558 89.3654 72.7158C89.9822 72.8486 90.5634 72.3793 90.5634 71.7421V70.889V64.249C90.5634 63.7933 90.2583 63.3972 89.822 63.2811C88.97 63.0543 88.0112 62.9268 86.9973 62.9268Z" fill="#693032"/>
<path d="M5.79004 114.578L5.79328 118.019C5.79328 118.065 5.81596 118.088 5.86131 118.088L46.4462 118.086" stroke="#ACB5CD" stroke-width="0.562264"/>
<path d="M46.4458 118.086L119.954 118.085C119.994 118.085 120.014 118.064 120.014 118.024L120.02 110.629" stroke="#BDC4D9" stroke-width="0.562264"/>
<path d="M120.02 110.629L120.022 109.45" stroke="#ACB5CD" stroke-width="0.562264"/>
<path d="M120.022 109.45C120.039 109.382 120.078 109.348 120.139 109.348C120.68 109.354 121.216 109.358 121.746 109.36C121.756 109.361 121.766 109.359 121.775 109.355C121.784 109.351 121.793 109.345 121.8 109.338C121.807 109.331 121.813 109.322 121.817 109.313C121.821 109.303 121.823 109.293 121.823 109.283L121.812 107.181C121.812 107.156 121.802 107.132 121.785 107.115C121.767 107.097 121.744 107.087 121.72 107.087L120.771 107.075" stroke="#CED3E1" stroke-width="0.562264"/>
<path d="M120.301 107.087L105.543 107.075" stroke="#AFC1E0" stroke-width="0.562264"/>
<path d="M105.543 107.075C105.507 106.948 105.508 106.847 105.544 106.774C109.351 99.1554 113.157 91.5374 116.964 83.9197C117.061 83.7245 117.177 83.6099 117.339 83.4801C117.353 83.4686 117.364 83.4531 117.371 83.4354C117.377 83.4178 117.378 83.3987 117.374 83.3805C117.369 83.3623 117.36 83.3456 117.347 83.3325C117.334 83.3195 117.317 83.3105 117.299 83.3066L116.973 83.2368" stroke="#E0EDFF" stroke-width="0.562264"/>
<path d="M116.973 83.2368C116.82 83.2215 116.739 83.1662 116.729 83.0709C116.725 83.0339 116.709 83.0037 116.681 82.9804C116.469 82.8008 116.223 82.7073 115.94 82.7C114.691 82.6651 113.284 82.7458 112.196 82.7371C109.175 82.7142 105.986 82.5331 102.874 82.6368C102.026 82.6651 101.252 82.6378 100.553 82.5549" stroke="#CEDDF4" stroke-width="0.562264"/>
<path d="M27.4932 107.095C25.4328 107.095 23.3649 107.095 21.2893 107.093C20.8048 107.093 20.37 107.073 19.9849 107.036" stroke="#9EB2D8" stroke-width="0.562264"/>
<path d="M14.773 107.052L8.55078 107.089" stroke="#9EB2D8" stroke-width="0.562264"/>
<path d="M50.6777 59.2754C51.6615 60.1961 52.5956 60.7383 53.805 61.3504C53.8677 61.3816 53.9472 61.43 54.0437 61.4954C54.1222 61.5485 54.2032 61.5958 54.2867 61.6373" stroke="#ECBEBB" stroke-width="0.562264"/>
<path d="M54.2871 61.6373C54.3656 61.857 54.4901 62.0457 54.6607 62.2035C55.1359 62.6442 56.5851 63.3381 57.0203 62.5144C57.3043 61.9755 56.9501 61.2838 56.5116 60.9347C55.8644 60.4205 55.1978 60.3711 54.5117 60.7864" stroke="#906C83" stroke-width="0.562264"/>
<path d="M54.5115 60.7863C53.6606 60.4249 52.8838 59.943 52.1811 59.3408C51.746 58.9677 51.3756 58.4779 51.0073 58.011" stroke="#ECBEBB" stroke-width="0.562264"/>
<path d="M51.0073 58.0111C51.1261 57.9238 51.2521 57.8362 51.3853 57.7482C53.3679 56.4369 53.5029 53.6866 52.4425 51.7437" stroke="#FFCEC6" stroke-width="0.562264"/>
<path d="M8.55102 107.089L3.88058 107.093C3.8654 107.093 3.85084 107.1 3.84011 107.111C3.82938 107.122 3.82334 107.137 3.82334 107.152L3.82227 109.31C3.82227 109.324 3.82761 109.337 3.83713 109.347C3.84665 109.356 3.85956 109.362 3.87302 109.362C4.48279 109.36 5.09256 109.358 5.70232 109.354C5.73328 109.353 5.75596 109.359 5.77035 109.37C5.79195 109.387 5.80239 109.411 5.80167 109.442" stroke="#ACBBD9" stroke-width="0.562264"/>
<path d="M5.80176 109.442L5.80394 110.62" stroke="#909FC0" stroke-width="0.562264"/>
<path d="M5.80421 110.62L5.79004 114.578" stroke="#9BACCD" stroke-width="0.562264"/>
<path d="M116.972 83.2368L82.491 83.2685C82.447 83.2684 82.4038 83.2812 82.3668 83.3054C82.3298 83.3296 82.3006 83.3642 82.2826 83.4048L71.6621 107.05C71.657 107.06 71.6599 107.067 71.6707 107.069C71.6923 107.075 71.7009 107.084 71.6966 107.095" stroke="#EDEFF4" stroke-width="0.562264"/>
<path d="M71.6968 107.094L48.229 107.098" stroke="#BBC2D6" stroke-width="0.562264"/>
<path d="M48.2291 107.098L48.2269 105.264C48.2269 105.226 48.2086 105.207 48.1718 105.205L47.2842 105.172" stroke="#7E8CB2" stroke-width="0.562264"/>
<path d="M47.2842 105.172C47.3029 105.14 47.2792 105.112 47.2129 105.088C47.1762 105.075 47.1751 105.06 47.2097 105.043C47.2781 105.007 47.3598 104.987 47.4548 104.981" stroke="#BBC2D6" stroke-width="0.562264"/>
<path d="M53.1715 105.031C53.1456 105.079 53.142 105.12 53.1607 105.156C53.178 105.188 53.2046 105.204 53.2406 105.204C55.756 105.227 58.271 105.238 60.7857 105.237C60.9966 105.237 61.2072 105.243 61.4174 105.256C61.4419 105.258 61.461 105.254 61.4746 105.244C61.4941 105.23 61.5041 105.212 61.5049 105.19" stroke="#EDEFF4" stroke-width="0.562264"/>
<path d="M61.5045 105.19C61.4966 105.205 61.4981 105.217 61.5089 105.226C61.5153 105.231 61.5254 105.234 61.5391 105.234C62.8904 105.242 64.2737 105.233 65.689 105.209" stroke="#7E8CB2" stroke-width="0.562264"/>
<path d="M65.6895 105.209C65.7175 105.222 65.7982 105.214 65.9314 105.185" stroke="#ECBEBB" stroke-width="0.562264"/>
<path d="M65.9312 105.185C66.0139 105.251 66.1118 105.259 66.2249 105.209" stroke="#7E8CB2" stroke-width="0.562264"/>
<path d="M66.2251 105.209L67.2715 105.207" stroke="#ECBEBB" stroke-width="0.562264"/>
<path d="M67.2715 105.207C67.373 105.246 67.4605 105.247 67.5339 105.212" stroke="#7E8CB2" stroke-width="0.562264"/>
<path d="M67.5337 105.212L68.619 105.221" stroke="#ECBEBB" stroke-width="0.562264"/>
<path d="M68.6191 105.221C68.7185 105.244 68.8139 105.239 68.9053 105.208" stroke="#7E8CB2" stroke-width="0.562264"/>
<path d="M68.9053 105.208L69.4571 105.222" stroke="#ECBEBB" stroke-width="0.562264"/>
<path d="M61.7777 40.2681C58.8253 40.3335 55.9388 42.2307 53.8784 44.2271C52.1874 45.8678 51.1302 47.9537 50.6831 50.2883" stroke="#7E8CB2" stroke-width="0.562264"/>
<path d="M50.6833 50.2883C49.8561 50.049 48.9912 50.0719 48.0884 50.357" stroke="#EDEFF4" stroke-width="0.562264"/>
<path d="M100.553 82.5549L80.8967 82.5505C80.8371 82.5506 80.7787 82.568 80.7286 82.6007C80.6784 82.6334 80.6386 82.68 80.6138 82.7349L73.6216 98.2524" stroke="#C0D4F4" stroke-width="0.562264"/>
<path d="M120.771 107.075L120.301 107.087" stroke="#BDC9E1" stroke-width="0.562264"/>
<path d="M105.543 107.075L71.6968 107.095" stroke="#CED3E1" stroke-width="0.562264"/>
<path d="M120.022 109.451C120.005 109.387 119.94 109.355 119.827 109.355C95.9731 109.357 72.113 109.357 48.2471 109.355" stroke="#7B89AF" stroke-width="0.562264"/>
<path d="M48.2227 107.094L48.2477 109.355" stroke="#8B98BA" stroke-width="0.562264"/>
<path d="M48.2473 109.355L46.4785 109.352" stroke="#6A7AA7" stroke-width="0.562264"/>
<path d="M46.4784 109.352C32.9598 109.342 19.4384 109.339 5.91406 109.345C5.88167 109.345 5.85791 109.353 5.84279 109.368C5.8248 109.387 5.81112 109.412 5.80176 109.443" stroke="#5E6E9A" stroke-width="0.562264"/>
<path d="M19.9849 107.036L14.7734 107.052" stroke="#BDC4D9" stroke-width="0.562264"/>
<path d="M34.0752 102.392C34.0883 102.548 34.109 102.637 34.1373 102.659" stroke="#5C95E0" stroke-width="0.562264"/>
<path d="M34.137 102.659L34.0498 107.092" stroke="#1F5FBC" stroke-width="0.562264"/>
<path d="M34.0506 107.092L27.4937 107.094" stroke="#4B86D8" stroke-width="0.562264"/>
<path d="M65.1406 48.0039C62.7541 48.2635 60.6008 47.4628 58.3525 46.8399C57.1337 46.5017 55.8955 46.3708 54.6378 46.4471C54.6097 46.4486 54.5956 46.4635 54.5956 46.4919C54.5791 48.5355 53.8613 50.2861 52.4424 51.7436" stroke="#906C83" stroke-width="0.562264"/>
<path d="M52.4422 51.7436C51.9628 51.0662 51.4811 50.5731 50.6831 50.2883" stroke="#919DBD" stroke-width="0.562264"/>
<path d="M61.4356 100.986C60.3968 100.973 59.3612 101.02 58.3288 101.129C57.8667 101.178 57.52 100.834 57.0935 100.807C56.9804 100.801 56.9275 100.765 56.9347 100.699" stroke="#FFCEC6" stroke-width="0.562264"/>
<path d="M56.9347 100.699L57.0912 100.612C57.1 100.607 57.1073 100.6 57.112 100.591C57.1168 100.583 57.1189 100.572 57.1181 100.562C57.1173 100.552 57.1136 100.542 57.1075 100.534C57.1014 100.526 57.0931 100.52 57.0837 100.516L53.1313 99.0859" stroke="#919DBD" stroke-width="0.562264"/>
<path d="M53.133 99.086C53.0748 99.0111 53.0399 98.9355 53.0283 98.8591" stroke="#BDC4D9" stroke-width="0.562264"/>
<path d="M53.028 98.8589C53.0395 98.7927 53.0427 98.7215 53.0377 98.6451C52.7018 93.3355 52.3066 88.1503 51.663 82.7447C51.221 79.0369 50.388 75.4572 49.1642 72.0055C48.4234 69.9182 47.6574 68.0261 46.8662 66.3293" stroke="#919DBD" stroke-width="0.562264"/>
<path d="M54.5118 60.7864C54.3117 61.0475 54.2368 61.3311 54.2872 61.6373" stroke="#7E8CB2" stroke-width="0.562264"/>
<path d="M46.4782 109.352L46.4533 110.482C46.4525 110.511 46.4405 110.539 46.42 110.559C46.3994 110.579 46.3719 110.591 46.3432 110.591L5.80371 110.62" stroke="#4E5F8E" stroke-width="0.562264"/>
<path d="M120.02 110.629L46.5247 110.617C46.5023 110.617 46.4809 110.626 46.4651 110.642C46.4493 110.658 46.4404 110.68 46.4404 110.702L46.4458 118.086" stroke="#6A7AA7" stroke-width="0.562264"/>
<path d="M61.4727 104.482L61.5054 105.19" stroke="#919DBD" stroke-width="0.562264"/>
<path d="M53.0276 98.859L40.8909 94.6872C40.8722 94.6808 40.8563 94.6681 40.8459 94.6512C40.8355 94.6343 40.8311 94.6142 40.8337 94.5945C41.4226 89.1776 42.0021 83.7546 42.5723 78.3253C42.6119 77.9457 42.6472 77.5559 42.6781 77.1558C42.6802 77.1286 42.6717 77.1016 42.6544 77.0805C42.6371 77.0593 42.6123 77.0457 42.5852 77.0424L42.5464 77.038C42.4607 77.0286 42.4135 77.0671 42.4049 77.1537C41.8142 83.12 41.1738 88.711 40.5216 94.4788C40.5208 94.4857 40.5185 94.4924 40.5149 94.4983C40.5113 94.5042 40.5064 94.5092 40.5006 94.513C40.4948 94.5167 40.4883 94.5191 40.4814 94.52C40.4746 94.5209 40.4677 94.5203 40.4611 94.5181C39.4849 94.1792 38.5242 93.8039 37.579 93.3923C37.4587 93.3399 37.3788 93.3595 37.3392 93.4512C37.3223 93.4903 37.3212 93.5346 37.3361 93.5747C37.351 93.6147 37.3808 93.6475 37.4191 93.6661C37.5847 93.7468 37.7453 93.8177 37.9008 93.8788C42.785 95.7978 47.801 97.42 52.7674 99.111C52.8825 99.1502 53.0038 99.1419 53.1313 99.0859" stroke="#4E6296" stroke-width="0.562264"/>
<path d="M56.9347 100.699C55.7976 101.497 55.2156 102.995 54.9629 104.329" stroke="#906C83" stroke-width="0.562264"/>
<path d="M54.9629 104.329L54.8959 104.887C54.8916 104.922 54.8718 104.941 54.8365 104.943L53.1714 105.032" stroke="#919DBD" stroke-width="0.562264"/>
<path d="M53.1714 105.032C51.7471 105.223 50.2169 105.152 48.7818 105.105C48.3509 105.091 47.8973 105.024 47.4546 104.981" stroke="#7E8CB2" stroke-width="0.562264"/>
<path d="M47.4548 104.981C44.9545 104.773 42.6011 104.455 40.3946 104.027C38.4048 103.641 36.2983 103.096 34.0752 102.392" stroke="#5F709E" stroke-width="0.562264"/>
<path d="M34.075 102.392C33.5905 102.209 33.1176 101.95 32.6561 101.614C31.2317 100.578 30.194 99.4188 29.8635 97.6078C29.7426 96.9445 29.7782 96.1143 29.8203 95.4271C30.1637 89.7793 30.7955 84.0464 31.9671 78.5088" stroke="#1F5FBC" stroke-width="0.562264"/>
<path d="M48.2303 107.098C48.2277 107.097 48.2252 107.095 48.2227 107.094" stroke="#5F709E" stroke-width="0.562264"/>
<path d="M48.222 107.094L34.0498 107.092" stroke="#4E6296" stroke-width="0.562264"/>
<path d="M47.2842 105.172C43.6457 104.939 40.1063 104.368 36.6658 103.459C35.8984 103.257 35.0553 102.99 34.1367 102.659" stroke="#5F709E" stroke-width="0.562264"/>
<path d="M73.6216 98.2524L70.4954 105.184C70.4886 105.199 70.4776 105.212 70.4638 105.221C70.45 105.23 70.4339 105.235 70.4176 105.234L69.4565 105.222" stroke="#7E8CB2" stroke-width="0.562264"/>
<path d="M69.4565 105.223C69.233 103.762 67.6218 102.403 66.3918 101.735C66.3407 101.707 66.3295 101.672 66.3583 101.63" stroke="#906C83" stroke-width="0.562264"/>
<path d="M66.3589 101.63L66.0392 76.0879C66.0385 76.0174 66.0036 75.9869 65.9345 75.9963L65.8826 76.0029C65.8604 76.0058 65.84 76.0168 65.8253 76.0339C65.8106 76.051 65.8025 76.0729 65.8027 76.0956C65.8503 81.5954 65.9107 87.0937 65.9842 92.5906C66.023 95.5157 66.0641 98.4413 66.1073 101.367C66.1083 101.453 66.1407 101.517 66.171 101.594" stroke="#5F709E" stroke-width="0.562264"/>
<path d="M66.1708 101.594C66.1434 101.618 66.0988 101.62 66.0369 101.601C64.5942 101.133 62.9852 100.966 61.4355 100.986" stroke="#906C83" stroke-width="0.562264"/>
<path d="M68.9052 105.208C67.9798 103.602 66.2434 102.129 64.3579 101.857C64.3474 101.856 64.3368 101.856 64.3267 101.859C64.3165 101.862 64.307 101.867 64.2988 101.873C64.2905 101.88 64.2836 101.888 64.2786 101.897C64.2735 101.906 64.2704 101.916 64.2694 101.927L64.2672 101.954C64.26 102.021 64.2888 102.062 64.3536 102.077C66.1886 102.514 67.6105 103.562 68.6191 105.221" stroke="#906C83" stroke-width="0.562264"/>
<path d="M67.5339 105.211C66.6764 103.526 65.0761 103.043 63.4509 102.533C63.4394 102.53 63.4273 102.529 63.4154 102.53C63.4034 102.531 63.3919 102.535 63.3813 102.54C63.3708 102.546 63.3615 102.554 63.3539 102.563C63.3464 102.573 63.3408 102.584 63.3375 102.595L63.3299 102.623C63.3212 102.653 63.3246 102.685 63.3394 102.712C63.3541 102.74 63.379 102.761 63.4087 102.77C64.9303 103.254 66.3741 103.725 67.2714 105.207" stroke="#906C83" stroke-width="0.562264"/>
<path d="M66.2247 105.209C65.7247 104.134 63.6286 103.511 62.5747 103.293C62.5529 103.288 62.5304 103.293 62.5119 103.305C62.4933 103.317 62.4802 103.335 62.4753 103.357L62.4645 103.402C62.4487 103.469 62.4739 103.51 62.5401 103.525C63.5693 103.762 65.2981 104.267 65.9309 105.185" stroke="#906C83" stroke-width="0.562264"/>
<path d="M65.6896 105.209C64.3109 104.815 62.928 104.556 61.5407 104.43C61.4968 104.427 61.4741 104.444 61.4727 104.482" stroke="#906C83" stroke-width="0.562264"/>
<path d="M61.4724 104.482C61.4616 104.46 61.4479 104.442 61.4313 104.427C61.4176 104.415 61.3975 104.407 61.3708 104.404C60.4472 104.302 59.6672 104.259 59.0308 104.275C57.6946 104.309 56.3386 104.327 54.9629 104.329" stroke="#FFCEC6" stroke-width="0.562264"/>
<path d="M66.3588 101.63C66.2774 101.602 66.2148 101.59 66.1709 101.594" stroke="#CDA2A7" stroke-width="0.562264"/>
<path d="M96.4461 32.8748C96.4461 32.661 96.362 32.4559 96.2124 32.3047C96.0627 32.1535 95.8597 32.0686 95.6481 32.0686H79.0763C78.8647 32.0686 78.6617 32.1535 78.5121 32.3047C78.3624 32.4559 78.2783 32.661 78.2783 32.8748V32.9294C78.2783 33.1432 78.3624 33.3482 78.5121 33.4994C78.6617 33.6506 78.8647 33.7356 79.0763 33.7356H95.6481C95.8597 33.7356 96.0627 33.6506 96.2124 33.4994C96.362 33.3482 96.4461 33.1432 96.4461 32.9294V32.8748Z" stroke="#B0D3FF" stroke-width="0.562264"/>
<path d="M108.071 32.8803C108.071 32.665 107.986 32.4585 107.836 32.3063C107.685 32.1541 107.481 32.0686 107.268 32.0686H99.3479C99.1348 32.0686 98.9304 32.1541 98.7797 32.3063C98.6291 32.4585 98.5444 32.665 98.5444 32.8803V32.9239C98.5444 33.1392 98.6291 33.3456 98.7797 33.4978C98.9304 33.65 99.1348 33.7356 99.3479 33.7356H107.268C107.481 33.7356 107.685 33.65 107.836 33.4978C107.986 33.3456 108.071 33.1392 108.071 32.9239V32.8803Z" stroke="#B0D3FF" stroke-width="0.562264"/>
<path d="M107.986 38.0295C107.986 37.8993 107.934 37.7744 107.843 37.6824C107.752 37.5903 107.629 37.5386 107.5 37.5386H78.7643C78.6354 37.5386 78.5118 37.5903 78.4207 37.6824C78.3295 37.7744 78.2783 37.8993 78.2783 38.0295V38.0753C78.2783 38.2055 78.3295 38.3304 78.4207 38.4225C78.5118 38.5145 78.6354 38.5662 78.7643 38.5662H107.5C107.629 38.5662 107.752 38.5145 107.843 38.4225C107.934 38.3304 107.986 38.2055 107.986 38.0753V38.0295Z" stroke="#9FCAFF" stroke-width="0.562264"/>
<path d="M107.988 40.8571C107.988 40.7263 107.936 40.6009 107.845 40.5084C107.753 40.416 107.629 40.364 107.5 40.364H78.7664C78.637 40.364 78.5128 40.416 78.4213 40.5084C78.3297 40.6009 78.2783 40.7263 78.2783 40.8571V40.9029C78.2783 41.0337 78.3297 41.1591 78.4213 41.2516C78.5128 41.3441 78.637 41.396 78.7664 41.396H107.5C107.629 41.396 107.753 41.3441 107.845 41.2516C107.936 41.1591 107.988 41.0337 107.988 40.9029V40.8571Z" stroke="#9FCAFF" stroke-width="0.562264"/>
<path d="M101.716 43.8571C101.716 43.7301 101.666 43.6083 101.577 43.5184C101.488 43.4286 101.367 43.3782 101.242 43.3782H78.7587C78.6965 43.3782 78.6348 43.3906 78.5773 43.4146C78.5198 43.4387 78.4675 43.474 78.4235 43.5184C78.3795 43.5629 78.3446 43.6157 78.3208 43.6738C78.2969 43.7319 78.2847 43.7942 78.2847 43.8571V43.9247C78.2847 43.9876 78.2969 44.0499 78.3208 44.108C78.3446 44.1661 78.3795 44.2189 78.4235 44.2634C78.4675 44.3079 78.5198 44.3431 78.5773 44.3672C78.6348 44.3913 78.6965 44.4037 78.7587 44.4037H101.242C101.367 44.4037 101.488 44.3532 101.577 44.2634C101.666 44.1736 101.716 44.0518 101.716 43.9247V43.8571Z" stroke="#9FCAFF" stroke-width="0.562264"/>
<path d="M59.1723 52.2672C58.6172 52.0577 58.0564 52.0421 57.4898 52.2203C57.2587 52.2923 56.8927 52.4897 56.884 52.7723C56.8765 53.0297 57.0514 53.0614 57.2652 53.0287C57.9261 52.925 58.6906 52.877 59.3526 52.9905C59.457 53.0079 59.5373 52.9788 59.5934 52.9032C59.8332 52.5781 59.412 52.3577 59.1723 52.2672Z" stroke="#906C83" stroke-width="0.562264"/>
<path d="M64.7521 53.1204C64.7737 52.372 63.3245 52.5127 62.8947 52.6415C62.5513 52.7429 62.4217 53.2775 62.8515 53.2971C63.2187 53.3135 63.6063 53.2829 63.9659 53.3637C64.2143 53.4182 64.738 53.5797 64.7521 53.1204Z" stroke="#906C83" stroke-width="0.562264"/>
<path d="M62.3515 58.1812C62.0167 58.599 60.75 58.3775 60.2738 58.3012C60.1529 58.2823 60.092 58.327 60.0913 58.4353C60.0911 58.4565 60.0968 58.4773 60.108 58.4951C60.1191 58.5129 60.1351 58.527 60.154 58.5357C60.8051 58.8423 61.7273 58.9514 62.3774 58.5455C62.9271 58.203 62.6128 57.6324 62.1819 57.3902C61.6291 57.0793 61.1852 57.0073 61.2576 56.2338C61.3432 55.3233 61.4307 54.624 61.52 54.136C61.5545 53.9454 61.5776 53.6912 61.5891 53.3734C61.5905 53.3392 61.5765 53.3141 61.547 53.2981C61.4757 53.2589 61.4246 53.2716 61.3936 53.3363C61.2864 53.5603 61.2029 53.872 61.1431 54.2712C61.0985 54.5731 61.043 55.2549 60.9768 56.3167C60.9034 57.4731 62.2511 57.3488 62.3785 58.0764C62.385 58.1157 62.376 58.1506 62.3515 58.1812Z" stroke="#C77E79" stroke-width="0.562264"/>
<path d="M58.2948 55.9628C58.3924 55.9775 58.4931 55.9652 58.591 55.9266C58.6889 55.888 58.7822 55.8239 58.8655 55.7378C58.9488 55.6517 59.0204 55.5455 59.0765 55.4251C59.1325 55.3046 59.1717 55.1724 59.1919 55.036C59.212 54.8995 59.2128 54.7615 59.1941 54.6298C59.1754 54.4981 59.1376 54.3753 59.0828 54.2684C59.0281 54.1615 58.9575 54.0726 58.875 54.0067C58.7925 53.9409 58.6998 53.8994 58.6022 53.8847C58.5046 53.87 58.404 53.8822 58.3061 53.9208C58.2082 53.9594 58.1149 54.0236 58.0316 54.1097C57.9483 54.1957 57.8766 54.302 57.8206 54.4224C57.7646 54.5428 57.7254 54.6751 57.7052 54.8115C57.685 54.9479 57.6842 55.086 57.7029 55.2177C57.7216 55.3494 57.7595 55.4722 57.8142 55.5791C57.869 55.686 57.9396 55.7749 58.022 55.8407C58.1045 55.9066 58.1972 55.948 58.2948 55.9628Z" stroke="#906C83" stroke-width="0.562264"/>
<path d="M63.0526 56.2932C63.1432 56.3093 63.2373 56.3004 63.3295 56.267C63.4217 56.2335 63.5101 56.1762 63.5898 56.0982C63.6695 56.0202 63.7389 55.9231 63.794 55.8125C63.849 55.7019 63.8887 55.5799 63.9108 55.4535C63.9329 55.3271 63.9368 55.1987 63.9225 55.0758C63.9082 54.9528 63.8759 54.8376 63.8274 54.7368C63.779 54.636 63.7152 54.5515 63.64 54.4883C63.5647 54.425 63.4793 54.3841 63.3886 54.3679C63.298 54.3518 63.2039 54.3607 63.1117 54.3942C63.0195 54.4276 62.9311 54.485 62.8514 54.5629C62.7717 54.6409 62.7023 54.738 62.6472 54.8486C62.5922 54.9592 62.5525 55.0812 62.5304 55.2076C62.5083 55.334 62.5043 55.4624 62.5186 55.5854C62.5329 55.7083 62.5653 55.8235 62.6138 55.9243C62.6622 56.0251 62.726 56.1096 62.8012 56.1729C62.8765 56.2362 62.9619 56.277 63.0526 56.2932Z" stroke="#906C83" stroke-width="0.562264"/>
<path d="M60.765 61.9242C60.8935 61.0165 61.3956 60.3139 62.2142 59.9561C62.3884 59.8797 62.3808 59.8328 62.1915 59.8154C61.1894 59.7248 60.1613 59.6583 59.1128 59.8001C58.4962 59.8841 58.4022 60.4329 58.6689 60.9052C59.1074 61.6842 59.7845 62.0438 60.7002 61.9842C60.7376 61.982 60.7592 61.962 60.765 61.9242Z" stroke="#906C83" stroke-width="0.562264"/>
<path d="M26.7363 53.7879C26.7363 53.5166 26.6296 53.2563 26.4396 53.0644C26.2497 52.8725 25.992 52.7646 25.7234 52.7646C25.4547 52.7646 25.1971 52.8725 25.0071 53.0644C24.8172 53.2563 24.7104 53.5166 24.7104 53.7879C24.7104 54.0593 24.8172 54.3196 25.0071 54.5115C25.1971 54.7034 25.4547 54.8112 25.7234 54.8112C25.992 54.8112 26.2497 54.7034 26.4396 54.5115C26.6296 54.3196 26.7363 54.0593 26.7363 53.7879Z" stroke="#919DBD" stroke-width="0.562264"/>
<path d="M30.1606 53.787C30.1606 53.5156 30.0539 53.2553 29.8639 53.0634C29.674 52.8715 29.4163 52.7637 29.1477 52.7637C28.879 52.7637 28.6214 52.8715 28.4314 53.0634C28.2415 53.2553 28.1348 53.5156 28.1348 53.787C28.1348 53.9214 28.161 54.0544 28.2119 54.1786C28.2628 54.3027 28.3374 54.4155 28.4314 54.5106C28.5255 54.6056 28.6372 54.681 28.7601 54.7324C28.8829 54.7838 29.0147 54.8103 29.1477 54.8103C29.2807 54.8103 29.4124 54.7838 29.5353 54.7324C29.6582 54.681 29.7699 54.6056 29.8639 54.5106C29.958 54.4155 30.0326 54.3027 30.0835 54.1786C30.1344 54.0544 30.1606 53.9214 30.1606 53.787Z" stroke="#919DBD" stroke-width="0.562264"/>
<path d="M33.5846 53.7881C33.5846 53.5164 33.4778 53.2558 33.2876 53.0637C33.0975 52.8716 32.8396 52.7637 32.5706 52.7637C32.4375 52.7637 32.3056 52.7902 32.1826 52.8417C32.0596 52.8931 31.9478 52.9686 31.8536 53.0637C31.7595 53.1588 31.6848 53.2718 31.6338 53.396C31.5829 53.5203 31.5566 53.6535 31.5566 53.7881C31.5566 53.9226 31.5829 54.0558 31.6338 54.1801C31.6848 54.3044 31.7595 54.4173 31.8536 54.5124C31.9478 54.6075 32.0596 54.683 32.1826 54.7345C32.3056 54.786 32.4375 54.8125 32.5706 54.8125C32.8396 54.8125 33.0975 54.7045 33.2876 54.5124C33.4778 54.3203 33.5846 54.0597 33.5846 53.7881Z" stroke="#919DBD" stroke-width="0.562264"/>
<path d="M48.7742 56.0714C50.4868 56.0943 51.3583 54.4754 50.9641 52.9219C50.7331 52.0121 49.9275 51.3346 48.975 51.4579C48.9275 51.4637 48.9066 51.4906 48.9124 51.5386L48.9156 51.568C48.9184 51.5923 48.9302 51.6145 48.9487 51.6301C48.9672 51.6458 48.9909 51.6536 49.015 51.6521C51.5808 51.4939 51.4468 55.9373 48.7169 55.8642C48.0258 55.8456 47.5042 55.5238 47.1641 54.9107C46.7789 54.2139 46.8052 53.4757 47.2429 52.6961C47.2476 52.6878 47.2505 52.6787 47.2516 52.6693C47.2526 52.6598 47.2518 52.6503 47.249 52.6412C47.2463 52.6321 47.2418 52.6237 47.2357 52.6164C47.2296 52.6092 47.2222 52.6032 47.2138 52.599L47.1792 52.5815C47.1209 52.5517 47.0752 52.5652 47.042 52.6219C46.1674 54.1143 47.0064 56.0474 48.7742 56.0714Z" stroke="#BDC4D9" stroke-width="0.562264"/>
<path d="M101.791 69.0427L102.526 70.8656C102.538 70.8956 102.562 70.9194 102.591 70.9318C102.621 70.9443 102.654 70.9444 102.684 70.9322L102.833 70.8711C102.9 70.8436 102.961 70.8032 103.012 70.7523C103.064 70.7014 103.105 70.6409 103.133 70.5744C103.161 70.5078 103.176 70.4365 103.177 70.3644C103.178 70.2923 103.164 70.221 103.137 70.1543L102.719 69.119C102.665 68.9846 102.559 68.8779 102.425 68.8222C102.292 68.7666 102.141 68.7666 102.006 68.8223L101.857 68.8834C101.827 68.8957 101.803 68.9194 101.791 68.9493C101.779 68.9791 101.779 69.0127 101.791 69.0427Z" stroke="#4171BD" stroke-width="0.562264"/>
<path d="M103.268 74.0032C102.556 73.2366 102.185 72.3213 102.152 71.2573C102.15 71.1831 102.181 71.1471 102.222 71.0926C102.246 71.0613 102.251 71.0275 102.235 70.9911L101.49 69.1889C101.487 69.1815 101.483 69.1749 101.477 69.1697C101.471 69.1645 101.464 69.1609 101.456 69.159C101.449 69.1572 101.441 69.1573 101.433 69.1592C101.425 69.1612 101.418 69.165 101.413 69.1703C99.9687 70.4456 101.146 73.2166 101.996 74.577C102.46 75.321 103.303 76.0738 104.241 76.0269C104.25 76.0264 104.259 76.0236 104.267 76.0188C104.275 76.014 104.282 76.0073 104.287 75.9993C104.292 75.9913 104.295 75.9822 104.296 75.9727C104.297 75.9633 104.295 75.9538 104.291 75.945L103.517 74.1014C103.504 74.0672 103.478 74.0494 103.442 74.0479L103.356 74.0446C103.322 74.0425 103.292 74.0286 103.268 74.0032Z" stroke="#4171BD" stroke-width="0.562264"/>
<path d="M109.615 69.7102C109.615 69.7235 109.61 69.7363 109.6 69.7457C109.591 69.7551 109.578 69.7604 109.565 69.7604H105.841C105.828 69.7604 105.815 69.7657 105.806 69.7751C105.796 69.7845 105.791 69.7972 105.791 69.8106L105.79 70.7793C105.79 70.7926 105.795 70.8054 105.805 70.8148C105.814 70.8242 105.827 70.8295 105.84 70.8295L109.579 70.8273C109.586 70.8273 109.593 70.8287 109.599 70.8314C109.605 70.8341 109.611 70.8381 109.616 70.8431C109.62 70.8482 109.624 70.8541 109.626 70.8606C109.628 70.867 109.629 70.8739 109.629 70.8808L109.603 71.3182C109.603 71.3272 109.605 71.3362 109.609 71.3442C109.613 71.3521 109.619 71.3588 109.627 71.3635C109.634 71.3682 109.643 71.3707 109.652 71.3708C109.661 71.3709 109.67 71.3686 109.678 71.364L111.44 70.3407C111.448 70.3364 111.454 70.33 111.458 70.3224C111.463 70.3147 111.465 70.306 111.465 70.2971C111.465 70.2882 111.463 70.2795 111.458 70.2719C111.454 70.2642 111.448 70.2579 111.44 70.2535L109.693 69.2389C109.685 69.2345 109.677 69.2322 109.668 69.2322C109.659 69.2322 109.651 69.2345 109.643 69.2389C109.635 69.2434 109.629 69.2497 109.625 69.2574C109.62 69.265 109.618 69.2737 109.618 69.2825L109.615 69.7102Z" stroke="#4171BD" stroke-width="0.562264"/>
<path d="M107.715 73.0365C107.71 73.0366 107.705 73.0356 107.7 73.0336C107.696 73.0317 107.692 73.0288 107.689 73.0252C107.685 73.0217 107.683 73.0174 107.681 73.0128C107.679 73.0082 107.679 73.0033 107.679 72.9984L107.709 72.5031C107.709 72.4967 107.708 72.4904 107.705 72.4848C107.702 72.4792 107.698 72.4745 107.692 72.4711C107.687 72.4678 107.681 72.466 107.674 72.4658C107.668 72.4657 107.662 72.4673 107.656 72.4703L105.844 73.5264C105.839 73.5295 105.834 73.534 105.831 73.5396C105.827 73.5452 105.826 73.5515 105.826 73.558C105.826 73.5645 105.827 73.5709 105.831 73.5764C105.834 73.582 105.839 73.5866 105.844 73.5897L107.647 74.6359C107.652 74.6393 107.659 74.6411 107.665 74.6411C107.672 74.6411 107.678 74.6392 107.684 74.6357C107.689 74.6322 107.694 74.6272 107.697 74.6212C107.7 74.6153 107.701 74.6087 107.701 74.602L107.675 74.1155C107.674 74.1106 107.675 74.1057 107.677 74.101C107.678 74.0964 107.681 74.0922 107.684 74.0886C107.688 74.085 107.692 74.0822 107.696 74.0802C107.701 74.0783 107.705 74.0773 107.71 74.0773L111.461 74.0817C111.47 74.0817 111.479 74.0779 111.486 74.0711C111.493 74.0644 111.496 74.0552 111.496 74.0457V73.0715C111.496 73.0619 111.493 73.0528 111.486 73.046C111.479 73.0393 111.47 73.0355 111.461 73.0355L107.715 73.0365Z" stroke="#B0D3FF" stroke-width="0.562264"/>
<path d="M103.829 73.9758L104.576 75.8074C104.588 75.8343 104.609 75.8556 104.636 75.8667C104.662 75.8777 104.692 75.8776 104.719 75.8664L104.793 75.8358C104.861 75.8079 104.922 75.767 104.973 75.7154C105.025 75.6638 105.066 75.6025 105.094 75.535C105.122 75.4675 105.137 75.3952 105.137 75.3221C105.137 75.2491 105.123 75.1767 105.096 75.1092L104.684 74.1012C104.657 74.0337 104.616 73.9723 104.565 73.9206C104.514 73.8689 104.453 73.8278 104.386 73.7999C104.319 73.7719 104.247 73.7575 104.175 73.7576C104.102 73.7576 104.03 73.7721 103.963 73.8001L103.888 73.8318C103.875 73.8373 103.863 73.8454 103.853 73.8556C103.843 73.8658 103.835 73.8779 103.829 73.8913C103.824 73.9047 103.821 73.919 103.821 73.9335C103.821 73.948 103.824 73.9624 103.829 73.9758Z" stroke="#4171BD" stroke-width="0.562264"/>
<path d="M99.4253 95.9903C99.3766 95.4277 98.8999 94.9261 98.1 94.5959C97.3001 94.2658 96.2426 94.134 95.1602 94.2297C94.0777 94.3254 93.0589 94.6406 92.328 95.1061C91.597 95.5716 91.2137 96.1492 91.2624 96.7118C91.3112 97.2745 91.7879 97.776 92.5878 98.1062C93.3876 98.4364 94.4451 98.5682 95.5276 98.4725C96.6101 98.3768 97.6288 98.0616 98.3598 97.5961C99.0908 97.1306 99.474 96.553 99.4253 95.9903Z" stroke="#EDEFF4" stroke-width="0.562264"/>
<path d="M102.411 26.1142C102.57 26.0953 102.734 26.0866 102.902 26.088C105.058 26.1099 107.214 26.1208 109.37 26.1208C110.07 26.1215 110.593 26.172 110.94 26.2724C112.29 26.6619 113.359 27.8226 113.645 29.2245C113.702 29.5016 113.73 29.9645 113.728 30.6133C113.725 33.2737 113.727 35.9334 113.734 38.5924C113.729 40.8521 113.727 43.111 113.727 45.3693C113.728 46.1322 113.677 46.698 113.575 47.0668C113.225 48.3366 112.274 49.3414 111.011 49.7548C110.68 49.8632 110.379 49.917 110.109 49.9163C108.217 49.9083 106.316 49.9079 104.406 49.9152C98.1376 49.9181 91.8603 49.921 85.574 49.9239C85.4783 49.9239 85.4081 49.9581 85.3634 50.0265C83.6817 52.6338 81.4741 54.6339 78.7406 56.0266C78.5844 56.1059 78.4209 56.1776 78.2503 56.2416C78.2419 56.2446 78.2328 56.2449 78.2241 56.2426C78.2155 56.2402 78.2078 56.2353 78.2021 56.2285C78.1964 56.2216 78.193 56.2132 78.1924 56.2045C78.1917 56.1957 78.1939 56.1869 78.1985 56.1794C78.2381 56.1103 78.2899 56.0012 78.354 55.8521C79.1175 54.076 79.5624 51.9836 79.5095 50.0112C79.508 49.9479 79.4756 49.9163 79.4123 49.9163C78.5289 49.9214 77.6517 49.9203 76.7806 49.913C76.2212 49.9087 75.8019 49.8712 75.5226 49.8007C74.2289 49.4734 73.1663 48.4043 72.8002 47.1355C72.6908 46.7573 72.6357 46.146 72.635 45.3016C72.6343 44.3976 72.6353 43.4965 72.6382 42.5983C72.6368 38.6375 72.6357 34.6795 72.635 30.7245C72.635 29.8801 72.6886 29.2739 72.7959 28.9059C73.0349 28.0899 73.5147 27.4121 74.2354 26.8724C75.2947 26.0793 76.2385 26.1164 77.4426 26.1153C85.7641 26.1059 94.087 26.1055 102.411 26.1142ZM96.4462 32.8748C96.4462 32.6609 96.3621 32.4559 96.2124 32.3047C96.0628 32.1535 95.8598 32.0686 95.6481 32.0686H79.0764C78.8648 32.0686 78.6618 32.1535 78.5121 32.3047C78.3625 32.4559 78.2784 32.6609 78.2784 32.8748V32.9293C78.2784 33.1431 78.3625 33.3482 78.5121 33.4994C78.6618 33.6506 78.8648 33.7355 79.0764 33.7355H95.6481C95.8598 33.7355 96.0628 33.6506 96.2124 33.4994C96.3621 33.3482 96.4462 33.1431 96.4462 32.9293V32.8748ZM108.071 32.8802C108.071 32.665 107.986 32.4585 107.836 32.3063C107.685 32.1541 107.481 32.0686 107.268 32.0686H99.3478C99.1347 32.0686 98.9303 32.1541 98.7797 32.3063C98.629 32.4585 98.5444 32.665 98.5444 32.8802V32.9239C98.5444 33.1391 98.629 33.3456 98.7797 33.4978C98.9303 33.65 99.1347 33.7355 99.3478 33.7355H107.268C107.481 33.7355 107.685 33.65 107.836 33.4978C107.986 33.3456 108.071 33.1391 108.071 32.9239V32.8802ZM107.986 38.0294C107.986 37.8992 107.934 37.7744 107.843 37.6823C107.752 37.5902 107.629 37.5385 107.5 37.5385H78.7643C78.6355 37.5385 78.5119 37.5902 78.4207 37.6823C78.3296 37.7744 78.2784 37.8992 78.2784 38.0294V38.0753C78.2784 38.2055 78.3296 38.3303 78.4207 38.4224C78.5119 38.5145 78.6355 38.5662 78.7643 38.5662H107.5C107.629 38.5662 107.752 38.5145 107.843 38.4224C107.934 38.3303 107.986 38.2055 107.986 38.0753V38.0294ZM107.988 40.8572C107.988 40.7264 107.936 40.601 107.845 40.5085C107.753 40.416 107.629 40.3641 107.5 40.3641H78.7665C78.637 40.3641 78.5129 40.416 78.4214 40.5085C78.3298 40.601 78.2784 40.7264 78.2784 40.8572V40.903C78.2784 41.0338 78.3298 41.1592 78.4214 41.2517C78.5129 41.3441 78.637 41.3961 78.7665 41.3961H107.5C107.629 41.3961 107.753 41.3441 107.845 41.2517C107.936 41.1592 107.988 41.0338 107.988 40.903V40.8572ZM101.716 43.8572C101.716 43.7302 101.666 43.6084 101.577 43.5186C101.488 43.4288 101.368 43.3783 101.242 43.3783H78.7589C78.6967 43.3783 78.635 43.3907 78.5775 43.4148C78.52 43.4388 78.4677 43.4741 78.4237 43.5186C78.3797 43.5631 78.3448 43.6159 78.321 43.674C78.2971 43.7321 78.2849 43.7943 78.2849 43.8572V43.9249C78.2849 43.9878 78.2971 44.05 78.321 44.1081C78.3448 44.1663 78.3797 44.2191 78.4237 44.2635C78.4677 44.308 78.52 44.3433 78.5775 44.3673C78.635 44.3914 78.6967 44.4038 78.7589 44.4038H101.242C101.368 44.4038 101.488 44.3533 101.577 44.2635C101.666 44.1737 101.716 44.0519 101.716 43.9249V43.8572Z" fill="#EC544A"/>
<path d="M95.6481 32.0686H79.0763C78.6356 32.0686 78.2783 32.4296 78.2783 32.8748V32.9294C78.2783 33.3746 78.6356 33.7356 79.0763 33.7356H95.6481C96.0888 33.7356 96.4461 33.3746 96.4461 32.9294V32.8748C96.4461 32.4296 96.0888 32.0686 95.6481 32.0686Z" fill="white"/>
<path d="M107.268 32.0686H99.3479C98.9041 32.0686 98.5444 32.432 98.5444 32.8803V32.9239C98.5444 33.3722 98.9041 33.7356 99.3479 33.7356H107.268C107.711 33.7356 108.071 33.3722 108.071 32.9239V32.8803C108.071 32.432 107.711 32.0686 107.268 32.0686Z" fill="white"/>
<path d="M107.5 37.5386H78.7643C78.4959 37.5386 78.2783 37.7584 78.2783 38.0295V38.0753C78.2783 38.3464 78.4959 38.5662 78.7643 38.5662H107.5C107.768 38.5662 107.986 38.3464 107.986 38.0753V38.0295C107.986 37.7584 107.768 37.5386 107.5 37.5386Z" fill="white"/>
<path d="M58.1742 38.8901C57.5889 39.0232 56.9885 39.1596 56.4442 39.3592C51.9315 41.0174 49.1065 44.9972 48.1994 49.6358C48.1411 49.9348 48.104 50.1751 48.0882 50.3569L47.2912 50.7682C47.2394 50.3275 47.1847 49.8849 47.1271 49.4406C46.991 48.3816 46.9536 47.3194 47.0148 46.2539C47.2167 42.7346 49.2901 39.6374 52.8213 38.865C54.5124 38.4948 56.2967 38.5032 58.1742 38.8901Z" fill="#953539"/>
<path d="M61.7779 40.268C58.8256 40.3334 55.939 42.2306 53.8787 44.227C52.1876 45.8677 51.1304 47.9536 50.6833 50.2882C49.8561 50.0489 48.9912 50.0719 48.0884 50.357C48.1042 50.1751 48.1413 49.9348 48.1996 49.6358C49.1067 44.9972 51.9316 41.0174 56.4444 39.3592C56.9887 39.1596 57.5891 39.0232 58.1744 38.8901C58.3716 38.8763 58.5739 38.8628 58.7813 38.8497C59.7737 38.7887 61.1861 39.2163 61.8287 40.0389C61.8517 40.068 61.8553 40.0996 61.8395 40.1338L61.7779 40.268Z" fill="#DADEE9"/>
<path d="M65.1404 48.0039C62.7539 48.2635 60.6006 47.4628 58.3524 46.8398C57.1335 46.5016 55.8953 46.3707 54.6376 46.4471C54.6095 46.4486 54.5955 46.4635 54.5955 46.4918C54.5789 48.5355 53.8612 50.2861 52.4422 51.7436C51.9628 51.0661 51.4811 50.573 50.6831 50.2883C51.1302 47.9537 52.1874 45.8678 53.8784 44.227C55.9388 42.2306 58.8253 40.3335 61.7777 40.268L62.0239 40.4295C62.0556 40.4506 62.0894 40.4542 62.1254 40.4404C62.7626 40.2004 63.783 39.9189 64.4202 40.0978C65.3704 40.364 64.8024 41.4397 64.3802 41.8543C64.3724 41.8621 64.3673 41.8724 64.3658 41.8834C64.3643 41.8945 64.3664 41.9057 64.3717 41.9155C64.3771 41.9252 64.3855 41.9329 64.3956 41.9374C64.4057 41.9419 64.417 41.943 64.4277 41.9404C65.4039 41.7084 66.3996 41.6986 67.4146 41.911C69.0323 42.2492 69.7256 43.7994 69.0938 45.294C68.4546 46.806 66.7106 47.7857 65.1404 48.0039Z" fill="#953539"/>
<path d="M107.5 40.364H78.7664C78.4969 40.364 78.2783 40.5848 78.2783 40.8571V40.9029C78.2783 41.1753 78.4969 41.396 78.7664 41.396H107.5C107.769 41.396 107.988 41.1753 107.988 40.9029V40.8571C107.988 40.5848 107.769 40.364 107.5 40.364Z" fill="white"/>
<path d="M101.242 43.3782H78.7587C78.4969 43.3782 78.2847 43.5926 78.2847 43.8571V43.9247C78.2847 44.1892 78.4969 44.4037 78.7587 44.4037H101.242C101.503 44.4037 101.716 44.1892 101.716 43.9247V43.8571C101.716 43.5926 101.503 43.3782 101.242 43.3782Z" fill="white"/>
<path d="M65.1412 48.0039C65.3147 48.4875 65.4184 49.0494 65.4522 49.6894C65.5069 50.7163 65.5278 51.416 65.5149 51.7884C65.4544 53.5153 65.4004 54.9564 65.1056 56.8907C64.814 58.7736 64.4123 60.2126 63.5959 61.7181C62.6122 63.5312 60.8325 64.3298 58.8423 64.272C58.5068 64.2618 58.176 64.2367 57.8499 64.1967C56.3712 63.9807 55.075 63.3799 53.9613 62.3945C53.4149 61.9108 52.9207 61.433 52.4786 60.961C52.3613 60.8351 52.339 60.8504 52.4117 61.0068C53.4865 63.3319 55.2327 64.932 57.6501 65.8069L57.6296 66.1822C57.5353 66.8302 57.4586 67.4786 57.3996 68.1273C57.3489 68.6837 57.5605 69.2314 57.391 69.8717C57.0767 71.0532 55.4062 70.3834 54.6675 70.1336C53.3976 69.7052 52.2115 69.103 51.1094 68.327C50.0921 67.6106 49.2228 66.732 48.5015 65.6913C49.0277 65.5269 49.3963 65.2738 49.6073 64.932C49.942 64.392 50.0262 63.7505 50.1342 63.0861C50.3013 62.0599 50.446 61.03 50.5683 59.9966C50.5932 59.786 50.6547 59.5242 50.6785 59.2755C51.6623 60.1962 52.5963 60.7384 53.8058 61.3504C53.8684 61.3817 53.948 61.4301 54.0445 61.4955C54.1229 61.5486 54.2039 61.5959 54.2874 61.6373C54.3659 61.857 54.4904 62.0457 54.6611 62.2035C55.1362 62.6443 56.5854 63.3381 57.0206 62.5145C57.3046 61.9755 56.9504 61.2839 56.512 60.9348C55.8648 60.4206 55.1981 60.3711 54.512 60.7864C53.6611 60.4249 52.8843 59.9431 52.1817 59.3409C51.7465 58.9678 51.3761 58.478 51.0079 58.0111C51.1266 57.9238 51.2526 57.8361 51.3858 57.7481C53.3685 56.4368 53.5034 53.6866 52.443 51.7436C53.862 50.2861 54.5797 48.5355 54.5963 46.4919C54.5963 46.4635 54.6103 46.4486 54.6384 46.4471C55.8961 46.3708 57.1343 46.5017 58.3531 46.8399C60.6014 47.4628 62.7547 48.2635 65.1412 48.0039ZM59.1728 52.2673C58.6177 52.0578 58.0569 52.0422 57.4903 52.2204C57.2592 52.2924 56.8932 52.4898 56.8845 52.7724C56.877 53.0298 57.0519 53.0615 57.2657 53.0288C57.9266 52.9251 58.6911 52.8771 59.3531 52.9906C59.4575 53.008 59.5378 52.9789 59.5939 52.9033C59.8336 52.5782 59.4125 52.3578 59.1728 52.2673ZM64.7525 53.1204C64.7741 52.372 63.3249 52.5127 62.8951 52.6415C62.5517 52.7429 62.4221 53.2775 62.8519 53.2971C63.219 53.3135 63.6067 53.2829 63.9663 53.3637C64.2147 53.4182 64.7384 53.5797 64.7525 53.1204ZM62.3519 58.1813C62.0171 58.5991 60.7505 58.3776 60.2742 58.3013C60.1533 58.2823 60.0925 58.3271 60.0917 58.4354C60.0915 58.4566 60.0973 58.4774 60.1084 58.4952C60.1195 58.513 60.1355 58.5271 60.1544 58.5358C60.8055 58.8424 61.7277 58.9515 62.3778 58.5456C62.9275 58.2031 62.6132 57.6325 62.1824 57.3903C61.6295 57.0794 61.1856 57.0074 61.258 56.2339C61.3437 55.3234 61.4311 54.6241 61.5204 54.1361C61.555 53.9455 61.578 53.6913 61.5895 53.3735C61.591 53.3393 61.5769 53.3142 61.5474 53.2982C61.4761 53.2589 61.425 53.2717 61.3941 53.3364C61.2868 53.5604 61.2033 53.872 61.1435 54.2713C61.0989 54.5732 61.0435 55.255 60.9772 56.3168C60.9038 57.4732 62.2515 57.3489 62.3789 58.0765C62.3854 58.1158 62.3764 58.1507 62.3519 58.1813ZM58.2955 55.9627C58.3932 55.9775 58.4938 55.9652 58.5917 55.9266C58.6896 55.888 58.7829 55.8238 58.8662 55.7378C58.9495 55.6517 59.0212 55.5454 59.0772 55.425C59.1332 55.3046 59.1724 55.1724 59.1926 55.0359C59.2128 54.8995 59.2135 54.7615 59.1948 54.6298C59.1761 54.4981 59.1383 54.3753 59.0836 54.2684C59.0288 54.1615 58.9582 54.0726 58.8757 54.0067C58.7933 53.9409 58.7006 53.8994 58.603 53.8847C58.5053 53.8699 58.4047 53.8822 58.3068 53.9208C58.2089 53.9594 58.1156 54.0236 58.0323 54.1096C57.949 54.1957 57.8773 54.302 57.8213 54.4224C57.7653 54.5428 57.7261 54.675 57.7059 54.8115C57.6857 54.9479 57.685 55.0859 57.7037 55.2176C57.7224 55.3493 57.7602 55.4722 57.8149 55.5791C57.8697 55.686 57.9403 55.7749 58.0228 55.8407C58.1052 55.9065 58.1979 55.948 58.2955 55.9627ZM63.0532 56.2933C63.1438 56.3094 63.2379 56.3005 63.3301 56.267C63.4223 56.2336 63.5107 56.1762 63.5904 56.0983C63.6701 56.0203 63.7395 55.9232 63.7946 55.8126C63.8496 55.702 63.8893 55.58 63.9114 55.4536C63.9335 55.3272 63.9375 55.1988 63.9232 55.0758C63.9089 54.9529 63.8765 54.8377 63.8281 54.7369C63.7796 54.6361 63.7159 54.5516 63.6406 54.4883C63.5653 54.425 63.4799 54.3841 63.3892 54.368C63.2986 54.3519 63.2045 54.3608 63.1123 54.3942C63.0201 54.4277 62.9317 54.485 62.852 54.563C62.7723 54.641 62.7029 54.738 62.6479 54.8487C62.5928 54.9593 62.5531 55.0813 62.531 55.2077C62.509 55.3341 62.505 55.4625 62.5193 55.5854C62.5336 55.7084 62.5659 55.8236 62.6144 55.9244C62.6629 56.0252 62.7266 56.1096 62.8019 56.1729C62.8771 56.2362 62.9625 56.2771 63.0532 56.2933ZM60.7656 61.9243C60.8941 61.0166 61.3962 60.314 62.2148 59.9562C62.389 59.8798 62.3814 59.8329 62.1921 59.8155C61.19 59.7249 60.1619 59.6584 59.1134 59.8002C58.4968 59.8842 58.4028 60.4329 58.6695 60.9053C59.108 61.6842 59.7851 62.0439 60.7008 61.9843C60.7382 61.9821 60.7598 61.9621 60.7656 61.9243Z" fill="#FAB2A5"/>
<path d="M37.9817 55.6765C37.9839 56.2365 37.9835 56.7863 37.9806 57.326C37.9752 58.3329 37.377 59.0453 36.3533 59.0486C31.6112 59.0631 26.8687 59.07 22.1259 59.0693C21.4003 59.0693 20.6433 58.7573 20.4143 58.0209C20.3611 57.8471 20.3337 57.5271 20.3323 57.0609C20.3272 54.767 20.3247 52.4735 20.3247 50.1803C20.3254 49.7374 20.4482 49.3734 20.6929 49.0883C21.1411 48.5679 21.5979 48.5167 22.3225 48.5167C26.9724 48.5159 31.6223 48.5159 36.2723 48.5167C37.0037 48.5167 37.5123 48.8061 37.7981 49.385C38.1091 50.0167 38.0033 51.1022 37.972 51.8429C37.97 51.8946 37.9837 51.9456 38.0113 51.9893C38.0389 52.033 38.0791 52.0672 38.1264 52.0873L41.9805 53.7292C41.9929 53.7347 42.0026 53.7449 42.0075 53.7575C42.024 53.8019 42.0093 53.8339 41.9632 53.8535C40.6637 54.4099 39.3787 54.9532 38.108 55.4834C38.0704 55.4992 38.0382 55.5261 38.0157 55.5605C37.9932 55.5949 37.9814 55.6353 37.9817 55.6765ZM26.7359 53.7881C26.7359 53.5167 26.6292 53.2564 26.4392 53.0645C26.2493 52.8726 25.9916 52.7648 25.723 52.7648C25.4543 52.7648 25.1967 52.8726 25.0067 53.0645C24.8168 53.2564 24.7101 53.5167 24.7101 53.7881C24.7101 54.0595 24.8168 54.3197 25.0067 54.5116C25.1967 54.7036 25.4543 54.8114 25.723 54.8114C25.9916 54.8114 26.2493 54.7036 26.4392 54.5116C26.6292 54.3197 26.7359 54.0595 26.7359 53.7881ZM30.1602 53.787C30.1602 53.5156 30.0535 53.2553 29.8635 53.0634C29.6735 52.8715 29.4159 52.7637 29.1473 52.7637C28.8786 52.7637 28.621 52.8715 28.431 53.0634C28.2411 53.2553 28.1343 53.5156 28.1343 53.787C28.1343 53.9214 28.1605 54.0544 28.2114 54.1786C28.2624 54.3027 28.337 54.4155 28.431 54.5106C28.5251 54.6056 28.6367 54.681 28.7596 54.7324C28.8825 54.7838 29.0142 54.8103 29.1473 54.8103C29.2803 54.8103 29.412 54.7838 29.5349 54.7324C29.6578 54.681 29.7694 54.6056 29.8635 54.5106C29.9576 54.4155 30.0322 54.3027 30.0831 54.1786C30.134 54.0544 30.1602 53.9214 30.1602 53.787ZM33.5845 53.7881C33.5845 53.5164 33.4776 53.2558 33.2875 53.0637C33.0973 52.8716 32.8394 52.7637 32.5705 52.7637C32.4373 52.7637 32.3054 52.7902 32.1824 52.8417C32.0594 52.8931 31.9476 52.9686 31.8535 53.0637C31.7593 53.1588 31.6846 53.2718 31.6336 53.3961C31.5827 53.5203 31.5565 53.6535 31.5565 53.7881C31.5565 53.9226 31.5827 54.0558 31.6336 54.1801C31.6846 54.3044 31.7593 54.4173 31.8535 54.5124C31.9476 54.6075 32.0594 54.683 32.1824 54.7345C32.3054 54.786 32.4373 54.8125 32.5705 54.8125C32.8394 54.8125 33.0973 54.7045 33.2875 54.5124C33.4776 54.3203 33.5845 54.0598 33.5845 53.7881Z" fill="white"/>
<path d="M50.6832 50.2883C51.4813 50.573 51.9629 51.0661 52.4424 51.7436C53.5028 53.6866 53.3678 56.4368 51.3852 57.7481C51.252 57.8361 51.126 57.9238 51.0072 58.011L49.923 58.3481L49.6304 58.4027C47.4231 58.6045 45.705 57.255 45.5301 54.9968C45.4012 53.3175 45.9883 51.908 47.2914 50.7683L48.0883 50.357C48.9911 50.0719 49.8561 50.049 50.6832 50.2883ZM48.774 56.0714C50.4867 56.0943 51.3582 54.4753 50.964 52.9218C50.7329 52.012 49.9273 51.3345 48.9749 51.4578C48.9274 51.4636 48.9065 51.4905 48.9123 51.5385L48.9155 51.568C48.9182 51.5922 48.93 51.6144 48.9485 51.63C48.967 51.6457 48.9908 51.6535 49.0148 51.652C51.5806 51.4938 51.4467 55.9372 48.7168 55.8641C48.0257 55.8455 47.5041 55.5237 47.1639 54.9106C46.7788 54.2138 46.8051 53.4756 47.2428 52.696C47.2474 52.6877 47.2504 52.6786 47.2514 52.6692C47.2525 52.6597 47.2516 52.6502 47.2489 52.6411C47.2462 52.632 47.2416 52.6236 47.2356 52.6163C47.2295 52.6091 47.222 52.6031 47.2136 52.5989L47.1791 52.5814C47.1207 52.5516 47.075 52.5651 47.0419 52.6218C46.1672 54.1142 47.0063 56.0474 48.774 56.0714Z" fill="white"/>
<path d="M50.9641 52.9219C51.3583 54.4754 50.4868 56.0943 48.7742 56.0714C47.0064 56.0474 46.1674 54.1143 47.042 52.6219C47.0752 52.5652 47.1209 52.5517 47.1792 52.5815L47.2138 52.599C47.2222 52.6032 47.2296 52.6092 47.2357 52.6164C47.2418 52.6237 47.2463 52.6321 47.249 52.6412C47.2518 52.6503 47.2526 52.6598 47.2516 52.6693C47.2505 52.6787 47.2476 52.6878 47.2429 52.6961C46.8052 53.4757 46.7789 54.2139 47.1641 54.9107C47.5042 55.5238 48.0258 55.8456 48.7169 55.8642C51.4468 55.9373 51.5808 51.4939 49.015 51.6521C48.9909 51.6536 48.9672 51.6458 48.9487 51.6301C48.9302 51.6145 48.9184 51.5923 48.9156 51.568L48.9124 51.5386C48.9066 51.4906 48.9275 51.4637 48.975 51.4579C49.9275 51.3346 50.7331 52.0121 50.9641 52.9219Z" fill="#7A89B2"/>
<path d="M59.1718 52.2672C59.4115 52.3577 59.8327 52.5781 59.5929 52.9032C59.5368 52.9788 59.4565 53.0079 59.3521 52.9905C58.6902 52.877 57.9256 52.925 57.2647 53.0287C57.0509 53.0614 56.876 53.0297 56.8835 52.7723C56.8922 52.4897 57.2583 52.2923 57.4893 52.2203C58.0559 52.0421 58.6167 52.0577 59.1718 52.2672Z" fill="#131010"/>
<path d="M62.8947 52.6415C63.3245 52.5127 64.7737 52.372 64.7521 53.1204C64.738 53.5797 64.2143 53.4182 63.9659 53.3637C63.6063 53.2829 63.2187 53.3135 62.8515 53.2971C62.4217 53.2775 62.5513 52.7429 62.8947 52.6415Z" fill="#131010"/>
<path d="M25.7229 54.8112C26.2823 54.8112 26.7358 54.3531 26.7358 53.7879C26.7358 53.2228 26.2823 52.7646 25.7229 52.7646C25.1635 52.7646 24.71 53.2228 24.71 53.7879C24.71 54.3531 25.1635 54.8112 25.7229 54.8112Z" fill="#EC544A"/>
<path d="M29.1477 54.8103C29.7071 54.8103 30.1606 54.3521 30.1606 53.787C30.1606 53.2218 29.7071 52.7637 29.1477 52.7637C28.5883 52.7637 28.1348 53.2218 28.1348 53.787C28.1348 54.3521 28.5883 54.8103 29.1477 54.8103Z" fill="#EC544A"/>
<path d="M32.5706 54.8125C33.1307 54.8125 33.5846 54.3538 33.5846 53.7881C33.5846 53.2223 33.1307 52.7637 32.5706 52.7637C32.0106 52.7637 31.5566 53.2223 31.5566 53.7881C31.5566 54.3538 32.0106 54.8125 32.5706 54.8125Z" fill="#EC544A"/>
<path d="M62.3785 58.0764C62.2511 57.3488 60.9034 57.4731 60.9768 56.3167C61.043 55.2549 61.0985 54.5731 61.1431 54.2712C61.2029 53.872 61.2864 53.5603 61.3936 53.3363C61.4246 53.2716 61.4757 53.2589 61.547 53.2981C61.5765 53.3141 61.5905 53.3392 61.5891 53.3734C61.5776 53.6912 61.5545 53.9454 61.52 54.136C61.4307 54.624 61.3432 55.3233 61.2576 56.2338C61.1852 57.0073 61.6291 57.0793 62.1819 57.3902C62.6128 57.6324 62.9271 58.203 62.3774 58.5455C61.7273 58.9514 60.8051 58.8423 60.154 58.5357C60.1351 58.527 60.1191 58.5129 60.108 58.4951C60.0968 58.4773 60.0911 58.4565 60.0913 58.4353C60.092 58.327 60.1529 58.2823 60.2738 58.3012C60.75 58.3775 62.0167 58.599 62.3515 58.1812C62.376 58.1506 62.385 58.1157 62.3785 58.0764Z" fill="#8F5E65"/>
<path d="M57.7048 54.8114C57.6199 55.3852 57.8839 55.9007 58.2945 55.9627C58.705 56.0246 59.1066 55.6097 59.1915 55.0359C59.2764 54.462 59.0124 53.9466 58.6019 53.8846C58.1913 53.8226 57.7897 54.2376 57.7048 54.8114Z" fill="#191313"/>
<path d="M62.5302 55.2077C62.4374 55.7394 62.6712 56.2254 63.0524 56.2933C63.4336 56.3612 63.8178 55.9852 63.9106 55.4536C64.0034 54.922 63.7696 54.4359 63.3884 54.368C63.0072 54.3001 62.623 54.6761 62.5302 55.2077Z" fill="#131010"/>
<path d="M51.008 58.011C51.3763 58.4779 51.7467 58.9677 52.1818 59.3408C52.8845 59.943 53.6613 60.4249 54.5122 60.7863C54.3121 61.0474 54.2372 61.3311 54.2876 61.6373C54.2041 61.5958 54.1231 61.5485 54.0446 61.4954C53.9482 61.43 53.8686 61.3816 53.806 61.3503C52.5965 60.7383 51.6624 60.1961 50.6787 59.2754L49.9238 58.3481L51.008 58.011Z" fill="#DADEE9"/>
<path d="M62.2142 59.9561C61.3956 60.3139 60.8935 61.0165 60.765 61.9242C60.7592 61.962 60.7376 61.982 60.7002 61.9842C59.7845 62.0438 59.1074 61.6842 58.6689 60.9052C58.4022 60.4329 58.4962 59.8841 59.1128 59.8001C60.1613 59.6583 61.1894 59.7248 62.1915 59.8154C62.3808 59.8328 62.3884 59.8797 62.2142 59.9561Z" fill="#A26C69"/>
<path d="M54.2872 61.6373C54.2368 61.3311 54.3117 61.0475 54.5118 60.7864C55.1979 60.3711 55.8645 60.4205 56.5117 60.9347C56.9501 61.2838 57.3043 61.9755 57.0203 62.5144C56.5851 63.3381 55.136 62.6442 54.6608 62.2035C54.4902 62.0457 54.3656 61.857 54.2872 61.6373Z" fill="#181515"/>
<path d="M57.8496 64.1966L57.6498 65.8068C55.2323 64.9319 53.4862 63.3318 52.4114 61.0067C52.3386 60.8503 52.361 60.835 52.4783 60.9609C52.9203 61.4329 53.4146 61.9107 53.961 62.3944C55.0747 63.3798 56.3709 63.9806 57.8496 64.1966Z" fill="#8F5E65"/>
<path d="M48.5011 65.6912C49.2225 66.7319 50.0918 67.6105 51.109 68.3269C52.2112 69.1029 53.3973 69.7051 54.6672 70.1335C55.4058 70.3833 57.0764 71.0531 57.3906 69.8716C57.5602 69.2313 57.3485 68.6836 57.3993 68.1272C57.4583 67.4785 57.535 66.8301 57.6293 66.1821C57.7265 66.2068 57.8028 66.245 57.8582 66.2966C58.9165 69.396 59.4899 72.5684 59.9176 75.8445C60.6735 81.6367 61.1241 87.4005 61.2695 93.1359C61.3358 95.7352 61.3912 98.352 61.4359 100.986C60.397 100.972 59.3614 101.02 58.3291 101.129C57.8669 101.178 57.5202 100.834 57.0937 100.807C56.9807 100.801 56.9277 100.765 56.9349 100.699L57.0915 100.612C57.1003 100.607 57.1075 100.6 57.1123 100.591C57.1171 100.582 57.1192 100.572 57.1184 100.562C57.1176 100.552 57.1139 100.542 57.1078 100.534C57.1017 100.526 57.0934 100.52 57.084 100.516L53.1316 99.0858C53.074 99.0109 53.0395 98.9353 53.028 98.8589C53.0395 98.7928 53.0427 98.7215 53.0377 98.6451C52.7018 93.3355 52.3066 88.1503 51.663 82.7447C51.221 79.037 50.388 75.4572 49.1642 72.0055C48.4234 69.9182 47.6574 68.0261 46.8662 66.3294L48.5011 65.6912Z" fill="white"/>
<path d="M46.8661 66.3294C47.6573 68.0261 48.4233 69.9182 49.1641 72.0055C50.388 75.4572 51.2209 79.037 51.6629 82.7447C52.3065 88.1503 52.7018 93.3355 53.0376 98.6451C53.0426 98.7215 53.0394 98.7928 53.0279 98.859L40.8912 94.6872C40.8725 94.6808 40.8566 94.6681 40.8462 94.6512C40.8357 94.6343 40.8314 94.6142 40.834 94.5945C41.4229 89.1776 42.0024 83.7546 42.5726 78.3253C42.6122 77.9457 42.6474 77.5559 42.6784 77.1558C42.6805 77.1286 42.672 77.1016 42.6547 77.0805C42.6374 77.0593 42.6126 77.0457 42.5855 77.0424L42.5466 77.038C42.461 77.0286 42.4138 77.0671 42.4052 77.1537C41.8145 83.12 41.1741 88.7111 40.5219 94.4788C40.5211 94.4857 40.5188 94.4924 40.5152 94.4983C40.5115 94.5042 40.5066 94.5092 40.5009 94.513C40.4951 94.5167 40.4885 94.5191 40.4817 94.52C40.4749 94.5209 40.4679 94.5203 40.4614 94.5181C39.4852 94.1792 38.5245 93.8039 37.5792 93.3923C37.459 93.3399 37.3791 93.3595 37.3395 93.4512C37.3226 93.4903 37.3215 93.5346 37.3364 93.5747C37.3513 93.6147 37.3811 93.6475 37.4194 93.6661C37.585 93.7468 37.7455 93.8177 37.901 93.8788C42.7853 95.7978 47.8013 97.42 52.7676 99.111C52.8828 99.1502 53.0041 99.1419 53.1315 99.0859L57.0839 100.516C57.0933 100.52 57.1016 100.526 57.1077 100.534C57.1138 100.542 57.1175 100.552 57.1183 100.562C57.1191 100.572 57.117 100.582 57.1122 100.591C57.1075 100.6 57.1002 100.607 57.0914 100.612L56.9349 100.699C55.7978 101.497 55.2157 102.995 54.963 104.329L54.8961 104.886C54.8917 104.922 54.8719 104.941 54.8367 104.943L53.1715 105.031C51.7472 105.222 50.217 105.151 48.7818 105.105C48.351 105.09 47.8974 105.024 47.4547 104.981C44.9544 104.773 42.601 104.454 40.3945 104.027C38.4046 103.641 36.2981 103.096 34.075 102.391C33.5905 102.209 33.1176 101.95 32.6561 101.614C31.2317 100.578 30.194 99.4186 29.8635 97.6076C29.7426 96.9444 29.7782 96.1142 29.8203 95.4269C30.1637 89.7791 30.7955 84.0462 31.9671 78.5086C32.4045 76.5155 32.9412 74.4372 33.8213 72.6634C34.6506 70.9931 36.792 69.7091 38.4474 68.8854C40.6669 67.7814 42.9973 66.8814 45.4385 66.1854C45.3198 69.4967 45.2251 72.8074 45.1545 76.1173C45.1365 76.95 45.1477 77.7824 45.188 78.6144C45.2312 79.5046 45.8921 80.1417 46.5486 80.7079C47.2232 81.2905 47.896 81.8752 48.5669 82.4622C49.028 82.8658 49.4081 83.2673 49.3099 83.8367C49.1407 84.823 48.9222 85.8942 48.6544 87.0506C48.5831 87.3554 48.5281 87.6328 48.4892 87.883C48.3985 88.4569 48.2181 89.2358 48.3142 89.7005C48.3812 90.0278 48.5702 90.4973 48.8812 91.1089C49.9567 93.2232 51.1428 95.272 52.4394 97.2553C52.4847 97.3244 52.5635 97.4036 52.6758 97.4931C52.7054 97.5171 52.7388 97.5269 52.7763 97.5226C52.8936 97.5095 52.9181 97.4167 52.8497 97.2444C52.8375 97.2132 52.8212 97.1842 52.8011 97.1582C52.5362 96.8105 52.2785 96.436 52.0279 96.0345C50.9632 94.3312 49.983 92.5795 49.0874 90.7795C48.7894 90.1805 48.5291 89.7322 48.5918 89.154C48.7559 87.6365 49.163 86.1157 49.4978 84.6266C49.6274 84.0527 49.7807 83.3273 49.339 82.7993C49.0295 82.4291 48.6879 82.092 48.3142 81.788C47.6584 81.2534 47.0173 80.701 46.391 80.1308C45.8608 79.6464 45.4817 79.1981 45.4558 78.4628C45.4047 76.99 45.4058 75.5173 45.4591 74.0445C45.5548 71.4088 45.648 68.7618 45.7387 66.1036L46.5594 65.8755C46.5796 65.87 46.601 65.8716 46.6201 65.8802C46.6392 65.8887 46.6547 65.9037 46.6642 65.9225L46.8661 66.3294Z" fill="#EC544A"/>
<path d="M45.739 66.1035C45.6483 68.7618 45.5551 71.4087 45.4593 74.0444C45.4061 75.5172 45.405 76.99 45.4561 78.4627C45.482 79.198 45.8611 79.6464 46.3913 80.1308C47.0176 80.701 47.6587 81.2534 48.3145 81.7879C48.6882 82.0919 49.0298 82.429 49.3393 82.7992C49.781 83.3272 49.6276 84.0527 49.4981 84.6265C49.1633 86.1157 48.7562 87.6364 48.5921 89.1539C48.5294 89.7321 48.7897 90.1805 49.0877 90.7794C49.9833 92.5795 50.9635 94.3312 52.0282 96.0345C52.2787 96.4359 52.5365 96.8105 52.8014 97.1581C52.8214 97.1842 52.8378 97.2132 52.85 97.2443C52.9184 97.4167 52.8939 97.5094 52.7766 97.5225C52.7391 97.5269 52.7056 97.5171 52.6761 97.4931C52.5638 97.4036 52.485 97.3243 52.4396 97.2552C51.1431 95.2719 49.957 93.2231 48.8815 91.1089C48.5705 90.4972 48.3815 90.0278 48.3145 89.7005C48.2184 89.2358 48.3988 88.4568 48.4895 87.883C48.5283 87.6328 48.5834 87.3553 48.6547 87.0506C48.9225 85.8942 49.141 84.8229 49.3102 83.8367C49.4084 83.2672 49.0283 82.8658 48.5672 82.4621C47.8963 81.8752 47.2235 81.2905 46.5489 80.7079C45.8924 80.1417 45.2315 79.5046 45.1883 78.6144C45.148 77.7824 45.1368 76.95 45.1548 76.1172C45.2254 72.8073 45.32 69.4967 45.4388 66.1853L45.739 66.1035Z" fill="#FB9498"/>
<path d="M58.9134 66.6501C59.7291 68.1345 60.4785 69.6273 61.1617 71.1284C61.7945 72.5175 62.4281 73.9066 63.0623 75.2958C63.2293 75.6609 63.387 76.0292 63.5353 76.4009C63.8711 77.2442 64.1454 77.8268 63.667 78.5337C63.1573 79.2872 62.6602 80.049 62.1757 80.8192C61.9468 81.1825 61.449 82.0061 61.6876 82.4338C61.9813 82.9611 62.6145 84.0731 63.5871 85.7699C63.9154 86.3426 63.883 86.9775 63.7685 87.6277C63.2264 90.7271 62.4878 93.7653 61.4414 96.7305C61.409 96.8229 61.4321 96.8978 61.5105 96.9553L61.5386 96.976C61.5498 96.9841 61.5627 96.9896 61.5763 96.992C61.5898 96.9945 61.6038 96.9938 61.6171 96.99C61.6304 96.9862 61.6426 96.9795 61.653 96.9702C61.6633 96.961 61.6715 96.9496 61.6768 96.9367C62.0145 96.125 62.2736 95.4028 62.4543 94.7701C63.121 92.434 63.6613 90.0158 64.0752 87.5154C64.1681 86.9524 64.1951 86.191 63.91 85.6728C63.527 84.9782 62.8953 83.8644 62.0148 82.3312C61.9313 82.1858 61.9094 82.0625 61.949 81.9614C62.328 80.9763 63.1595 79.869 63.7793 78.9144C64.0183 78.5457 64.1577 78.2409 64.1972 78.0002C64.3279 77.1973 63.7901 76.186 63.464 75.4583C62.1552 72.5335 60.9339 69.5945 59.3616 66.781C61.6326 67.5414 63.8862 68.4152 65.9855 69.5193C67.6392 70.3891 68.7741 71.7168 69.3904 73.5023C69.9288 75.0616 70.3111 76.6605 70.5372 78.2991C70.9907 81.5872 71.1441 84.9386 71.2521 88.2539C71.3305 90.6445 71.405 93.0355 71.4756 95.4268C71.4853 95.7672 71.5296 96.0138 71.7531 96.2909C72.3244 96.9978 72.9842 97.612 73.6224 98.2524L70.4961 105.184C70.4894 105.199 70.4784 105.212 70.4646 105.221C70.4508 105.23 70.4347 105.235 70.4184 105.234L69.4573 105.222C69.2338 103.762 67.6226 102.402 66.3926 101.735C66.3415 101.707 66.3304 101.672 66.3591 101.63L66.0395 76.0878C66.0388 76.0172 66.0039 75.9867 65.9348 75.9962L65.8829 76.0027C65.8607 76.0056 65.8403 76.0167 65.8256 76.0338C65.8109 76.0509 65.8028 76.0728 65.803 76.0954C65.8505 81.5952 65.911 87.0935 65.9844 92.5904C66.0233 95.5156 66.0643 98.4411 66.1075 101.367C66.1086 101.453 66.141 101.516 66.1713 101.594C66.1439 101.618 66.0993 101.62 66.0373 101.6C64.5946 101.132 62.9856 100.966 61.436 100.986C61.3914 98.352 61.3359 95.7352 61.2697 93.1359C61.1243 87.4005 60.6736 81.6367 59.9177 75.8445C59.4901 72.5684 58.9167 69.396 57.8584 66.2966L58.9134 66.6501Z" fill="#EC544A"/>
<path d="M59.3612 66.781C60.9335 69.5945 62.1549 72.5335 63.4637 75.4583C63.7898 76.186 64.3276 77.1973 64.1969 78.0002C64.1573 78.2409 64.018 78.5457 63.779 78.9144C63.1591 79.869 62.3276 80.9763 61.9486 81.9614C61.909 82.0625 61.931 82.1858 62.0145 82.3312C62.8949 83.8643 63.5267 84.9782 63.9097 85.6728C64.1947 86.191 64.1677 86.9524 64.0749 87.5153C63.6609 90.0158 63.1206 92.434 62.454 94.7701C62.2733 95.4028 62.0141 96.125 61.6765 96.9367C61.6711 96.9495 61.663 96.961 61.6526 96.9702C61.6423 96.9794 61.63 96.9862 61.6167 96.99C61.6035 96.9937 61.5895 96.9944 61.5759 96.992C61.5623 96.9896 61.5495 96.9841 61.5383 96.976L61.5102 96.9552C61.4317 96.8978 61.4087 96.8229 61.4411 96.7305C62.4875 93.7653 63.2261 90.7271 63.7682 87.6277C63.8827 86.9775 63.9151 86.3426 63.5868 85.7698C62.6142 84.0731 61.981 82.9611 61.6873 82.4338C61.4486 82.0061 61.9464 81.1825 62.1754 80.8192C62.6599 80.049 63.157 79.2871 63.6667 78.5337C64.1451 77.8267 63.8708 77.2442 63.5349 76.4009C63.3866 76.0292 63.229 75.6609 63.062 75.2958C62.4277 73.9066 61.7942 72.5175 61.1614 71.1284C60.4782 69.6272 59.7287 68.1345 58.9131 66.6501C59.1291 66.6392 59.2784 66.6828 59.3612 66.781Z" fill="#FB9498"/>
<path d="M98.1844 76.9596C97.9806 76.7632 97.8442 76.5246 97.7751 76.2439C97.7312 76.0577 97.7089 75.9246 97.7082 75.8446C97.6887 73.6991 97.684 71.5536 97.6941 69.4081C97.6984 68.6619 97.9025 68.0586 98.5904 67.7586C98.7834 67.6742 99.1246 67.632 99.6141 67.632C103.94 67.6313 108.266 67.6299 112.592 67.6277C113.428 67.6277 114.023 68.3695 114.019 69.2172C114.008 71.3532 114.007 73.4897 114.016 75.6264C114.02 76.3563 113.758 76.9956 113.051 77.2585C112.871 77.3254 112.561 77.3596 112.121 77.361C110.577 77.3683 109.036 77.3701 107.499 77.3665C107.487 77.3665 107.475 77.3702 107.465 77.377C107.455 77.3837 107.447 77.3934 107.442 77.4047L105.911 81.0768C105.907 81.0864 105.9 81.0947 105.892 81.1006C105.883 81.1064 105.873 81.1095 105.863 81.1095C105.852 81.1095 105.842 81.1064 105.834 81.1006C105.825 81.0947 105.819 81.0864 105.815 81.0768L104.302 77.4527C104.289 77.4216 104.267 77.3952 104.239 77.3768C104.212 77.3583 104.179 77.3487 104.146 77.349C102.594 77.3679 101.026 77.373 99.4446 77.3643C98.9241 77.3614 98.504 77.2265 98.1844 76.9596ZM101.79 69.0426L102.525 70.8656C102.538 70.8955 102.561 70.9193 102.591 70.9318C102.62 70.9443 102.653 70.9444 102.683 70.9321L102.832 70.871C102.899 70.8435 102.96 70.8032 103.011 70.7523C103.063 70.7013 103.104 70.6409 103.132 70.5743C103.161 70.5078 103.175 70.4364 103.176 70.3644C103.177 70.2923 103.164 70.2209 103.137 70.1543L102.719 69.119C102.664 68.9846 102.559 68.8778 102.425 68.8222C102.291 68.7665 102.14 68.7666 102.005 68.8223L101.856 68.8834C101.826 68.8957 101.803 68.9194 101.79 68.9492C101.778 68.9791 101.778 69.0127 101.79 69.0426ZM103.267 74.0031C102.556 73.2366 102.184 72.3213 102.152 71.2572C102.15 71.1831 102.181 71.1471 102.222 71.0925C102.246 71.0612 102.25 71.0274 102.235 70.991L101.49 69.1888C101.487 69.1814 101.482 69.1749 101.476 69.1697C101.471 69.1645 101.463 69.1608 101.456 69.159C101.448 69.1572 101.44 69.1572 101.433 69.1592C101.425 69.1612 101.418 69.165 101.412 69.1703C99.9683 70.4456 101.145 73.2166 101.995 74.577C102.46 75.321 103.303 76.0737 104.24 76.0268C104.25 76.0263 104.259 76.0236 104.267 76.0188C104.275 76.014 104.282 76.0073 104.287 75.9993C104.292 75.9912 104.295 75.9821 104.296 75.9727C104.296 75.9632 104.295 75.9537 104.291 75.945L103.517 74.1013C103.503 74.0671 103.478 74.0493 103.441 74.0479L103.356 74.0446C103.321 74.0424 103.292 74.0286 103.267 74.0031ZM109.615 69.7103C109.615 69.7236 109.61 69.7364 109.6 69.7458C109.591 69.7552 109.578 69.7605 109.565 69.7605H105.841C105.828 69.7605 105.815 69.7658 105.806 69.7752C105.796 69.7846 105.791 69.7973 105.791 69.8107L105.79 70.7794C105.79 70.7927 105.795 70.8055 105.804 70.8149C105.814 70.8243 105.826 70.8296 105.84 70.8296L109.579 70.8274C109.586 70.8274 109.593 70.8288 109.599 70.8315C109.605 70.8342 109.611 70.8382 109.616 70.8432C109.62 70.8483 109.624 70.8542 109.626 70.8607C109.628 70.8671 109.629 70.874 109.629 70.8809L109.603 71.3183C109.603 71.3273 109.605 71.3363 109.609 71.3443C109.613 71.3522 109.619 71.3589 109.627 71.3636C109.634 71.3683 109.643 71.3708 109.652 71.3709C109.661 71.371 109.67 71.3687 109.677 71.3641L111.44 70.3408C111.447 70.3365 111.454 70.3301 111.458 70.3225C111.463 70.3148 111.465 70.3061 111.465 70.2972C111.465 70.2883 111.463 70.2796 111.458 70.272C111.454 70.2643 111.447 70.258 111.44 70.2536L109.693 69.239C109.685 69.2346 109.676 69.2323 109.668 69.2323C109.659 69.2323 109.65 69.2346 109.643 69.239C109.635 69.2435 109.629 69.2498 109.625 69.2575C109.62 69.2651 109.618 69.2738 109.618 69.2826L109.615 69.7103ZM107.714 73.0366C107.709 73.0366 107.705 73.0356 107.7 73.0336C107.696 73.0317 107.692 73.0288 107.688 73.0252C107.685 73.0217 107.682 73.0174 107.681 73.0128C107.679 73.0082 107.678 73.0033 107.679 72.9984L107.709 72.5031C107.709 72.4967 107.708 72.4904 107.705 72.4848C107.702 72.4792 107.697 72.4745 107.692 72.4711C107.686 72.4678 107.68 72.466 107.674 72.4658C107.668 72.4657 107.661 72.4673 107.656 72.4704L105.844 73.5264C105.838 73.5295 105.834 73.534 105.83 73.5396C105.827 73.5452 105.825 73.5515 105.825 73.558C105.825 73.5645 105.827 73.5709 105.83 73.5764C105.834 73.582 105.838 73.5866 105.844 73.5897L107.646 74.6359C107.652 74.6393 107.658 74.6411 107.665 74.6411C107.671 74.6411 107.678 74.6392 107.683 74.6357C107.689 74.6322 107.694 74.6272 107.697 74.6213C107.7 74.6153 107.701 74.6087 107.7 74.602L107.674 74.1155C107.674 74.1106 107.675 74.1057 107.676 74.101C107.678 74.0964 107.681 74.0922 107.684 74.0886C107.687 74.085 107.691 74.0822 107.696 74.0802C107.7 74.0783 107.705 74.0773 107.71 74.0773L111.46 74.0817C111.47 74.0817 111.479 74.0779 111.486 74.0711C111.492 74.0644 111.496 74.0552 111.496 74.0457V73.0715C111.496 73.0619 111.492 73.0528 111.486 73.046C111.479 73.0393 111.47 73.0355 111.46 73.0355L107.714 73.0366ZM103.829 73.9759L104.576 75.8075C104.587 75.8344 104.609 75.8557 104.635 75.8668C104.662 75.8778 104.692 75.8777 104.719 75.8664L104.793 75.8359C104.86 75.808 104.922 75.7671 104.973 75.7155C105.025 75.6638 105.066 75.6025 105.094 75.5351C105.122 75.4676 105.137 75.3952 105.137 75.3222C105.137 75.2491 105.123 75.1768 105.096 75.1093L104.684 74.1013C104.657 74.0338 104.616 73.9724 104.565 73.9207C104.514 73.8689 104.453 73.8279 104.386 73.8C104.319 73.772 104.247 73.7576 104.175 73.7577C104.102 73.7577 104.03 73.7722 103.963 73.8002L103.888 73.8318C103.875 73.8373 103.863 73.8454 103.853 73.8557C103.843 73.8659 103.835 73.878 103.829 73.8914C103.823 73.9048 103.821 73.9191 103.821 73.9336C103.821 73.9481 103.823 73.9625 103.829 73.9759Z" fill="#EC544A"/>
<path d="M101.791 69.0427C101.779 69.0127 101.779 68.9791 101.791 68.9493C101.803 68.9194 101.827 68.8957 101.857 68.8834L102.006 68.8223C102.141 68.7666 102.292 68.7666 102.425 68.8222C102.559 68.8779 102.665 68.9846 102.719 69.119L103.137 70.1543C103.164 70.221 103.178 70.2923 103.177 70.3644C103.176 70.4365 103.161 70.5078 103.133 70.5744C103.105 70.6409 103.064 70.7014 103.012 70.7523C102.961 70.8032 102.9 70.8436 102.833 70.8711L102.684 70.9322C102.654 70.9444 102.621 70.9443 102.591 70.9318C102.562 70.9194 102.538 70.8956 102.526 70.8656L101.791 69.0427Z" fill="#641F22"/>
<path d="M103.356 74.0446L103.442 74.0479C103.478 74.0494 103.504 74.0672 103.517 74.1014L104.291 75.945C104.295 75.9538 104.297 75.9633 104.296 75.9727C104.295 75.9822 104.292 75.9913 104.287 75.9993C104.282 76.0073 104.275 76.014 104.267 76.0188C104.259 76.0236 104.25 76.0264 104.241 76.0269C103.303 76.0738 102.46 75.321 101.996 74.577C101.146 73.2166 99.9687 70.4456 101.413 69.1703C101.418 69.165 101.425 69.1612 101.433 69.1592C101.441 69.1573 101.449 69.1572 101.456 69.159C101.464 69.1609 101.471 69.1645 101.477 69.1697C101.483 69.1749 101.487 69.1815 101.49 69.1889L102.235 70.9911C102.251 71.0275 102.246 71.0613 102.222 71.0926C102.181 71.1471 102.15 71.1831 102.152 71.2573C102.185 72.3213 102.556 73.2366 103.268 74.0032C103.292 74.0286 103.322 74.0425 103.356 74.0446Z" fill="#641F22"/>
<path d="M109.615 69.7102L109.618 69.2825C109.618 69.2737 109.62 69.265 109.625 69.2574C109.629 69.2497 109.635 69.2434 109.643 69.2389C109.651 69.2345 109.659 69.2322 109.668 69.2322C109.677 69.2322 109.685 69.2345 109.693 69.2389L111.44 70.2535C111.448 70.2579 111.454 70.2642 111.458 70.2719C111.463 70.2795 111.465 70.2882 111.465 70.2971C111.465 70.306 111.463 70.3147 111.458 70.3224C111.454 70.33 111.448 70.3364 111.44 70.3407L109.678 71.364C109.67 71.3686 109.661 71.3709 109.652 71.3708C109.643 71.3707 109.634 71.3682 109.627 71.3635C109.619 71.3588 109.613 71.3521 109.609 71.3442C109.605 71.3362 109.603 71.3272 109.603 71.3182L109.629 70.8808C109.629 70.8739 109.628 70.867 109.626 70.8606C109.624 70.8541 109.62 70.8482 109.616 70.8431C109.611 70.8381 109.605 70.8341 109.599 70.8314C109.593 70.8287 109.586 70.8273 109.579 70.8273L105.84 70.8295C105.827 70.8295 105.814 70.8242 105.805 70.8148C105.795 70.8054 105.79 70.7926 105.79 70.7793L105.791 69.8106C105.791 69.7972 105.796 69.7845 105.806 69.7751C105.815 69.7657 105.828 69.7604 105.841 69.7604H109.565C109.578 69.7604 109.591 69.7551 109.6 69.7457C109.61 69.7363 109.615 69.7235 109.615 69.7102Z" fill="#641F22"/>
<path d="M107.715 73.0365L111.461 73.0355C111.47 73.0355 111.479 73.0393 111.486 73.046C111.493 73.0528 111.496 73.0619 111.496 73.0715V74.0457C111.496 74.0552 111.493 74.0644 111.486 74.0711C111.479 74.0779 111.47 74.0817 111.461 74.0817L107.71 74.0773C107.705 74.0773 107.701 74.0783 107.696 74.0802C107.692 74.0822 107.688 74.085 107.684 74.0886C107.681 74.0922 107.678 74.0964 107.677 74.101C107.675 74.1057 107.674 74.1106 107.675 74.1155L107.701 74.602C107.701 74.6087 107.7 74.6153 107.697 74.6212C107.694 74.6272 107.689 74.6322 107.684 74.6357C107.678 74.6392 107.672 74.6411 107.665 74.6411C107.659 74.6411 107.652 74.6393 107.647 74.6359L105.844 73.5897C105.839 73.5866 105.834 73.582 105.831 73.5764C105.827 73.5709 105.826 73.5645 105.826 73.558C105.826 73.5515 105.827 73.5452 105.831 73.5396C105.834 73.534 105.839 73.5295 105.844 73.5264L107.656 72.4703C107.662 72.4673 107.668 72.4657 107.674 72.4658C107.681 72.466 107.687 72.4678 107.692 72.4711C107.698 72.4745 107.702 72.4792 107.705 72.4848C107.708 72.4904 107.709 72.4967 107.709 72.5031L107.679 72.9984C107.679 73.0033 107.679 73.0082 107.681 73.0128C107.683 73.0174 107.685 73.0217 107.689 73.0252C107.692 73.0288 107.696 73.0317 107.7 73.0336C107.705 73.0356 107.71 73.0366 107.715 73.0365Z" fill="white"/>
<path d="M103.829 73.9758C103.824 73.9624 103.821 73.948 103.821 73.9335C103.821 73.919 103.824 73.9047 103.829 73.8913C103.835 73.8779 103.843 73.8658 103.853 73.8556C103.863 73.8454 103.875 73.8373 103.888 73.8318L103.963 73.8001C104.03 73.7721 104.102 73.7576 104.175 73.7576C104.247 73.7575 104.319 73.7719 104.386 73.7999C104.453 73.8278 104.514 73.8689 104.565 73.9206C104.616 73.9723 104.657 74.0337 104.684 74.1012L105.096 75.1092C105.123 75.1767 105.137 75.2491 105.137 75.3221C105.137 75.3952 105.122 75.4675 105.094 75.535C105.066 75.6025 105.025 75.6638 104.973 75.7154C104.922 75.767 104.861 75.8079 104.793 75.8358L104.719 75.8664C104.692 75.8776 104.662 75.8777 104.636 75.8667C104.609 75.8556 104.588 75.8343 104.576 75.8074L103.829 73.9758Z" fill="#641F22"/>
<path d="M66.3589 101.63C66.2775 101.602 66.2149 101.59 66.171 101.594C66.1407 101.517 66.1083 101.453 66.1073 101.367C66.0641 98.4413 66.023 95.5157 65.9842 92.5906C65.9107 87.0937 65.8503 81.5954 65.8027 76.0956C65.8025 76.0729 65.8106 76.051 65.8253 76.0339C65.84 76.0168 65.8604 76.0058 65.8826 76.0029L65.9345 75.9963C66.0036 75.9869 66.0385 76.0174 66.0392 76.0879L66.3589 101.63Z" fill="#FB9498"/>
<path d="M53.0276 98.859C53.0391 98.9353 53.0737 99.011 53.1313 99.0859C53.0038 99.1419 52.8825 99.1502 52.7674 99.111C47.801 97.42 42.785 95.7978 37.9008 93.8788C37.7453 93.8177 37.5847 93.7468 37.4191 93.6661C37.3808 93.6475 37.351 93.6147 37.3361 93.5747C37.3212 93.5346 37.3223 93.4903 37.3392 93.4512C37.3788 93.3595 37.4587 93.3399 37.579 93.3923C38.5242 93.8039 39.4849 94.1792 40.4611 94.5181C40.4677 94.5203 40.4746 94.5209 40.4814 94.52C40.4883 94.5191 40.4948 94.5167 40.5006 94.513C40.5064 94.5092 40.5113 94.5042 40.5149 94.4983C40.5185 94.4924 40.5208 94.4857 40.5216 94.4788C41.1738 88.711 41.8142 83.12 42.4049 77.1537C42.4135 77.0671 42.4607 77.0286 42.5464 77.038L42.5852 77.0424C42.6123 77.0457 42.6371 77.0593 42.6544 77.0805C42.6717 77.1016 42.6802 77.1286 42.6781 77.1558C42.6472 77.5559 42.6119 77.9457 42.5723 78.3253C42.0021 83.7546 41.4226 89.1776 40.8337 94.5945C40.8311 94.6142 40.8355 94.6343 40.8459 94.6512C40.8563 94.6681 40.8722 94.6808 40.8909 94.6872L53.0276 98.859Z" fill="#FB9498"/>
<path d="M31.967 78.5088C30.7953 84.0464 30.1636 89.7793 29.8202 95.427C29.7781 96.1143 29.7424 96.9445 29.8634 97.6078C30.1938 99.4188 31.2316 100.578 32.6559 101.614C33.1174 101.95 33.5904 102.209 34.0749 102.392C34.0878 102.548 34.1084 102.637 34.1364 102.659L34.05 107.092L27.4931 107.095L27.438 100.906C27.497 99.6977 27.5186 98.4897 27.5028 97.2816C27.4563 93.591 27.4833 89.8993 27.4974 86.2086C27.5017 84.9482 27.6702 83.7115 28.0028 82.4983C28.5546 80.4878 29.7208 78.7903 31.967 78.5088Z" fill="#953539"/>
<path d="M100.553 82.5549C101.252 82.6378 102.026 82.6651 102.874 82.6367C105.986 82.5331 109.175 82.7142 112.196 82.7371C113.284 82.7458 114.691 82.6651 115.94 82.7C116.223 82.7073 116.469 82.8007 116.681 82.9804C116.709 83.0036 116.725 83.0338 116.729 83.0709C116.739 83.1662 116.82 83.2215 116.973 83.2367L82.4913 83.2684C82.4472 83.2683 82.4041 83.2812 82.3671 83.3054C82.3301 83.3296 82.3008 83.3641 82.2829 83.4047L71.6623 107.05C71.6573 107.06 71.6602 107.066 71.671 107.069C71.6926 107.075 71.7012 107.084 71.6969 107.094L48.2291 107.098L48.2269 105.264C48.2269 105.226 48.2086 105.206 48.1719 105.205L47.2842 105.172C47.3029 105.14 47.2792 105.112 47.2129 105.088C47.1762 105.075 47.1751 105.06 47.2097 105.042C47.2781 105.007 47.3598 104.986 47.4548 104.981C47.8976 105.024 48.3511 105.09 48.782 105.105C50.2171 105.151 51.7473 105.222 53.1717 105.031C53.1458 105.079 53.1422 105.12 53.1609 105.156C53.1782 105.188 53.2048 105.204 53.2408 105.204C55.7562 105.227 58.2712 105.238 60.7859 105.237C60.9968 105.237 61.2074 105.243 61.4176 105.256C61.4421 105.258 61.4611 105.254 61.4748 105.244C61.4943 105.23 61.5043 105.212 61.505 105.19C61.4971 105.205 61.4986 105.217 61.5094 105.226C61.5158 105.231 61.5259 105.234 61.5396 105.234C62.8909 105.242 64.2742 105.233 65.6896 105.209C65.7176 105.222 65.7983 105.214 65.9314 105.185C66.0142 105.251 66.1121 105.259 66.2252 105.209L67.2716 105.207C67.3731 105.246 67.4605 105.247 67.534 105.211L68.6192 105.221C68.7186 105.244 68.814 105.239 68.9054 105.208L69.4572 105.222L70.4183 105.234C70.4346 105.235 70.4507 105.23 70.4645 105.221C70.4783 105.212 70.4893 105.199 70.4961 105.184L73.6223 98.2524L80.6145 82.7349C80.6393 82.68 80.6791 82.6334 80.7293 82.6007C80.7795 82.568 80.8378 82.5506 80.8974 82.5505L100.553 82.5549Z" fill="#DADEE9"/>
<path d="M116.972 83.2368L117.299 83.3066C117.317 83.3105 117.333 83.3195 117.347 83.3325C117.36 83.3456 117.369 83.3623 117.373 83.3805C117.378 83.3987 117.376 83.4178 117.37 83.4354C117.364 83.4531 117.353 83.4686 117.339 83.4801C117.177 83.6099 117.061 83.7245 116.964 83.9197C113.157 91.5374 109.35 99.1554 105.544 106.774C105.507 106.847 105.507 106.948 105.543 107.075L71.6966 107.095C71.7009 107.084 71.6923 107.075 71.6707 107.069C71.6599 107.067 71.657 107.06 71.6621 107.05L82.2826 83.4048C82.3006 83.3642 82.3298 83.3296 82.3668 83.3054C82.4038 83.2812 82.447 83.2684 82.491 83.2685L116.972 83.2368ZM99.4251 95.9902C99.3764 95.4276 98.8997 94.926 98.0998 94.5958C97.2999 94.2656 96.2424 94.1339 95.16 94.2296C94.0775 94.3252 93.0587 94.6405 92.3278 95.106C91.5968 95.5715 91.2135 96.1491 91.2622 96.7117C91.311 97.2743 91.7877 97.7759 92.5876 98.1061C93.3874 98.4363 94.4449 98.5681 95.5274 98.4724C96.6099 98.3767 97.6286 98.0614 98.3596 97.596C99.0906 97.1305 99.4738 96.5529 99.4251 95.9902Z" fill="white"/>
<path d="M95.527 98.4724C97.7811 98.2732 99.5262 97.1619 99.4247 95.9903C99.3233 94.8186 97.4137 94.0304 95.1596 94.2296C92.9054 94.4288 91.1604 95.5401 91.2618 96.7117C91.3633 97.8834 93.2729 98.6716 95.527 98.4724Z" fill="#DADEE9"/>
<path d="M56.9347 100.699C56.9275 100.765 56.9804 100.801 57.0935 100.807C57.52 100.834 57.8667 101.178 58.3289 101.129C59.3612 101.02 60.3968 100.973 61.4356 100.986C62.9853 100.966 64.5943 101.133 66.037 101.601C66.0989 101.62 66.1435 101.618 66.1709 101.594C66.2148 101.59 66.2774 101.602 66.3588 101.63C66.33 101.672 66.3411 101.707 66.3923 101.735C67.6222 102.402 69.2334 103.762 69.4569 105.222L68.9051 105.208C67.9797 103.602 66.2432 102.129 64.3578 101.857C64.3473 101.856 64.3367 101.856 64.3265 101.859C64.3164 101.862 64.3069 101.867 64.2986 101.873C64.2904 101.88 64.2835 101.888 64.2785 101.897C64.2734 101.906 64.2703 101.916 64.2692 101.927L64.2671 101.954C64.2599 102.021 64.2887 102.062 64.3535 102.077C66.1885 102.514 67.6104 103.562 68.619 105.221L67.5337 105.212C66.6763 103.526 65.0759 103.043 63.4507 102.533C63.4392 102.53 63.4271 102.529 63.4152 102.53C63.4033 102.531 63.3917 102.535 63.3811 102.541C63.3706 102.546 63.3613 102.554 63.3538 102.564C63.3462 102.573 63.3406 102.584 63.3373 102.596L63.3297 102.623C63.3211 102.653 63.3245 102.685 63.3392 102.712C63.3539 102.74 63.3788 102.761 63.4086 102.77C64.9301 103.254 66.3739 103.725 67.2713 105.207L66.2249 105.209C65.7249 104.134 63.6289 103.511 62.5749 103.293C62.5532 103.288 62.5306 103.293 62.5121 103.305C62.4935 103.317 62.4804 103.335 62.4756 103.357L62.4648 103.402C62.4489 103.469 62.4741 103.51 62.5404 103.525C63.5695 103.762 65.2983 104.267 65.9312 105.185C65.798 105.214 65.7173 105.222 65.6893 105.209C64.3106 104.815 62.9277 104.556 61.5404 104.43C61.4965 104.427 61.4738 104.444 61.4724 104.482C61.4616 104.46 61.4479 104.442 61.4313 104.427C61.4176 104.415 61.3975 104.407 61.3708 104.404C60.4472 104.302 59.6672 104.26 59.0308 104.276C57.6946 104.309 56.3386 104.327 54.9629 104.329C55.2156 102.995 55.7976 101.497 56.9347 100.699Z" fill="#FAB2A5"/>
<path d="M68.9052 105.208C68.8138 105.24 68.7184 105.244 68.6191 105.221C67.6105 103.562 66.1886 102.514 64.3536 102.077C64.2888 102.062 64.26 102.021 64.2672 101.954L64.2694 101.927C64.2704 101.916 64.2735 101.906 64.2786 101.897C64.2836 101.888 64.2905 101.88 64.2988 101.873C64.307 101.867 64.3165 101.862 64.3267 101.859C64.3368 101.856 64.3474 101.856 64.3579 101.857C66.2434 102.129 67.9798 103.602 68.9052 105.208Z" fill="#223A7A"/>
<path d="M47.4543 104.981C47.3593 104.987 47.2776 105.007 47.2092 105.043C47.1746 105.06 47.1757 105.075 47.2124 105.088C47.2787 105.112 47.3024 105.14 47.2837 105.172C43.6453 104.939 40.1058 104.368 36.6653 103.46C35.8979 103.257 35.0549 102.991 34.1363 102.659C34.1082 102.637 34.0877 102.548 34.0747 102.392C36.2978 103.096 38.4043 103.641 40.3941 104.027C42.6007 104.455 44.9541 104.773 47.4543 104.981Z" fill="#FB9498"/>
<path d="M67.5339 105.211C67.4604 105.247 67.373 105.246 67.2714 105.207C66.3741 103.725 64.9303 103.254 63.4087 102.77C63.379 102.761 63.3541 102.74 63.3394 102.712C63.3246 102.685 63.3212 102.653 63.3299 102.623L63.3375 102.595C63.3408 102.584 63.3464 102.573 63.3539 102.563C63.3615 102.554 63.3708 102.546 63.3813 102.54C63.3919 102.535 63.4034 102.531 63.4154 102.53C63.4273 102.529 63.4394 102.53 63.4509 102.533C65.0761 103.043 66.6764 103.526 67.5339 105.211Z" fill="#223A7A"/>
<path d="M34.1362 102.659C35.0548 102.99 35.8978 103.257 36.6653 103.459C40.1057 104.368 43.6452 104.939 47.2836 105.172L48.1713 105.205C48.208 105.206 48.2264 105.226 48.2264 105.264L48.2285 107.098C48.2264 107.096 48.2242 107.095 48.222 107.094L34.0498 107.092L34.1362 102.659Z" fill="#792828"/>
<path d="M66.2247 105.209C66.1116 105.259 66.0137 105.251 65.9309 105.185C65.2981 104.267 63.5693 103.762 62.5401 103.525C62.4739 103.51 62.4487 103.469 62.4645 103.402L62.4753 103.357C62.4802 103.335 62.4933 103.317 62.5119 103.305C62.5304 103.293 62.5529 103.288 62.5747 103.293C63.6286 103.511 65.7247 104.134 66.2247 105.209Z" fill="#223A7A"/>
<path d="M61.472 104.482L61.5044 105.19C61.5037 105.212 61.4936 105.23 61.4741 105.244C61.4605 105.254 61.4414 105.258 61.4169 105.256C61.2067 105.243 60.9961 105.237 60.7852 105.237C58.2705 105.238 55.7555 105.227 53.2401 105.204C53.2041 105.204 53.1775 105.188 53.1602 105.156C53.1415 105.12 53.1451 105.079 53.171 105.031L54.8362 104.943C54.8714 104.941 54.8912 104.922 54.8956 104.886L54.9625 104.329C56.3383 104.327 57.6942 104.309 59.0304 104.275C59.6668 104.259 60.4468 104.302 61.3705 104.404C61.3971 104.407 61.4173 104.415 61.4309 104.427C61.4475 104.442 61.4612 104.46 61.472 104.482Z" fill="white"/>
<path d="M65.6896 105.209C64.2742 105.233 62.8909 105.242 61.5396 105.234C61.5259 105.234 61.5159 105.232 61.5094 105.226C61.4986 105.217 61.4971 105.205 61.5051 105.19L61.4727 104.482C61.4741 104.444 61.4968 104.427 61.5407 104.43C62.928 104.556 64.3109 104.815 65.6896 105.209Z" fill="#223A7A"/>
<path d="M14.7733 107.052L19.9847 107.036C20.3699 107.073 20.8047 107.093 21.2892 107.093C23.3647 107.095 25.4327 107.095 27.4931 107.095L34.0501 107.092L48.2223 107.095L48.2471 109.355L46.4783 109.352C32.9597 109.342 19.4383 109.339 5.91398 109.345C5.88158 109.345 5.85783 109.353 5.84271 109.368C5.82471 109.386 5.81103 109.411 5.80167 109.442C5.80239 109.411 5.79195 109.387 5.77035 109.37C5.75596 109.359 5.73328 109.353 5.70232 109.354C5.09256 109.358 4.48279 109.36 3.87302 109.362C3.85956 109.362 3.84665 109.356 3.83713 109.347C3.82761 109.337 3.82227 109.324 3.82227 109.31L3.82334 107.152C3.82334 107.137 3.82938 107.122 3.84011 107.111C3.85084 107.1 3.8654 107.093 3.88058 107.093L8.55103 107.089L14.7733 107.052Z" fill="#E0ABAC"/>
<path d="M105.543 107.075L120.301 107.087L120.771 107.075L121.72 107.087C121.744 107.087 121.767 107.097 121.784 107.115C121.802 107.132 121.811 107.156 121.812 107.181L121.822 109.283C121.822 109.293 121.82 109.303 121.817 109.313C121.813 109.322 121.807 109.331 121.8 109.338C121.793 109.345 121.784 109.351 121.775 109.355C121.766 109.359 121.756 109.361 121.746 109.36C121.216 109.358 120.68 109.354 120.139 109.348C120.078 109.348 120.039 109.382 120.022 109.45C120.005 109.387 119.94 109.355 119.828 109.355C95.9735 109.357 72.1134 109.357 48.2475 109.355L48.2227 107.095C48.2248 107.095 48.227 107.096 48.2291 107.098L71.6969 107.095L105.543 107.075Z" fill="#E0ABAC"/>
<path d="M46.4784 109.352L46.4536 110.482C46.4527 110.511 46.4407 110.539 46.4202 110.559C46.3996 110.58 46.3721 110.591 46.3434 110.591L5.80392 110.621L5.80176 109.442C5.81112 109.411 5.8248 109.386 5.84279 109.368C5.85791 109.353 5.88167 109.345 5.91406 109.345C19.4384 109.339 32.9598 109.342 46.4784 109.352Z" fill="#C58B8C"/>
<path d="M48.2474 109.355C72.1133 109.357 95.9734 109.357 119.828 109.355C119.94 109.355 120.005 109.386 120.022 109.45L120.02 110.629L46.525 110.617C46.5026 110.617 46.4812 110.626 46.4654 110.642C46.4496 110.658 46.4407 110.68 46.4407 110.702L46.4462 118.086L5.86131 118.088C5.81596 118.088 5.79328 118.065 5.79328 118.019L5.79004 114.578L5.80408 110.62L46.3436 110.591C46.3722 110.591 46.3998 110.579 46.4203 110.559C46.4409 110.539 46.4529 110.511 46.4537 110.482L46.4785 109.352L48.2474 109.355Z" fill="#D59697"/>
<path d="M120.02 110.629L120.014 118.024C120.014 118.064 119.994 118.085 119.954 118.085L46.4458 118.086L46.4404 110.702C46.4404 110.68 46.4493 110.658 46.4651 110.642C46.4809 110.626 46.5023 110.617 46.5247 110.617L120.02 110.629Z" fill="#F6BFC0"/>
</svg>
