<svg width="81" height="24" viewBox="0 0 81 24" fill="none" xmlns="http://www.w3.org/2000/svg">
<path d="M7.21992 15.3948V17.7598H0.93578V17.1741C1.05591 17.2192 1.146 17.2192 1.20607 17.1741C1.28114 17.1591 1.34872 17.1066 1.40878 17.0165C1.48386 16.9114 1.5214 16.7537 1.5214 16.5435V2.87152C1.5214 2.64629 1.48386 2.48862 1.40878 2.39852C1.34872 2.29341 1.28114 2.22584 1.20607 2.19581C1.146 2.16578 1.05591 2.16578 0.93578 2.19581V1.65524H7.21992V4.02024H6.6343C6.61929 3.67487 6.57424 3.36705 6.49916 3.09676C6.42408 2.87152 6.29645 2.6613 6.11626 2.4661C5.95108 2.25587 5.71834 2.15076 5.41802 2.15076H3.07554V9.44848H4.65221C4.84742 9.44848 4.99757 9.39592 5.10269 9.29081C5.2078 9.1857 5.28288 9.06557 5.32792 8.93043C5.38799 8.76526 5.41802 8.57756 5.41802 8.36733H5.93607V11.1378H5.41802C5.41802 10.9275 5.38799 10.7474 5.32792 10.5972C5.28288 10.447 5.2078 10.3194 5.10269 10.2143C4.99757 10.0942 4.84742 10.0341 4.65221 10.0341H3.07554V17.2192H5.41802C5.71834 17.2192 5.95108 17.1291 6.11626 16.9489C6.29645 16.7687 6.42408 16.5585 6.49916 16.3182C6.57424 16.048 6.61929 15.7401 6.6343 15.3948H7.21992ZM16.2726 8.36733C17.2786 9.6587 18.0069 10.86 18.4574 11.9711C18.9229 13.0673 19.058 14.1484 18.8628 15.2146C18.7727 15.5599 18.6526 15.8978 18.5024 16.2281C18.3673 16.5435 18.1871 16.8288 17.9618 17.0841C17.7366 17.3393 17.4588 17.5495 17.1285 17.7147C16.7981 17.8649 16.4002 17.9475 15.9347 17.9625C15.6344 17.9775 15.3566 17.9174 15.1013 17.7823C14.8611 17.6622 14.6433 17.5571 14.4481 17.467C14.2529 17.3618 14.0953 17.3168 13.9751 17.3318C13.87 17.3468 13.81 17.5045 13.7949 17.8048H13.2093V13.7956H13.8175C13.7724 14.1259 13.7574 14.4413 13.7724 14.7416C13.8024 15.0269 13.8475 15.3047 13.9076 15.575C13.9676 15.8002 14.0427 16.0254 14.1328 16.2507C14.2229 16.4609 14.343 16.6561 14.4932 16.8363C14.6433 17.0165 14.831 17.1666 15.0563 17.2868C15.2815 17.4069 15.5593 17.4745 15.8897 17.4895C16.1149 17.5045 16.3627 17.4444 16.6329 17.3093C16.9032 17.1741 17.121 17.0015 17.2861 16.7912C17.6615 16.2807 17.8192 15.7326 17.7591 15.147C17.6991 14.5614 17.5264 13.9908 17.2411 13.4352C16.9558 12.8796 16.6179 12.3541 16.2275 11.8585C15.8371 11.348 15.5068 10.9125 15.2365 10.5521C14.7109 9.92148 14.2905 9.29832 13.9751 8.68267C13.6748 8.06702 13.4496 7.47389 13.2994 6.90329C13.1493 6.33268 13.0742 5.7846 13.0742 5.25905C13.0742 4.71848 13.1267 4.20794 13.2318 3.72743C13.4271 3.00667 13.7349 2.45108 14.1553 2.06067C14.5908 1.65524 15.2365 1.45252 16.0924 1.45252C16.3777 1.45252 16.6329 1.5276 16.8582 1.67776C17.0984 1.8129 17.3011 1.93303 17.4663 2.03814C17.6465 2.14325 17.7817 2.1883 17.8718 2.17329C17.9618 2.15827 18.0219 1.9931 18.0519 1.67776H18.6826V5.61943H18.0519C18.082 4.9287 18.0294 4.33557 17.8943 3.84005C17.7892 3.38957 17.6015 2.97664 17.3312 2.60124C17.0609 2.22584 16.6555 2.03814 16.1149 2.03814C15.8146 2.03814 15.5293 2.09821 15.259 2.21833C15.0037 2.33846 14.7935 2.49613 14.6283 2.69133C14.2679 3.20187 14.0953 3.71992 14.1103 4.24548C14.1403 4.75602 14.2679 5.25905 14.4932 5.75457C14.7334 6.2501 15.0262 6.7231 15.3716 7.17357C15.717 7.60903 16.0173 8.00695 16.2726 8.36733ZM31.1763 1.65524V4.04276H30.5907C30.5757 3.68238 30.5306 3.36705 30.4555 3.09676C30.3804 2.87152 30.2528 2.6613 30.0726 2.4661C29.9074 2.25587 29.6747 2.15076 29.3744 2.15076H28.4509V16.5435C28.4509 16.7537 28.4809 16.9114 28.541 17.0165C28.6011 17.1066 28.6686 17.1591 28.7437 17.1741C28.8188 17.2192 28.9089 17.2192 29.014 17.1741V17.7598H26.2886V17.1741C26.4087 17.2192 26.5063 17.2192 26.5814 17.1741C26.6565 17.1591 26.7241 17.1066 26.7841 17.0165C26.8592 16.9114 26.8968 16.7537 26.8968 16.5435V2.15076H25.9508C25.6354 2.15076 25.3952 2.25587 25.23 2.4661C25.0648 2.6613 24.9522 2.87152 24.8921 3.09676C24.802 3.36705 24.7495 3.68238 24.7345 4.04276H24.1263V1.65524H31.1763ZM42.9061 15.3948V17.7598H36.6219V17.1741C36.7421 17.2192 36.8322 17.2192 36.8922 17.1741C36.9673 17.1591 37.0349 17.1066 37.0949 17.0165C37.17 16.9114 37.2076 16.7537 37.2076 16.5435V2.87152C37.2076 2.64629 37.17 2.48862 37.0949 2.39852C37.0349 2.29341 36.9673 2.22584 36.8922 2.19581C36.8322 2.16578 36.7421 2.16578 36.6219 2.19581V1.65524H42.9061V4.02024H42.3205C42.3055 3.67487 42.2604 3.36705 42.1853 3.09676C42.1102 2.87152 41.9826 2.6613 41.8024 2.4661C41.6372 2.25587 41.4045 2.15076 41.1042 2.15076H38.7617V9.44848H40.3384C40.5336 9.44848 40.6837 9.39592 40.7889 9.29081C40.894 9.1857 40.969 9.06557 41.0141 8.93043C41.0742 8.76526 41.1042 8.57756 41.1042 8.36733H41.6222V11.1378H41.1042C41.1042 10.9275 41.0742 10.7474 41.0141 10.5972C40.969 10.447 40.894 10.3194 40.7889 10.2143C40.6837 10.0942 40.5336 10.0341 40.3384 10.0341H38.7617V17.2192H41.1042C41.4045 17.2192 41.6372 17.1291 41.8024 16.9489C41.9826 16.7687 42.1102 16.5585 42.1853 16.3182C42.2604 16.048 42.3055 15.7401 42.3205 15.3948H42.9061ZM54.7742 15.3948V17.7598H48.7153V17.1741C48.8354 17.2192 48.9255 17.2192 48.9856 17.1741C49.0607 17.1591 49.1357 17.1066 49.2108 17.0165C49.2859 16.9114 49.3234 16.7537 49.3234 16.5435V2.87152C49.3234 2.64629 49.2859 2.48862 49.2108 2.39852C49.1357 2.29341 49.0607 2.22584 48.9856 2.19581C48.9255 2.16578 48.8354 2.16578 48.7153 2.19581V1.65524H51.4407V2.19581C51.3206 2.16578 51.2154 2.16578 51.1253 2.19581C51.0653 2.22584 51.0052 2.29341 50.9452 2.39852C50.8851 2.48862 50.8551 2.64629 50.8551 2.87152V17.1741H52.9723C53.2876 17.1741 53.5279 17.0916 53.6931 16.9264C53.8582 16.7462 53.9784 16.536 54.0534 16.2957C54.1285 16.0404 54.1736 15.7401 54.1886 15.3948H54.7742ZM66.2737 15.3948V17.7598H60.2148V17.1741C60.3349 17.2192 60.425 17.2192 60.485 17.1741C60.5601 17.1591 60.6352 17.1066 60.7103 17.0165C60.7854 16.9114 60.8229 16.7537 60.8229 16.5435V2.87152C60.8229 2.64629 60.7854 2.48862 60.7103 2.39852C60.6352 2.29341 60.5601 2.22584 60.485 2.19581C60.425 2.16578 60.3349 2.16578 60.2148 2.19581V1.65524H62.9401V2.19581C62.82 2.16578 62.7149 2.16578 62.6248 2.19581C62.5647 2.22584 62.5047 2.29341 62.4446 2.39852C62.3846 2.48862 62.3545 2.64629 62.3545 2.87152V17.1741H64.4718C64.7871 17.1741 65.0273 17.0916 65.1925 16.9264C65.3577 16.7462 65.4778 16.536 65.5529 16.2957C65.628 16.0404 65.673 15.7401 65.688 15.3948H66.2737ZM78.584 16.566C78.614 16.7762 78.6741 16.9264 78.7642 17.0165C78.8693 17.1066 78.9819 17.1666 79.102 17.1967C79.2222 17.2267 79.3573 17.2267 79.5075 17.1967V17.7598H76.1965V17.1967C76.3316 17.2267 76.4517 17.2267 76.5568 17.1967C76.6319 17.1666 76.6995 17.1066 76.7596 17.0165C76.8196 16.9264 76.8346 16.7762 76.8046 16.566C76.8046 16.536 76.7596 16.2732 76.6695 15.7777C76.5944 15.2671 76.4968 14.5989 76.3767 13.7731H73.4936C73.3434 14.5989 73.2233 15.2671 73.1332 15.7777C73.0581 16.2732 73.0206 16.536 73.0206 16.566C72.9756 16.7762 72.9756 16.9264 73.0206 17.0165C73.0807 17.1066 73.1482 17.1666 73.2233 17.1967C73.3134 17.2267 73.4335 17.2267 73.5837 17.1967V17.7598H71.4214V17.1967C71.5566 17.2267 71.6917 17.2267 71.8268 17.1967C71.947 17.1666 72.0521 17.1066 72.1422 17.0165C72.2473 16.9264 72.3224 16.7762 72.3674 16.566C72.3674 16.551 72.405 16.3333 72.48 15.9128C72.5551 15.4774 72.6527 14.9143 72.7728 14.2235C72.908 13.5178 73.0581 12.7219 73.2233 11.836C73.3885 10.9501 73.5537 10.0416 73.7188 9.11062L75.0703 1.72281H76.219C76.6544 4.47072 77.0449 6.92581 77.3902 9.0881C77.5404 10.0191 77.683 10.9275 77.8182 11.8135C77.9533 12.6994 78.0734 13.4953 78.1786 14.201C78.2987 14.8917 78.3963 15.4548 78.4714 15.8903C78.5464 16.3257 78.584 16.551 78.584 16.566ZM73.5837 13.1874H76.3091C76.219 12.5718 76.1139 11.9111 75.9937 11.2053C75.8886 10.4996 75.776 9.79384 75.6559 9.0881C75.5508 8.36733 75.4382 7.6691 75.318 6.99338C75.2129 6.31767 75.1153 5.69451 75.0252 5.12391C74.9051 5.69451 74.785 6.31767 74.6648 6.99338C74.5447 7.6691 74.4171 8.36733 74.2819 9.0881C74.1618 9.79384 74.0417 10.4996 73.9216 11.2053C73.8014 11.9111 73.6888 12.5718 73.5837 13.1874Z" fill="#CCAF7B"/>
</svg>
