<svg width="109" height="80" viewBox="0 0 109 80" fill="none" xmlns="http://www.w3.org/2000/svg">
<path d="M30.2709 9.11828C30.4792 3.94846 32.5244 0.161042 38.215 0.113699C46.964 0.0505755 55.7192 0.0127023 64.4807 7.76112e-05C68.7479 -0.00623475 71.6358 0.372506 73.1445 1.1363C77.784 3.49397 77.2917 8.04834 77.339 13.5874C77.3769 18.3659 77.3548 23.1159 77.2727 27.8376C77.2715 27.913 77.285 27.9879 77.3125 28.0579C77.34 28.128 77.381 28.1917 77.433 28.2455C77.485 28.2993 77.547 28.3419 77.6154 28.3711C77.6838 28.4002 77.7572 28.4152 77.8314 28.4152L108.14 28.4436C108.443 28.4436 108.595 28.5982 108.595 28.9075L108.784 65.4466C108.784 65.6902 108.687 65.9238 108.515 66.0961C108.343 66.2683 108.109 66.3651 107.866 66.3651L77.8598 66.1568C77.7682 66.1548 77.6773 66.1727 77.593 66.2093C77.5086 66.2459 77.4328 66.3003 77.3703 66.3691C77.3078 66.4378 77.26 66.5193 77.2302 66.6084C77.2003 66.6974 77.189 66.7919 77.197 66.8858C77.8219 73.2771 76.6478 80.0471 68.6374 79.9998C58.6197 79.9366 48.5989 79.8956 38.5748 79.8767C32.4581 79.8672 30.0058 75.0951 30.0153 69.6506C30.0342 62.2084 30.11 54.8545 30.2425 47.5889C30.245 47.5041 30.2305 47.4195 30.1998 47.3404C30.169 47.2612 30.1227 47.189 30.0635 47.1281C30.0044 47.0671 29.9336 47.0187 29.8553 46.9857C29.7771 46.9526 29.693 46.9356 29.6081 46.9356L0.97526 46.9451C0.72665 46.9451 0.488221 46.8463 0.312427 46.6705C0.136634 46.4947 0.0378732 46.2563 0.0378732 46.0077L0 10.4912C0 9.7148 0.385053 9.3329 1.15516 9.34553L29.7596 9.61064C30.0879 9.61064 30.2583 9.44652 30.2709 9.11828ZM44.7483 46.983L33.1588 46.8977C33.0648 46.8978 32.9716 46.9162 32.8849 46.952C32.7981 46.9878 32.7194 47.0403 32.6533 47.1064C32.5872 47.1724 32.5351 47.2508 32.5 47.3369C32.4649 47.423 32.4474 47.5151 32.4487 47.6079C32.4992 54.886 32.4866 62.2336 32.4108 69.6506C32.354 75.4454 34.314 77.661 40.0046 77.6894C48.7914 77.7336 57.5782 77.7242 66.365 77.661C74.4038 77.5947 74.8488 75.275 75.1423 67.9368C75.1865 66.7627 74.6216 66.1757 73.4474 66.1757L59.4719 66.2041C59.276 66.2041 59.0882 66.1253 58.9497 65.985C58.8111 65.8447 58.7333 65.6545 58.7333 65.4561L58.8754 28.9643C58.8753 28.869 58.8945 28.7747 58.9317 28.6867C58.9689 28.5988 59.0235 28.5191 59.0922 28.4521C59.1609 28.3852 59.2424 28.3324 59.332 28.2968C59.4215 28.2612 59.5174 28.2435 59.6139 28.2447L74.5079 28.5098C74.9119 28.5162 75.1108 28.3205 75.1044 27.9228C75.0287 21.7998 75.035 15.5884 75.1234 9.28871C75.1928 4.687 72.9551 2.36721 68.4102 2.32934C58.929 2.2599 48.9239 2.19362 38.3949 2.1305C35.8763 2.11156 34.1435 3.26988 33.1967 5.60545L32.8274 6.51443C32.0068 8.5407 32.6885 9.55068 34.8726 9.54436L44.9187 9.51596C45.0016 9.51596 45.0811 9.54988 45.1397 9.61025C45.1983 9.67062 45.2312 9.75251 45.2312 9.83789L45.2975 46.4338C45.2975 46.5794 45.2396 46.7191 45.1366 46.8221C45.0336 46.9251 44.894 46.983 44.7483 46.983ZM42.9489 12.1646C42.949 12.1161 42.9395 12.0681 42.921 12.0232C42.9025 11.9784 42.8754 11.9377 42.8412 11.9033C42.8069 11.869 42.7663 11.8417 42.7215 11.8231C42.6767 11.8045 42.6287 11.7948 42.5802 11.7948L2.83138 11.7253C2.78288 11.7253 2.73485 11.7347 2.69001 11.7532C2.64518 11.7717 2.60442 11.7988 2.57007 11.833C2.53572 11.8673 2.50844 11.9079 2.4898 11.9527C2.47116 11.9975 2.46153 12.0455 2.46144 12.094L2.40539 44.2112C2.40531 44.2597 2.41479 44.3078 2.43328 44.3526C2.45177 44.3974 2.47891 44.4382 2.51314 44.4725C2.54738 44.5069 2.58805 44.5341 2.63282 44.5528C2.6776 44.5714 2.7256 44.581 2.77409 44.5811L42.5229 44.6505C42.5714 44.6506 42.6194 44.6411 42.6643 44.6226C42.7091 44.6042 42.7499 44.577 42.7842 44.5428C42.8186 44.5086 42.8459 44.4679 42.8645 44.4231C42.8831 44.3784 42.8928 44.3304 42.8929 44.2819L42.9489 12.1646ZM106.388 31.5966C106.388 31.4847 106.366 31.3739 106.324 31.2705C106.281 31.1671 106.218 31.0731 106.139 30.994C106.06 30.9149 105.966 30.8521 105.862 30.8093C105.759 30.7665 105.648 30.7444 105.536 30.7444H62.0189C61.907 30.7444 61.7962 30.7665 61.6928 30.8093C61.5894 30.8521 61.4955 30.9149 61.4163 30.994C61.3372 31.0731 61.2744 31.1671 61.2316 31.2705C61.1888 31.3739 61.1668 31.4847 61.1668 31.5966V62.9943C61.1668 63.1062 61.1888 63.217 61.2316 63.3204C61.2744 63.4238 61.3372 63.5177 61.4163 63.5968C61.4955 63.676 61.5894 63.7387 61.6928 63.7816C61.7962 63.8244 61.907 63.8464 62.0189 63.8464H105.536C105.648 63.8464 105.759 63.8244 105.862 63.7816C105.966 63.7387 106.06 63.676 106.139 63.5968C106.218 63.5177 106.281 63.4238 106.324 63.3204C106.366 63.217 106.388 63.1062 106.388 62.9943V31.5966Z" fill="#FC3D45"/>
<path d="M23.4632 32.5919C22.2386 32.3016 21.0108 32.3174 19.7799 32.6393C19.6605 32.6696 19.5485 32.7239 19.4506 32.7989C19.3526 32.8739 19.2707 32.9681 19.2098 33.0758C19.1488 33.1836 19.11 33.3028 19.0958 33.4262C19.0815 33.5497 19.0919 33.6749 19.1266 33.7944L20.0545 37.0422C20.1502 37.3792 20.3521 37.6764 20.6301 37.8896C20.9081 38.1028 21.2475 38.2207 21.5979 38.2257L31.5493 38.3962C31.7779 38.4 32.005 38.358 32.2169 38.2728C32.4289 38.1875 32.6215 38.0607 32.7832 37.8999C32.9448 37.7391 33.0723 37.5476 33.158 37.3368C33.2437 37.126 33.2859 36.9002 33.282 36.6729L33.159 26.6362C33.1463 25.5694 32.6066 25.0424 31.5398 25.055L21.2286 25.1497C20.9257 25.152 20.6313 25.2504 20.388 25.4308C20.1446 25.6112 19.9649 25.8642 19.8746 26.1533L19.3254 27.8766C18.8331 29.4484 18.3028 29.461 17.7347 27.9145C17.2739 26.6583 17.3339 25.1623 17.9146 23.4264C17.9634 23.2752 18.0621 23.145 18.1946 23.0572C18.327 22.9695 18.4854 22.9294 18.6437 22.9435C19.641 23.0319 20.6163 22.9498 21.5695 22.6973C21.7606 22.6459 21.9245 22.5227 22.0268 22.3533C22.1292 22.1839 22.1621 21.9814 22.1186 21.7883C21.803 20.3302 21.8409 18.8815 22.2323 17.4423C22.3269 17.114 22.5195 16.8647 22.8098 16.6943C26.9949 14.2703 31.7765 15.2929 31.1895 21.2676C31.1689 21.4846 31.2262 21.7019 31.3511 21.8805C31.476 22.0592 31.6603 22.1876 31.8712 22.2428L34.2762 22.8772C34.6161 22.9672 34.9165 23.1665 35.1307 23.444C35.3448 23.7215 35.4606 24.0616 35.4598 24.4111L35.4409 39.4093C35.4409 39.5643 35.4102 39.7177 35.3506 39.8608C35.291 40.0039 35.2037 40.1337 35.0936 40.2429C34.9836 40.352 34.8531 40.4383 34.7095 40.4967C34.566 40.5552 34.4123 40.5846 34.2573 40.5834L19.155 40.5171C18.7502 40.517 18.3597 40.3669 18.059 40.0959C17.7582 39.8249 17.5685 39.4521 17.5264 39.0495C17.3181 37.0422 17.5706 35.1232 18.2839 33.2926C18.4227 32.9265 18.306 32.6803 17.9335 32.5541C14.4018 31.3894 13.9284 39.2578 8.27563 35.3473C4.03373 32.4215 7.04472 26.2101 11.9116 27.2138C13.4549 27.5357 14.4681 28.7382 15.6232 29.8461C15.7342 29.9539 15.8669 30.0381 16.0134 30.0934C16.1599 30.1487 16.3171 30.1741 16.4754 30.168C19.2781 30.0291 22.065 29.9344 24.8361 29.8839C27.279 29.8366 27.7714 32.4594 26.8718 34.0785C26.7611 34.2763 26.5986 34.4403 26.4017 34.5528C26.2049 34.6653 25.9812 34.7222 25.7545 34.7174C25.5279 34.7125 25.3068 34.6461 25.115 34.5252C24.9232 34.4043 24.7679 34.2335 24.6657 34.0312L24.268 33.2358C24.188 33.0756 24.0744 32.9349 23.9354 32.8237C23.7964 32.7125 23.6352 32.6334 23.4632 32.5919ZM25.0255 18.4175C24.8757 18.4589 24.7366 18.5319 24.6174 18.6315C24.4981 18.7311 24.4016 18.8551 24.3343 18.9951L23.3874 20.9646C23.3068 21.1316 23.2701 21.3165 23.2809 21.5017C23.2918 21.6868 23.3497 21.8662 23.4493 22.0227C23.5489 22.1792 23.6868 22.3076 23.85 22.3959C24.0131 22.4841 24.1961 22.5292 24.3816 22.5269L28.3016 22.4511C28.4735 22.4474 28.642 22.4029 28.7934 22.3215C28.9448 22.2401 29.0748 22.1239 29.1727 21.9826C29.2706 21.8413 29.3336 21.6788 29.3567 21.5085C29.3797 21.3381 29.3621 21.1647 29.3053 21.0024L28.4436 18.5217C28.3508 18.2608 28.162 18.0451 27.9158 17.9184C27.6695 17.7918 27.3842 17.7637 27.118 17.84L25.0255 18.4175ZM13.5877 31.3861C13.5435 30.8606 13.2238 30.38 12.699 30.0499C12.1741 29.7197 11.487 29.5672 10.7889 29.6258C10.4432 29.6549 10.1052 29.7349 9.79413 29.8612C9.48311 29.9876 9.20516 30.158 8.97617 30.3625C8.74717 30.567 8.5716 30.8017 8.4595 31.0532C8.34739 31.3047 8.30094 31.5681 8.32279 31.8283C8.36694 32.3538 8.68661 32.8345 9.21149 33.1646C9.73636 33.4947 10.4234 33.6472 11.1216 33.5886C11.4673 33.5596 11.8053 33.4796 12.1163 33.3532C12.4274 33.2268 12.7053 33.0565 12.9343 32.8519C13.1633 32.6474 13.3389 32.4127 13.451 32.1612C13.5631 31.9097 13.6095 31.6463 13.5877 31.3861Z" fill="#FC3D45"/>
<path d="M82.2886 54.916C82.1809 55.2269 81.9542 55.4822 81.6583 55.6259C81.3624 55.7696 81.0215 55.7898 80.7107 55.6822L80.657 55.6636C80.3461 55.556 80.0908 55.3293 79.9471 55.0334C79.8034 54.7374 79.7832 54.3966 79.8908 54.0857L85.0773 39.1079C85.1849 38.7971 85.4116 38.5417 85.7076 38.398C86.0035 38.2543 86.3444 38.2341 86.6552 38.3417L86.7089 38.3603C87.0197 38.4679 87.2751 38.6946 87.4188 38.9906C87.5625 39.2865 87.5827 39.6274 87.4751 39.9382L82.2886 54.916Z" fill="#FC3D45"/>
<path d="M74.7161 48.4982L79.2136 53.2988C79.5924 53.7027 79.5072 53.9016 78.958 53.8953H77.6987C77.0793 53.8891 76.4878 53.6409 76.0512 53.2041L71.885 49.0379C71.4892 48.6381 71.263 48.1015 71.2542 47.5414C71.2453 46.9813 71.4546 46.4417 71.8377 46.0364L76.5435 41.0559C77.0169 40.5509 77.5503 40.4752 78.1437 40.8287L78.5508 41.0749C78.658 41.1378 78.7492 41.2244 78.8178 41.3281C78.8864 41.4319 78.9306 41.5501 78.947 41.674C78.9634 41.7978 78.9516 41.9241 78.9125 42.0433C78.8734 42.1626 78.808 42.2717 78.7213 42.3626L74.7256 46.5666C74.4776 46.8281 74.3384 47.1739 74.3367 47.5331C74.3349 47.8923 74.4707 48.2376 74.7161 48.4982Z" fill="#FC3D45"/>
<path d="M93.0283 46.5005C92.9399 46.2733 92.7095 46.0208 92.3371 45.7431C90.9484 44.7205 90.0236 43.3917 89.5628 41.7568C89.5253 41.6275 89.5319 41.4893 89.5816 41.3641C89.6313 41.2389 89.7214 41.1339 89.8374 41.0656C90.2604 40.8068 90.7464 40.8952 91.2956 41.3307C93.1514 42.7762 94.7769 44.4332 96.1719 46.3017C96.4598 46.6867 96.6 47.1622 96.567 47.6417C96.5339 48.1213 96.3299 48.5731 95.992 48.915L91.1062 53.8671C91.0048 53.9689 90.8841 54.0496 90.751 54.1043C90.6178 54.159 90.475 54.1867 90.3306 54.1858C90.1863 54.1849 90.0433 54.1555 89.9099 54.0991C89.7765 54.0428 89.6553 53.9607 89.5534 53.8576L89.203 53.5073C89.0643 53.3668 88.9875 53.1765 88.9893 52.9778C88.9911 52.7792 89.0713 52.5883 89.2125 52.4468L92.3561 49.3316C92.731 48.9617 92.9939 48.498 93.1131 47.9959C93.2323 47.4938 93.2029 46.9746 93.0283 46.5005Z" fill="#FC3D45"/>
</svg>
