<svg width="116" height="49" viewBox="0 0 116 49" fill="none" xmlns="http://www.w3.org/2000/svg">
<path d="M90.315 2.32C96.465 3.29 115.145 6.86 115.215 15.46C115.262 20.7533 115.302 26.0467 115.335 31.34C115.395 40.13 101.985 43.14 95.175 44.48C73.995 48.66 52.6983 49.3333 31.285 46.5C22.355 45.31 11.965 43.35 4.285 38.74C1.43167 37.0267 0.005 34.3967 0.005 30.85C-0.00166667 26.8367 -0.00166667 22.83 0.005 18.83C0.0116667 15.9833 0.325001 13.9333 0.945001 12.68C5.095 4.36 28.305 1.32 36.325 0.76C50.6717 -0.253333 65.3383 -0.253333 80.325 0.76C83.835 1 87.775 1.92 90.315 2.32ZM111.115 15.17C111.115 11.9529 105.487 8.86761 95.4686 6.59279C85.4504 4.31798 71.8629 3.04 57.695 3.04C43.5271 3.04 29.9395 4.31798 19.9214 6.59279C9.90316 8.86761 4.275 11.9529 4.275 15.17C4.275 18.3871 9.90316 21.4724 19.9214 23.7472C29.9395 26.022 43.5271 27.3 57.695 27.3C71.8629 27.3 85.4504 26.022 95.4686 23.7472C105.487 21.4724 111.115 18.3871 111.115 15.17ZM41.205 43.94C56.6717 45.2267 72.1083 44.6933 87.515 42.34C93.055 41.5 111.725 38.23 111.715 31.59C111.715 28.4633 111.745 25.4333 111.805 22.5C111.807 22.3634 111.774 22.2283 111.709 22.108C111.645 21.9877 111.55 21.8863 111.435 21.8137C111.32 21.7412 111.189 21.6999 111.054 21.694C110.919 21.6881 110.785 21.7177 110.665 21.78C104.598 24.9 98.285 27 91.725 28.08C76.025 30.66 61.695 31.13 44.235 30.36C36.705 30.02 29.585 28.86 22.235 27.59C16.095 26.5233 10.1617 24.61 4.435 21.85C4.34349 21.805 4.24187 21.7845 4.14007 21.7905C4.03826 21.7964 3.93974 21.8287 3.85413 21.8841C3.76851 21.9395 3.69871 22.0161 3.65154 22.1066C3.60437 22.197 3.58145 22.2981 3.585 22.4C3.665 25.4533 3.70167 28.56 3.695 31.72C3.675 40.65 34.905 43.41 41.205 43.94Z" fill="#FC3D45"/>
</svg>
