<svg width="92" height="60" viewBox="0 0 92 60" fill="none" xmlns="http://www.w3.org/2000/svg">
<path d="M91.8931 59.8091C91.8931 59.8598 91.8699 59.9083 91.8288 59.9441C91.7876 59.9799 91.7318 60 91.6736 60H0.219477C0.161268 60 0.105443 59.9799 0.0642836 59.9441C0.0231238 59.9083 0 59.8598 0 59.8091V0.190848C0 0.140231 0.0231238 0.0916899 0.0642836 0.0558988C0.105443 0.0201077 0.161268 0 0.219477 0H91.6736C91.7318 0 91.7876 0.0201077 91.8288 0.0558988C91.8699 0.0916899 91.8931 0.140231 91.8931 0.190848V59.8091ZM89.7236 2.5838C89.7236 2.4339 89.6552 2.29014 89.5333 2.18414C89.4114 2.07814 89.246 2.0186 89.0736 2.0186H2.98825C2.81587 2.0186 2.65054 2.07814 2.52864 2.18414C2.40675 2.29014 2.33827 2.4339 2.33827 2.5838V7.69268C2.33827 7.84259 2.40675 7.98635 2.52864 8.09234C2.65054 8.19834 2.81587 8.25789 2.98825 8.25789H89.0736C89.246 8.25789 89.4114 8.19834 89.5333 8.09234C89.6552 7.98635 89.7236 7.84259 89.7236 7.69268V2.5838ZM89.521 10.7977C89.521 10.6302 89.4445 10.4697 89.3084 10.3513C89.1723 10.2329 88.9876 10.1664 88.7951 10.1664H3.08111C2.88857 10.1664 2.70392 10.2329 2.56778 10.3513C2.43163 10.4697 2.35515 10.6302 2.35515 10.7977V57.3501C2.35515 57.5176 2.43163 57.6781 2.56778 57.7965C2.70392 57.9149 2.88857 57.9814 3.08111 57.9814H88.7951C88.9876 57.9814 89.1723 57.9149 89.3084 57.7965C89.4445 57.6781 89.521 57.5176 89.521 57.3501V10.7977Z" fill="#FC3D45"/>
<path d="M50.668 20.8272L50.6204 20.812C49.9554 20.5992 49.2179 20.8956 48.9732 21.4739L38.7423 45.6538C38.4976 46.2321 38.8383 46.8734 39.5034 47.0861L39.5509 47.1014C40.216 47.3141 40.9535 47.0178 41.1981 46.4395L51.4291 22.2596C51.6738 21.6813 51.333 21.04 50.668 20.8272Z" fill="#FC3D45"/>
<path d="M34.7026 43.5727L33.5714 44.4021C33.4628 44.4817 33.323 44.5216 33.1813 44.5134C33.0397 44.5051 32.9072 44.4495 32.8117 44.3581L22.9184 34.9037C22.8241 34.8166 22.7709 34.7018 22.7693 34.5822C22.7678 34.4625 22.8179 34.3468 22.9099 34.2578L32.7273 24.7887C32.8092 24.7092 32.9194 24.6558 33.0403 24.6372C33.1612 24.6186 33.2858 24.6357 33.3942 24.686L34.7026 25.2732C34.7765 25.3071 34.8405 25.3551 34.8898 25.4138C34.9391 25.4724 34.9723 25.5401 34.987 25.6116C35.0016 25.6831 34.9973 25.7566 34.9743 25.8264C34.9514 25.8962 34.9104 25.9606 34.8545 26.0146L26.2781 34.3459C26.1884 34.4344 26.1397 34.5486 26.1413 34.6666C26.1428 34.7845 26.1946 34.8978 26.2865 34.9845L34.7448 42.8827C34.7958 42.9297 34.8353 42.9852 34.8609 43.0458C34.8865 43.1065 34.8976 43.171 34.8937 43.2355C34.8897 43.3001 34.8708 43.3632 34.8379 43.4212C34.8051 43.4791 34.759 43.5307 34.7026 43.5727Z" fill="#FC3D45"/>
<path d="M56.6166 25.5733L57.7646 24.8466C57.8739 24.7783 58.0082 24.7472 58.1421 24.7594C58.2759 24.7716 58.3999 24.8261 58.4906 24.9127L68.2066 34.2789C68.2998 34.367 68.3514 34.4823 68.3514 34.6019C68.3514 34.7216 68.2998 34.8368 68.2066 34.9249L58.1276 44.4747C58.0768 44.5229 58.0152 44.5616 57.9466 44.5883C57.8779 44.615 57.8037 44.6291 57.7285 44.6298C57.6533 44.6305 57.5787 44.6177 57.5094 44.5923C57.4401 44.5669 57.3776 44.5293 57.3257 44.482L56.3127 43.5645C56.216 43.4769 56.1613 43.3607 56.1597 43.2393C56.1581 43.1179 56.2098 43.0006 56.3042 42.9112L64.7203 34.9469C64.8122 34.8602 64.864 34.7469 64.8655 34.629C64.8671 34.5111 64.8184 34.3968 64.7288 34.3083L56.5237 26.2706C56.4742 26.2206 56.4371 26.1623 56.4148 26.0992C56.3926 26.0362 56.3856 25.9698 56.3943 25.9042C56.403 25.8387 56.4273 25.7755 56.4655 25.7185C56.5038 25.6615 56.5552 25.6121 56.6166 25.5733Z" fill="#FC3D45"/>
</svg>
