<svg width="109" height="82" viewBox="0 0 109 82" fill="none" xmlns="http://www.w3.org/2000/svg">
<path d="M24.5198 2.21475C46.9998 -1.18525 69.4798 -0.705251 91.7598 3.89475C96.4498 4.86475 104.19 7.14475 107.04 11.6648C107.846 12.9514 108.253 14.8648 108.26 17.4048C108.266 33.6714 108.26 49.9214 108.24 66.1547C108.24 71.3547 103.05 74.1747 98.7598 75.6147C80.9997 81.5647 62.6198 81.9447 42.2698 81.1947C31.7698 80.8148 21.6898 79.2114 12.0298 76.3848C7.03975 74.9248 0.299752 72.3447 0.249752 65.9147C0.159752 53.1447 0.389753 40.0347 0.0597533 27.1647C-0.0869134 21.8047 0.0364189 17.3014 0.429752 13.6548C1.16975 6.67475 18.5798 3.11475 24.5198 2.21475ZM105.15 14.5048C105.15 11.3752 99.805 8.37382 90.2913 6.16089C80.7776 3.94796 67.8742 2.70475 54.4198 2.70475C40.9653 2.70475 28.0619 3.94796 18.5482 6.16089C9.0345 8.37382 3.68975 11.3752 3.68975 14.5048C3.68975 17.6343 9.0345 20.6357 18.5482 22.8486C28.0619 25.0615 40.9653 26.3047 54.4198 26.3047C67.8742 26.3047 80.7776 25.0615 90.2913 22.8486C99.805 20.6357 105.15 17.6343 105.15 14.5048ZM51.5098 43.1847C67.6698 43.5447 89.4498 42.7847 103.77 34.4347C104.87 33.7947 105.4 32.7881 105.36 31.4147C105.246 27.7414 105.343 24.1414 105.65 20.6147C105.656 20.5388 105.642 20.4626 105.609 20.3939C105.576 20.3252 105.525 20.2665 105.462 20.2238C105.399 20.1811 105.326 20.1559 105.25 20.1508C105.174 20.1457 105.098 20.1608 105.03 20.1947C95.6297 24.9547 86.1098 26.9247 74.7698 28.0347C60.2564 29.4481 45.7564 29.4281 31.2698 27.9748C21.6831 27.0148 12.5564 24.5448 3.88975 20.5648C3.81079 20.527 3.72346 20.5106 3.63615 20.5171C3.54885 20.5237 3.4645 20.553 3.3912 20.6022C3.3179 20.6514 3.25811 20.7188 3.21758 20.7981C3.17705 20.8774 3.15714 20.9657 3.15975 21.0547C3.25308 24.3414 3.31642 27.6281 3.34975 30.9147C3.36975 32.8047 3.79975 34.0347 5.57975 34.9847C19.1598 42.2347 36.1598 42.8347 51.5098 43.1847ZM3.12975 37.7148C3.25642 42.7548 3.34642 47.4381 3.39975 51.7647C3.40975 53.2647 3.67975 54.1348 5.07975 54.9147C13.3998 59.5247 22.3998 61.0148 32.2698 62.3948C43.3831 63.9548 56.9631 64.0281 73.0098 62.6147C82.7197 61.7547 96.0698 59.8848 104.26 54.2747C104.547 54.0802 104.783 53.8183 104.946 53.5117C105.11 53.2051 105.197 52.863 105.2 52.5147L105.38 38.1547C105.382 38.0499 105.357 37.9463 105.308 37.8539C105.258 37.7614 105.186 37.6833 105.097 37.627C105.009 37.5708 104.907 37.5382 104.803 37.5326C104.698 37.5269 104.594 37.5483 104.5 37.5947C96.5798 41.4347 88.6398 43.3547 79.6698 44.5147C61.5998 46.8347 42.5998 46.6847 26.0098 44.2048C18.1698 43.0314 10.7198 40.7547 3.65975 37.3747C3.60286 37.3475 3.53993 37.3352 3.47695 37.339C3.41397 37.3429 3.35303 37.3628 3.29991 37.3969C3.2468 37.431 3.20329 37.4781 3.1735 37.5337C3.14372 37.5893 3.12866 37.6517 3.12975 37.7148ZM3.56975 57.3647C3.51249 57.3351 3.44847 57.3209 3.38404 57.3236C3.31961 57.3263 3.25701 57.3458 3.20243 57.3802C3.14786 57.4145 3.10322 57.4626 3.07293 57.5195C3.04264 57.5764 3.02776 57.6403 3.02975 57.7048C3.10975 60.7981 3.21975 63.9481 3.35975 67.1547C3.43309 68.8814 3.88642 69.9981 4.71975 70.5047C8.24642 72.6447 13.0131 74.3447 19.0198 75.6048C37.1898 79.4248 57.5098 79.8447 75.1698 78.0247C84.4098 77.0781 93.1198 74.9881 101.3 71.7547C106.82 69.5747 105.19 62.9147 105.53 58.1947C105.537 58.0752 105.514 57.9557 105.462 57.848C105.409 57.7404 105.329 57.6482 105.231 57.5806C105.132 57.513 105.017 57.4723 104.898 57.4625C104.778 57.4527 104.658 57.4742 104.55 57.5247C102.06 58.6847 99.6198 60.0647 97.0798 60.8347C87.7864 63.6547 78.9331 65.2747 70.5198 65.6947C48.7598 66.7647 23.6598 67.1647 3.56975 57.3647Z" fill="#FC3D45"/>
</svg>
