<svg width="32" height="32" viewBox="0 0 32 32" fill="none" xmlns="http://www.w3.org/2000/svg">
<circle cx="16" cy="16" r="16" fill="#FFD2D4"/>
<path d="M21.5687 10.3184C21.8329 10.067 22.1844 9.92795 22.549 9.9307C22.9137 9.93346 23.263 10.0778 23.5233 10.3332C23.7836 10.5886 23.9345 10.9352 23.9441 11.2997C23.9538 11.6643 23.8214 12.0183 23.575 12.2872L16.0937 21.6434C15.9651 21.782 15.8098 21.8932 15.6372 21.9704C15.4646 22.0475 15.2782 22.0891 15.0892 22.0926C14.9002 22.0961 14.7124 22.0615 14.537 21.9907C14.3617 21.92 14.2024 21.8146 14.0687 21.6809L9.10749 16.7197C8.96933 16.5909 8.85851 16.4357 8.78165 16.2632C8.70479 16.0907 8.66346 15.9045 8.66013 15.7156C8.6568 15.5268 8.69153 15.3393 8.76226 15.1642C8.83299 14.9891 8.93826 14.83 9.07179 14.6965C9.20533 14.5629 9.36439 14.4577 9.53949 14.3869C9.7146 14.3162 9.90215 14.2815 10.091 14.2848C10.2798 14.2881 10.466 14.3295 10.6385 14.4063C10.811 14.4832 10.9662 14.594 11.095 14.7322L15.0212 18.6565L21.5331 10.3597C21.5448 10.3452 21.5555 10.3315 21.5687 10.3184Z" fill="#FC3D45"/>
</svg>
