<svg width="90" height="60" viewBox="0 0 90 60" fill="none" xmlns="http://www.w3.org/2000/svg">
<path d="M60.1879 12.9029L60.1958 21.7839C60.1958 21.8992 60.1517 22.0099 60.0731 22.0915C59.9945 22.173 59.8879 22.2189 59.7767 22.2189L39.1316 22.1778C39.0707 22.1768 39.0106 22.1633 38.9549 22.1383C38.8991 22.1132 38.8488 22.0771 38.8068 22.032C38.7649 21.987 38.7321 21.9338 38.7105 21.8757C38.6889 21.8176 38.6788 21.7557 38.6809 21.6936L38.9577 12.4843C38.9598 12.4013 38.946 12.3188 38.917 12.2417C38.8881 12.1645 38.8446 12.0943 38.7892 12.0353C38.7338 11.9762 38.6677 11.9296 38.5947 11.8982C38.5217 11.8667 38.4435 11.8511 38.3647 11.8523L32.047 11.8933C31.8659 11.8955 31.693 11.9716 31.5657 12.1053C31.4384 12.239 31.367 12.4194 31.367 12.6074L31.3749 46.0876C31.3749 46.788 31.7122 47.1436 32.387 47.1546L38.1591 47.2285C38.8549 47.2394 39.1764 46.8865 39.1237 46.1696L38.5781 38.6101C38.5307 37.9809 38.8127 37.6662 39.4242 37.6662L59.8242 37.6498C60.1405 37.6498 60.296 37.814 60.2907 38.1423L60.0851 46.4569C60.083 46.5452 60.0978 46.6331 60.1288 46.7152C60.1597 46.7974 60.2061 46.8721 60.2652 46.9349C60.3242 46.9978 60.3947 47.0474 60.4725 47.0809C60.5502 47.1144 60.6336 47.1311 60.7177 47.13L68.0554 47.0807C68.3136 47.0807 68.535 46.985 68.7195 46.7934L78.5242 36.7387C78.6085 36.6525 78.7221 36.6042 78.8405 36.6042C78.9588 36.6042 79.0724 36.6525 79.1567 36.7387L89.3251 47.212C89.3901 47.2785 89.4418 47.3577 89.477 47.4451C89.5123 47.5324 89.5304 47.6262 89.5304 47.7209C89.5304 47.8157 89.5123 47.9094 89.477 47.9968C89.4418 48.0842 89.3901 48.1634 89.3251 48.2298L79.2516 58.6867C79.2039 58.7364 79.1472 58.7757 79.0848 58.8026C79.0224 58.8295 78.9555 58.8433 78.8879 58.8433C78.8203 58.8433 78.7534 58.8295 78.691 58.8026C78.6286 58.7757 78.5719 58.7364 78.5242 58.6867L69.2493 49.0752C69.0543 48.8728 68.8171 48.7715 68.5377 48.7715L60.6465 48.8208C60.2775 48.8263 60.0957 49.0205 60.1009 49.4036L60.2591 59.2038C60.2612 59.3076 60.2433 59.4108 60.2065 59.5073C60.1697 59.6038 60.1147 59.6917 60.0447 59.7658C59.9748 59.84 59.8912 59.8989 59.7991 59.9391C59.7069 59.9793 59.6079 60 59.5079 60L39.3293 59.9754C39.2394 59.9754 39.1503 59.9568 39.0676 59.9205C38.9849 59.8842 38.9102 59.831 38.8481 59.7642C38.786 59.6975 38.7378 59.6185 38.7063 59.532C38.6748 59.4455 38.6608 59.3534 38.6651 59.2613L39.0288 49.4036C39.0394 49.0588 38.8786 48.8865 38.5465 48.8865L30.0228 48.9193C29.9505 48.9193 29.8789 48.9044 29.8122 48.8754C29.7454 48.8464 29.6849 48.804 29.6342 48.7505C29.5834 48.6971 29.5434 48.6336 29.5164 48.564C29.4895 48.4943 29.4762 48.4198 29.4772 48.3447L29.7381 30.4104C29.7381 30.2994 29.6965 30.1929 29.6223 30.1144C29.5482 30.0359 29.4476 29.9918 29.3428 29.9918L22.5902 29.9015C22.4456 29.8993 22.302 29.9272 22.1678 29.9836C22.0336 30.04 21.9115 30.1236 21.8085 30.2298C21.7055 30.336 21.6237 30.4625 21.5678 30.602C21.512 30.7415 21.4833 30.8912 21.4833 31.0424L21.5307 40.4815C21.5307 40.5527 21.5172 40.6231 21.491 40.6888C21.4647 40.7546 21.4263 40.8143 21.3778 40.8646C21.3294 40.9149 21.2719 40.9548 21.2085 40.982C21.1452 41.0092 21.0774 41.0233 21.0088 41.0233L0.838139 41.0889C0.728073 41.0889 0.619086 41.0664 0.517398 41.0227C0.41571 40.979 0.323314 40.9149 0.245485 40.8341C0.167657 40.7533 0.105921 40.6574 0.0638002 40.5518C0.0216797 40.4463 0 40.3331 0 40.2189L0.142326 19.0752C0.142326 18.8181 0.266201 18.6922 0.513953 18.6977L21.0405 18.7633C21.1335 18.7633 21.2228 18.8011 21.2893 18.8686C21.3558 18.9361 21.3942 19.028 21.3963 19.1245L21.5702 27.2421C21.5786 27.5563 21.7055 27.8544 21.9232 28.0712C22.141 28.288 22.4319 28.406 22.7326 28.3995L29.0423 28.2845C29.5905 28.2791 29.8594 27.9918 29.8488 27.4227L29.5405 10.6867C29.5394 10.6311 29.5491 10.5758 29.5689 10.524C29.5887 10.4723 29.6182 10.4252 29.6557 10.3854C29.6933 10.3457 29.7381 10.3141 29.7876 10.2926C29.837 10.271 29.8901 10.2599 29.9437 10.2599L38.0642 10.2763C38.7389 10.2763 39.0631 9.92886 39.0367 9.23393L38.7363 0.492478C38.7342 0.431828 38.7438 0.371353 38.7647 0.314673C38.7856 0.257994 38.8173 0.206271 38.8579 0.162597C38.8985 0.118923 38.9472 0.0841957 39.001 0.0604893C39.0548 0.0367829 39.1127 0.0245858 39.1712 0.0246259L59.9823 0C60.0473 0 60.1097 0.0259427 60.1556 0.0721213C60.2016 0.1183 60.2274 0.180931 60.2274 0.246237L60.1721 10.0793C60.1721 10.1777 60.191 10.2752 60.2277 10.3659C60.2645 10.4566 60.3183 10.5388 60.3861 10.6076C60.4538 10.6764 60.5342 10.7305 60.6223 10.7666C60.7105 10.8028 60.8048 10.8202 60.8995 10.8181C63.5958 10.7524 68.5535 11.4008 70.5698 9.18468C73.1791 6.31738 75.8121 3.51573 78.4688 0.779754C78.5666 0.679008 78.6988 0.622471 78.8365 0.622471C78.9743 0.622471 79.1064 0.679008 79.2042 0.779754L89.5465 11.4665C89.7047 11.6252 89.7047 11.7866 89.5465 11.9508L79.133 22.7688C79.0953 22.809 79.05 22.8407 78.9999 22.8622C78.9498 22.8836 78.8958 22.8942 78.8412 22.8934C78.7866 22.8927 78.7325 22.8805 78.6821 22.8577C78.6318 22.8349 78.5861 22.8019 78.5479 22.7606C75.8912 19.8988 73.1712 17.0698 70.3879 14.2736C69.3916 13.2722 69.1544 12.394 67.494 12.4104C65.2009 12.4323 62.9105 12.446 60.6228 12.4514C60.3329 12.4514 60.1879 12.6019 60.1879 12.9029ZM58.6297 2.01932C58.6298 1.97405 58.6213 1.9292 58.6046 1.88734C58.588 1.84548 58.5636 1.80743 58.5329 1.77536C58.5021 1.74329 58.4655 1.71782 58.4253 1.70042C58.385 1.68302 58.3418 1.67401 58.2982 1.67393L40.7131 1.64208C40.6695 1.64201 40.6263 1.65085 40.586 1.6681C40.5457 1.68536 40.509 1.71068 40.4781 1.74264C40.4472 1.7746 40.4227 1.81256 40.4059 1.85436C40.3892 1.89616 40.3805 1.94097 40.3805 1.98624L40.3499 20.1749C40.3498 20.2202 40.3583 20.2651 40.3749 20.3069C40.3915 20.3488 40.4159 20.3868 40.4467 20.4189C40.4775 20.451 40.514 20.4764 40.5543 20.4938C40.5945 20.5112 40.6377 20.5202 40.6813 20.5203L58.2664 20.5522C58.31 20.5522 58.3532 20.5434 58.3936 20.5262C58.4339 20.5089 58.4705 20.4836 58.5014 20.4516C58.5323 20.4197 58.5568 20.3817 58.5736 20.3399C58.5903 20.2981 58.599 20.2533 58.5991 20.208L58.6297 2.01932ZM79.4809 3.34884C79.3284 3.19195 79.1224 3.10394 78.9077 3.10394C78.693 3.10394 78.4869 3.19195 78.3344 3.34884L70.6963 11.1546C70.6196 11.2338 70.5588 11.3281 70.5177 11.432C70.4765 11.5359 70.4556 11.6473 70.4564 11.7596C70.4571 11.8719 70.4794 11.983 70.5219 12.0863C70.5645 12.1896 70.6264 12.283 70.7042 12.3611L78.3502 20.0274C78.5034 20.1807 78.7084 20.2657 78.9211 20.2641C79.1339 20.2626 79.3377 20.1747 79.4888 20.0192L86.9767 12.3119C87.0533 12.2339 87.1142 12.1409 87.1561 12.0384C87.1979 11.9359 87.2198 11.8258 87.2206 11.7144C87.2213 11.6031 87.2008 11.4927 87.1604 11.3896C87.1199 11.2864 87.0602 11.1926 86.9847 11.1135L79.4809 3.34884ZM19.9161 21.3982C19.9163 21.2602 19.8904 21.1235 19.8397 20.996C19.7891 20.8684 19.7147 20.7525 19.6209 20.6547C19.5271 20.557 19.4156 20.4794 19.2929 20.4264C19.1702 20.3734 19.0387 20.346 18.9057 20.3457L2.72814 20.3164C2.59523 20.3162 2.46358 20.3431 2.3407 20.3957C2.21781 20.4483 2.10611 20.5254 2.01195 20.6228C1.9178 20.7202 1.84305 20.8359 1.79197 20.9633C1.74089 21.0906 1.71447 21.2272 1.71423 21.3652L1.68577 38.3228C1.68554 38.4607 1.71149 38.5974 1.76214 38.725C1.8128 38.8525 1.88715 38.9685 1.98097 39.0662C2.07479 39.1639 2.18624 39.2415 2.30894 39.2945C2.43165 39.3475 2.56321 39.3749 2.69612 39.3752L18.8737 39.4045C19.0066 39.4047 19.1383 39.3778 19.2612 39.3252C19.3841 39.2727 19.4958 39.1955 19.5899 39.0981C19.6841 39.0007 19.7588 38.885 19.8099 38.7577C19.861 38.6303 19.8874 38.4937 19.8876 38.3558L19.9161 21.3982ZM86.8108 48.3526C86.9878 48.1669 87.0865 47.9159 87.0852 47.6547C87.0839 47.3935 86.9827 47.1435 86.8038 46.9597L79.4188 39.3735C79.3302 39.2825 79.2252 39.2105 79.1099 39.1616C78.9945 39.1127 78.871 39.0879 78.7464 39.0886C78.6218 39.0893 78.4985 39.1154 78.3836 39.1656C78.2688 39.2157 78.1645 39.2888 78.0769 39.3808L70.7911 47.0236C70.6141 47.2093 70.5154 47.4603 70.5167 47.7215C70.518 47.9827 70.6192 48.2327 70.798 48.4165L78.1831 56.0027C78.2716 56.0937 78.3766 56.1657 78.492 56.2146C78.6074 56.2635 78.7309 56.2883 78.8555 56.2876C78.9801 56.2869 79.1034 56.2608 79.2182 56.2106C79.3331 56.1605 79.4373 56.0874 79.525 55.9954L86.8108 48.3526ZM58.6198 39.9892C58.6204 39.7998 58.5486 39.618 58.42 39.4836C58.2915 39.3492 58.1168 39.2733 57.9343 39.2727L41.1242 39.2118C40.9418 39.2111 40.7665 39.2857 40.6371 39.4191C40.5076 39.5526 40.4346 39.7339 40.4339 39.9233L40.3756 57.2748C40.3749 57.4642 40.4468 57.6461 40.5753 57.7804C40.7039 57.9148 40.8786 57.9907 41.061 57.9914L57.8712 58.0523C58.0536 58.0529 58.2288 57.9783 58.3583 57.8449C58.4877 57.7114 58.5608 57.5301 58.5614 57.3407L58.6198 39.9892Z" fill="#FC3D45"/>
</svg>
