<svg width="95" height="60" viewBox="0 0 95 60" fill="none" xmlns="http://www.w3.org/2000/svg">
<path d="M76.6396 24.61C76.2378 24.4594 75.8093 24.3814 75.354 24.376C72.0328 24.3276 68.749 24.3034 65.5028 24.3034C65.4378 24.3034 65.3734 24.2904 65.3134 24.2652C65.2534 24.2399 65.199 24.203 65.1534 24.1564C65.1077 24.1098 65.0718 24.0546 65.0477 23.994C65.0235 23.9333 65.0116 23.8684 65.0127 23.8031L65.085 0.459924C65.085 0.337945 65.1332 0.220962 65.2191 0.13471C65.305 0.0484571 65.4215 0 65.543 0L88.9334 0.225927C89.0336 0.225927 89.1296 0.265883 89.2005 0.337004C89.2713 0.408124 89.3111 0.504584 89.3111 0.605164L89.3352 23.5611C89.3352 23.6645 89.3146 23.767 89.2745 23.8624C89.2344 23.9579 89.1757 24.0446 89.1017 24.1174C89.0278 24.1901 88.94 24.2476 88.8435 24.2865C88.7471 24.3253 88.6438 24.3448 88.5397 24.3437L79.2671 24.2388C79.1655 24.2378 79.0647 24.2569 78.9706 24.295C78.8765 24.3332 78.7911 24.3896 78.7192 24.461C78.6474 24.5324 78.5906 24.6173 78.5522 24.7108C78.5138 24.8043 78.4946 24.9044 78.4957 25.0054L78.5439 34.5186C78.5439 34.7226 78.6241 34.9184 78.767 35.0635C78.9099 35.2085 79.1041 35.291 79.3073 35.2932L94.3974 35.5352C94.7991 35.5406 95 35.745 95 36.1485L94.9357 59.4271C94.9357 59.5683 94.8798 59.7038 94.7804 59.8037C94.6809 59.9035 94.546 59.9597 94.4054 59.9597L1.03654 60C0.366939 60 0.0321407 59.6638 0.0321407 58.9914L0 35.5998C0 35.3792 0.109814 35.2716 0.329442 35.277L14.8892 35.4142C15.0779 35.4164 15.2652 35.3805 15.4398 35.3084C15.6144 35.2364 15.7728 35.1299 15.9055 34.9951C16.0382 34.8603 16.1426 34.7001 16.2123 34.5239C16.282 34.3478 16.3158 34.1594 16.3114 33.9699L16.0864 24.7875C16.0843 24.7097 16.0521 24.6359 15.9966 24.5816C15.941 24.5274 15.8666 24.497 15.7891 24.497L5.88979 24.4164C5.79904 24.4153 5.70939 24.3963 5.62595 24.3605C5.54251 24.3246 5.46692 24.2726 5.4035 24.2074C5.34008 24.1422 5.29006 24.0651 5.25631 23.9805C5.22256 23.8959 5.20574 23.8055 5.2068 23.7144L5.49607 0.322752C5.49607 0.237153 5.52993 0.15506 5.5902 0.0945323C5.65048 0.0340041 5.73223 0 5.81747 0L29.6338 0.129102C29.6962 0.131196 29.7555 0.156771 29.7989 0.200429C29.8424 0.244087 29.8667 0.302413 29.8668 0.363099L29.8507 23.674C29.8507 23.8559 29.7788 24.0304 29.6507 24.159C29.5226 24.2876 29.3489 24.3599 29.1677 24.3599L18.955 24.2388C18.8203 24.2378 18.6868 24.2635 18.562 24.3145C18.4373 24.3655 18.3238 24.4408 18.2282 24.5361C18.1326 24.6314 18.0567 24.7447 18.0049 24.8696C17.9532 24.9944 17.9265 25.1283 17.9265 25.2636L17.9185 34.2926C17.9174 34.4395 17.9453 34.5852 18.0005 34.7212C18.0558 34.8573 18.1373 34.981 18.2404 35.0852C18.3435 35.1895 18.4661 35.2722 18.6011 35.3287C18.7362 35.3851 18.881 35.4142 19.0273 35.4142L45.6238 35.4626C45.7637 35.4626 45.9023 35.4346 46.0315 35.3802C46.1607 35.3257 46.278 35.246 46.3766 35.1455C46.4752 35.045 46.5532 34.9257 46.606 34.7946C46.6588 34.6634 46.6855 34.523 46.6844 34.3814L46.6362 24.957C46.6362 24.7957 46.573 24.6409 46.4602 24.5262C46.3474 24.4114 46.1941 24.3459 46.0336 24.3437L36.0458 24.3034C35.8476 24.3034 35.6576 24.2235 35.5174 24.0812C35.3773 23.939 35.2986 23.7461 35.2986 23.5449L35.3146 0.621302C35.3146 0.462943 35.3773 0.31107 35.4888 0.199093C35.6003 0.0871157 35.7515 0.0242056 35.9092 0.0242056L59.2274 0.0564817C59.3232 0.0564817 59.4152 0.0955871 59.483 0.165194C59.5508 0.234802 59.5889 0.329209 59.5889 0.427648L59.5729 23.5691C59.5729 23.7724 59.4916 23.9674 59.3469 24.1111C59.2023 24.2549 59.0061 24.3357 58.8015 24.3357L49.1994 24.255C49.0831 24.2539 48.9677 24.2761 48.8599 24.3203C48.7522 24.3646 48.6543 24.4299 48.5721 24.5125C48.4898 24.5952 48.4247 24.6934 48.3807 24.8016C48.3366 24.9098 48.3145 25.0257 48.3156 25.1425L48.3718 34.5428C48.3772 35.0968 48.6557 35.3765 49.2075 35.3819L75.7879 35.4707C75.9359 35.4718 76.0827 35.4435 76.2196 35.3875C76.3566 35.3315 76.481 35.2489 76.5857 35.1446C76.6904 35.0402 76.7732 34.9161 76.8294 34.7796C76.8855 34.643 76.9139 34.4967 76.9128 34.3491L76.8967 24.9812C76.8968 24.9003 76.8722 24.8214 76.8262 24.755C76.7802 24.6887 76.7151 24.6381 76.6396 24.61ZM57.924 2.0231C57.924 1.98389 57.9162 1.94508 57.9012 1.90887C57.8862 1.87267 57.8643 1.83979 57.8366 1.81211C57.8089 1.78443 57.7761 1.7625 57.74 1.74756C57.7039 1.73262 57.6652 1.72497 57.6262 1.72504L37.265 1.7607C37.226 1.76078 37.1873 1.76858 37.1513 1.78365C37.1152 1.79872 37.0825 1.82077 37.055 1.84855C37.0274 1.87632 37.0056 1.90927 36.9907 1.94552C36.9758 1.98177 36.9682 2.02061 36.9683 2.05982L37.0036 22.4255C37.0037 22.4647 37.0115 22.5036 37.0265 22.5398C37.0415 22.576 37.0634 22.6088 37.0911 22.6365C37.1187 22.6642 37.1516 22.6861 37.1877 22.7011C37.2238 22.716 37.2624 22.7237 37.3015 22.7236L57.6627 22.6879C57.7017 22.6879 57.7403 22.6801 57.7764 22.665C57.8124 22.6499 57.8452 22.6279 57.8727 22.6001C57.9003 22.5723 57.9221 22.5394 57.937 22.5031C57.9519 22.4669 57.9595 22.428 57.9594 22.3888L57.924 2.0231ZM7.39237 7.14901C6.21923 9.80635 5.85497 12.3265 6.29958 14.7095C6.33708 14.9193 6.45761 14.9973 6.66117 14.9435L6.9424 14.8628C7.05099 14.8328 7.14676 14.7684 7.21499 14.6795C7.28322 14.5905 7.32013 14.482 7.32005 14.3706L7.36826 9.80366L7.46469 21.5519C7.46679 21.8003 7.56626 22.038 7.7419 22.2144C7.91753 22.3907 8.15541 22.4918 8.4048 22.496L27.3036 22.6977C27.4333 22.6998 27.5621 22.6759 27.6824 22.6273C27.8028 22.5787 27.9122 22.5064 28.0043 22.4147C28.0964 22.3229 28.1693 22.2136 28.2187 22.0932C28.2681 21.9727 28.293 21.8435 28.2919 21.7133L28.2597 2.40452C28.2597 2.23974 28.1946 2.08171 28.0785 1.96519C27.9625 1.84868 27.8051 1.78322 27.641 1.78322L8.27624 1.74287C8.1444 1.74283 8.01388 1.76928 7.89237 1.82067C7.77086 1.87205 7.66082 1.94733 7.56872 2.04207C7.47663 2.1368 7.40434 2.24909 7.35611 2.37231C7.30788 2.49553 7.2847 2.62719 7.28791 2.75955L7.39237 7.14901ZM87.6631 2.51522C87.663 2.41349 87.6429 2.31279 87.6039 2.21887C87.565 2.12495 87.508 2.03965 87.4363 1.96784C87.3645 1.89603 87.2794 1.83912 87.1857 1.80035C87.0921 1.76158 86.9917 1.74172 86.8904 1.7419L67.381 1.77612C67.2797 1.7763 67.1794 1.79651 67.0859 1.8356C66.9924 1.8747 66.9074 1.93191 66.8359 2.00396C66.7644 2.07602 66.7078 2.16151 66.6692 2.25556C66.6306 2.34961 66.6108 2.45037 66.611 2.5521L66.6445 21.9011C66.6447 22.0029 66.6648 22.1036 66.7038 22.1975C66.7427 22.2914 66.7997 22.3767 66.8714 22.4485C66.9432 22.5203 67.0283 22.5772 67.122 22.616C67.2156 22.6548 67.316 22.6746 67.4173 22.6744L86.9267 22.6402C87.028 22.6401 87.1283 22.6198 87.2218 22.5807C87.3153 22.5417 87.4003 22.4844 87.4718 22.4124C87.5433 22.3403 87.5999 22.2548 87.6385 22.1608C87.6771 22.0667 87.6969 21.966 87.6967 21.8643L87.6631 2.51522ZM93.2805 37.6735C93.2805 37.5066 93.2144 37.3465 93.0969 37.2284C92.9794 37.1104 92.8199 37.0441 92.6537 37.0441H2.3061C2.13987 37.0441 1.98046 37.1104 1.86292 37.2284C1.74539 37.3465 1.67935 37.5066 1.67935 37.6735V57.6681C1.67935 57.835 1.74539 57.9951 1.86292 58.1131C1.98046 58.2312 2.13987 58.2975 2.3061 58.2975H92.6537C92.8199 58.2975 92.9794 58.2312 93.0969 58.1131C93.2144 57.9951 93.2805 57.835 93.2805 57.6681V37.6735Z" fill="#FC3D45"/>
<path d="M7.39229 7.14941L7.36818 9.80406L7.31997 14.371C7.32005 14.4824 7.28314 14.5909 7.21491 14.6799C7.14668 14.7688 7.05091 14.8332 6.94232 14.8632L6.66109 14.9439C6.45753 14.9977 6.337 14.9197 6.2995 14.7099C5.85489 12.3269 6.21915 9.80676 7.39229 7.14941Z" fill="#FC3D45"/>
</svg>
