<svg width="67" height="83" viewBox="0 0 67 83" fill="none" xmlns="http://www.w3.org/2000/svg">
<path d="M10.077 28.7349L9.97696 22.3349C9.9703 21.9549 9.79363 21.6882 9.44696 21.5349C4.66696 19.4049 1.02696 17.9849 0.266964 12.0349C-1.52304 -2.02511 18.307 -4.61511 21.047 8.80489C22.387 15.3549 18.067 18.1949 13.187 21.1649C13.0461 21.2525 12.9264 21.3706 12.8365 21.5107C12.7466 21.6507 12.6887 21.8093 12.667 21.9749C12.267 24.9749 11.277 29.2949 14.947 31.0649C18.9403 32.9782 21.0036 35.9716 21.137 40.0449C21.337 46.4449 17.797 48.7249 13.007 51.7149C12.8786 51.7946 12.7727 51.9053 12.6992 52.0366C12.6257 52.1678 12.5871 52.3152 12.587 52.4649L12.597 60.0749C12.5966 60.2333 12.6377 60.3899 12.7165 60.5299C12.7952 60.6699 12.909 60.7886 13.047 60.8749C15.337 62.2749 18.047 63.8449 19.457 66.0349C24.827 74.3649 16.147 85.6049 6.54696 81.5549C-2.25304 77.8549 -2.07304 65.4849 6.68696 61.9149C7.6003 61.5416 8.49696 61.1182 9.37696 60.6449C9.51905 60.5663 9.63755 60.4507 9.72019 60.3101C9.80283 60.1694 9.8466 60.0088 9.84696 59.8449L9.85696 52.7749C9.85706 52.5786 9.8005 52.3864 9.69407 52.2214C9.58764 52.0565 9.43587 51.9257 9.25696 51.8449C6.88696 50.7449 4.14696 49.8049 2.50696 47.8149C0.506964 45.3816 -0.29637 42.6282 0.0969638 39.5549C0.926964 33.1449 4.81696 32.0749 9.65696 29.4649C9.78644 29.3926 9.89388 29.2865 9.96784 29.1579C10.0418 29.0294 10.0795 28.8832 10.077 28.7349ZM18.137 10.5549C18.137 8.5472 17.3394 6.62175 15.9198 5.2021C14.5001 3.78244 12.5747 2.98489 10.567 2.98489C8.55927 2.98489 6.63382 3.78244 5.21417 5.2021C3.79452 6.62175 2.99696 8.5472 2.99696 10.5549C2.99696 12.5626 3.79452 14.488 5.21417 15.9077C6.63382 17.3273 8.55927 18.1249 10.567 18.1249C12.5747 18.1249 14.5001 17.3273 15.9198 15.9077C17.3394 14.488 18.137 12.5626 18.137 10.5549ZM18.277 40.7349C18.277 38.7086 17.472 36.7654 16.0393 35.3326C14.6065 33.8998 12.6632 33.0949 10.637 33.0949C8.61071 33.0949 6.66745 33.8998 5.23467 35.3326C3.80189 36.7654 2.99696 38.7086 2.99696 40.7349C2.99696 42.7611 3.80189 44.7044 5.23467 46.1372C6.66745 47.57 8.61071 48.3749 10.637 48.3749C12.6632 48.3749 14.6065 47.57 16.0393 46.1372C17.472 44.7044 18.277 42.7611 18.277 40.7349ZM18.177 71.7649C18.177 69.7572 17.3794 67.8317 15.9598 66.4121C14.5401 64.9924 12.6147 64.1949 10.607 64.1949C8.59928 64.1949 6.67382 64.9924 5.25417 66.4121C3.83452 67.8317 3.03696 69.7572 3.03696 71.7649C3.03696 73.7726 3.83452 75.698 5.25417 77.1177C6.67382 78.5373 8.59928 79.3349 10.607 79.3349C12.6147 79.3349 14.5401 78.5373 15.9598 77.1177C17.3794 75.698 18.177 73.7726 18.177 71.7649Z" fill="#FC3D45"/>
<path d="M60.616 9.57561C60.6155 9.71481 60.5876 9.85256 60.5339 9.98097C60.4801 10.1094 60.4016 10.226 60.3029 10.3241C60.2041 10.4221 60.087 10.4998 59.9582 10.5526C59.8294 10.6055 59.6915 10.6324 59.5523 10.6319L26.7125 10.5173C26.4313 10.5163 26.1621 10.4037 25.9641 10.2042C25.766 10.0047 25.6553 9.73472 25.6563 9.45361L25.6586 8.79361C25.659 8.65441 25.6869 8.51667 25.7407 8.38825C25.7944 8.25983 25.8729 8.14324 25.9716 8.04516C26.0704 7.94707 26.1875 7.8694 26.3163 7.81658C26.4451 7.76376 26.5831 7.73682 26.7223 7.73731L59.5621 7.85191C59.8432 7.85291 60.1124 7.96555 60.3104 8.16503C60.5085 8.36451 60.6192 8.6345 60.6183 8.91561L60.616 9.57561Z" fill="#FC3D45"/>
<path d="M48.3571 24.2946C48.3571 24.6738 48.2064 25.0376 47.9383 25.3057C47.6701 25.5739 47.3064 25.7246 46.9271 25.7246H26.9671C26.5879 25.7246 26.2241 25.5739 25.9559 25.3057C25.6878 25.0376 25.5371 24.6738 25.5371 24.2946V24.1146C25.5371 23.7353 25.6878 23.3716 25.9559 23.1034C26.2241 22.8352 26.5879 22.6846 26.9671 22.6846H46.9271C47.3064 22.6846 47.6701 22.8352 47.9383 23.1034C48.2064 23.3716 48.3571 23.7353 48.3571 24.1146V24.2946Z" fill="#FC3D45"/>
<path d="M56.854 50.3838C53.9739 50.6003 51.1247 49.6491 48.9331 47.7396C46.7414 45.83 45.387 43.1184 45.1677 40.2013C45.0591 38.7568 45.2324 37.3055 45.6778 35.93C46.1232 34.5545 46.8319 33.2818 47.7635 32.1847C48.6951 31.0875 49.8313 30.1873 51.1072 29.5355C52.3832 28.8837 53.7739 28.493 55.2 28.3858C58.0801 28.1692 60.9293 29.1204 63.1209 31.0299C65.3125 32.9395 66.667 35.6511 66.8863 38.5682C66.9949 40.0127 66.8216 41.464 66.3762 42.8395C65.9308 44.215 65.222 45.4877 64.2905 46.5849C63.3589 47.682 62.2227 48.5822 60.9467 49.234C59.6708 49.8858 58.2801 50.2765 56.854 50.3838ZM56.587 33.1447C56.787 33.2714 56.9636 33.5214 57.117 33.8947C57.607 35.0247 57.227 36.6848 57.707 38.0548C57.7577 38.1963 57.8463 38.3208 57.9629 38.4144C58.0794 38.508 58.2194 38.567 58.367 38.5848L63.607 39.2648C63.6878 39.2759 63.7701 39.2682 63.8476 39.2423C63.9252 39.2164 63.996 39.173 64.0547 39.1153C64.1134 39.0575 64.1585 38.987 64.1866 38.909C64.2147 38.8309 64.2251 38.7474 64.217 38.6648C63.7303 34.2981 61.277 31.9281 56.857 31.5548C49.527 30.9248 45.207 39.2847 49.687 44.4748C53.347 48.7148 57.417 48.9214 61.897 45.0948C63.0903 44.0814 63.7936 42.9114 64.007 41.5848C64.0803 41.1581 63.9036 40.9714 63.477 41.0248C61.0636 41.3381 58.6536 41.2881 56.247 40.8748C53.527 40.4048 54.617 35.0948 55.277 33.5548C55.3296 33.4347 55.4072 33.3273 55.5046 33.2398C55.602 33.1524 55.7168 33.0869 55.8412 33.048C55.9656 33.0091 56.0966 32.9975 56.2253 33.0142C56.3541 33.0309 56.4774 33.0755 56.587 33.1447Z" fill="#FC3D45"/>
<path d="M34.3069 39.3242C34.3069 39.6849 34.1636 40.0308 33.9086 40.2859C33.6535 40.5409 33.3076 40.6842 32.9469 40.6842H26.9269C26.5662 40.6842 26.2203 40.5409 25.9652 40.2859C25.7102 40.0308 25.5669 39.6849 25.5669 39.3242V39.1842C25.5669 38.8235 25.7102 38.4776 25.9652 38.2226C26.2203 37.9675 26.5662 37.8242 26.9269 37.8242H32.9469C33.3076 37.8242 33.6535 37.9675 33.9086 38.2226C34.1636 38.4776 34.3069 38.8235 34.3069 39.1842V39.3242Z" fill="#FC3D45"/>
<path d="M48.4271 54.4445C48.4274 54.6349 48.3902 54.8235 48.3176 54.9996C48.2451 55.1756 48.1385 55.3357 48.0041 55.4705C47.8697 55.6054 47.7101 55.7125 47.5343 55.7857C47.3585 55.8588 47.17 55.8967 46.9796 55.897L26.9796 55.932C26.7891 55.9323 26.6005 55.8951 26.4245 55.8226C26.2484 55.75 26.0884 55.6435 25.9535 55.5091C25.8186 55.3747 25.7116 55.215 25.6384 55.0392C25.5652 54.8634 25.5274 54.6749 25.5271 54.4845L25.5269 54.4045C25.5265 54.2141 25.5637 54.0255 25.6363 53.8494C25.7088 53.6734 25.8154 53.5133 25.9498 53.3785C26.0842 53.2436 26.2439 53.1365 26.4197 53.0633C26.5955 52.9901 26.7839 52.9523 26.9744 52.952L46.9744 52.917C47.1648 52.9167 47.3534 52.9538 47.5294 53.0264C47.7055 53.099 47.8655 53.2055 48.0004 53.3399C48.1353 53.4743 48.2424 53.634 48.3155 53.8098C48.3887 53.9856 48.4265 54.1741 48.4269 54.3645L48.4271 54.4445Z" fill="#FC3D45"/>
<path d="M60.7463 69.6656C60.7458 69.9494 60.6326 70.2213 60.4316 70.4216C60.2306 70.622 59.9583 70.7342 59.6745 70.7337L26.6745 70.6761C26.534 70.6759 26.3949 70.648 26.2652 70.594C26.1355 70.54 26.0177 70.4609 25.9185 70.3614C25.8193 70.2619 25.7407 70.1438 25.6872 70.0138C25.6336 69.8839 25.6062 69.7447 25.6064 69.6042L25.6073 69.1042C25.6079 68.8205 25.7211 68.5485 25.9221 68.3482C26.1231 68.1479 26.3954 68.0357 26.6791 68.0361L59.6791 68.0937C59.8197 68.094 59.9588 68.1219 60.0885 68.1759C60.2182 68.2299 60.336 68.3089 60.4352 68.4085C60.5344 68.508 60.613 68.6261 60.6665 68.756C60.7201 68.8859 60.7475 69.0251 60.7472 69.1656L60.7463 69.6656Z" fill="#FC3D45"/>
</svg>
