<svg width="97" height="91" viewBox="0 0 97 91" fill="none" xmlns="http://www.w3.org/2000/svg">
<path d="M37.9937 13.2399C39.9667 17.6256 40.3528 22.2902 33.7152 22.3223C26.0304 22.3652 18.3456 22.3974 10.6607 22.4188C7.03636 22.4188 2.24317 21.8505 2.60775 16.8965C2.83294 13.9262 5.95333 13.1756 7.3366 10.7522C9.40614 7.13853 9.95302 5.39068 14.4889 4.44705C18.0167 3.71789 20.5795 1.2087 23.3461 0.436644C28.8577 -1.11819 35.2379 1.51967 36.5461 7.70685C36.9536 9.69061 37.168 11.3848 37.9937 13.2399ZM34.4015 13.3364C34.498 7.52456 31.5492 1.03713 24.472 3.12812C21.7162 3.94307 19.9361 6.62383 16.1831 7.06347C11.5507 7.61034 11.1862 9.65844 9.81362 13.5187C9.69563 13.8529 9.47362 14.1388 9.18096 14.3337C7.7548 15.3095 4.7738 15.5454 5.66381 18.1189C5.79653 18.4992 6.04298 18.8291 6.36936 19.0633C6.69574 19.2975 7.08605 19.4246 7.48673 19.4271L35.077 19.5987C35.3834 19.6005 35.6854 19.5259 35.9557 19.3818C36.2261 19.2376 36.4563 19.0284 36.6255 18.773C36.7947 18.5176 36.8976 18.224 36.9249 17.9189C36.9523 17.6137 36.9031 17.3066 36.782 17.0252C36.4603 16.2602 35.9706 15.6419 35.313 15.1701C35.0276 14.9576 34.7963 14.6809 34.6379 14.3623C34.4796 14.0437 34.3986 13.6922 34.4015 13.3364Z" fill="#FC3D45"/>
<path d="M69.2087 25.7003C65.5843 28.0272 63.5255 28.0915 59.6759 26.1292C59.3256 25.9505 58.9825 25.9612 58.6465 26.1614L51.2155 30.4506C50.8795 30.6436 50.6614 30.926 50.5614 31.2977C50.0145 33.3672 49.8 35.6941 48.4596 37.2383C45.8003 40.3158 40.9857 39.5115 39.2915 35.9408C36.8145 30.6865 41.9293 26.2043 47.0335 28.3274C48.3953 28.8957 48.8993 29.2174 50.2611 28.3167C52.3485 26.9227 54.4145 25.7074 56.459 24.6709C56.8494 24.4739 57.1896 24.1899 57.4536 23.8404C57.7175 23.491 57.8982 23.0855 57.9817 22.6549C58.3463 20.757 59.0862 18.6124 60.5874 17.3256C64.1581 14.2588 69.1443 16.8645 69.7127 21.4754C69.7544 21.8095 69.905 22.1219 70.1416 22.3654C72.7795 25.0247 77.8407 27.1908 81.2292 28.9386C81.558 29.1102 81.8976 29.1245 82.2479 28.9815C85.0895 27.8342 88.4672 26.8476 90.4617 29.6678C96.5524 38.2784 81.4973 45.0339 80.2427 31.2441C80.1998 30.8366 79.9853 30.5685 79.5993 30.4399C76.2609 29.3318 73.1548 27.7591 70.281 25.7217C69.9307 25.4787 69.5733 25.4715 69.2087 25.7003ZM67.2785 21.7971C67.2785 20.9439 66.9396 20.1257 66.3363 19.5224C65.733 18.9191 64.9148 18.5802 64.0616 18.5802C63.2085 18.5802 62.3902 18.9191 61.7869 19.5224C61.1837 20.1257 60.8447 20.9439 60.8447 21.7971C60.8447 22.6503 61.1837 23.4685 61.7869 24.0718C62.3902 24.6751 63.2085 25.014 64.0616 25.014C64.9148 25.014 65.733 24.6751 66.3363 24.0718C66.9396 23.4685 67.2785 22.6503 67.2785 21.7971ZM47.5589 33.4852C47.5589 32.5922 47.2042 31.7358 46.5727 31.1043C45.9413 30.4729 45.0849 30.1182 44.1919 30.1182C43.2989 30.1182 42.4425 30.4729 41.811 31.1043C41.1796 31.7358 40.8249 32.5922 40.8249 33.4852C40.8249 34.3782 41.1796 35.2346 41.811 35.866C42.4425 36.4975 43.2989 36.8522 44.1919 36.8522C45.0849 36.8522 45.9413 36.4975 46.5727 35.866C47.2042 35.2346 47.5589 34.3782 47.5589 33.4852ZM89.5813 34.4931C89.8425 33.6749 89.7496 32.7806 89.3231 32.007C88.8966 31.2334 88.1715 30.6438 87.3072 30.368C86.443 30.0922 85.5103 30.1527 84.7146 30.5362C83.9188 30.9197 83.325 31.5948 83.0639 32.413C82.8028 33.2312 82.8957 34.1255 83.3222 34.8991C83.7486 35.6727 84.4738 36.2622 85.338 36.538C86.2023 36.8139 87.1349 36.7534 87.9307 36.3699C88.7264 35.9864 89.3202 35.3113 89.5813 34.4931Z" fill="#FC3D45"/>
<path d="M0.0343138 59.3272C0.305964 58.8554 0.681269 59.2414 1.16023 60.4853C1.18643 60.5518 1.23553 60.6068 1.29869 60.6404C1.36185 60.674 1.43492 60.6839 1.50474 60.6684C1.57457 60.6529 1.63656 60.6129 1.67956 60.5558C1.72256 60.4986 1.74373 60.428 1.73927 60.3566L1.37469 56.9359C1.37051 56.9056 1.35775 56.877 1.3379 56.8537C1.31805 56.8303 1.29194 56.8131 1.26265 56.8041C1.23336 56.7951 1.2021 56.7947 1.17256 56.8028C1.14301 56.811 1.11642 56.8274 1.09589 56.8502C1.02441 56.9216 0.952918 56.9896 0.881431 57.0539C0.717012 57.1969 0.613357 57.1611 0.570465 56.9467C0.527573 56.6965 0.416769 56.5857 0.238052 56.6142C-0.0300237 51.6066 -0.684129 48.186 5.83547 48.068C19.1606 47.8178 30.5985 47.9 40.1491 48.3146C42.9228 48.4362 44.324 49.966 44.3526 52.9041C44.4169 60.4102 44.5313 67.9127 44.6957 75.4117C44.7457 77.9137 44.6171 80.1513 44.3097 82.1243C44.2663 82.4027 44.1461 82.6635 43.9624 82.8771C43.7788 83.0908 43.5391 83.249 43.2704 83.3337C43.0017 83.4184 42.7147 83.4264 42.4417 83.3567C42.1687 83.287 41.9206 83.1424 41.7254 82.9393C38.5085 79.6258 35.4739 75.9907 30.2303 75.9907C22.1094 75.9907 13.9885 76.0193 5.86764 76.0765C2.31474 76.1051 0.445362 74.5539 0.259496 71.4227C0.0235898 67.4052 -0.0514703 63.3733 0.0343138 59.3272ZM41.8005 79.7867C41.8597 79.8305 41.93 79.857 42.0034 79.8631C42.0769 79.8692 42.1505 79.8548 42.2162 79.8214C42.2819 79.788 42.337 79.7369 42.3753 79.674C42.4136 79.611 42.4336 79.5387 42.4331 79.465L42.2616 52.0141C42.2587 51.6121 42.0971 51.2275 41.8118 50.9443C41.5266 50.6611 41.1409 50.5021 40.7389 50.5021L4.8704 50.4485C4.59823 50.4471 4.32848 50.4999 4.07675 50.604C3.82502 50.708 3.59632 50.8612 3.40386 51.0546C3.2114 51.2481 3.05901 51.478 2.95551 51.731C2.852 51.984 2.79944 52.2552 2.80085 52.5288L2.94025 72.4629C2.94164 72.6473 2.97964 72.8297 3.05207 72.9996C3.1245 73.1695 3.22994 73.3236 3.36237 73.453C3.4948 73.5825 3.65164 73.6848 3.82391 73.7541C3.99619 73.8234 4.18053 73.8583 4.36641 73.8569C13.1021 73.7639 21.9915 73.7532 31.0346 73.8247C35.8277 73.8676 38.3155 77.2668 41.8005 79.7867ZM1.37533 70.0819C1.55731 70.079 1.72613 69.7125 1.84463 69.063C1.96314 68.4136 2.02163 67.5343 2.00724 66.6187C1.99285 65.7031 1.90676 64.8261 1.76791 64.1807C1.62905 63.5353 1.44881 63.1743 1.26682 63.1772C1.08484 63.1801 0.916025 63.5466 0.797521 64.1961C0.679016 64.8455 0.620525 65.7248 0.634911 66.6404C0.649297 67.556 0.735388 68.433 0.874244 69.0784C1.0131 69.7238 1.19335 70.0848 1.37533 70.0819Z" fill="#FC3D45"/>
<path d="M95.8445 68.8387L80.0709 68.6886C79.721 68.683 79.3872 68.5408 79.1407 68.2924C78.8943 68.0439 78.7547 67.7089 78.752 67.359L78.5911 52.1001C78.584 51.1779 79.0415 50.7383 79.9637 50.7812C88.7887 51.2315 96.2091 59.0701 96.6594 67.9809C96.688 68.5528 96.4164 68.8387 95.8445 68.8387ZM83.4701 53.226C83.2043 53.0594 82.8984 52.9679 82.5848 52.9612C82.2712 52.9544 81.9616 53.0327 81.6889 53.1878C81.4162 53.3428 81.1906 53.5688 81.036 53.8417C80.8814 54.1147 80.8036 54.4244 80.8108 54.738L81.1003 64.7854C81.1135 65.2241 81.2922 65.6416 81.6005 65.9539C81.9088 66.2662 82.3239 66.4502 82.7624 66.469L92.5847 66.855C92.8957 66.868 93.2044 66.7973 93.4787 66.6501C93.753 66.503 93.9827 66.2848 94.1438 66.0185C94.3049 65.7522 94.3915 65.4475 94.3945 65.1363C94.3975 64.825 94.3169 64.5187 94.161 64.2493L90.4937 57.8798C90.3523 57.6356 90.1536 57.4295 89.9147 57.2793L83.4701 53.226Z" fill="#FC3D45"/>
<path d="M92.8957 73.3204C94.0538 76.6874 90.3436 83.089 87.9631 85.4481C73.0045 100.267 48.9635 82.778 58.5713 63.9592C61.5094 58.2188 66.4277 54.8911 73.3262 53.976C73.469 53.9576 73.614 53.9701 73.7515 54.0124C73.8891 54.0548 74.016 54.1261 74.1237 54.2216C74.2314 54.3171 74.3174 54.4345 74.3759 54.566C74.4344 54.6976 74.464 54.8401 74.4628 54.984L74.3342 71.0471C74.3312 71.2642 74.372 71.4798 74.4541 71.6808C74.5362 71.8819 74.6579 72.0644 74.812 72.2175C74.9661 72.3706 75.1494 72.4911 75.351 72.5719C75.5526 72.6526 75.7684 72.692 75.9855 72.6877L91.5553 72.3767C92.2345 72.3696 92.6812 72.6841 92.8957 73.3204ZM72.1574 73.3632L72.1359 58.2116C72.1359 57.0106 71.5498 56.5424 70.3774 56.8069C58.5499 59.4662 55.2043 75.2183 63.1072 83.5608C72.4362 93.4046 87.4484 88.1074 90.676 75.8832C90.7045 75.7801 90.7084 75.6719 90.6876 75.5671C90.6668 75.4623 90.6218 75.3637 90.5562 75.2794C90.4906 75.195 90.4062 75.1272 90.3097 75.0812C90.2132 75.0352 90.1073 75.0124 90.0005 75.0146L74.0018 75.1862C72.7722 75.1933 72.1574 74.5857 72.1574 73.3632Z" fill="#FC3D45"/>
<path d="M0.237673 56.6148C0.41639 56.5862 0.527194 56.697 0.570086 56.9472C0.612979 57.1616 0.716633 57.1974 0.881053 57.0544C0.95254 56.9901 1.02403 56.9221 1.09551 56.8507C1.11604 56.8279 1.14264 56.8115 1.17218 56.8033C1.20172 56.7952 1.23298 56.7956 1.26227 56.8046C1.29156 56.8137 1.31767 56.8308 1.33752 56.8542C1.35737 56.8775 1.37013 56.9061 1.37431 56.9364L1.7389 60.3571C1.74335 60.4285 1.72218 60.4991 1.67918 60.5563C1.63618 60.6134 1.57419 60.6534 1.50437 60.6689C1.43454 60.6844 1.36147 60.6745 1.29831 60.6409C1.23515 60.6073 1.18605 60.5523 1.15985 60.4858C0.68089 59.2419 0.305585 58.8559 0.0339355 59.3277L0.237673 56.6148Z" fill="#FC3D45"/>
<path d="M32.7927 58.2491C32.792 58.3885 32.7638 58.5264 32.7098 58.6549C32.6558 58.7835 32.5769 58.9001 32.4778 58.9981C32.3788 59.0962 32.2613 59.1738 32.1322 59.2264C32.0032 59.2791 31.865 59.3059 31.7256 59.3051L11.6952 59.2002C11.5558 59.1995 11.4179 59.1713 11.2894 59.1173C11.1608 59.0633 11.0442 58.9845 10.9462 58.8854C10.8481 58.7863 10.7705 58.6688 10.7178 58.5398C10.6652 58.4107 10.6384 58.2725 10.6392 58.1331L10.6394 58.0902C10.6401 57.9508 10.6683 57.8129 10.7223 57.6844C10.7764 57.5559 10.8552 57.4392 10.9543 57.3412C11.0534 57.2431 11.1708 57.1655 11.2999 57.1129C11.4289 57.0602 11.5671 57.0335 11.7065 57.0342L31.7369 57.1391C31.8763 57.1398 32.0142 57.168 32.1428 57.222C32.2713 57.276 32.3879 57.3548 32.486 57.4539C32.584 57.553 32.6616 57.6705 32.7143 57.7995C32.7669 57.9286 32.7937 58.0668 32.7929 58.2062L32.7927 58.2491Z" fill="#FC3D45"/>
<path d="M1.37513 70.0815C1.19315 70.0844 1.0129 69.7234 0.874044 69.078C0.735188 68.4326 0.649097 67.5556 0.634711 66.64C0.620325 65.7244 0.678816 64.8452 0.797321 64.1957C0.915825 63.5462 1.08464 63.1797 1.26662 63.1768C1.44861 63.1739 1.62885 63.5349 1.76771 64.1803C1.90656 64.8257 1.99265 65.7027 2.00704 66.6183C2.02143 67.5339 1.96294 68.4132 1.84443 69.0626C1.72593 69.7121 1.55711 70.0786 1.37513 70.0815Z" fill="#FC3D45"/>
<path d="M32.5038 65.9346C32.504 66.0472 32.482 66.1588 32.4391 66.263C32.3961 66.3671 32.3331 66.4618 32.2536 66.5416C32.1741 66.6214 32.0796 66.6847 31.9756 66.728C31.8716 66.7713 31.7601 66.7937 31.6475 66.7939L11.7884 66.8286C11.6758 66.8288 11.5642 66.8069 11.46 66.7639C11.3559 66.721 11.2612 66.658 11.1814 66.5785C11.1016 66.4989 11.0382 66.4045 10.995 66.3005C10.9517 66.1965 10.9293 66.085 10.9291 65.9723L10.9282 65.479C10.928 65.3664 10.95 65.2548 10.9929 65.1507C11.0359 65.0465 11.0989 64.9518 11.1784 64.872C11.2579 64.7922 11.3524 64.7289 11.4564 64.6856C11.5604 64.6423 11.6719 64.6199 11.7846 64.6197L31.6436 64.585C31.7562 64.5848 31.8678 64.6068 31.972 64.6497C32.0761 64.6926 32.1708 64.7556 32.2506 64.8352C32.3304 64.9147 32.3938 65.0091 32.4371 65.1131C32.4804 65.2171 32.5027 65.3286 32.5029 65.4413L32.5038 65.9346Z" fill="#FC3D45"/>
</svg>
