<svg width="45" height="45" viewBox="0 0 45 45" fill="none" xmlns="http://www.w3.org/2000/svg">
<path d="M32.9629 2.97109C32.9609 2.12343 32.4303 1.41635 31.5839 1.41635C25.7522 1.41982 19.7363 1.42017 13.5362 1.41739C12.876 1.4167 12.4303 1.68085 12.1991 2.20986C12.0992 2.43757 12.0499 2.72394 12.0513 3.06897C12.0606 5.97157 12.0622 8.77419 12.0563 11.4768C12.0563 11.5109 12.0446 11.5404 12.0213 11.5654C11.7388 11.8604 11.46 12.1506 11.1849 12.4359C11.034 12.5932 10.9211 12.7796 10.7892 12.9535C10.7339 13.0257 10.7062 13.0156 10.7062 12.9233C10.7129 9.79645 10.7112 6.62692 10.7012 3.4147C10.6992 2.79683 10.7382 2.34072 10.8182 2.04637C11.066 1.13206 11.7894 0.36771 12.6738 0.116744C12.9303 0.0438496 13.3307 0.00809665 13.8749 0.00948512C19.1304 0.0198986 24.7143 0.016775 30.6266 0.000113344C31.5606 -0.00266359 32.1618 0.0455856 32.4303 0.144861C33.6474 0.592642 34.3109 1.70897 34.3109 3.03253C34.3116 6.36068 34.3146 9.68884 34.3199 13.017C34.3199 13.0517 34.3096 13.0555 34.289 13.0285C33.8986 12.5154 33.4706 12.0329 33.0049 11.581C32.9756 11.5518 32.9609 11.5164 32.9609 11.4748C32.9696 8.58675 32.9703 5.75219 32.9629 2.97109Z" fill="#FC3D45"/>
<path d="M23.1752 3.52622C23.1752 3.71292 23.1041 3.89197 22.9774 4.02399C22.8507 4.15601 22.6789 4.23017 22.4997 4.23017C22.3206 4.23017 22.1488 4.15601 22.0221 4.02399C21.8954 3.89197 21.8242 3.71292 21.8242 3.52622C21.8242 3.33952 21.8954 3.16047 22.0221 3.02845C22.1488 2.89643 22.3206 2.82227 22.4997 2.82227C22.6789 2.82227 22.8507 2.89643 22.9774 3.02845C23.1041 3.16047 23.1752 3.33952 23.1752 3.52622Z" fill="#FC3D45"/>
<path d="M26.2049 10.9014C26.7625 11.1076 27.2891 11.3308 27.7847 11.571C27.8154 11.5856 27.844 11.5817 27.8707 11.5595C28.6194 10.9312 29.4592 10.7934 30.3898 11.1461C30.6976 11.2627 30.9701 11.4443 31.2072 11.6907C31.6975 12.201 32.2391 12.7654 32.832 13.384C33.0952 13.6589 33.283 13.9532 33.3956 14.267C33.7414 15.2362 33.6108 16.1179 33.0039 16.9121C32.991 16.9288 32.9831 16.949 32.9809 16.9703C32.9788 16.9915 32.9826 17.0129 32.9919 17.0318C33.2284 17.5289 33.4449 18.0648 33.6414 18.6397C33.6541 18.6778 33.6797 18.7001 33.7184 18.7063C34.8242 18.882 35.5364 19.4793 35.8548 20.4985C35.9607 20.8386 36.0087 21.3194 35.9987 21.9407C35.9894 22.5121 35.9844 23.063 35.9837 23.5934C35.9817 24.7472 35.4984 25.5744 34.5338 26.0749C34.3026 26.1943 34.0341 26.2658 33.7284 26.2894C33.7083 26.2909 33.689 26.2985 33.6731 26.3113C33.6571 26.3241 33.645 26.3414 33.6384 26.3613C33.4639 26.8951 33.2471 27.4415 32.9879 28.0004C32.9799 28.0175 32.9768 28.0367 32.9789 28.0557C32.981 28.0747 32.9883 28.0927 32.9999 28.1076C33.6194 28.8977 33.7464 29.7887 33.3806 30.7808C33.2654 31.0932 33.0822 31.3778 32.831 31.6347C32.3241 32.154 31.8078 32.6913 31.2822 33.2467C30.3608 34.2204 28.9069 34.3505 27.8777 33.4487C27.8623 33.4348 27.8433 33.4261 27.823 33.4235C27.8027 33.4209 27.7821 33.4246 27.7637 33.4341C27.2794 33.6854 26.7605 33.9135 26.2069 34.1183C26.1709 34.1315 26.1503 34.1575 26.1449 34.1964C25.9751 35.362 25.3911 36.1087 24.3932 36.4363C24.0794 36.5391 23.6005 36.5842 22.9563 36.5717C22.4793 36.5627 21.9697 36.5571 21.4274 36.5551C20.3435 36.5502 19.5621 36.0535 19.0831 35.0649C18.9652 34.8212 18.8952 34.5394 18.8733 34.2193C18.8693 34.1679 18.8443 34.1339 18.7983 34.1173C18.286 33.9347 17.7674 33.7077 17.2425 33.4362C17.2224 33.426 17.2001 33.4219 17.1781 33.4245C17.1561 33.4271 17.1354 33.4362 17.1185 33.4508C16.6535 33.8514 16.1526 34.0527 15.6156 34.0548C14.8555 34.0576 14.2177 33.7837 13.702 33.2332C13.2297 32.7271 12.7431 32.221 12.2421 31.7149C11.975 31.4455 11.7825 31.1716 11.6645 30.8932C11.2598 29.9404 11.3388 28.9251 11.9993 28.1128C12.0112 28.098 12.0187 28.0799 12.021 28.0607C12.0233 28.0415 12.0203 28.022 12.0123 28.0045C11.7625 27.4665 11.5456 26.9194 11.3618 26.3634C11.355 26.3427 11.3425 26.3245 11.326 26.3112C11.3095 26.2979 11.2896 26.2899 11.2688 26.2884C10.9551 26.2627 10.6846 26.1905 10.4574 26.0718C9.49812 25.5678 9.01814 24.7451 9.01748 23.6038C9.01748 23.1116 9.01248 22.6117 9.00249 22.1042C8.98983 21.4378 9.02547 20.9459 9.10941 20.6286C9.39853 19.5345 10.124 18.8934 11.2858 18.7053C11.3231 18.699 11.3481 18.6772 11.3608 18.6397C11.5426 18.0891 11.7578 17.556 12.0063 17.0402C12.0161 17.0196 12.0202 16.9965 12.0179 16.9736C12.0156 16.9507 12.007 16.929 11.9933 16.911C11.3698 16.0842 11.2492 15.1817 11.6316 14.2035C11.7495 13.9015 11.9313 13.6238 12.1772 13.3704C12.6795 12.8553 13.2101 12.3017 13.769 11.7095C13.9615 11.5061 14.1697 11.3512 14.3935 11.245C15.3875 10.7743 16.2975 10.8764 17.1235 11.5512C17.1628 11.5831 17.2048 11.588 17.2494 11.5658C17.7431 11.3152 18.2577 11.0937 18.7933 10.9014C18.8138 10.8939 18.8318 10.8806 18.8451 10.863C18.8584 10.8455 18.8664 10.8245 18.8683 10.8025C18.9562 9.76111 19.6387 8.87804 20.566 8.58855C21.3235 8.35216 22.2818 8.47816 23.1411 8.4438C23.5248 8.42852 23.8623 8.45352 24.1534 8.51878C25.2879 8.77356 25.9534 9.54485 26.1499 10.8327C26.1553 10.8674 26.1736 10.8903 26.2049 10.9014ZM24.9898 33.356C25.147 33.1096 25.3658 32.9378 25.6463 32.8406C26.2012 32.6476 26.7412 32.4105 27.2661 32.1293C27.6428 31.9283 28.1285 31.9127 28.4782 32.1824C28.6881 32.3438 28.8869 32.5177 29.1397 32.5958C29.3782 32.6687 29.626 32.6535 29.8832 32.55C30.0411 32.4865 30.2729 32.3011 30.3948 32.1741C30.8578 31.6916 31.3315 31.1931 31.8158 30.6787C32.0656 30.4135 32.2018 30.1247 32.2245 29.8123C32.2325 29.7026 32.2198 29.5801 32.1865 29.4447C32.1275 29.2021 31.9747 28.9949 31.8298 28.8022C31.549 28.4294 31.515 27.915 31.7148 27.512C32 26.9378 32.2285 26.3752 32.4003 25.8239C32.5312 25.4053 32.849 25.0159 33.2787 24.9555C33.5685 24.9138 33.8793 24.8753 34.1161 24.693C34.4665 24.4237 34.6417 24.0415 34.6417 23.5465C34.6424 22.8294 34.641 22.1271 34.6377 21.4399C34.6344 20.8338 34.3832 20.4186 33.8843 20.1944C33.7344 20.1271 33.5658 20.0868 33.3786 20.0736C32.898 20.0403 32.5512 19.6581 32.4023 19.1916C32.2158 18.6091 31.9966 18.0673 31.7448 17.566C31.522 17.1224 31.525 16.5924 31.8388 16.1967C31.9373 16.0731 32.0213 15.9446 32.0906 15.8114C32.2485 15.5087 32.2704 15.1914 32.1565 14.8596C32.0956 14.6825 31.9287 14.443 31.8018 14.3076C31.1922 13.6578 30.6676 13.1198 30.2279 12.6936C29.9022 12.3777 29.5171 12.2937 29.0728 12.4415C28.8869 12.503 28.7041 12.6509 28.5522 12.7779C28.2054 13.0705 27.7088 13.1163 27.3221 12.9091C26.7611 12.6085 26.2125 12.3673 25.6763 12.1854C25.2806 12.051 24.9088 11.7178 24.8499 11.2752C24.8326 11.1447 24.8132 11.0152 24.7919 10.8868C24.7613 10.7035 24.6963 10.5411 24.5971 10.3995C24.3459 10.0378 23.9828 9.85622 23.5079 9.85483C22.8064 9.85344 22.1352 9.85309 21.4943 9.85379C20.988 9.85448 20.607 10.0617 20.3512 10.4755C20.2293 10.6712 20.1913 10.966 20.1633 11.1982C20.1044 11.6803 19.7776 12.0292 19.3409 12.177C18.7907 12.3652 18.261 12.5988 17.7521 12.8779C17.3843 13.0789 16.8757 13.1101 16.529 12.8373C16.3261 12.6779 16.1213 12.503 15.8804 12.4218C15.6546 12.3461 15.4158 12.3527 15.164 12.4415C14.9821 12.5061 14.7283 12.706 14.5924 12.8487C14.1174 13.3458 13.6394 13.8501 13.1584 14.3618C12.918 14.6173 12.7897 14.9113 12.7737 15.2438C12.7684 15.3563 12.7841 15.4767 12.8207 15.6052C12.8886 15.8405 13.0535 16.055 13.1964 16.2456C13.4632 16.6007 13.4692 17.111 13.2814 17.5004C12.9856 18.112 12.7484 18.699 12.5699 19.2613C12.434 19.6873 12.0592 20.0497 11.6126 20.0757C11.434 20.0861 11.2735 20.1229 11.1309 20.1861C10.6213 20.411 10.3648 20.8286 10.3615 21.4388C10.3582 22.1511 10.3582 22.8623 10.3615 23.5725C10.3635 24.0953 10.5623 24.4865 10.9581 24.7461C11.1389 24.8649 11.4017 24.9107 11.6116 24.9357C12.0962 24.9929 12.441 25.3251 12.5929 25.8083C12.7761 26.3936 12.9926 26.9281 13.2424 27.412C13.4832 27.8785 13.4742 28.3992 13.1544 28.823C13.0645 28.9417 12.9826 29.0691 12.9086 29.2052C12.7467 29.503 12.7301 29.8345 12.8587 30.1997C12.8996 30.3153 12.9856 30.4069 13.0505 30.5111C13.0985 30.5888 13.1558 30.6631 13.2224 30.7339C13.752 31.2921 14.262 31.818 14.7523 32.3116C15.0467 32.6073 15.4251 32.6993 15.8874 32.5875C15.9767 32.566 16.06 32.5275 16.1373 32.4719C16.3631 32.3095 16.5649 32.1137 16.8238 32.0325C17.1249 31.9367 17.4216 31.9665 17.7141 32.122C18.2564 32.4094 18.8043 32.6497 19.3579 32.8426C19.7876 32.9926 20.1333 33.3654 20.1653 33.8465C20.178 34.0346 20.2143 34.2037 20.2742 34.3536C20.4867 34.8847 20.8874 35.152 21.4763 35.1555C22.1865 35.159 22.869 35.159 23.5238 35.1555C24.0535 35.152 24.4365 34.9267 24.673 34.4796C24.8629 34.1214 24.7729 33.6955 24.9898 33.356Z" fill="#FC3D45"/>
<path d="M30.9229 22.5072C30.9229 24.8357 30.0353 27.0688 28.4553 28.7153C26.8754 30.3618 24.7325 31.2868 22.4981 31.2868C20.2637 31.2868 18.1208 30.3618 16.5408 28.7153C14.9609 27.0688 14.0732 24.8357 14.0732 22.5072C14.0732 20.1787 14.9609 17.9455 16.5408 16.299C18.1208 14.6525 20.2637 13.7275 22.4981 13.7275C24.7325 13.7275 26.8754 14.6525 28.4553 16.299C30.0353 17.9455 30.9229 20.1787 30.9229 22.5072ZM29.5759 22.5061C29.5759 20.5499 28.8302 18.6738 27.5028 17.2906C26.1755 15.9073 24.3752 15.1302 22.4981 15.1302C20.6209 15.1302 18.8206 15.9073 17.4933 17.2906C16.166 18.6738 15.4203 20.5499 15.4203 22.5061C15.4203 24.4623 16.166 26.3384 17.4933 27.7217C18.8206 29.1049 20.6209 29.882 22.4981 29.882C24.3752 29.882 26.1755 29.1049 27.5028 27.7217C28.8302 26.3384 29.5759 24.4623 29.5759 22.5061Z" fill="white"/>
<path d="M23.1732 21.1199C23.1732 21.2092 23.1563 21.2977 23.1235 21.3802C23.0907 21.4627 23.0427 21.5376 22.9821 21.6008C22.9215 21.6639 22.8495 21.714 22.7704 21.7482C22.6912 21.7824 22.6064 21.7999 22.5207 21.7999H22.4787C22.393 21.7999 22.3082 21.7824 22.229 21.7482C22.1498 21.714 22.0779 21.6639 22.0173 21.6008C21.9567 21.5376 21.9086 21.4627 21.8758 21.3802C21.8431 21.2977 21.8262 21.2092 21.8262 21.1199V17.5648C21.8262 17.4755 21.8431 17.387 21.8758 17.3045C21.9086 17.222 21.9567 17.1471 22.0173 17.0839C22.0779 17.0208 22.1498 16.9707 22.229 16.9365C22.3082 16.9024 22.393 16.8848 22.4787 16.8848H22.5207C22.6064 16.8848 22.6912 16.9024 22.7704 16.9365C22.8495 16.9707 22.9215 17.0208 22.9821 17.0839C23.0427 17.1471 23.0907 17.222 23.1235 17.3045C23.1563 17.387 23.1732 17.4755 23.1732 17.5648V21.1199Z" fill="white"/>
<path d="M26.1503 24.3189C26.6146 23.2921 26.6699 22.2282 26.3162 21.1271C26.0354 20.2545 25.5088 19.5901 24.7913 19.0236C24.2607 18.6039 24.6104 17.7094 25.239 17.7698C25.3935 17.7844 25.5624 17.8684 25.7456 18.0218C26.2146 18.4168 26.5923 18.8226 26.8788 19.2391C27.9919 20.8553 28.1968 22.9391 27.4334 24.7771C26.7748 26.3662 25.4518 27.5023 23.83 27.9469C22.1063 28.4176 20.2866 27.9313 18.9606 26.7483C17.5076 25.4518 16.8311 23.3879 17.2138 21.4052C17.4796 20.0313 18.1745 18.8917 19.2983 17.9864C19.4835 17.8371 19.6584 17.7639 19.8229 17.7667C20.2726 17.774 20.5894 18.2946 20.4225 18.7268C20.2976 19.0496 19.8949 19.2423 19.664 19.4922C18.316 20.9574 18.0482 23.0495 19.0885 24.7771C19.6574 25.7212 20.5061 26.338 21.6346 26.6275C21.9357 26.7053 22.3138 26.7331 22.7688 26.7108C24.2387 26.6411 25.5447 25.6591 26.1503 24.3189Z" fill="white"/>
<path d="M12.0581 42.1438C12.0581 43.0425 12.6807 43.6027 13.5271 43.6006C19.8597 43.586 25.7098 43.5867 31.0772 43.6027C31.6008 43.6048 31.9486 43.5663 32.1204 43.4871C32.772 43.1882 32.9738 42.5749 32.9718 41.8553C32.9658 39.0784 32.9641 36.3014 32.9668 33.5245C32.9668 33.4835 32.9815 33.4492 33.0108 33.4214C33.4798 32.9813 33.9001 32.5033 34.2719 31.9875C34.3052 31.9417 34.3218 31.9476 34.3218 32.0052C34.3105 35.1605 34.3108 38.3171 34.3228 41.4752C34.3255 42.1632 34.2712 42.6853 34.1599 43.0414C33.9128 43.8315 33.4115 44.408 32.656 44.7711C32.2683 44.9575 31.8406 44.9992 31.4249 44.9992C25.5139 44.9985 19.536 44.9988 13.4911 45.0002C12.6477 45.0002 11.9522 44.6892 11.4046 44.0671C10.86 43.4496 10.7021 42.704 10.7031 41.8668C10.7091 38.5886 10.7105 35.3368 10.7071 32.1114C10.7071 31.9962 10.7401 31.9847 10.8061 32.077C11.1611 32.5734 11.5655 33.0278 12.0192 33.4402C12.0451 33.4638 12.0581 33.4933 12.0581 33.5287C12.0568 36.4931 12.0568 39.3648 12.0581 42.1438Z" fill="#FC3D45"/>
<path d="M24.8592 41.5049C24.8592 41.6852 24.7904 41.8582 24.668 41.9857C24.5457 42.1132 24.3797 42.1849 24.2066 42.1849H20.7931C20.6201 42.1849 20.4541 42.1132 20.3317 41.9857C20.2094 41.8582 20.1406 41.6852 20.1406 41.5049V41.4632C20.1406 41.2829 20.2094 41.1099 20.3317 40.9824C20.4541 40.8548 20.6201 40.7832 20.7931 40.7832H24.2066C24.3797 40.7832 24.5457 40.8548 24.668 40.9824C24.7904 41.1099 24.8592 41.2829 24.8592 41.4632V41.5049Z" fill="#FC3D45"/>
</svg>
