<svg width="175" height="43" viewBox="0 0 175 43" fill="none" xmlns="http://www.w3.org/2000/svg">
<path d="M33.6218 0C24.7014 0 17.0405 5.35051 13.7222 12.9969H20.7918V13.1929C20.7918 15.8042 18.6601 17.9199 16.0291 17.9199H12.262H0V18.1159C0 20.7272 2.13165 22.8429 4.7627 22.8429H12.0023H20.7918V22.8701H22.3216H22.9224V22.8429V18.6723C22.9224 18.4187 22.934 18.1682 22.9593 17.9188C23.0311 17.1319 23.2233 16.3764 23.5347 15.6523C23.9444 14.7008 24.5071 13.8698 25.2251 13.1552C25.9451 12.4426 26.7824 11.8841 27.741 11.4775C28.6997 11.0709 29.7281 10.8676 30.8271 10.8676H35.4357V15.777H30.8271C30.0934 15.777 29.5296 16.0578 29.1368 16.6174C28.7409 17.1769 28.5434 17.9461 28.5434 18.9248V22.8554H34.136V22.8691H35.4357V18.3569H36.7354V18.3453H42.3248V10.8687H47.9479V18.3579H50.9928V23.0168H47.9479V27.2125C47.9479 28.2762 47.7431 29.2832 47.3335 30.2326C46.9259 31.184 46.3632 32.0171 45.6431 32.7297C44.9252 33.4443 44.0858 34.0028 43.1272 34.4094C42.1706 34.8139 41.1402 35.0162 40.0432 35.0162H35.4346V30.1068H40.0432C40.7748 30.1068 41.3376 29.8281 41.7335 29.2695C42.1294 28.7079 42.3248 27.9408 42.3248 26.9621V23.0315H36.7343V23.0179H35.4346V27.528H34.1349V27.5395H28.5424V35.0172H22.9213V32.6647V27.7669V27.7417H22.3206H20.7907H12.887H5.81849V27.7669V27.9377C5.81849 30.549 7.95014 32.6647 10.5812 32.6647H15.1074H20.077L15.8243 33.7555C19.7339 39.3429 26.2492 43 33.6218 43C45.5851 43 55.2857 33.3752 55.2857 21.5005C55.2857 9.62483 45.5851 0 33.6218 0Z" fill="url(#paint0_linear_112_11365)"/>
<path d="M130.167 24.7165C130.53 24.7165 130.838 24.8431 131.092 25.0963C131.345 25.3496 131.466 25.6581 131.455 26.0214C131.455 26.3847 131.326 26.6933 131.067 26.9465C130.808 27.1998 130.497 27.3264 130.134 27.3264C129.781 27.3154 129.479 27.1832 129.225 26.9299C128.972 26.6767 128.851 26.3631 128.862 25.9883C128.862 25.636 128.989 25.333 129.242 25.0798C129.495 24.827 129.803 24.7059 130.167 24.7165Z" fill="#FDFBFF"/>
<path d="M71.4829 16.3229C71.1086 16.4827 70.7809 16.7028 70.5 16.9837C70.2191 17.2646 69.999 17.5922 69.8393 17.9666C69.6795 18.3409 69.5996 18.7374 69.5996 19.156V20.8077H68.4102V22.6413H69.5996V27.6461H71.7965V22.6458H73.9813V22.6413H74.4888V20.8077H73.9813V20.8022H71.7965V19.255C71.7965 18.8696 71.8733 18.5671 72.0276 18.3465C72.1819 18.1264 72.402 18.0163 72.6884 18.0163H74.4888V16.0837H72.6884C72.2593 16.0837 71.8573 16.1636 71.4829 16.3229Z" fill="#FDFBFF"/>
<path d="M80.1714 25.5644C80.0172 25.6528 79.8519 25.7242 79.676 25.779C79.4996 25.8342 79.3182 25.8614 79.1308 25.8614C78.7233 25.8614 78.4097 25.798 78.1891 25.6714C77.9685 25.5448 77.8062 25.377 77.7017 25.1674C77.5967 24.9584 77.5364 24.7162 77.5198 24.4408C77.5032 24.1659 77.4952 23.879 77.4952 23.582V19.3867H75.2324V23.582C75.2324 25.0026 75.4912 26.0377 76.0088 26.6875C76.5706 27.4141 77.5228 27.7774 78.8665 27.7774C79.7142 27.7774 80.4247 27.5241 80.997 27.0176V27.001L80.2041 25.5639H80.1714V25.5644Z" fill="#FDFBFF"/>
<path d="M83.6729 19.3872H81.4102V27.6955H83.6729V19.3872Z" fill="#FDFBFF"/>
<path d="M91.403 19.7172H91.3864C90.7694 19.4091 90.1312 19.2549 89.4704 19.2549C88.3473 19.2549 87.4936 19.6569 86.9102 20.4609V19.387H84.6641V27.6455H86.9102V23.1035C86.9539 22.8392 87.0449 22.5914 87.1826 22.3603C87.3202 22.1292 87.4881 21.9282 87.6866 21.7573C87.8845 21.587 88.1102 21.4548 88.3639 21.3608C88.6172 21.2674 88.887 21.2206 89.1734 21.2206C89.5915 21.2206 89.983 21.3257 90.3463 21.5347L90.3629 21.5513L91.205 20.0483L91.403 19.7172Z" fill="#FDFBFF"/>
<path d="M97.5308 20.4996C97.2222 20.0956 96.8534 19.787 96.4243 19.5745C95.9946 19.3614 95.4937 19.2549 94.9213 19.2549C94.3374 19.2549 93.7872 19.3679 93.2696 19.5936C92.752 19.8192 92.3003 20.1252 91.9154 20.5101C91.53 20.8955 91.2245 21.3473 90.9988 21.8643C90.7732 22.3819 90.6602 22.9382 90.6602 23.5326C90.6602 24.1165 90.7727 24.6667 90.9988 25.1843C91.2245 25.7019 91.53 26.1536 91.9154 26.5385C92.3008 26.924 92.752 27.227 93.2696 27.4471C93.7872 27.6671 94.3374 27.7772 94.9213 27.7772C95.7142 27.7772 96.3801 27.5682 96.9197 27.1496L96.9363 27.133L96.1102 25.6632V25.63H96.0936C95.8514 25.7511 95.5595 25.8119 95.2183 25.8119C94.8987 25.8119 94.6012 25.7511 94.3264 25.6295C94.051 25.5079 93.8063 25.3421 93.5912 25.1321C93.3766 24.922 93.2083 24.6788 93.0872 24.4029C92.9661 24.1266 92.9053 23.8341 92.9053 23.5241C92.9053 23.2035 92.9656 22.9025 93.0872 22.6206C93.2083 22.3387 93.3761 22.0955 93.5912 21.8915C93.8058 21.687 94.051 21.5241 94.3264 21.4025C94.6017 21.2809 94.8987 21.2201 95.2183 21.2201C95.5263 21.2201 95.8213 21.2784 96.1022 21.394C96.3831 21.5101 96.6308 21.6729 96.8454 21.8824C97.0599 22.0925 97.2278 22.3352 97.3494 22.611C97.4705 22.8874 97.5313 23.1854 97.5313 23.5055V27.6455H99.695V19.387H97.5313V20.4996H97.5308Z" fill="#FDFBFF"/>
<path d="M105.376 22.0795H106.598V20.2458H104.352L105.376 22.0795Z" fill="#FDFBFF"/>
<path d="M104.344 25.4654C104.162 25.2895 104.072 25.0744 104.072 24.8212V17.2561H101.875V20.2459H100.686V22.0795H101.875V24.5573C101.875 24.987 101.957 25.389 102.123 25.7633C102.288 26.1377 102.511 26.4653 102.792 26.7462C103.072 27.0271 103.403 27.2472 103.782 27.407C104.162 27.5668 104.567 27.6467 104.996 27.6467H106.598V25.7307H104.997C104.744 25.7297 104.526 25.6417 104.344 25.4654Z" fill="#FDFBFF"/>
<path d="M136.147 22.0795H137.369V20.2458H135.123L136.147 22.0795Z" fill="#FDFBFF"/>
<path d="M135.114 25.4654C134.932 25.2895 134.841 25.0744 134.841 24.8212V17.2561H132.644V20.2459H131.455V22.0795H132.644V24.5573C132.644 24.987 132.727 25.389 132.892 25.7633C133.058 26.1377 133.281 26.4653 133.561 26.7462C133.842 27.0271 134.172 27.2472 134.552 27.407C134.932 27.5668 135.336 27.6467 135.766 27.6467H137.368V25.7307H135.766C135.513 25.7297 135.295 25.6417 135.114 25.4654Z" fill="#FDFBFF"/>
<path d="M109.621 19.3872H107.424V27.6457H109.621V19.3872Z" fill="#FDFBFF"/>
<path d="M109.621 16.0837H107.424V18.0163H109.621V16.0837Z" fill="#FDFBFF"/>
<path d="M117.748 20.5101C117.362 20.1247 116.91 19.8192 116.393 19.5936C115.876 19.3679 115.319 19.2549 114.725 19.2549C114.131 19.2549 113.574 19.3679 113.057 19.5936C112.539 19.8192 112.087 20.1252 111.702 20.5101C111.317 20.8955 111.012 21.3473 110.786 21.8643C110.56 22.3819 110.447 22.9326 110.447 23.516C110.447 24.0999 110.56 24.6502 110.786 25.1677C111.012 25.6853 111.317 26.137 111.702 26.522C112.088 26.9074 112.539 27.2129 113.057 27.4385C113.574 27.6641 114.131 27.7772 114.725 27.7772C115.319 27.7772 115.876 27.6641 116.393 27.4385C116.911 27.2129 117.362 26.9074 117.748 26.522C118.133 26.1365 118.438 25.6853 118.664 25.1677C118.89 24.6502 119.003 24.0999 119.003 23.516C119.003 22.9326 118.89 22.3819 118.664 21.8643C118.438 21.3473 118.133 20.8955 117.748 20.5101ZM116.55 24.3833C116.445 24.6642 116.302 24.912 116.12 25.1265C115.939 25.3411 115.729 25.5094 115.493 25.6305C115.256 25.7516 115 25.8124 114.725 25.8124C114.45 25.8124 114.191 25.7521 113.949 25.6305C113.706 25.5094 113.494 25.3416 113.312 25.1265C113.131 24.912 112.987 24.6642 112.883 24.3833C112.778 24.1024 112.726 23.7969 112.726 23.4668C112.726 23.1588 112.778 22.8638 112.883 22.5829C112.987 22.302 113.131 22.0598 113.312 21.8563C113.494 21.6528 113.706 21.4905 113.949 21.3689C114.191 21.2478 114.45 21.187 114.725 21.187C115 21.187 115.256 21.2478 115.493 21.3689C115.729 21.49 115.939 21.6523 116.12 21.8563C116.302 22.0603 116.445 22.3025 116.55 22.5829C116.655 22.8638 116.707 23.1583 116.707 23.4668C116.707 23.7969 116.655 24.1024 116.55 24.3833Z" fill="#FDFBFF"/>
<path d="M127.328 20.3448C126.766 19.6182 125.825 19.2549 124.504 19.2549C123.645 19.2549 122.929 19.5117 122.356 20.0247L122.34 20.0408L123.149 21.4679L123.166 21.4845V21.4679C123.496 21.3025 123.854 21.2201 124.24 21.2201C124.647 21.2201 124.961 21.2809 125.181 21.4025C125.402 21.5241 125.561 21.6925 125.66 21.9076C125.759 22.1226 125.817 22.3714 125.834 22.6528C125.85 22.9341 125.858 23.2296 125.858 23.5386V27.6455H128.104V23.5492C128.104 22.7894 128.044 22.1508 127.923 21.6332C127.801 21.1156 127.603 20.6865 127.328 20.3448Z" fill="#FDFBFF"/>
<path d="M121.943 19.3872H119.697V27.6457H121.943V19.3872Z" fill="#FDFBFF"/>
<path d="M145.613 20.5101C145.227 20.1247 144.776 19.8192 144.259 19.5936C143.741 19.3679 143.19 19.2549 142.607 19.2549C142.012 19.2549 141.453 19.3679 140.93 19.5936C140.407 19.8192 139.953 20.1252 139.568 20.5101C139.182 20.8955 138.877 21.3473 138.651 21.8643C138.426 22.3819 138.312 22.9382 138.312 23.5326C138.312 24.1165 138.426 24.6667 138.651 25.1843C138.877 25.7019 139.182 26.1536 139.568 26.5385C139.953 26.924 140.407 27.227 140.93 27.4471C141.454 27.6671 142.012 27.7772 142.607 27.7772C143.289 27.7772 143.936 27.6219 144.547 27.3109C145.158 27.0003 145.662 26.5672 146.059 26.0119L146.092 25.9783L144.176 25.1346L144.143 25.118L144.126 25.1346C143.906 25.421 143.672 25.6054 143.424 25.6878C143.177 25.7702 142.904 25.8114 142.607 25.8114C142.277 25.8114 141.979 25.7376 141.715 25.5893C141.451 25.4411 141.225 25.2577 141.038 25.0381C140.85 24.8185 140.707 24.5748 140.608 24.3055C140.509 24.0366 140.459 23.7763 140.459 23.5236C140.459 23.1944 140.514 22.8899 140.624 22.61C140.735 22.3301 140.886 22.089 141.079 21.8859C141.271 21.6829 141.5 21.5211 141.764 21.4005C142.028 21.2799 142.309 21.2191 142.606 21.2191C143.091 21.2191 143.512 21.3679 143.87 21.6653C144.228 21.9628 144.484 22.3427 144.638 22.805H141.5L142.557 24.4899H146.752L146.769 24.4567C146.835 24.1592 146.868 23.8512 146.868 23.5316C146.868 22.9372 146.755 22.3809 146.529 21.8633C146.303 21.3473 145.998 20.8955 145.613 20.5101Z" fill="#FDFBFF"/>
<path d="M150.302 21.8895C150.489 21.6749 150.712 21.5041 150.971 21.3775C151.23 21.2508 151.508 21.1875 151.805 21.1875C152.213 21.1875 152.584 21.3141 152.92 21.5674C153.256 21.8207 153.512 22.1513 153.688 22.5583L153.705 22.5749L155.505 21.4021L155.488 21.3855C155.103 20.7247 154.582 20.2071 153.928 19.8328C153.272 19.4584 152.565 19.271 151.805 19.271C151.211 19.271 150.654 19.3841 150.137 19.6097C149.619 19.8353 149.167 20.1408 148.783 20.5262C148.397 20.9116 148.092 21.3634 147.866 21.8805C147.64 22.398 147.527 22.9488 147.527 23.5321C147.527 24.116 147.64 24.6663 147.866 25.1838C148.092 25.7014 148.397 26.1532 148.783 26.5381C149.168 26.9235 149.619 27.229 150.137 27.4546C150.654 27.6802 151.211 27.7933 151.805 27.7933C152.565 27.7933 153.272 27.6064 153.928 27.2315C154.582 26.8572 155.103 26.3396 155.488 25.6788L155.505 25.6622L153.721 24.4894L153.705 24.4728L153.688 24.506C153.512 24.9135 153.256 25.2301 152.92 25.4557C152.584 25.6813 152.213 25.7944 151.805 25.7944C151.508 25.7944 151.23 25.7366 150.971 25.621C150.712 25.5054 150.489 25.3462 150.302 25.1421C150.115 24.9386 149.966 24.6989 149.856 24.4236C149.746 24.1487 149.691 23.8512 149.691 23.5316C149.691 23.2126 149.745 22.9121 149.856 22.6317C149.966 22.3518 150.115 22.1041 150.302 21.8895Z" fill="#FDFBFF"/>
<path d="M163.917 20.378C163.37 19.6625 162.433 19.3042 161.104 19.3042C160.685 19.3042 160.3 19.368 159.947 19.4956C159.595 19.6233 159.276 19.8147 158.989 20.0705L158.973 20.0871L159.766 21.5177L159.782 21.5509L159.799 21.5343C160.173 21.3584 160.52 21.27 160.839 21.27C161.246 21.27 161.561 21.3303 161.781 21.4514C162.001 21.572 162.161 21.7373 162.26 21.9458C162.359 22.1549 162.417 22.396 162.433 22.6709C162.45 22.9453 162.458 23.2312 162.458 23.5277V27.6466H164.655V23.5171C164.655 22.085 164.409 21.0388 163.917 20.378Z" fill="#FDFBFF"/>
<path d="M156.332 27.6456H158.529L158.546 16.0837H156.349L156.332 27.6456Z" fill="#FDFBFF"/>
<defs>
<linearGradient id="paint0_linear_112_11365" x1="43.6814" y1="51.5233" x2="28.4251" y2="19.0725" gradientUnits="userSpaceOnUse">
<stop offset="0.047" stop-color="#7200FF"/>
<stop offset="1" stop-color="#FC57FF"/>
</linearGradient>
</defs>
</svg>
