<svg width="471" height="117" viewBox="0 0 471 117" fill="none" xmlns="http://www.w3.org/2000/svg">
<path d="M90.871 0C66.7614 0 46.0561 14.461 37.0875 35.1273H56.1948V35.6569C56.1948 42.7147 50.4335 48.4328 43.3225 48.4328H33.141H0V48.9624C0 56.0201 5.7613 61.7383 12.8723 61.7383H32.4391H56.1948V61.8119H60.3296H61.9532V61.7383V50.4663C61.9532 49.7809 61.9846 49.104 62.0531 48.43C62.2471 46.303 62.7665 44.261 63.6083 42.304C64.7155 39.7324 66.2364 37.4865 68.1768 35.555C70.1229 33.6291 72.3858 32.1195 74.9768 31.0207C77.5678 29.9218 80.3472 29.3723 83.3177 29.3723H95.7734V42.641H83.3177C81.3345 42.641 79.8107 43.4 78.7492 44.9124C77.6791 46.4248 77.1455 48.5036 77.1455 51.1488V61.7723H92.2607V61.8091H95.7734V49.6138H99.2861V49.5826H114.393V29.3752H129.591V49.6166H137.82V62.2084H129.591V73.5484C129.591 76.423 129.037 79.1447 127.93 81.7107C126.828 84.2823 125.308 86.5339 123.361 88.4597C121.421 90.3913 119.152 91.9008 116.561 92.9997C113.976 94.0929 111.191 94.6395 108.226 94.6395H95.7705V81.3708H108.226C110.204 81.3708 111.725 80.6175 112.795 79.1079C113.865 77.5899 114.393 75.5168 114.393 72.8715V62.2481H99.2832V62.2113H95.7705V74.4009H92.2578V74.432H77.1426V94.6423H61.9504V88.2841V75.0466V74.9786H60.3267H56.1919H34.8303H15.7259V75.0466V75.5083C15.7259 82.566 21.4872 88.2841 28.5982 88.2841H40.8313H54.2629L42.7689 91.2324C53.3355 106.333 70.9447 116.218 90.871 116.218C123.204 116.218 149.423 90.2043 149.423 58.1103C149.423 26.0134 123.204 0 90.871 0Z" fill="url(#paint0_linear_511_1167)"/>
<path d="M351.8 66.8025C352.782 66.8025 353.615 67.1447 354.301 67.8292C354.985 68.5137 355.312 69.3476 355.283 70.3295C355.283 71.3114 354.932 72.1453 354.233 72.8298C353.533 73.5143 352.693 73.8565 351.711 73.8565C350.757 73.8266 349.94 73.4695 349.255 72.785C348.571 72.1005 348.243 71.253 348.273 70.2399C348.273 69.2878 348.616 68.4689 349.3 67.7844C349.985 67.1013 350.817 66.774 351.8 66.8025Z" fill="#1D191F"/>
<path d="M193.194 44.1167C192.182 44.5486 191.296 45.1434 190.537 45.9026C189.778 46.6618 189.183 47.5473 188.751 48.5591C188.319 49.5709 188.103 50.6424 188.103 51.7737V56.2378H184.889V61.1936H188.103V74.7204H194.041V61.2058H199.946V61.1936H201.318V56.2378H199.946V56.2229H194.041V52.0413C194.041 50.9996 194.249 50.182 194.666 49.5858C195.083 48.9909 195.678 48.6935 196.452 48.6935H201.318V43.4702H196.452C195.292 43.4702 194.205 43.6862 193.194 44.1167Z" fill="#1D191F"/>
<path d="M216.675 69.0936C216.258 69.3326 215.811 69.5255 215.336 69.6735C214.859 69.8229 214.369 69.8962 213.862 69.8962C212.761 69.8962 211.914 69.7251 211.317 69.3829C210.721 69.0406 210.282 68.587 210 68.0207C209.716 67.4557 209.553 66.8011 209.508 66.0569C209.463 65.314 209.442 64.5385 209.442 63.7358V52.397H203.326V63.7358C203.326 67.5752 204.026 70.3729 205.424 72.129C206.943 74.0928 209.516 75.0747 213.148 75.0747C215.439 75.0747 217.36 74.3902 218.906 73.0213V72.9764L216.763 69.0922H216.675V69.0936Z" fill="#1D191F"/>
<path d="M226.139 52.3984H220.023V74.8535H226.139V52.3984Z" fill="#1D191F"/>
<path d="M247.032 53.2905H246.987C245.319 52.458 243.595 52.041 241.809 52.041C238.773 52.041 236.466 53.1275 234.889 55.3005V52.3982H228.818V74.7188H234.889V62.4428C235.007 61.7284 235.253 61.0589 235.625 60.4341C235.997 59.8094 236.451 59.2662 236.987 58.8044C237.522 58.344 238.132 57.9868 238.818 57.7329C239.503 57.4803 240.232 57.3539 241.006 57.3539C242.136 57.3539 243.194 57.6378 244.176 58.2028L244.221 58.2476L246.497 54.1855L247.032 53.2905Z" fill="#1D191F"/>
<path d="M263.595 55.4051C262.761 54.3131 261.764 53.4793 260.604 52.9048C259.443 52.3289 258.089 52.041 256.542 52.041C254.964 52.041 253.477 52.3466 252.078 52.9564C250.679 53.5662 249.458 54.3933 248.418 55.4336C247.376 56.4753 246.551 57.6962 245.941 59.0937C245.331 60.4925 245.025 61.996 245.025 63.6026C245.025 65.1807 245.33 66.6679 245.941 68.0667C246.551 69.4656 247.376 70.6865 248.418 71.7268C249.46 72.7685 250.679 73.5875 252.078 74.1823C253.477 74.7772 254.964 75.0746 256.542 75.0746C258.685 75.0746 260.485 74.5096 261.943 73.3783L261.988 73.3335L259.755 69.361V69.2714H259.711C259.056 69.5987 258.267 69.763 257.345 69.763C256.481 69.763 255.677 69.5987 254.934 69.27C254.19 68.9414 253.529 68.4932 252.947 67.9255C252.367 67.3578 251.912 66.7005 251.585 65.9549C251.258 65.2079 251.093 64.4175 251.093 63.5795C251.093 62.7131 251.256 61.8995 251.585 61.1376C251.912 60.3757 252.366 59.7184 252.947 59.167C253.527 58.6143 254.19 58.1742 254.934 57.8456C255.678 57.5169 256.481 57.3526 257.345 57.3526C258.177 57.3526 258.975 57.5101 259.734 57.8225C260.493 58.1362 261.162 58.5763 261.742 59.1426C262.322 59.7103 262.776 60.3662 263.105 61.1118C263.432 61.8588 263.596 62.6642 263.596 63.5293V74.7188H269.444V52.3982H263.596V55.4051H263.595Z" fill="#1D191F"/>
<path d="M284.799 59.6755H288.102V54.7197H282.031L284.799 59.6755Z" fill="#1D191F"/>
<path d="M282.008 68.8261C281.516 68.3508 281.271 67.7695 281.271 67.085V46.6387H275.334V54.7194H272.119V59.6752H275.334V66.372C275.334 67.5332 275.557 68.6197 276.003 69.6315C276.45 70.6433 277.053 71.5288 277.811 72.288C278.57 73.0471 279.462 73.642 280.489 74.0739C281.516 74.5058 282.609 74.7217 283.77 74.7217H288.1V69.5432H283.772C283.087 69.5405 282.499 69.3028 282.008 68.8261Z" fill="#1D191F"/>
<path d="M367.961 59.6755H371.264V54.7197H365.193L367.961 59.6755Z" fill="#1D191F"/>
<path d="M365.172 68.8261C364.68 68.3508 364.436 67.7695 364.436 67.085V46.6387H358.498V54.7194H355.283V59.6752H358.498V66.372C358.498 67.5332 358.721 68.6197 359.167 69.6315C359.614 70.6433 360.217 71.5288 360.975 72.288C361.734 73.0471 362.627 73.642 363.653 74.0739C364.68 74.5058 365.773 74.7217 366.934 74.7217H371.264V69.5432H366.934C366.25 69.5405 365.662 69.3028 365.172 68.8261Z" fill="#1D191F"/>
<path d="M296.272 52.3984H290.334V74.719H296.272V52.3984Z" fill="#1D191F"/>
<path d="M296.272 43.4702H290.334V48.6935H296.272V43.4702Z" fill="#1D191F"/>
<path d="M318.235 55.4336C317.193 54.3919 315.972 53.5662 314.574 52.9564C313.176 52.3466 311.672 52.041 310.066 52.041C308.459 52.041 306.955 52.3466 305.557 52.9564C304.158 53.5662 302.937 54.3933 301.896 55.4336C300.855 56.4753 300.029 57.6962 299.419 59.0937C298.809 60.4925 298.504 61.981 298.504 63.5578C298.504 65.1359 298.808 66.6231 299.419 68.0219C300.029 69.4208 300.855 70.6417 301.896 71.682C302.938 72.7237 304.158 73.5494 305.557 74.1592C306.955 74.769 308.459 75.0746 310.066 75.0746C311.672 75.0746 313.176 74.769 314.574 74.1592C315.973 73.5494 317.193 72.7237 318.235 71.682C319.276 70.6404 320.102 69.4208 320.712 68.0219C321.322 66.6231 321.627 65.1359 321.627 63.5578C321.627 61.981 321.322 60.4925 320.712 59.0937C320.102 57.6962 319.276 56.4753 318.235 55.4336ZM314.998 65.9019C314.714 66.6611 314.329 67.3306 313.837 67.9106C313.345 68.4905 312.78 68.9454 312.141 69.2727C311.501 69.6 310.808 69.7644 310.066 69.7644C309.321 69.7644 308.622 69.6014 307.967 69.2727C307.313 68.9454 306.739 68.4918 306.248 67.9106C305.756 67.3306 305.369 66.6611 305.087 65.9019C304.803 65.1427 304.663 64.317 304.663 63.4247C304.663 62.5922 304.804 61.795 305.087 61.0358C305.369 60.2766 305.756 59.622 306.248 59.072C306.739 58.5219 307.311 58.0833 307.967 57.7546C308.622 57.4273 309.321 57.263 310.066 57.263C310.81 57.263 311.501 57.4273 312.141 57.7546C312.78 58.0819 313.347 58.5206 313.837 59.072C314.329 59.6234 314.714 60.278 314.998 61.0358C315.281 61.795 315.422 62.5908 315.422 63.4247C315.423 64.317 315.281 65.1427 314.998 65.9019Z" fill="#1D191F"/>
<path d="M344.127 54.9868C342.608 53.0229 340.064 52.041 336.493 52.041C334.172 52.041 332.236 52.735 330.689 54.1216L330.645 54.1651L332.832 58.0221L332.877 58.067V58.0221C333.77 57.5753 334.737 57.3526 335.78 57.3526C336.881 57.3526 337.728 57.5169 338.325 57.8456C338.919 58.1742 339.351 58.6292 339.619 59.2105C339.886 59.7918 340.043 60.464 340.087 61.2246C340.132 61.9851 340.154 62.7837 340.154 63.6189V74.7188H346.225V63.6474C346.225 61.594 346.06 59.8678 345.733 58.469C345.404 57.0701 344.869 55.9103 344.127 54.9868Z" fill="#1D191F"/>
<path d="M329.573 52.3984H323.502V74.719H329.573V52.3984Z" fill="#1D191F"/>
<path d="M393.545 55.4336C392.503 54.3919 391.282 53.5662 389.885 52.9564C388.486 52.3466 386.998 52.041 385.421 52.041C383.814 52.041 382.303 52.3466 380.89 52.9564C379.476 53.5662 378.249 54.3933 377.207 55.4336C376.165 56.4753 375.34 57.6962 374.73 59.0937C374.12 60.4925 373.814 61.996 373.814 63.6026C373.814 65.1807 374.12 66.6679 374.73 68.0667C375.34 69.4656 376.165 70.6865 377.207 71.7268C378.249 72.7685 379.476 73.5875 380.89 74.1823C382.304 74.7772 383.814 75.0746 385.421 75.0746C387.265 75.0746 389.014 74.6549 390.666 73.8143C392.317 72.9749 393.68 71.8043 394.751 70.3035L394.841 70.2125L389.662 67.9323L389.573 67.8875L389.528 67.9323C388.932 68.7064 388.3 69.2048 387.631 69.4276C386.961 69.6503 386.225 69.7617 385.421 69.7617C384.529 69.7617 383.725 69.562 383.01 69.1614C382.296 68.7607 381.686 68.265 381.179 67.6715C380.673 67.078 380.286 66.4193 380.018 65.6914C379.751 64.9648 379.616 64.2613 379.616 63.5782C379.616 62.6886 379.764 61.8656 380.063 61.1091C380.361 60.3527 380.769 59.7008 381.291 59.1521C381.811 58.6034 382.429 58.1661 383.143 57.8402C383.858 57.5142 384.617 57.3499 385.42 57.3499C386.729 57.3499 387.867 57.7519 388.835 58.5559C389.802 59.3599 390.493 60.3866 390.912 61.6361H382.429L385.286 66.1898H396.625L396.67 66.1002C396.849 65.2962 396.938 64.4637 396.938 63.5999C396.938 61.9933 396.632 60.4898 396.022 59.091C395.411 57.6962 394.585 56.4753 393.545 55.4336Z" fill="#1D191F"/>
<path d="M406.222 59.1616C406.727 58.5817 407.33 58.1199 408.03 57.7777C408.729 57.4354 409.48 57.2643 410.284 57.2643C411.386 57.2643 412.389 57.6066 413.298 58.291C414.205 58.9755 414.898 59.8692 415.373 60.9692L415.418 61.0141L420.284 57.8442L420.239 57.7994C419.198 56.0135 417.791 54.6146 416.021 53.6028C414.25 52.591 412.338 52.0845 410.284 52.0845C408.678 52.0845 407.174 52.39 405.775 52.9998C404.376 53.6096 403.156 54.4354 402.115 55.477C401.074 56.5187 400.248 57.7396 399.638 59.1371C399.028 60.536 398.723 62.0245 398.723 63.6013C398.723 65.1794 399.028 66.6665 399.638 68.0654C400.248 69.4642 401.074 70.6852 402.115 71.7255C403.157 72.7671 404.376 73.5929 405.775 74.2027C407.174 74.8125 408.678 75.118 410.284 75.118C412.338 75.118 414.25 74.6128 416.021 73.5997C417.791 72.5879 419.198 71.189 420.239 69.4031L420.284 69.3583L415.463 66.1885L415.418 66.1436L415.373 66.2333C414.896 67.3347 414.205 68.1903 413.298 68.8001C412.389 69.4099 411.386 69.7155 410.284 69.7155C409.48 69.7155 408.729 69.5593 408.03 69.2469C407.33 68.9346 406.727 68.504 406.222 67.9526C405.716 67.4026 405.314 66.7548 405.016 66.0105C404.719 65.2677 404.569 64.4637 404.569 63.5999C404.569 62.7375 404.717 61.9253 405.016 61.1675C405.314 60.4111 405.716 59.7415 406.222 59.1616Z" fill="#1D191F"/>
<path d="M443.02 55.0766C441.542 53.1426 439.008 52.1743 435.416 52.1743C434.285 52.1743 433.243 52.3468 432.291 52.6918C431.338 53.0367 430.475 53.5542 429.701 54.2454L429.656 54.2903L431.799 58.1568L431.844 58.2464L431.889 58.2016C432.901 57.7263 433.838 57.4872 434.702 57.4872C435.802 57.4872 436.651 57.6502 437.247 57.9775C437.842 58.3035 438.273 58.7503 438.541 59.3139C438.809 59.8789 438.965 60.5308 439.01 61.2737C439.054 62.0152 439.076 62.788 439.076 63.5892V74.7217H445.014V63.5607C445.015 59.6901 444.35 56.8625 443.02 55.0766Z" fill="#1D191F"/>
<path d="M422.516 74.719H428.453L428.498 43.4702H422.56L422.516 74.719Z" fill="#1D191F"/>
<defs>
<linearGradient id="paint0_linear_511_1167" x1="118.059" y1="139.254" x2="76.8256" y2="51.5479" gradientUnits="userSpaceOnUse">
<stop offset="0.047" stop-color="#7200FF"/>
<stop offset="1" stop-color="#FC57FF"/>
</linearGradient>
</defs>
</svg>
