<svg width="261" height="255" viewBox="0 0 261 255" fill="none" xmlns="http://www.w3.org/2000/svg">
<path d="M129.5 259C95.1545 259 62.2156 245.356 37.9297 221.07C13.6437 196.784 2.59302e-06 163.846 0 129.5C-2.59302e-06 95.1545 13.6437 62.2156 37.9297 37.9297C62.2156 13.6437 95.1544 5.18603e-06 129.5 0L129.5 259Z" fill="#EC544A"/>
<path d="M266 63.5C266 98.5701 237.57 127 202.5 127C167.43 127 139 98.5701 139 63.5C139 28.4299 167.43 0 202.5 0C237.57 0 266 28.4299 266 63.5Z" fill="#EC544A"/>
<path d="M130 131H266V259L205.433 201.253L130 131Z" fill="#EC544A"/>
</svg>
