<svg width="1373" height="241" viewBox="0 0 1373 241" fill="none" xmlns="http://www.w3.org/2000/svg">
<path d="M119.03 121.54V237.84C119.03 237.88 119.022 237.92 119.006 237.957C118.991 237.994 118.968 238.028 118.939 238.056C118.91 238.084 118.875 238.106 118.838 238.12C118.8 238.135 118.76 238.141 118.72 238.14C78.93 237.73 43.06 218.84 20.66 186.45C-5.61002 148.46 -6.81002 97.2 16.96 57.61C38.48 21.76 76.73 0.560044 118.6 0.170044C118.887 0.170044 119.03 0.313378 119.03 0.600044V118.88C119.03 118.952 119.044 119.024 119.072 119.091C119.099 119.157 119.14 119.218 119.191 119.269C119.242 119.32 119.303 119.361 119.37 119.388C119.436 119.416 119.508 119.43 119.58 119.43L238.34 119.45C238.473 119.45 238.6 119.502 238.694 119.594C238.787 119.685 238.84 119.81 238.84 119.94L238.85 239.45C238.85 240.117 238.613 240.213 238.14 239.74L119.64 121.29C119.233 120.883 119.03 120.967 119.03 121.54Z" fill="#EC544A"/>
<path d="M183.07 108.96C213.158 108.96 237.55 84.5685 237.55 54.48C237.55 24.3915 213.158 0 183.07 0C152.981 0 128.59 24.3915 128.59 54.48C128.59 84.5685 152.981 108.96 183.07 108.96Z" fill="#EC544A"/>
<path d="M356.58 112.32H440.18C440.432 112.32 440.674 112.42 440.852 112.598C441.03 112.776 441.13 113.018 441.13 113.27L441.1 143.58C441.1 143.832 441 144.074 440.822 144.252C440.644 144.43 440.402 144.53 440.15 144.53L356.58 144.55C356.328 144.55 356.086 144.65 355.908 144.828C355.73 145.006 355.63 145.248 355.63 145.5L355.62 224.22C355.62 224.472 355.52 224.714 355.342 224.892C355.164 225.07 354.922 225.17 354.67 225.17L320.21 225.22C319.958 225.22 319.716 225.12 319.538 224.942C319.36 224.764 319.26 224.522 319.26 224.27V25.07C319.26 24.818 319.36 24.5764 319.538 24.3982C319.716 24.2201 319.958 24.12 320.21 24.12H452.42C452.672 24.12 452.914 24.2201 453.092 24.3982C453.27 24.5764 453.37 24.818 453.37 25.07L453.34 55.43C453.34 55.6819 453.24 55.9236 453.062 56.1017C452.884 56.2799 452.642 56.38 452.39 56.38L356.58 56.4C356.328 56.4 356.086 56.5001 355.908 56.6782C355.73 56.8564 355.63 57.098 355.63 57.35V111.37C355.63 111.622 355.73 111.864 355.908 112.042C356.086 112.22 356.328 112.32 356.58 112.32Z" fill="white"/>
<path d="M1032.23 24.12H999.57C998.742 24.12 998.07 24.7916 998.07 25.62V60.56C998.07 61.3884 998.742 62.06 999.57 62.06H1032.23C1033.06 62.06 1033.73 61.3884 1033.73 60.56V25.62C1033.73 24.7916 1033.06 24.12 1032.23 24.12Z" fill="white"/>
<path d="M937.39 78.29L969.76 78.31C969.962 78.31 970.155 78.3901 970.297 78.5326C970.44 78.6752 970.52 78.8685 970.52 79.07V109.29C970.52 109.42 970.468 109.545 970.376 109.637C970.285 109.728 970.16 109.78 970.03 109.78L937.75 109.8C937.503 109.8 937.267 109.898 937.092 110.072C936.918 110.247 936.82 110.483 936.82 110.73C936.813 130.597 936.82 150.55 936.84 170.59C936.85 181.88 939.72 190.87 951.5 194.52C958.31 196.63 964.39 195.47 970.64 194.97C971.06 194.937 971.27 195.133 971.27 195.56L971.28 224.56C971.28 224.867 971.13 225.05 970.83 225.11C945.69 229.76 918.42 225.83 906.56 200.56C901.47 189.74 901.6 179.6 901.6 165.12C901.6 146.927 901.59 128.74 901.57 110.56C901.57 110.345 901.486 110.139 901.336 109.987C901.186 109.835 900.982 109.75 900.77 109.75L877.25 109.77C876.443 109.77 876.04 109.367 876.04 108.56V79.56C876.04 79.2505 876.16 78.9534 876.375 78.7326C876.591 78.5119 876.883 78.3853 877.19 78.38C899.96 77.97 902.11 65.43 901.55 45.92C901.53 45.24 901.863 44.9 902.55 44.9H935.75C936.47 44.9 936.83 45.2567 936.83 45.97L936.81 77.7C936.81 77.8565 936.871 78.0066 936.98 78.1172C937.089 78.2279 937.236 78.29 937.39 78.29Z" fill="white"/>
<path d="M771.64 112.89C771.58 113.27 771.393 113.54 771.08 113.7C770.667 113.913 770.423 114.053 770.35 114.12C766.217 117.707 763.213 121.987 761.34 126.96C761.318 127.021 761.283 127.077 761.237 127.124C761.191 127.17 761.136 127.207 761.075 127.232C761.014 127.256 760.948 127.268 760.882 127.266C760.816 127.264 760.75 127.248 760.69 127.22L733.01 113.8C732.677 113.633 732.58 113.377 732.72 113.03C745.07 82.08 781.28 70.8599 812.04 76.7699C837.42 81.6599 856.74 101.16 856.73 127.84C856.723 160.14 856.707 192.413 856.68 224.66C856.68 224.766 856.638 224.868 856.563 224.943C856.488 225.018 856.386 225.06 856.28 225.06L823.78 225.1C823.447 225.1 823.28 224.93 823.28 224.59L823.29 210.33C823.29 209.57 823.033 209.47 822.52 210.03C814.193 219.15 803.803 224.837 791.35 227.09C763.72 232.09 729.28 223.18 727.13 189.59C725.57 165.25 740.69 149.17 762.78 142.84C770.007 140.767 777.333 139.163 784.76 138.03C796.847 136.19 808.913 134.327 820.96 132.44C821.207 132.4 821.33 132.26 821.33 132.02C821.45 125.51 821.25 120.18 816.67 114.66C812.603 109.767 807.403 106.82 801.07 105.82C790.523 104.153 780.99 106.397 772.47 112.55C772.343 112.643 772.217 112.693 772.09 112.7C772.003 112.713 771.917 112.72 771.83 112.72C771.717 112.72 771.653 112.777 771.64 112.89ZM766.9 174.71C761.89 181.44 762.33 191.74 769.11 197.01C776.11 202.45 786.32 202.04 794.61 199.91C813.26 195.12 822.87 178.65 821.09 159.84C821.063 159.567 820.913 159.453 820.64 159.5C808.673 161.447 796.717 163.443 784.77 165.49C778.51 166.56 770.85 169.42 766.9 174.71Z" fill="white"/>
<path d="M1209.87 181.8C1193.38 221.7 1146.63 238.12 1107.56 222.4C1070.85 207.64 1053.33 169.03 1062.95 131.09C1069.58 104.98 1091.12 84.7399 1116.74 77.8599C1144.04 70.5199 1176.62 77.9699 1195.68 99.8299C1197.64 102.07 1199.78 104.16 1201.44 106.52C1205.38 112.113 1208.21 117.09 1209.93 121.45C1217.27 140.03 1217.59 163.11 1209.87 181.8ZM1115.84 114.11C1087.24 132.94 1091.4 185.38 1127.31 194.56C1150.15 200.4 1171.33 187.73 1176.93 164.82C1180.7 149.42 1178.02 132.09 1167.14 120.22C1154.06 105.97 1132.02 103.46 1115.84 114.11Z" fill="white"/>
<path d="M1275.54 95.32C1275.54 95.4009 1275.57 95.4787 1275.62 95.542C1275.67 95.6054 1275.74 95.651 1275.82 95.6722C1275.9 95.6934 1275.98 95.6891 1276.06 95.6599C1276.13 95.6307 1276.2 95.5782 1276.24 95.51C1283.89 82.56 1299.05 75.59 1313.78 75.15C1346.91 74.16 1372 95 1372.24 129.59C1372.45 161.25 1372.55 192.907 1372.54 224.56C1372.54 224.913 1372.36 225.09 1372.01 225.09L1337.52 225.08C1337.46 225.08 1337.41 225.069 1337.36 225.047C1337.3 225.026 1337.26 224.994 1337.22 224.954C1337.18 224.914 1337.14 224.867 1337.12 224.815C1337.1 224.762 1337.09 224.706 1337.09 224.65C1337.09 196.57 1337.09 168.467 1337.09 140.34C1337.09 131.68 1335.4 122.97 1329.25 116.52C1321.59 108.48 1309.33 105.87 1298.88 108.79C1285.72 112.48 1277.84 123.79 1277.8 137.35C1277.71 166.483 1277.69 195.58 1277.74 224.64C1277.74 224.759 1277.69 224.874 1277.61 224.958C1277.53 225.043 1277.42 225.09 1277.3 225.09L1242.79 225.08C1242.66 225.08 1242.54 225.029 1242.45 224.939C1242.36 224.849 1242.31 224.727 1242.31 224.6V78.83C1242.31 78.5033 1242.47 78.34 1242.79 78.34H1275.03C1275.36 78.34 1275.53 78.5066 1275.53 78.84L1275.54 95.32Z" fill="white"/>
<path d="M665.41 97.9899C666.68 96.0699 667.93 93.5299 668.9 92.1199C678.84 77.6399 696.93 76.3399 712.86 76.9399C713.147 76.9466 713.29 77.0933 713.29 77.3799V107.61C713.29 108.003 713.093 108.193 712.7 108.18C703.007 107.913 696.787 108.04 694.04 108.56C675.52 112.03 667.26 125.81 667.22 143.84C667.16 170.753 667.11 197.653 667.07 224.54C667.07 224.9 666.89 225.08 666.53 225.08H632.53C632.336 225.08 632.151 225.002 632.014 224.863C631.877 224.724 631.8 224.536 631.8 224.34L631.79 78.5699C631.79 78.5424 631.796 78.5151 631.807 78.4896C631.818 78.4641 631.834 78.441 631.854 78.4215C631.875 78.402 631.899 78.3865 631.926 78.3759C631.952 78.3654 631.981 78.3599 632.01 78.3599L664.54 78.3399C664.887 78.3399 665.06 78.5099 665.06 78.8499L664.97 97.8499C664.968 97.9021 664.984 97.9534 665.014 97.9961C665.044 98.0387 665.087 98.0703 665.137 98.0862C665.187 98.102 665.24 98.1012 665.29 98.0838C665.339 98.0664 665.381 98.0335 665.41 97.9899Z" fill="white"/>
<path d="M565.29 209.08C565.29 207.98 564.993 207.893 564.4 208.82C553.23 226.29 531.77 230.54 512.27 227.34C497.89 224.98 486.733 217.737 478.8 205.61C470.27 192.57 468.47 178.92 468.53 163.59C468.637 135.23 468.69 106.857 468.69 78.47C468.69 78.39 468.73 78.35 468.81 78.35L503.76 78.34C503.834 78.34 503.905 78.3695 503.958 78.422C504.01 78.4745 504.04 78.5457 504.04 78.62C504.02 107.753 504.023 136.91 504.05 166.09C504.06 181.9 513.69 193.23 529 195.55C550.21 198.77 563.48 183.7 563.49 163.34C563.51 135.207 563.493 107.077 563.44 78.95C563.44 78.55 563.64 78.35 564.04 78.35L598.28 78.34C598.415 78.34 598.545 78.3927 598.641 78.4864C598.736 78.5802 598.79 78.7074 598.79 78.84V224.45C598.79 224.614 598.725 224.772 598.608 224.888C598.492 225.005 598.334 225.07 598.17 225.07L565.79 225.09C565.657 225.09 565.53 225.038 565.436 224.946C565.343 224.855 565.29 224.73 565.29 224.6V209.08Z" fill="white"/>
<path d="M1032.49 78.5599H999.31C998.62 78.5599 998.06 79.1196 998.06 79.8099V223.93C998.06 224.62 998.62 225.18 999.31 225.18H1032.49C1033.18 225.18 1033.74 224.62 1033.74 223.93V79.8099C1033.74 79.1196 1033.18 78.5599 1032.49 78.5599Z" fill="white"/>
</svg>
