<svg width="100" height="77" viewBox="0 0 100 77" fill="none" xmlns="http://www.w3.org/2000/svg">
<path d="M24.1931 14V3.42149H27.9637C28.7867 3.42149 29.4686 3.57128 30.0092 3.87087C30.5498 4.17045 30.9544 4.58023 31.223 5.10021C31.4916 5.61673 31.6259 6.19869 31.6259 6.84607C31.6259 7.4969 31.4899 8.0823 31.2179 8.60227C30.9493 9.1188 30.5429 9.52858 29.9989 9.83161C29.4582 10.1312 28.7781 10.281 27.9586 10.281H25.3656V8.92769H27.8139C28.3339 8.92769 28.7557 8.83815 29.0794 8.65909C29.4031 8.47658 29.6407 8.22865 29.7922 7.91529C29.9438 7.60193 30.0195 7.24552 30.0195 6.84607C30.0195 6.44662 29.9438 6.09194 29.7922 5.78202C29.6407 5.47211 29.4014 5.22934 29.0743 5.05372C28.7506 4.8781 28.3236 4.79029 27.7933 4.79029H25.7891V14H24.1931ZM33.4971 14V3.42149H37.2677C38.0873 3.42149 38.7674 3.56267 39.308 3.84504C39.8521 4.12741 40.2584 4.51825 40.527 5.01756C40.7956 5.51343 40.9299 6.08678 40.9299 6.7376C40.9299 7.38499 40.7939 7.95489 40.5218 8.44731C40.2533 8.93629 39.8469 9.3168 39.3028 9.58884C38.7622 9.86088 38.0821 9.9969 37.2625 9.9969H34.4061V8.62293H37.1179C37.6344 8.62293 38.0546 8.5489 38.3783 8.40083C38.7054 8.25275 38.9447 8.03753 39.0962 7.75516C39.2477 7.4728 39.3235 7.13361 39.3235 6.7376C39.3235 6.33815 39.246 5.99208 39.0911 5.69938C38.9395 5.40668 38.7002 5.18285 38.3731 5.02789C38.0494 4.86949 37.6241 4.79029 37.0973 4.79029H35.0931V14H33.4971ZM38.7192 9.22727L41.3328 14H39.5146L36.9526 9.22727H38.7192ZM44.4681 3.42149V14H42.8721V3.42149H44.4681ZM46.2708 4.79545V3.42149H54.4578V4.79545H51.1572V14H49.5663V4.79545H46.2708ZM55.9105 14H54.2163L58.0231 3.42149H59.8671L63.674 14H61.9798L58.989 5.34297H58.9064L55.9105 14ZM56.1946 9.85744H61.6905V11.2004H56.1946V9.85744ZM65.2016 3.42149H67.1386L70.5064 11.6446H70.6303L73.9981 3.42149H75.9351V14H74.4165V6.34504H74.3183L71.1985 13.9845H69.9382L66.8183 6.33987H66.7202V14H65.2016V3.42149Z" fill="#FEFEFE"/>
<path d="M44.5865 29.1517H41.1619V18.5732H44.695C45.7315 18.5732 46.6217 18.7849 47.3655 19.2085C48.1093 19.6286 48.6792 20.2329 49.0752 21.0215C49.4746 21.8066 49.6743 22.7484 49.6743 23.8469C49.6743 24.9488 49.4729 25.8958 49.07 26.6878C48.6706 27.4798 48.092 28.0893 47.3345 28.5163C46.5769 28.9399 45.6609 29.1517 44.5865 29.1517ZM42.758 27.757H44.4987C45.3045 27.757 45.9743 27.6055 46.508 27.3025C47.0418 26.996 47.4412 26.5535 47.7064 25.975C47.9715 25.3931 48.1041 24.6837 48.1041 23.8469C48.1041 23.017 47.9715 22.3128 47.7064 21.7343C47.4447 21.1558 47.0538 20.7168 46.5338 20.4172C46.0139 20.1176 45.3682 19.9678 44.5969 19.9678H42.758V27.757ZM52.0271 29.1517H50.3329L54.1397 18.5732H55.9837L59.7906 29.1517H58.0963L55.1056 20.4946H55.023L52.0271 29.1517ZM52.3112 25.0091H57.8071V26.3521H52.3112V25.0091Z" fill="#FEFEFE"/>
<mask id="path-3-outside-1_528_10441" maskUnits="userSpaceOnUse" x="6.47095" y="31.0607" width="86" height="24" fill="black">
<rect fill="white" x="6.47095" y="31.0607" width="86" height="24"/>
<path d="M15.8619 52.697C14.9164 52.697 14.0255 52.6879 13.1891 52.6698C12.3528 52.6516 11.5437 52.6243 10.7619 52.5879C10.7493 52.5873 10.7367 52.5867 10.7241 52.5861C9.45375 52.5251 8.47095 51.4662 8.47095 50.1943V35.5601C8.47095 34.3009 9.43473 33.2445 10.6923 33.18C10.7613 33.1764 10.8299 33.173 10.8982 33.1698C11.68 33.1334 12.4528 33.1061 13.2164 33.0879C13.98 33.0698 14.7891 33.0607 15.6437 33.0607C17.88 33.0607 19.6891 33.4061 21.0709 34.097C22.4528 34.7698 23.4528 35.8334 24.071 37.2879C24.7073 38.7243 25.0255 40.597 25.0255 42.9061C25.0255 45.1607 24.6891 47.0152 24.0164 48.4698C23.3437 49.9061 22.3255 50.9698 20.9619 51.6607C19.6164 52.3516 17.9164 52.697 15.8619 52.697ZM16.2164 49.0698C17.1073 49.0698 17.8437 48.8698 18.4255 48.4698C19.0255 48.0516 19.48 47.397 19.7891 46.5061C20.0982 45.597 20.2528 44.4061 20.2528 42.9334C20.2528 41.3516 20.0982 40.1152 19.7891 39.2243C19.4982 38.3334 19.0437 37.697 18.4255 37.3152C17.8255 36.9152 17.0437 36.7152 16.08 36.7152C15.7528 36.7152 15.4073 36.7243 15.0437 36.7425C14.6982 36.7425 14.3528 36.7516 14.0073 36.7698C13.68 36.7879 13.38 36.8061 13.1073 36.8243V48.9607C13.3619 48.9607 13.6164 48.9698 13.8709 48.9879C14.1255 49.0061 14.38 49.0243 14.6346 49.0425C14.8891 49.0425 15.1437 49.0516 15.3982 49.0698C15.6528 49.0698 15.9255 49.0698 16.2164 49.0698Z"/>
<path d="M27.7496 52.4243C26.4768 52.4243 25.445 51.3925 25.445 50.1198V35.6379C25.445 34.3652 26.4768 33.3334 27.7496 33.3334C29.0223 33.3334 30.0541 34.3652 30.0541 35.6379V41.7061H37.0359V35.6379C37.0359 34.3652 38.0677 33.3334 39.3405 33.3334C40.6133 33.3334 41.645 34.3652 41.645 35.6379V50.1198C41.645 51.3925 40.6133 52.4243 39.3405 52.4243C38.0677 52.4243 37.0359 51.3925 37.0359 50.1198V45.8243H30.0541V50.1198C30.0541 51.3925 29.0223 52.4243 27.7496 52.4243Z"/>
<path d="M44.5372 52.4243C42.9978 52.4243 41.9019 50.9289 42.3654 49.461L46.9491 34.9458C47.2676 33.9372 48.2032 33.2516 49.2609 33.2516H51.2783C52.3325 33.2516 53.2658 33.9328 53.5872 34.9369L58.1873 49.3097C58.6803 50.8499 57.5311 52.4243 55.9139 52.4243C54.8472 52.4243 53.91 51.7166 53.618 50.6907L53.1023 48.8789H47.266L46.7277 50.7703C46.4491 51.7491 45.5549 52.4243 44.5372 52.4243ZM48.1114 45.0879H52.2569L50.1842 36.8243L48.1114 45.0879Z"/>
<path d="M61.0677 52.4789C59.871 52.4041 58.9404 51.4099 58.9404 50.2108V35.67C58.9404 34.4105 59.9048 33.3572 61.1613 33.2703C61.4004 33.2537 61.6329 33.2384 61.8586 33.2243C62.7495 33.1698 63.5677 33.1334 64.3131 33.1152C65.0768 33.0789 65.7768 33.0607 66.4131 33.0607C68.195 33.0607 69.6222 33.2243 70.695 33.5516C71.7859 33.8607 72.5768 34.3607 73.0677 35.0516C73.5586 35.7243 73.8041 36.6061 73.8041 37.697C73.8041 38.697 73.5768 39.5607 73.1222 40.2879C72.6696 40.9941 71.9826 41.5469 71.0612 41.9465C71.0541 41.9496 71.0495 41.9566 71.0495 41.9642C71.0495 41.9729 71.0553 41.9805 71.0637 41.9828C72.2387 42.3108 73.1521 42.9004 73.8041 43.7516C74.4768 44.6061 74.8131 45.6425 74.8131 46.8607C74.8131 47.9152 74.6677 48.8152 74.3768 49.5607C74.0859 50.2879 73.6131 50.8879 72.9586 51.3607C72.3222 51.8152 71.4677 52.1516 70.395 52.3698C69.3404 52.5879 68.0404 52.697 66.495 52.697C65.9131 52.697 65.4041 52.6879 64.9677 52.6698C64.5495 52.6698 64.1586 52.6607 63.795 52.6425C63.4313 52.6425 63.0313 52.6243 62.595 52.5879C62.1586 52.5698 61.6495 52.5334 61.0677 52.4789ZM63.5768 41.1879H67.2859C67.7404 41.1879 68.1313 41.097 68.4586 40.9152C68.7859 40.7334 69.0313 40.4789 69.195 40.1516C69.3768 39.8243 69.4677 39.4425 69.4677 39.0061C69.4677 38.4607 69.3586 38.0243 69.1404 37.697C68.9404 37.3698 68.6131 37.1334 68.1586 36.9879C67.7041 36.8243 67.0768 36.7425 66.2768 36.7425C66.0586 36.7425 65.8677 36.7425 65.7041 36.7425C65.5404 36.7425 65.3859 36.7516 65.2404 36.7698C65.1131 36.7698 64.9677 36.7789 64.8041 36.797C64.6586 36.797 64.4859 36.8061 64.2859 36.8243C64.0859 36.8425 63.8495 36.8607 63.5768 36.8789V41.1879ZM63.5768 48.9061C63.8859 48.9243 64.1677 48.9425 64.4222 48.9607C64.6768 48.9789 64.9041 48.997 65.1041 49.0152C65.3222 49.0152 65.5222 49.0152 65.7041 49.0152C65.9041 49.0152 66.095 49.0152 66.2768 49.0152C67.2586 49.0152 68.0222 48.9425 68.5677 48.797C69.1313 48.6334 69.5222 48.3789 69.7404 48.0334C69.9586 47.6879 70.0677 47.2334 70.0677 46.6698C70.0677 45.9061 69.8404 45.3425 69.3859 44.9789C68.9495 44.6152 68.2404 44.4334 67.2586 44.4334H63.5768V48.9061Z"/>
<path d="M76.621 52.4243C75.0816 52.4243 73.9857 50.9289 74.4492 49.461L79.033 34.9458C79.3514 33.9372 80.287 33.2516 81.3447 33.2516H83.3621C84.4163 33.2516 85.3497 33.9328 85.671 34.9369L90.2711 49.3097C90.7641 50.8499 89.6149 52.4243 87.9977 52.4243C86.931 52.4243 85.9938 51.7166 85.7018 50.6907L85.1862 48.8789H79.3498L78.8115 50.7703C78.5329 51.7491 77.6387 52.4243 76.621 52.4243ZM80.1952 45.0879H84.3407L82.268 36.8243L80.1952 45.0879Z"/>
</mask>
<path d="M15.8619 52.697C14.9164 52.697 14.0255 52.6879 13.1891 52.6698C12.3528 52.6516 11.5437 52.6243 10.7619 52.5879C10.7493 52.5873 10.7367 52.5867 10.7241 52.5861C9.45375 52.5251 8.47095 51.4662 8.47095 50.1943V35.5601C8.47095 34.3009 9.43473 33.2445 10.6923 33.18C10.7613 33.1764 10.8299 33.173 10.8982 33.1698C11.68 33.1334 12.4528 33.1061 13.2164 33.0879C13.98 33.0698 14.7891 33.0607 15.6437 33.0607C17.88 33.0607 19.6891 33.4061 21.0709 34.097C22.4528 34.7698 23.4528 35.8334 24.071 37.2879C24.7073 38.7243 25.0255 40.597 25.0255 42.9061C25.0255 45.1607 24.6891 47.0152 24.0164 48.4698C23.3437 49.9061 22.3255 50.9698 20.9619 51.6607C19.6164 52.3516 17.9164 52.697 15.8619 52.697ZM16.2164 49.0698C17.1073 49.0698 17.8437 48.8698 18.4255 48.4698C19.0255 48.0516 19.48 47.397 19.7891 46.5061C20.0982 45.597 20.2528 44.4061 20.2528 42.9334C20.2528 41.3516 20.0982 40.1152 19.7891 39.2243C19.4982 38.3334 19.0437 37.697 18.4255 37.3152C17.8255 36.9152 17.0437 36.7152 16.08 36.7152C15.7528 36.7152 15.4073 36.7243 15.0437 36.7425C14.6982 36.7425 14.3528 36.7516 14.0073 36.7698C13.68 36.7879 13.38 36.8061 13.1073 36.8243V48.9607C13.3619 48.9607 13.6164 48.9698 13.8709 48.9879C14.1255 49.0061 14.38 49.0243 14.6346 49.0425C14.8891 49.0425 15.1437 49.0516 15.3982 49.0698C15.6528 49.0698 15.9255 49.0698 16.2164 49.0698Z" fill="#E31E24"/>
<path d="M27.7496 52.4243C26.4768 52.4243 25.445 51.3925 25.445 50.1198V35.6379C25.445 34.3652 26.4768 33.3334 27.7496 33.3334C29.0223 33.3334 30.0541 34.3652 30.0541 35.6379V41.7061H37.0359V35.6379C37.0359 34.3652 38.0677 33.3334 39.3405 33.3334C40.6133 33.3334 41.645 34.3652 41.645 35.6379V50.1198C41.645 51.3925 40.6133 52.4243 39.3405 52.4243C38.0677 52.4243 37.0359 51.3925 37.0359 50.1198V45.8243H30.0541V50.1198C30.0541 51.3925 29.0223 52.4243 27.7496 52.4243Z" fill="#E31E24"/>
<path d="M44.5372 52.4243C42.9978 52.4243 41.9019 50.9289 42.3654 49.461L46.9491 34.9458C47.2676 33.9372 48.2032 33.2516 49.2609 33.2516H51.2783C52.3325 33.2516 53.2658 33.9328 53.5872 34.9369L58.1873 49.3097C58.6803 50.8499 57.5311 52.4243 55.9139 52.4243C54.8472 52.4243 53.91 51.7166 53.618 50.6907L53.1023 48.8789H47.266L46.7277 50.7703C46.4491 51.7491 45.5549 52.4243 44.5372 52.4243ZM48.1114 45.0879H52.2569L50.1842 36.8243L48.1114 45.0879Z" fill="#E31E24"/>
<path d="M61.0677 52.4789C59.871 52.4041 58.9404 51.4099 58.9404 50.2108V35.67C58.9404 34.4105 59.9048 33.3572 61.1613 33.2703C61.4004 33.2537 61.6329 33.2384 61.8586 33.2243C62.7495 33.1698 63.5677 33.1334 64.3131 33.1152C65.0768 33.0789 65.7768 33.0607 66.4131 33.0607C68.195 33.0607 69.6222 33.2243 70.695 33.5516C71.7859 33.8607 72.5768 34.3607 73.0677 35.0516C73.5586 35.7243 73.8041 36.6061 73.8041 37.697C73.8041 38.697 73.5768 39.5607 73.1222 40.2879C72.6696 40.9941 71.9826 41.5469 71.0612 41.9465C71.0541 41.9496 71.0495 41.9566 71.0495 41.9642C71.0495 41.9729 71.0553 41.9805 71.0637 41.9828C72.2387 42.3108 73.1521 42.9004 73.8041 43.7516C74.4768 44.6061 74.8131 45.6425 74.8131 46.8607C74.8131 47.9152 74.6677 48.8152 74.3768 49.5607C74.0859 50.2879 73.6131 50.8879 72.9586 51.3607C72.3222 51.8152 71.4677 52.1516 70.395 52.3698C69.3404 52.5879 68.0404 52.697 66.495 52.697C65.9131 52.697 65.4041 52.6879 64.9677 52.6698C64.5495 52.6698 64.1586 52.6607 63.795 52.6425C63.4313 52.6425 63.0313 52.6243 62.595 52.5879C62.1586 52.5698 61.6495 52.5334 61.0677 52.4789ZM63.5768 41.1879H67.2859C67.7404 41.1879 68.1313 41.097 68.4586 40.9152C68.7859 40.7334 69.0313 40.4789 69.195 40.1516C69.3768 39.8243 69.4677 39.4425 69.4677 39.0061C69.4677 38.4607 69.3586 38.0243 69.1404 37.697C68.9404 37.3698 68.6131 37.1334 68.1586 36.9879C67.7041 36.8243 67.0768 36.7425 66.2768 36.7425C66.0586 36.7425 65.8677 36.7425 65.7041 36.7425C65.5404 36.7425 65.3859 36.7516 65.2404 36.7698C65.1131 36.7698 64.9677 36.7789 64.8041 36.797C64.6586 36.797 64.4859 36.8061 64.2859 36.8243C64.0859 36.8425 63.8495 36.8607 63.5768 36.8789V41.1879ZM63.5768 48.9061C63.8859 48.9243 64.1677 48.9425 64.4222 48.9607C64.6768 48.9789 64.9041 48.997 65.1041 49.0152C65.3222 49.0152 65.5222 49.0152 65.7041 49.0152C65.9041 49.0152 66.095 49.0152 66.2768 49.0152C67.2586 49.0152 68.0222 48.9425 68.5677 48.797C69.1313 48.6334 69.5222 48.3789 69.7404 48.0334C69.9586 47.6879 70.0677 47.2334 70.0677 46.6698C70.0677 45.9061 69.8404 45.3425 69.3859 44.9789C68.9495 44.6152 68.2404 44.4334 67.2586 44.4334H63.5768V48.9061Z" fill="#E31E24"/>
<path d="M76.621 52.4243C75.0816 52.4243 73.9857 50.9289 74.4492 49.461L79.033 34.9458C79.3514 33.9372 80.287 33.2516 81.3447 33.2516H83.3621C84.4163 33.2516 85.3497 33.9328 85.671 34.9369L90.2711 49.3097C90.7641 50.8499 89.6149 52.4243 87.9977 52.4243C86.931 52.4243 85.9938 51.7166 85.7018 50.6907L85.1862 48.8789H79.3498L78.8115 50.7703C78.5329 51.7491 77.6387 52.4243 76.621 52.4243ZM80.1952 45.0879H84.3407L82.268 36.8243L80.1952 45.0879Z" fill="#E31E24"/>
<path d="M15.8619 52.697C14.9164 52.697 14.0255 52.6879 13.1891 52.6698C12.3528 52.6516 11.5437 52.6243 10.7619 52.5879C10.7493 52.5873 10.7367 52.5867 10.7241 52.5861C9.45375 52.5251 8.47095 51.4662 8.47095 50.1943V35.5601C8.47095 34.3009 9.43473 33.2445 10.6923 33.18C10.7613 33.1764 10.8299 33.173 10.8982 33.1698C11.68 33.1334 12.4528 33.1061 13.2164 33.0879C13.98 33.0698 14.7891 33.0607 15.6437 33.0607C17.88 33.0607 19.6891 33.4061 21.0709 34.097C22.4528 34.7698 23.4528 35.8334 24.071 37.2879C24.7073 38.7243 25.0255 40.597 25.0255 42.9061C25.0255 45.1607 24.6891 47.0152 24.0164 48.4698C23.3437 49.9061 22.3255 50.9698 20.9619 51.6607C19.6164 52.3516 17.9164 52.697 15.8619 52.697ZM16.2164 49.0698C17.1073 49.0698 17.8437 48.8698 18.4255 48.4698C19.0255 48.0516 19.48 47.397 19.7891 46.5061C20.0982 45.597 20.2528 44.4061 20.2528 42.9334C20.2528 41.3516 20.0982 40.1152 19.7891 39.2243C19.4982 38.3334 19.0437 37.697 18.4255 37.3152C17.8255 36.9152 17.0437 36.7152 16.08 36.7152C15.7528 36.7152 15.4073 36.7243 15.0437 36.7425C14.6982 36.7425 14.3528 36.7516 14.0073 36.7698C13.68 36.7879 13.38 36.8061 13.1073 36.8243V48.9607C13.3619 48.9607 13.6164 48.9698 13.8709 48.9879C14.1255 49.0061 14.38 49.0243 14.6346 49.0425C14.8891 49.0425 15.1437 49.0516 15.3982 49.0698C15.6528 49.0698 15.9255 49.0698 16.2164 49.0698Z" stroke="white" stroke-width="3.0303" mask="url(#path-3-outside-1_528_10441)"/>
<path d="M27.7496 52.4243C26.4768 52.4243 25.445 51.3925 25.445 50.1198V35.6379C25.445 34.3652 26.4768 33.3334 27.7496 33.3334C29.0223 33.3334 30.0541 34.3652 30.0541 35.6379V41.7061H37.0359V35.6379C37.0359 34.3652 38.0677 33.3334 39.3405 33.3334C40.6133 33.3334 41.645 34.3652 41.645 35.6379V50.1198C41.645 51.3925 40.6133 52.4243 39.3405 52.4243C38.0677 52.4243 37.0359 51.3925 37.0359 50.1198V45.8243H30.0541V50.1198C30.0541 51.3925 29.0223 52.4243 27.7496 52.4243Z" stroke="white" stroke-width="3.0303" mask="url(#path-3-outside-1_528_10441)"/>
<path d="M44.5372 52.4243C42.9978 52.4243 41.9019 50.9289 42.3654 49.461L46.9491 34.9458C47.2676 33.9372 48.2032 33.2516 49.2609 33.2516H51.2783C52.3325 33.2516 53.2658 33.9328 53.5872 34.9369L58.1873 49.3097C58.6803 50.8499 57.5311 52.4243 55.9139 52.4243C54.8472 52.4243 53.91 51.7166 53.618 50.6907L53.1023 48.8789H47.266L46.7277 50.7703C46.4491 51.7491 45.5549 52.4243 44.5372 52.4243ZM48.1114 45.0879H52.2569L50.1842 36.8243L48.1114 45.0879Z" stroke="white" stroke-width="3.0303" mask="url(#path-3-outside-1_528_10441)"/>
<path d="M61.0677 52.4789C59.871 52.4041 58.9404 51.4099 58.9404 50.2108V35.67C58.9404 34.4105 59.9048 33.3572 61.1613 33.2703C61.4004 33.2537 61.6329 33.2384 61.8586 33.2243C62.7495 33.1698 63.5677 33.1334 64.3131 33.1152C65.0768 33.0789 65.7768 33.0607 66.4131 33.0607C68.195 33.0607 69.6222 33.2243 70.695 33.5516C71.7859 33.8607 72.5768 34.3607 73.0677 35.0516C73.5586 35.7243 73.8041 36.6061 73.8041 37.697C73.8041 38.697 73.5768 39.5607 73.1222 40.2879C72.6696 40.9941 71.9826 41.5469 71.0612 41.9465C71.0541 41.9496 71.0495 41.9566 71.0495 41.9642C71.0495 41.9729 71.0553 41.9805 71.0637 41.9828C72.2387 42.3108 73.1521 42.9004 73.8041 43.7516C74.4768 44.6061 74.8131 45.6425 74.8131 46.8607C74.8131 47.9152 74.6677 48.8152 74.3768 49.5607C74.0859 50.2879 73.6131 50.8879 72.9586 51.3607C72.3222 51.8152 71.4677 52.1516 70.395 52.3698C69.3404 52.5879 68.0404 52.697 66.495 52.697C65.9131 52.697 65.4041 52.6879 64.9677 52.6698C64.5495 52.6698 64.1586 52.6607 63.795 52.6425C63.4313 52.6425 63.0313 52.6243 62.595 52.5879C62.1586 52.5698 61.6495 52.5334 61.0677 52.4789ZM63.5768 41.1879H67.2859C67.7404 41.1879 68.1313 41.097 68.4586 40.9152C68.7859 40.7334 69.0313 40.4789 69.195 40.1516C69.3768 39.8243 69.4677 39.4425 69.4677 39.0061C69.4677 38.4607 69.3586 38.0243 69.1404 37.697C68.9404 37.3698 68.6131 37.1334 68.1586 36.9879C67.7041 36.8243 67.0768 36.7425 66.2768 36.7425C66.0586 36.7425 65.8677 36.7425 65.7041 36.7425C65.5404 36.7425 65.3859 36.7516 65.2404 36.7698C65.1131 36.7698 64.9677 36.7789 64.8041 36.797C64.6586 36.797 64.4859 36.8061 64.2859 36.8243C64.0859 36.8425 63.8495 36.8607 63.5768 36.8789V41.1879ZM63.5768 48.9061C63.8859 48.9243 64.1677 48.9425 64.4222 48.9607C64.6768 48.9789 64.9041 48.997 65.1041 49.0152C65.3222 49.0152 65.5222 49.0152 65.7041 49.0152C65.9041 49.0152 66.095 49.0152 66.2768 49.0152C67.2586 49.0152 68.0222 48.9425 68.5677 48.797C69.1313 48.6334 69.5222 48.3789 69.7404 48.0334C69.9586 47.6879 70.0677 47.2334 70.0677 46.6698C70.0677 45.9061 69.8404 45.3425 69.3859 44.9789C68.9495 44.6152 68.2404 44.4334 67.2586 44.4334H63.5768V48.9061Z" stroke="white" stroke-width="3.0303" mask="url(#path-3-outside-1_528_10441)"/>
<path d="M76.621 52.4243C75.0816 52.4243 73.9857 50.9289 74.4492 49.461L79.033 34.9458C79.3514 33.9372 80.287 33.2516 81.3447 33.2516H83.3621C84.4163 33.2516 85.3497 33.9328 85.671 34.9369L90.2711 49.3097C90.7641 50.8499 89.6149 52.4243 87.9977 52.4243C86.931 52.4243 85.9938 51.7166 85.7018 50.6907L85.1862 48.8789H79.3498L78.8115 50.7703C78.5329 51.7491 77.6387 52.4243 76.621 52.4243ZM80.1952 45.0879H84.3407L82.268 36.8243L80.1952 45.0879Z" stroke="white" stroke-width="3.0303" mask="url(#path-3-outside-1_528_10441)"/>
<rect x="5.37962" y="49.6211" width="2.57576" height="21.9697" stroke="#FEFEFE" stroke-width="0.454545"/>
<rect x="91.1354" y="49.6211" width="2.57576" height="21.9697" stroke="#FEFEFE" stroke-width="0.454545"/>
<path d="M95.6256 55.5302L4.19067 55.5302L0.599255 52.3484L99.3803 52.3484L95.6256 55.5302Z" fill="white" stroke="#FEFEFE" stroke-width="0.454545"/>
<path d="M8.18102 55.606C8.18102 55.606 34.8886 63.8843 50.7568 64.2424C68.1775 64.6354 91.0598 55.606 91.0598 55.606" stroke="#FEFEFE" stroke-width="0.454545"/>
<path d="M21.2117 55.606C21.2117 55.606 21.2565 56.8325 20.6056 57.4242C19.9547 58.0159 18.8893 58.597 18.8893 58.597" stroke="#FEFEFE" stroke-width="0.454545"/>
<path d="M19.0829 55.606C19.0829 55.606 19.2239 57.0014 20.0811 57.7807C20.9383 58.56 22.2803 59.3925 22.2803 59.3925" stroke="#FEFEFE" stroke-width="0.454545"/>
<path d="M21.5411 55.7576C21.5411 55.7576 21.821 57.2793 22.8326 58.1989C23.8441 59.1185 25.393 60.139 25.393 60.139" stroke="#FEFEFE" stroke-width="0.454545"/>
<path d="M25.1768 55.7576C25.1768 55.7576 25.7157 57.5148 27.0151 58.696C28.3144 59.8772 31.0612 61.5152 31.0612 61.5152" stroke="#FEFEFE" stroke-width="0.454545"/>
<path d="M28.0304 55.606C28.0304 55.606 29.5406 57.6865 31.0499 59.0586C32.5592 60.4307 34.7753 62.0578 34.7753 62.0578" stroke="#FEFEFE" stroke-width="0.454545"/>
<path d="M31.9704 55.6061C31.9704 55.6061 33.3569 57.8496 35.0654 59.4028C36.7739 60.956 39.8492 63.1819 39.8492 63.1819" stroke="#FEFEFE" stroke-width="0.454545"/>
<path d="M35.6066 55.4545C35.6066 55.4545 36.9931 57.8495 38.7016 59.4027C40.4101 60.9559 44.0914 63.7878 44.0914 63.7878" stroke="#FEFEFE" stroke-width="0.454545"/>
<path d="M39.2422 55.4545C39.2422 55.4545 40.6287 57.8495 42.3372 59.4027C44.0457 60.9559 47.8786 64.0909 47.8786 64.0909" stroke="#FEFEFE" stroke-width="0.454545"/>
<path d="M43.0309 55.4545C43.0309 55.4545 44.2659 57.8496 45.9744 59.4027C47.6829 60.9559 52.1218 64.2424 52.1218 64.2424" stroke="#FEFEFE" stroke-width="0.454545"/>
<path d="M46.6665 55.4545C46.6665 55.4545 47.9015 57.8496 49.61 59.4028C51.3185 60.9559 56.2119 64.0909 56.2119 64.0909" stroke="#FEFEFE" stroke-width="0.454545"/>
<path d="M50.4546 55.606C50.4546 55.606 51.538 57.8496 53.2465 59.4028C54.955 60.9559 60 63.6363 60 63.6363" stroke="#FEFEFE" stroke-width="0.454545"/>
<path d="M53.1822 55.4544C53.1822 55.4544 55.1748 57.8494 56.8833 59.4026C58.5918 60.9558 62.5761 63.3332 62.5761 63.3332" stroke="#FEFEFE" stroke-width="0.454545"/>
<path d="M57.9037 55.4545C57.9037 55.4545 58.811 57.5465 60.5195 59.0997C62.228 60.6529 65.3033 62.8787 65.3033 62.8787" stroke="#FEFEFE" stroke-width="0.454545"/>
<path d="M61.2121 55.4545C61.2121 55.4545 62.4471 57.8496 64.1556 59.4027C65.8641 60.9559 68.4849 62.2727 68.4849 62.2727" stroke="#FEFEFE" stroke-width="0.454545"/>
<path d="M64.5696 55.4545C64.5696 55.4545 65.4769 57.5465 67.1854 59.0997C68.8939 60.6529 72.4237 61.3636 72.4237 61.3636" stroke="#FEFEFE" stroke-width="0.454545"/>
<path d="M68.0303 55.606C68.0303 55.606 69.2005 57.0832 70.909 58.6363C72.6175 60.1895 76.3636 60.303 76.3636 60.303" stroke="#FEFEFE" stroke-width="0.454545"/>
<path d="M72.423 55.6061C72.423 55.6061 72.3812 56.6287 74.0897 58.1818C75.7982 59.735 79.8473 59.3939 79.8473 59.3939" stroke="#FEFEFE" stroke-width="0.454545"/>
<path d="M85.6067 57.5757C85.6067 57.5757 76.2546 57.0077 74.5461 55.4545" stroke="#FEFEFE" stroke-width="0.454545"/>
<path d="M25.3031 55.6061C25.3031 55.6061 24.5735 57.6355 23.8987 58.2489C23.224 58.8622 22.1267 59.4723 22.1267 59.4723" stroke="#FEFEFE" stroke-width="0.454545"/>
<path d="M29.3418 55.491C29.3418 55.491 28.2408 57.858 27.3883 58.6329C26.5359 59.4079 25.2003 60.2346 25.2003 60.2346" stroke="#FEFEFE" stroke-width="0.454545"/>
<path d="M33.2675 55.4799C33.2675 55.4799 31.848 58.1363 30.8432 59.0498C29.8383 59.9633 28.2984 60.9757 28.2984 60.9757" stroke="#FEFEFE" stroke-width="0.454545"/>
<path d="M37.1372 55.5195C37.1372 55.5195 35.4377 58.4306 34.2987 59.466C33.1598 60.5014 31.4401 61.6772 31.4401 61.6772" stroke="#FEFEFE" stroke-width="0.454545"/>
<path d="M41.144 55.4347C41.144 55.4347 39.1532 58.6106 37.8748 59.7727C36.5965 60.9349 34.6899 62.2806 34.6899 62.2806" stroke="#FEFEFE" stroke-width="0.454545"/>
<path d="M45.0569 55.4339C45.0569 55.4339 42.8299 58.8245 41.4385 60.0894C40.047 61.3544 37.9889 62.8379 37.9889 62.8379" stroke="#FEFEFE" stroke-width="0.454545"/>
<path d="M48.9108 55.4871C48.9108 55.4871 46.503 59.042 45.025 60.3856C43.5471 61.7292 41.373 63.3181 41.373 63.3181" stroke="#FEFEFE" stroke-width="0.454545"/>
<path d="M52.8778 55.4379C52.8778 55.4379 50.2326 59.2087 48.6409 60.6556C47.0493 62.1026 44.7228 63.83 44.7228 63.83" stroke="#FEFEFE" stroke-width="0.454545"/>
<path d="M56.7285 55.4938C56.7285 55.4938 54.011 59.3303 52.3848 60.8087C50.7586 62.287 48.3858 64.0566 48.3858 64.0566" stroke="#FEFEFE" stroke-width="0.454545"/>
<path d="M60.6843 55.4546C60.6843 55.4546 57.8609 59.3874 56.184 60.9118C54.5071 62.4363 52.0663 64.2677 52.0663 64.2677" stroke="#FEFEFE" stroke-width="0.454545"/>
<path d="M64.5637 55.4855C64.5637 55.4855 61.836 59.3313 60.2048 60.8141C58.5737 62.297 56.1943 64.0726 56.1943 64.0726" stroke="#FEFEFE" stroke-width="0.454545"/>
<path d="M68.5737 55.3964C68.5737 55.3964 66.0125 59.0909 64.461 60.5013C62.9096 61.9117 60.637 63.5902 60.637 63.5902" stroke="#FEFEFE" stroke-width="0.454545"/>
<path d="M72.3862 55.4888C72.3862 55.4888 70.17 58.8696 68.7838 60.1299C67.3975 61.3901 65.3463 62.8673 65.3463 62.8673" stroke="#FEFEFE" stroke-width="0.454545"/>
<path d="M76.3611 55.4321C76.3611 55.4321 74.709 58.3 73.5927 59.3148C72.4765 60.3296 70.2507 61.8796 70.2507 61.8796" stroke="#FEFEFE" stroke-width="0.454545"/>
<path d="M80.2804 55.4251C80.2804 55.4251 79.0346 57.9237 78.1129 58.7616C77.1912 59.5996 75.7627 60.5107 75.7627 60.5107" stroke="#FEFEFE" stroke-width="0.454545"/>
<path d="M84.2219 55.3998C84.2219 55.3998 83.6541 57.2821 83.0568 57.8251C82.4595 58.3681 81.466 58.8838 81.466 58.8838" stroke="#FEFEFE" stroke-width="0.454545"/>
</svg>
