<svg width="324" height="236" viewBox="0 0 324 236" fill="none" xmlns="http://www.w3.org/2000/svg">
<path d="M223.397 158.332H187.11C181.671 158.332 177.735 156.223 175.301 152.003L146.61 92.406C145.394 90.5146 143.094 100.172 141.591 99.2987C140.16 98.4257 145.206 97.9892 142.343 97.9892H131.393V158.332H99.1858V0H148.14C159.019 0 168.323 1.16394 176.053 3.49183C183.782 5.74696 190.116 8.91143 195.055 12.9852C199.993 17.059 203.607 21.933 205.898 27.6072C208.188 33.2087 209.333 39.3921 209.333 46.1575C209.333 51.3953 208.582 56.3784 207.079 61.1069C205.647 65.7626 203.536 70.0183 200.745 73.8738C197.953 77.7294 194.518 81.1485 190.438 84.1311C186.359 87.1137 181.707 89.5143 176.482 91.333C178.558 92.4969 180.49 93.9155 182.279 95.5886C184.069 97.189 185.679 99.1168 187.11 101.372L223.397 158.332Z" fill="#F8F9FA"/>
<path d="M223.397 158.332H187.11C181.671 158.332 177.735 156.223 175.301 152.003L146.61 92.406C145.394 90.5146 143.094 100.172 141.591 99.2987C140.16 98.4257 145.206 97.9892 142.343 97.9892H131.393V158.332H99.1858V0H148.14C159.019 0 168.323 1.16394 176.053 3.49183C183.782 5.74696 190.116 8.91143 195.055 12.9852C199.993 17.059 203.607 21.933 205.898 27.6072C208.188 33.2087 209.333 39.3921 209.333 46.1575C209.333 51.3953 208.582 56.3784 207.079 61.1069C205.647 65.7626 203.536 70.0183 200.745 73.8738C197.953 77.7294 194.518 81.1485 190.438 84.1311C186.359 87.1137 181.707 89.5143 176.482 91.333C178.558 92.4969 180.49 93.9155 182.279 95.5886C184.069 97.189 185.679 99.1168 187.11 101.372L223.397 158.332Z" fill="url(#paint0_linear_11529_2122)"/>
<path d="M111.943 59.9906C111.943 68.2069 113.47 75.1057 116.524 80.6871C119.579 86.2685 123.651 90.1075 128.742 92.2041L123.126 158.332L126.379 158.81C127.497 158.81 128.554 158.81 129.947 158.81H145.38C146.773 158.81 147.952 158.272 148.916 157.195C149.881 156.119 150.31 154.844 150.202 153.371L146.585 92.2041C151.676 90.1075 155.748 86.2685 158.803 80.6871C161.857 75.1057 163.384 68.2069 163.384 59.9906C163.384 52.7377 162.246 45.6688 159.968 38.7842C157.691 31.8995 154.543 26.2331 150.524 21.785C146.505 17.3369 142.218 15.1128 137.664 15.1128C133.109 15.1128 128.822 17.3369 124.803 21.785C120.784 26.2331 117.636 31.8995 115.359 38.7842C113.082 45.6688 111.943 52.7377 111.943 59.9906Z" fill="url(#paint1_linear_11529_2122)"/>
<path d="M137.667 51.4864L137.667 149.239M149.968 51.4864V65.0571C149.968 66.8392 149.65 68.6039 149.032 70.2504C148.413 71.8968 147.507 73.3929 146.365 74.653C145.223 75.9132 143.867 76.9128 142.374 77.5948C140.882 78.2768 139.282 78.6278 137.667 78.6278C134.404 78.6278 131.275 77.198 128.968 74.653C126.661 72.108 125.365 68.6563 125.365 65.0571V51.4864" stroke="url(#paint2_linear_11529_2122)" stroke-width="5.09741" stroke-linecap="round" stroke-linejoin="round"/>
<path d="M9.79075 218.374C10.9259 218.374 11.9117 218.23 12.7481 217.942C13.5995 217.653 14.294 217.258 14.8317 216.757C15.3844 216.241 15.7951 215.634 16.064 214.936C16.3328 214.237 16.4673 213.471 16.4673 212.636C16.4673 210.966 15.9221 209.683 14.8317 208.787C13.7563 207.891 12.1059 207.444 9.88036 207.444H6.0268V218.374H9.79075ZM25.2946 235.636H19.8503C18.8197 235.636 18.0729 235.226 17.6099 234.406L10.7989 223.862C10.545 223.468 10.2612 223.187 9.94758 223.02C9.64885 222.853 9.20076 222.769 8.60331 222.769H6.0268V235.636H0V202.707H9.88036C12.076 202.707 13.958 202.942 15.5263 203.413C17.1095 203.868 18.4015 204.513 19.4023 205.348C20.4179 206.183 21.1647 207.185 21.6427 208.354C22.1207 209.508 22.3596 210.783 22.3596 212.18C22.3596 213.288 22.1953 214.336 21.8667 215.323C21.5531 216.31 21.0901 217.205 20.4777 218.01C19.8802 218.815 19.1334 219.52 18.2372 220.128C17.356 220.735 16.3478 221.213 15.2126 221.562C15.601 221.79 15.9594 222.063 16.288 222.382C16.6166 222.686 16.9154 223.05 17.1842 223.475L25.2946 235.636Z" fill="#F8F9FA"/>
<path d="M44.7004 207.58V216.712H56.037V221.426H44.7004V230.74H59.084V235.636H38.6512V202.707H59.084V207.58H44.7004Z" fill="#F8F9FA"/>
<path d="M91.5344 208.696C91.3552 209.015 91.161 209.25 90.9519 209.402C90.7577 209.539 90.5113 209.607 90.2126 209.607C89.8989 209.607 89.5554 209.493 89.182 209.265C88.8235 209.022 88.3903 208.757 87.8825 208.468C87.3747 208.18 86.7772 207.922 86.0902 207.694C85.418 207.451 84.6189 207.33 83.6929 207.33C82.8564 207.33 82.1246 207.436 81.4972 207.648C80.8699 207.846 80.3397 208.127 79.9065 208.491C79.4883 208.855 79.1746 209.296 78.9655 209.812C78.7564 210.313 78.6519 210.867 78.6519 211.474C78.6519 212.248 78.861 212.894 79.2792 213.41C79.7123 213.926 80.2799 214.366 80.9819 214.731C81.6839 215.095 82.483 215.421 83.3792 215.71C84.2754 215.998 85.194 216.31 86.135 216.644C87.0759 216.962 87.9945 217.342 88.8907 217.782C89.7869 218.207 90.586 218.754 91.288 219.422C91.99 220.075 92.5501 220.879 92.9683 221.836C93.4015 222.792 93.618 223.954 93.618 225.32C93.618 226.808 93.3641 228.204 92.8563 229.51C92.3634 230.8 91.6315 231.931 90.6607 232.903C89.7047 233.86 88.5322 234.619 87.1432 235.18C85.7541 235.727 84.1634 236 82.371 236C81.3404 236 80.3247 235.894 79.324 235.681C78.3233 235.484 77.3599 235.196 76.4338 234.816C75.5227 234.436 74.6639 233.981 73.8573 233.45C73.0508 232.918 72.3338 232.326 71.7065 231.673L73.4764 228.736C73.6258 228.523 73.82 228.349 74.059 228.212C74.2979 228.06 74.5519 227.984 74.8207 227.984C75.1941 227.984 75.5974 228.144 76.0305 228.462C76.4637 228.766 76.979 229.108 77.5765 229.487C78.1739 229.867 78.8684 230.216 79.6601 230.535C80.4666 230.838 81.43 230.99 82.5502 230.99C84.2679 230.99 85.5972 230.58 86.5382 229.761C87.4792 228.926 87.9497 227.734 87.9497 226.185C87.9497 225.32 87.7331 224.614 87.3 224.067C86.8818 223.521 86.3217 223.065 85.6196 222.701C84.9176 222.322 84.1186 222.003 83.2224 221.745C82.3262 221.487 81.4151 221.206 80.489 220.902C79.563 220.598 78.6519 220.234 77.7557 219.809C76.8595 219.384 76.0604 218.83 75.3584 218.147C74.6564 217.463 74.0888 216.613 73.6557 215.596C73.2375 214.564 73.0284 213.296 73.0284 211.793C73.0284 210.594 73.2599 209.425 73.7229 208.286C74.2009 207.147 74.8879 206.138 75.7841 205.257C76.6803 204.377 77.7856 203.671 79.1 203.14C80.4144 202.608 81.9229 202.342 83.6257 202.342C85.5375 202.342 87.3 202.646 88.9131 203.253C90.5262 203.861 91.9004 204.711 93.0355 205.804L91.5344 208.696Z" fill="#F8F9FA"/>
<path d="M114.783 207.58V216.712H126.119V221.426H114.783V230.74H129.166V235.636H108.733V202.707H129.166V207.58H114.783Z" fill="#F8F9FA"/>
<path d="M154.156 218.374C155.291 218.374 156.277 218.23 157.113 217.942C157.965 217.653 158.659 217.258 159.197 216.757C159.75 216.241 160.16 215.634 160.429 214.936C160.698 214.237 160.832 213.471 160.832 212.636C160.832 210.966 160.287 209.683 159.197 208.787C158.122 207.891 156.471 207.444 154.246 207.444H150.392V218.374H154.156ZM169.66 235.636H164.216C163.185 235.636 162.438 235.226 161.975 234.406L155.164 223.862C154.91 223.468 154.626 223.187 154.313 223.02C154.014 222.853 153.566 222.769 152.968 222.769H150.392V235.636H144.365V202.707H154.246C156.441 202.707 158.323 202.942 159.891 203.413C161.475 203.868 162.767 204.513 163.767 205.348C164.783 206.183 165.53 207.185 166.008 208.354C166.486 209.508 166.725 210.783 166.725 212.18C166.725 213.288 166.561 214.336 166.232 215.323C165.918 216.31 165.455 217.205 164.843 218.01C164.245 218.815 163.499 219.52 162.602 220.128C161.721 220.735 160.713 221.213 159.578 221.562C159.966 221.79 160.325 222.063 160.653 222.382C160.982 222.686 161.281 223.05 161.549 223.475L169.66 235.636Z" fill="#F8F9FA"/>
<path d="M209.769 202.707L196.685 235.636H191.241L178.156 202.707H182.996C183.518 202.707 183.944 202.836 184.273 203.094C184.601 203.352 184.848 203.686 185.012 204.096L192.652 224.181C192.906 224.834 193.145 225.555 193.369 226.345C193.608 227.119 193.832 227.931 194.041 228.781C194.22 227.931 194.415 227.119 194.624 226.345C194.833 225.555 195.064 224.834 195.318 224.181L202.913 204.096C203.033 203.747 203.264 203.428 203.608 203.14C203.966 202.851 204.399 202.707 204.907 202.707H209.769Z" fill="#F8F9FA"/>
<path d="M229.029 207.58V216.712H240.366V221.426H229.029V230.74H243.413V235.636H222.98V202.707H243.413V207.58H229.029Z" fill="#F8F9FA"/>
<path d="M304.066 231.423V235.636H286.143V231.423H292.707V212.226C292.707 211.467 292.73 210.685 292.775 209.88L288.114 213.843C287.846 214.055 287.577 214.192 287.308 214.252C287.054 214.298 286.808 214.298 286.569 214.252C286.345 214.207 286.143 214.131 285.964 214.025C285.784 213.903 285.65 213.774 285.56 213.638L283.813 211.201L293.693 202.661H298.241V231.423H304.066Z" fill="#F8F9FA"/>
<path d="M314.322 203.458C314.248 203.58 314.169 203.667 314.087 203.72C314.005 203.766 313.9 203.789 313.773 203.789C313.639 203.789 313.493 203.751 313.337 203.675C313.187 203.599 313.012 203.515 312.81 203.424C312.608 203.325 312.377 203.238 312.115 203.162C311.862 203.086 311.559 203.048 311.208 203.048C310.663 203.048 310.234 203.166 309.92 203.401C309.614 203.637 309.461 203.944 309.461 204.324C309.461 204.574 309.539 204.787 309.696 204.961C309.86 205.128 310.073 205.276 310.334 205.405C310.603 205.534 310.906 205.652 311.242 205.758C311.578 205.857 311.918 205.967 312.261 206.089C312.612 206.21 312.956 206.35 313.292 206.51C313.628 206.662 313.927 206.859 314.188 207.102C314.457 207.337 314.67 207.622 314.826 207.956C314.991 208.29 315.073 208.692 315.073 209.163C315.073 209.725 314.972 210.245 314.77 210.723C314.576 211.193 314.285 211.603 313.897 211.952C313.508 212.294 313.027 212.564 312.452 212.761C311.884 212.951 311.227 213.046 310.48 213.046C310.084 213.046 309.696 213.008 309.315 212.932C308.942 212.863 308.579 212.765 308.228 212.636C307.885 212.507 307.564 212.355 307.265 212.18C306.974 212.006 306.716 211.816 306.492 211.611L307.131 210.541C307.213 210.412 307.31 210.313 307.422 210.245C307.534 210.176 307.676 210.142 307.847 210.142C308.019 210.142 308.18 210.191 308.329 210.29C308.486 210.389 308.665 210.495 308.867 210.609C309.068 210.723 309.304 210.829 309.573 210.928C309.849 211.026 310.196 211.076 310.614 211.076C310.943 211.076 311.223 211.038 311.455 210.962C311.694 210.878 311.888 210.772 312.037 210.643C312.194 210.514 312.306 210.366 312.373 210.199C312.448 210.024 312.485 209.846 312.485 209.664C312.485 209.391 312.403 209.167 312.239 208.992C312.082 208.817 311.869 208.666 311.6 208.537C311.339 208.408 311.036 208.294 310.693 208.195C310.357 208.089 310.009 207.975 309.651 207.853C309.3 207.732 308.953 207.592 308.609 207.432C308.273 207.265 307.971 207.056 307.702 206.806C307.44 206.555 307.228 206.248 307.063 205.884C306.906 205.519 306.828 205.079 306.828 204.563C306.828 204.085 306.921 203.629 307.108 203.196C307.295 202.764 307.567 202.388 307.926 202.069C308.292 201.743 308.744 201.485 309.281 201.295C309.827 201.098 310.454 200.999 311.163 200.999C311.955 200.999 312.676 201.132 313.325 201.397C313.975 201.663 314.517 202.012 314.95 202.445L314.322 203.458Z" fill="#F8F9FA"/>
<path d="M320.987 213.046C319.986 213.046 319.217 212.761 318.679 212.192C318.149 211.615 317.884 210.821 317.884 209.812V203.288H316.707C316.558 203.288 316.431 203.238 316.326 203.14C316.222 203.041 316.17 202.893 316.17 202.695V201.58L318.018 201.272L318.601 198.084C318.638 197.932 318.709 197.815 318.813 197.731C318.918 197.648 319.052 197.606 319.217 197.606H320.651V201.284H323.72V203.288H320.651V209.618C320.651 209.983 320.736 210.267 320.908 210.472C321.087 210.677 321.33 210.78 321.636 210.78C321.808 210.78 321.95 210.761 322.062 210.723C322.182 210.677 322.282 210.632 322.364 210.586C322.454 210.541 322.533 210.499 322.6 210.461C322.667 210.415 322.734 210.393 322.801 210.393C322.884 210.393 322.951 210.415 323.003 210.461C323.055 210.499 323.111 210.56 323.171 210.643L324 212.009C323.597 212.351 323.134 212.609 322.611 212.784C322.088 212.958 321.547 213.046 320.987 213.046Z" fill="#F8F9FA"/>
<defs>
<linearGradient id="paint0_linear_11529_2122" x1="100.826" y1="5.93744" x2="215.266" y2="12.7099" gradientUnits="userSpaceOnUse">
<stop stop-color="#3A36DB"/>
<stop offset="1" stop-color="#7C4EF1"/>
</linearGradient>
<linearGradient id="paint1_linear_11529_2122" x1="137.664" y1="15.1128" x2="137.664" y2="167.425" gradientUnits="userSpaceOnUse">
<stop stop-color="white"/>
<stop offset="0.427083" stop-color="#EFEDF4"/>
<stop offset="1" stop-color="#453ADF"/>
</linearGradient>
<linearGradient id="paint2_linear_11529_2122" x1="137.667" y1="51.4864" x2="137.667" y2="149.239" gradientUnits="userSpaceOnUse">
<stop offset="0.307396" stop-color="#7C4EF1"/>
<stop offset="0.9375" stop-color="#7C4EF1" stop-opacity="0"/>
</linearGradient>
</defs>
</svg>
