<svg width="126" height="66" viewBox="0 0 126 66" fill="none" xmlns="http://www.w3.org/2000/svg">
<path d="M25.0926 24.598C24.9369 23.0277 24.2686 21.8078 23.0876 20.9383C21.9066 20.0687 20.3038 19.634 18.2793 19.634C16.9036 19.634 15.7421 19.8287 14.7947 20.218C13.8473 20.5943 13.1206 21.12 12.6145 21.7948C12.1213 22.4696 11.8747 23.2353 11.8747 24.0919C11.8488 24.8057 11.998 25.4286 12.3225 25.9607C12.6599 26.4928 13.1206 26.9535 13.7046 27.3428C14.2886 27.7192 14.9634 28.0501 15.7291 28.3356C16.4948 28.6082 17.3124 28.8418 18.1819 29.0364L21.7638 29.893C23.5029 30.2823 25.0991 30.8014 26.5526 31.4503C28.0062 32.0992 29.265 32.8973 30.3292 33.8447C31.3934 34.7921 32.2175 35.9082 32.8015 37.193C33.3985 38.4778 33.7034 39.9508 33.7164 41.612C33.7034 44.0518 33.0805 46.1672 31.8476 47.9581C30.6277 49.7361 28.8627 51.1182 26.5526 52.1045C24.2556 53.0779 21.4848 53.5645 18.2403 53.5645C15.0218 53.5645 12.2186 53.0714 9.83071 52.0851C7.45577 51.0987 5.59994 49.6387 4.26322 47.705C2.93948 45.7584 2.24517 43.351 2.18028 40.4829H10.3368C10.4277 41.8196 10.8105 42.9357 11.4854 43.8312C12.1732 44.7137 13.0881 45.382 14.2302 45.8362C15.3852 46.2775 16.6895 46.4981 18.143 46.4981C19.5706 46.4981 20.81 46.2905 21.8612 45.8752C22.9253 45.4599 23.7494 44.8824 24.3334 44.1426C24.9174 43.4029 25.2094 42.5528 25.2094 41.5925C25.2094 40.697 24.9434 39.9443 24.4113 39.3343C23.8922 38.7244 23.1265 38.2053 22.1142 37.777C21.1149 37.3487 19.8885 36.9594 18.435 36.609L14.0939 35.5189C10.7327 34.7013 8.0787 33.4229 6.13203 31.6839C4.18535 29.9449 3.2185 27.6024 3.23148 24.6564C3.2185 22.2425 3.86091 20.1336 5.15869 18.3297C6.46945 16.5258 8.26688 15.1177 10.551 14.1054C12.8351 13.0932 15.4306 12.587 18.3377 12.587C21.2966 12.587 23.8792 13.0932 26.0854 14.1054C28.3047 15.1177 30.0307 16.5258 31.2636 18.3297C32.4965 20.1336 33.1324 22.2231 33.1713 24.598H25.0926ZM32.2597 53V13.1321H48.2224C51.1554 13.1321 53.6018 13.5669 55.5614 14.4364C57.5211 15.3059 58.9941 16.5128 59.9804 18.0572C60.9667 19.5886 61.4598 21.3536 61.4598 23.3521C61.4598 24.9095 61.1484 26.2786 60.5254 27.4596C59.9025 28.6276 59.046 29.588 57.9558 30.3407C56.8787 31.0804 55.6458 31.606 54.2571 31.9175V32.3068C55.7755 32.3717 57.1966 32.8 58.5204 33.5916C59.8571 34.3833 60.9407 35.4929 61.7713 36.9205C62.6019 38.335 63.0172 40.0222 63.0172 41.9818C63.0172 44.0972 62.4916 45.9855 61.4404 47.6466C60.4021 49.2948 58.8643 50.5991 56.8268 51.5595C54.7892 52.5198 52.278 53 49.2931 53H32.2597ZM40.6888 46.1088H47.5606C49.9096 46.1088 51.6226 45.661 52.6998 44.7656C53.777 43.8571 54.3155 42.6502 54.3155 41.1447C54.3155 40.0416 54.0495 39.0683 53.5174 38.2247C52.9853 37.3812 52.2261 36.7193 51.2398 36.2391C50.2665 35.7589 49.1049 35.5189 47.7552 35.5189H40.6888V46.1088ZM40.6888 29.8151H46.9376C48.0927 29.8151 49.1179 29.6139 50.0134 29.2116C50.9218 28.7963 51.6356 28.2123 52.1547 27.4596C52.6868 26.7069 52.9529 25.8049 52.9529 24.7537C52.9529 23.3132 52.4402 22.1517 51.415 21.2692C50.4027 20.3867 48.9622 19.9455 47.0934 19.9455H40.6888V29.8151ZM61.3755 53V13.1321H88.2397V20.0817H69.8047V29.5815H86.8575V36.5311H69.8047V46.0504H88.3175V53H61.3755ZM87.8147 53V13.1321H96.2438V29.5815H113.355V13.1321H121.765V53H113.355V36.5311H96.2438V53H87.8147Z" fill="white"/>
<path d="M4.31888 59.3114C4.30279 59.1609 4.23497 59.0436 4.11541 58.9597C3.99701 58.8758 3.84297 58.8338 3.65329 58.8338C3.51995 58.8338 3.40556 58.8539 3.31015 58.8942C3.21474 58.9344 3.14174 58.989 3.09116 59.058C3.04058 59.1269 3.01472 59.2057 3.01357 59.2942C3.01357 59.3678 3.03024 59.4316 3.06357 59.4856C3.09806 59.5396 3.14462 59.5856 3.20324 59.6235C3.26187 59.6603 3.32682 59.6914 3.39809 59.7167C3.46936 59.7419 3.54121 59.7632 3.61363 59.7805L3.9447 59.8632C4.07805 59.8943 4.20623 59.9362 4.32923 59.9891C4.45338 60.042 4.56431 60.1087 4.66203 60.1891C4.76089 60.2696 4.83906 60.3667 4.89653 60.4805C4.95401 60.5943 4.98275 60.7277 4.98275 60.8806C4.98275 61.0875 4.92987 61.2697 4.82411 61.4272C4.71835 61.5835 4.56546 61.706 4.36544 61.7945C4.16657 61.8818 3.92574 61.9255 3.64295 61.9255C3.3682 61.9255 3.12967 61.883 2.92735 61.7979C2.72618 61.7129 2.56869 61.5887 2.45488 61.4255C2.34223 61.2622 2.2813 61.0634 2.27211 60.8289H2.90149C2.91068 60.9519 2.94862 61.0542 3.01529 61.1358C3.08197 61.2174 3.16876 61.2783 3.27567 61.3186C3.38372 61.3588 3.50443 61.3789 3.63777 61.3789C3.77687 61.3789 3.89872 61.3582 4.00333 61.3168C4.10909 61.2743 4.19186 61.2157 4.25164 61.141C4.31141 61.0651 4.34188 60.9766 4.34302 60.8754C4.34188 60.7834 4.31486 60.7076 4.26198 60.6478C4.2091 60.5869 4.13496 60.5363 4.03954 60.4961C3.94528 60.4547 3.83492 60.4179 3.70847 60.3857L3.3067 60.2822C3.01587 60.2075 2.78596 60.0943 2.61697 59.9425C2.44914 59.7897 2.36522 59.5868 2.36522 59.3339C2.36522 59.1258 2.42155 58.9436 2.5342 58.7872C2.64801 58.6309 2.80262 58.5096 2.99805 58.4234C3.19347 58.336 3.41476 58.2924 3.66191 58.2924C3.91252 58.2924 4.13208 58.336 4.32061 58.4234C4.51028 58.5096 4.65915 58.6298 4.76721 58.7838C4.87527 58.9367 4.93102 59.1126 4.93447 59.3114H4.31888ZM6.1928 58.3406V61.8721H5.55307V58.3406H6.1928ZM6.88555 61.8721V58.3406H7.52527V61.3358H9.08062V61.8721H6.88555ZM9.74319 58.3406L10.6623 61.1203H10.6985L11.6158 58.3406H12.3193L11.0744 61.8721H10.2846L9.04139 58.3406H9.74319ZM12.7845 61.8721V58.3406H15.0813V58.8769H13.4242V59.8356H14.9623V60.3719H13.4242V61.3358H15.0951V61.8721H12.7845ZM15.7339 61.8721V58.3406H17.0582C17.3295 58.3406 17.5571 58.3878 17.7411 58.482C17.9261 58.5763 18.0658 58.7085 18.1601 58.8786C18.2555 59.0476 18.3032 59.2448 18.3032 59.4701C18.3032 59.6965 18.2549 59.8931 18.1583 60.0598C18.0629 60.2253 17.9221 60.3535 17.7359 60.4443C17.5497 60.534 17.3209 60.5788 17.0496 60.5788H16.1064V60.0477H16.9634C17.122 60.0477 17.2519 60.0259 17.3531 59.9822C17.4542 59.9374 17.529 59.8724 17.5772 59.7874C17.6267 59.7011 17.6514 59.5954 17.6514 59.4701C17.6514 59.3448 17.6267 59.2379 17.5772 59.1494C17.5278 59.0597 17.4525 58.9919 17.3514 58.9459C17.2502 58.8988 17.1197 58.8752 16.9599 58.8752H16.3737V61.8721H15.7339ZM17.5583 60.2719L18.4325 61.8721H17.7186L16.8599 60.2719H17.5583ZM20.0965 61.8721V58.3406H21.4484C21.7036 58.3406 21.9157 58.3809 22.0846 58.4613C22.2548 58.5407 22.3818 58.6493 22.4657 58.7872C22.5508 58.9252 22.5933 59.0815 22.5933 59.2563C22.5933 59.4 22.5657 59.523 22.5106 59.6253C22.4554 59.7264 22.3812 59.8086 22.2881 59.8718C22.195 59.9351 22.091 59.9805 21.976 60.0081V60.0426C22.1013 60.0495 22.2214 60.088 22.3364 60.1581C22.4525 60.2271 22.5473 60.3248 22.6209 60.4512C22.6945 60.5777 22.7313 60.7306 22.7313 60.9099C22.7313 61.0927 22.687 61.2571 22.5985 61.4031C22.51 61.5479 22.3766 61.6623 22.1985 61.7462C22.0203 61.8301 21.7961 61.8721 21.526 61.8721H20.0965ZM20.7362 61.3375H21.4242C21.6564 61.3375 21.8237 61.2933 21.926 61.2048C22.0295 61.1151 22.0812 61.0001 22.0812 60.8599C22.0812 60.7553 22.0553 60.661 22.0036 60.5771C21.9519 60.492 21.8783 60.4254 21.7829 60.3771C21.6875 60.3276 21.5737 60.3029 21.4415 60.3029H20.7362V61.3375ZM20.7362 59.8425H21.369C21.4794 59.8425 21.5788 59.8224 21.6674 59.7822C21.7559 59.7408 21.8254 59.6827 21.876 59.608C21.9277 59.5322 21.9536 59.4425 21.9536 59.339C21.9536 59.2022 21.9053 59.0896 21.8088 59.0011C21.7133 58.9125 21.5714 58.8683 21.3828 58.8683H20.7362V59.8425ZM23.2878 61.8721V58.3406H25.5846V58.8769H23.9275V59.8356H25.4656V60.3719H23.9275V61.3358H25.5984V61.8721H23.2878ZM26.6908 61.8721H26.0079L27.2512 58.3406H28.0409L29.2859 61.8721H28.603L27.6598 59.0649H27.6322L26.6908 61.8721ZM26.7132 60.4874H28.5755V61.0013H26.7132V60.4874ZM32.6078 59.5322H31.9629C31.9445 59.4264 31.9106 59.3327 31.8612 59.2511C31.8117 59.1683 31.7502 59.0982 31.6767 59.0407C31.6031 58.9832 31.5192 58.9401 31.4249 58.9114C31.3318 58.8815 31.2312 58.8666 31.1231 58.8666C30.9312 58.8666 30.761 58.9148 30.6127 59.0114C30.4645 59.1068 30.3483 59.2471 30.2644 59.4321C30.1805 59.6161 30.1386 59.8408 30.1386 60.1064C30.1386 60.3765 30.1805 60.6041 30.2644 60.7892C30.3495 60.9731 30.4656 61.1122 30.6127 61.2065C30.761 61.2996 30.9306 61.3461 31.1214 61.3461C31.2272 61.3461 31.326 61.3324 31.418 61.3048C31.5111 61.276 31.5945 61.2341 31.668 61.1789C31.7428 61.1237 31.8054 61.0559 31.856 60.9754C31.9077 60.895 31.9434 60.803 31.9629 60.6995L32.6078 60.703C32.5837 60.8708 32.5314 61.0283 32.4509 61.1754C32.3716 61.3226 32.2675 61.4525 32.1388 61.5651C32.01 61.6766 31.8594 61.764 31.687 61.8272C31.5146 61.8893 31.3232 61.9204 31.1128 61.9204C30.8024 61.9204 30.5254 61.8485 30.2817 61.7048C30.038 61.5611 29.846 61.3536 29.7057 61.0823C29.5655 60.811 29.4954 60.4857 29.4954 60.1064C29.4954 59.7259 29.5661 59.4005 29.7075 59.1304C29.8489 58.8591 30.0414 58.6516 30.2851 58.5079C30.5288 58.3642 30.8047 58.2924 31.1128 58.2924C31.3094 58.2924 31.4922 58.32 31.6611 58.3751C31.8301 58.4303 31.9807 58.5114 32.1129 58.6183C32.2451 58.724 32.3537 58.8539 32.4388 59.008C32.525 59.1609 32.5814 59.3356 32.6078 59.5322ZM33.1936 61.8721V58.3406H33.8334V59.8356H35.4698V58.3406H36.1112V61.8721H35.4698V60.3719H33.8334V61.8721H33.1936ZM38.0114 61.8721V58.3406H40.3082V58.8769H38.6511V59.8356H40.1892V60.3719H38.6511V61.3358H40.322V61.8721H38.0114ZM43.8629 58.3406V61.8721H43.2939L41.6299 59.4666H41.6006V61.8721H40.9609V58.3406H41.5334L43.1956 60.7478H43.2266V58.3406H43.8629ZM44.4048 58.8769V58.3406H47.2223V58.8769H46.1308V61.8721H45.4963V58.8769H44.4048ZM47.7655 61.8721V58.3406H50.0623V58.8769H48.4052V59.8356H49.9433V60.3719H48.4052V61.3358H50.0761V61.8721H47.7655ZM50.715 61.8721V58.3406H52.0393C52.3106 58.3406 52.5382 58.3878 52.7221 58.482C52.9072 58.5763 53.0468 58.7085 53.1411 58.8786C53.2365 59.0476 53.2842 59.2448 53.2842 59.4701C53.2842 59.6965 53.2359 59.8931 53.1394 60.0598C53.044 60.2253 52.9031 60.3535 52.7169 60.4443C52.5307 60.534 52.3019 60.5788 52.0306 60.5788H51.0874V60.0477H51.9444C52.1031 60.0477 52.233 60.0259 52.3341 59.9822C52.4353 59.9374 52.51 59.8724 52.5583 59.7874C52.6077 59.7011 52.6324 59.5954 52.6324 59.4701C52.6324 59.3448 52.6077 59.2379 52.5583 59.1494C52.5089 59.0597 52.4336 58.9919 52.3324 58.9459C52.2312 58.8988 52.1008 58.8752 51.941 58.8752H51.3547V61.8721H50.715ZM52.5393 60.2719L53.4136 61.8721H52.6997L51.841 60.2719H52.5393ZM53.7179 58.8769V58.3406H56.5354V58.8769H55.4439V61.8721H54.8094V58.8769H53.7179ZM57.1053 61.8721H56.4225L57.6657 58.3406H58.4555L59.7005 61.8721H59.0176L58.0744 59.0649H58.0468L57.1053 61.8721ZM57.1278 60.4874H58.99V61.0013H57.1278V60.4874ZM60.8053 58.3406V61.8721H60.1656V58.3406H60.8053ZM64.4001 58.3406V61.8721H63.8311L62.1671 59.4666H62.1378V61.8721H61.4981V58.3406H62.0705L63.7328 60.7478H63.7638V58.3406H64.4001ZM65.0972 58.3406H65.88L66.9284 60.8995H66.9698L68.0182 58.3406H68.801V61.8721H68.1872V59.4459H68.1544L67.1784 61.8617H66.7198L65.7438 59.4408H65.711V61.8721H65.0972V58.3406ZM69.4977 61.8721V58.3406H71.7945V58.8769H70.1374V59.8356H71.6755V60.3719H70.1374V61.3358H71.8083V61.8721H69.4977ZM75.3492 58.3406V61.8721H74.7801L73.1162 59.4666H73.0868V61.8721H72.4471V58.3406H73.0196L74.6819 60.7478H74.7129V58.3406H75.3492ZM75.891 58.8769V58.3406H78.7086V58.8769H77.6171V61.8721H76.9825V58.8769H75.891ZM80.9097 61.8721H80.2269L81.4701 58.3406H82.2598L83.5048 61.8721H82.822L81.8788 59.0649H81.8512L80.9097 61.8721ZM80.9321 60.4874H82.7944V61.0013H80.9321V60.4874ZM86.872 58.3406V61.8721H86.303L84.639 59.4666H84.6097V61.8721H83.9699V58.3406H84.5424L86.2047 60.7478H86.2357V58.3406H86.872ZM88.7657 61.8721H87.5691V58.3406H88.7899C89.1405 58.3406 89.4417 58.4113 89.6934 58.5527C89.9463 58.693 90.1406 58.8947 90.2763 59.158C90.4119 59.4212 90.4797 59.7362 90.4797 60.1029C90.4797 60.4708 90.4113 60.7869 90.2745 61.0513C90.1389 61.3157 89.9429 61.5186 89.6865 61.66C89.4313 61.8014 89.1244 61.8721 88.7657 61.8721ZM88.2088 61.3186H88.7347C88.9807 61.3186 89.1859 61.2737 89.3503 61.1841C89.5147 61.0932 89.6383 60.9582 89.721 60.7788C89.8038 60.5984 89.8452 60.3731 89.8452 60.1029C89.8452 59.8328 89.8038 59.6086 89.721 59.4304C89.6383 59.2511 89.5158 59.1172 89.3537 59.0287C89.1928 58.939 88.9928 58.8942 88.7537 58.8942H88.2088V61.3186ZM92.292 61.8721V58.3406H92.9317V59.8356H94.5681V58.3406H95.2096V61.8721H94.5681V60.3719H92.9317V61.8721H92.292ZM99.0609 60.1064C99.0609 60.4869 98.9896 60.8128 98.847 61.0841C98.7056 61.3542 98.5125 61.5611 98.2677 61.7048C98.024 61.8485 97.7475 61.9204 97.4383 61.9204C97.129 61.9204 96.852 61.8485 96.6071 61.7048C96.3634 61.56 96.1703 61.3525 96.0278 61.0823C95.8864 60.811 95.8157 60.4857 95.8157 60.1064C95.8157 59.7259 95.8864 59.4005 96.0278 59.1304C96.1703 58.8591 96.3634 58.6516 96.6071 58.5079C96.852 58.3642 97.129 58.2924 97.4383 58.2924C97.7475 58.2924 98.024 58.3642 98.2677 58.5079C98.5125 58.6516 98.7056 58.8591 98.847 59.1304C98.9896 59.4005 99.0609 59.7259 99.0609 60.1064ZM98.4177 60.1064C98.4177 59.8385 98.3757 59.6126 98.2918 59.4287C98.209 59.2436 98.0941 59.1039 97.9469 59.0097C97.7998 58.9143 97.6302 58.8666 97.4383 58.8666C97.2463 58.8666 97.0767 58.9143 96.9296 59.0097C96.7824 59.1039 96.6669 59.2436 96.583 59.4287C96.5002 59.6126 96.4588 59.8385 96.4588 60.1064C96.4588 60.3742 96.5002 60.6007 96.583 60.7857C96.6669 60.9697 96.7824 61.1093 96.9296 61.2048C97.0767 61.299 97.2463 61.3461 97.4383 61.3461C97.6302 61.3461 97.7998 61.299 97.9469 61.2048C98.0941 61.1093 98.209 60.9697 98.2918 60.7857C98.3757 60.6007 98.4177 60.3742 98.4177 60.1064ZM101.585 59.3114C101.569 59.1609 101.501 59.0436 101.381 58.9597C101.263 58.8758 101.109 58.8338 100.919 58.8338C100.786 58.8338 100.672 58.8539 100.576 58.8942C100.481 58.9344 100.408 58.989 100.357 59.058C100.307 59.1269 100.281 59.2057 100.28 59.2942C100.28 59.3678 100.296 59.4316 100.33 59.4856C100.364 59.5396 100.411 59.5856 100.469 59.6235C100.528 59.6603 100.593 59.6914 100.664 59.7167C100.735 59.7419 100.807 59.7632 100.88 59.7805L101.211 59.8632C101.344 59.8943 101.472 59.9362 101.595 59.9891C101.719 60.042 101.83 60.1087 101.928 60.1891C102.027 60.2696 102.105 60.3667 102.162 60.4805C102.22 60.5943 102.249 60.7277 102.249 60.8806C102.249 61.0875 102.196 61.2697 102.09 61.4272C101.984 61.5835 101.831 61.706 101.631 61.7945C101.433 61.8818 101.192 61.9255 100.909 61.9255C100.634 61.9255 100.396 61.883 100.193 61.7979C99.9921 61.7129 99.8346 61.5887 99.7208 61.4255C99.6082 61.2622 99.5473 61.0634 99.5381 60.8289H100.167C100.177 60.9519 100.215 61.0542 100.281 61.1358C100.348 61.2174 100.435 61.2783 100.542 61.3186C100.65 61.3588 100.77 61.3789 100.904 61.3789C101.043 61.3789 101.165 61.3582 101.269 61.3168C101.375 61.2743 101.458 61.2157 101.518 61.141C101.577 61.0651 101.608 60.9766 101.609 60.8754C101.608 60.7834 101.581 60.7076 101.528 60.6478C101.475 60.5869 101.401 60.5363 101.305 60.4961C101.211 60.4547 101.101 60.4179 100.974 60.3857L100.573 60.2822C100.282 60.2075 100.052 60.0943 99.8829 59.9425C99.7151 59.7897 99.6312 59.5868 99.6312 59.3339C99.6312 59.1258 99.6875 58.9436 99.8002 58.7872C99.914 58.6309 100.069 58.5096 100.264 58.4234C100.459 58.336 100.681 58.2924 100.928 58.2924C101.178 58.2924 101.398 58.336 101.587 58.4234C101.776 58.5096 101.925 58.6298 102.033 58.7838C102.141 58.9367 102.197 59.1126 102.2 59.3114H101.585ZM102.819 61.8721V58.3406H104.143C104.415 58.3406 104.642 58.3912 104.826 58.4924C105.011 58.5935 105.151 58.7326 105.245 58.9097C105.341 59.0856 105.388 59.2856 105.388 59.5097C105.388 59.7362 105.341 59.9374 105.245 60.1133C105.15 60.2891 105.009 60.4277 104.823 60.5288C104.636 60.6288 104.407 60.6788 104.135 60.6788H103.257V60.1529H104.048C104.207 60.1529 104.337 60.1253 104.438 60.0701C104.539 60.015 104.614 59.9391 104.662 59.8425C104.712 59.746 104.736 59.635 104.736 59.5097C104.736 59.3844 104.712 59.2741 104.662 59.1787C104.614 59.0833 104.539 59.0091 104.436 58.9562C104.335 58.9022 104.205 58.8752 104.045 58.8752H103.459V61.8721H102.819ZM106.584 58.3406V61.8721H105.944V58.3406H106.584ZM107.121 58.8769V58.3406H109.939V58.8769H108.847V61.8721H108.213V58.8769H107.121ZM110.509 61.8721H109.826L111.069 58.3406H111.859L113.104 61.8721H112.421L111.478 59.0649H111.45L110.509 61.8721ZM110.531 60.4874H112.393V61.0013H110.531V60.4874ZM113.569 61.8721V58.3406H114.209V61.3358H115.764V61.8721H113.569ZM116.959 58.3406V61.8721H116.319V58.3406H116.959ZM117.497 58.8769V58.3406H120.314V58.8769H119.223V61.8721H118.588V58.8769H117.497ZM120.616 58.3406H121.338L122.202 59.9029H122.237L123.101 58.3406H123.823L122.538 60.5547V61.8721H121.9V60.5547L120.616 58.3406Z" fill="white"/>
</svg>
