<svg width="64" height="64" viewBox="0 0 64 64" fill="none" xmlns="http://www.w3.org/2000/svg">
<path d="M52.358 39.5534C54.6108 39.279 59.5789 38.6885 60.4634 39.8277C61.3474 40.946 59.4739 45.6513 58.6317 47.7398C58.3791 48.373 58.9265 48.626 59.4948 48.1409C63.2 45.0181 64.1685 38.4982 63.4108 37.5489C62.6526 36.6209 56.1476 35.8188 52.1894 38.6041C51.5789 39.0469 51.6843 39.6379 52.358 39.5534Z" fill="#FF9900"/>
<path d="M31.9369 50.9679C40.5897 50.9679 50.6526 48.2458 57.5791 43.119C58.7157 42.275 57.7263 40.9882 56.5683 41.5156C48.8 44.8069 40.358 46.4107 32.6737 46.4107C21.2843 46.4107 10.2737 43.267 1.34784 38.0766C0.568319 37.6124 -0.0209073 38.4141 0.631466 39.0051C8.88448 46.4739 19.8106 50.9679 31.9369 50.9679Z" fill="#FF9900"/>
<path d="M18.1897 26.8097C18.1897 27.5905 18.2737 28.2233 18.4209 28.6875C18.6081 29.2096 18.8334 29.7173 19.095 30.2064C19.2 30.3754 19.2422 30.5443 19.2422 30.692C19.2422 30.9032 19.1159 31.1144 18.842 31.3251L17.5159 32.2113C17.3265 32.3376 17.1366 32.4012 16.9685 32.4012C16.7578 32.4012 16.5474 32.2954 16.3371 32.1055C16.0532 31.8 15.7993 31.4679 15.5789 31.1139C15.3435 30.7085 15.1257 30.2931 14.9261 29.8689C13.2843 31.8103 11.2209 32.7809 8.73685 32.7809C6.96832 32.7809 5.55819 32.2745 4.52651 31.262C3.49483 30.2491 2.96832 28.8983 2.96832 27.2108C2.96832 25.4171 3.59979 23.9613 4.88405 22.8643C6.16832 21.7669 7.87371 21.2187 10.0425 21.2187C10.758 21.2187 11.4948 21.2818 12.2739 21.3872C13.0526 21.493 13.8526 21.6616 14.6948 21.8514V20.3112C14.6948 18.7077 14.3578 17.5895 13.705 16.9354C13.0317 16.2813 11.8946 15.9651 10.2737 15.9651C9.53685 15.9651 8.77909 16.0492 8 16.2391C7.22601 16.4239 6.46618 16.6638 5.72629 16.9567C5.4869 17.0641 5.24076 17.1557 4.98944 17.2311C4.84224 17.2729 4.73685 17.2942 4.65237 17.2942C4.35797 17.2942 4.21035 17.0834 4.21035 16.6401V15.6063C4.21035 15.2688 4.25301 15.0154 4.35797 14.8682C4.46293 14.7201 4.65237 14.5725 4.9472 14.4244C5.68405 14.0447 6.56853 13.7285 7.59979 13.4751C8.63147 13.2012 9.72672 13.074 10.8843 13.074C13.3897 13.074 15.2209 13.6441 16.3998 14.7833C17.5578 15.9225 18.1474 17.653 18.1474 19.9737V26.8097H18.1897ZM9.64224 30.017C10.3369 30.017 11.0528 29.8903 11.8106 29.6372C12.5683 29.3838 13.242 28.9196 13.8103 28.2868C14.1474 27.8858 14.4 27.4429 14.5263 26.9364C14.6526 26.43 14.7366 25.8181 14.7366 25.1009V24.2147C14.0983 24.0591 13.4517 23.9395 12.8 23.8563C12.1437 23.7726 11.4828 23.7302 10.8211 23.7292C9.41056 23.7292 8.37888 24.0035 7.68427 24.5731C6.98965 25.1432 6.65259 25.9449 6.65259 26.9996C6.65259 27.9912 6.90517 28.7297 7.43168 29.2362C7.93685 29.7635 8.67371 30.017 9.64181 30.017H9.64224ZM26.5472 32.2954C26.1683 32.2954 25.9157 32.2322 25.7472 32.0846C25.5791 31.9579 25.4315 31.6622 25.3052 31.2616L20.358 14.9522C20.2317 14.5298 20.1685 14.2559 20.1685 14.1083C20.1685 13.7708 20.3366 13.5809 20.6737 13.5809H22.7366C23.1369 13.5809 23.4108 13.6441 23.558 13.7917C23.7265 13.9184 23.8524 14.2141 23.9791 14.6147L27.5162 28.5821L30.8002 14.6147C30.9052 14.1923 31.0315 13.9184 31.2 13.7917C31.3685 13.665 31.6629 13.5809 32.0422 13.5809H33.7263C34.1265 13.5809 34.4 13.6441 34.5685 13.7917C34.7371 13.9184 34.8843 14.2141 34.9683 14.6147L38.2946 28.7511L41.9371 14.6147C42.0629 14.1923 42.2101 13.9184 42.3578 13.7917C42.5263 13.665 42.7998 13.5809 43.1791 13.5809H45.1366C45.4737 13.5809 45.6631 13.7495 45.6631 14.1083C45.6631 14.2137 45.6422 14.3191 45.6209 14.4458C45.588 14.6257 45.5387 14.8022 45.4737 14.9731L40.4002 31.2833C40.2735 31.7053 40.1263 31.9792 39.9578 32.1059C39.7896 32.2327 39.5157 32.3171 39.1578 32.3171H37.3474C36.9472 32.3171 36.6733 32.2536 36.5052 32.1059C36.3371 31.9583 36.1894 31.684 36.1054 31.262L32.8422 17.6535L29.6 31.2411C29.4946 31.6631 29.3683 31.9374 29.1998 32.085C29.0317 32.2327 28.7368 32.2958 28.358 32.2958L26.5472 32.2954ZM53.6 32.8654C52.5052 32.8654 51.4103 32.7387 50.3578 32.4857C49.3052 32.2322 48.4843 31.9579 47.9368 31.6413C47.5998 31.4514 47.3685 31.2402 47.284 31.0508C47.2022 30.8645 47.1592 30.6634 47.1578 30.4599V29.3838C47.1578 28.9409 47.3263 28.7297 47.642 28.7297C47.7683 28.7297 47.8946 28.7511 48.0209 28.7929C48.1472 28.8355 48.3366 28.9196 48.5474 29.0041C49.291 29.3317 50.0673 29.5792 50.8634 29.7422C51.7052 29.9112 52.5265 29.9956 53.3683 29.9956C54.6948 29.9956 55.7265 29.7635 56.442 29.2993C57.158 28.8351 57.5368 28.1601 57.5368 27.2948C57.5368 26.7043 57.3474 26.2192 56.9685 25.8181C56.5897 25.4171 55.8737 25.0587 54.842 24.7212L51.7896 23.7714C50.2528 23.2863 49.1157 22.5691 48.4211 21.6193C47.7265 20.6909 47.3685 19.6571 47.3685 18.5601C47.3685 17.6739 47.558 16.8931 47.9368 16.2181C48.3157 15.5432 48.8209 14.9522 49.4528 14.488C50.0843 14.0029 50.7998 13.6441 51.642 13.3911C52.4843 13.1376 53.3683 13.0322 54.2946 13.0322C54.758 13.0322 55.2422 13.0536 55.7052 13.1167C56.1894 13.1799 56.6315 13.2643 57.0735 13.3488C57.4946 13.4542 57.8948 13.5596 58.2737 13.6859C58.6526 13.813 58.9474 13.9393 59.1578 14.066C59.4526 14.235 59.6634 14.4035 59.7896 14.5934C59.9159 14.7624 59.9791 14.9945 59.9791 15.2897V16.2817C59.9791 16.725 59.8106 16.9571 59.4948 16.9571C59.3263 16.9571 59.0528 16.8727 58.6948 16.7037C57.4946 16.1554 56.1472 15.8811 54.6526 15.8811C53.4528 15.8811 52.5052 16.0709 51.8528 16.4716C51.2 16.8727 50.8634 17.4845 50.8634 18.3498C50.8634 18.9403 51.0737 19.4463 51.4948 19.8474C51.9159 20.2484 52.6946 20.6495 53.8103 21.0079L56.8 21.9577C58.3159 22.4428 59.4103 23.1182 60.0631 23.9831C60.7159 24.8479 61.0317 25.8395 61.0317 26.9369C61.0317 27.844 60.8422 28.667 60.4843 29.3842C60.1054 30.1015 59.6002 30.7346 58.9474 31.2411C58.2946 31.7684 57.5159 32.1482 56.6106 32.4225C55.6634 32.7178 54.6735 32.8654 53.6 32.8654Z" fill="white"/>
</svg>
