<svg width="64" height="64" viewBox="0 0 64 64" fill="none" xmlns="http://www.w3.org/2000/svg">
<g clip-path="url(#clip0_528_8616)">
<path d="M57.327 12.4401C53.4584 7.43059 48.1911 3.68081 42.1913 1.66503C36.1915 -0.350754 29.7286 -0.541999 23.6201 1.11548C17.5116 2.77297 12.0318 6.20473 7.87376 10.9767C3.71573 15.7487 1.06625 21.6467 0.260388 27.9245C-0.54547 34.2024 0.528498 40.5783 3.34647 46.2458C6.16443 51.9133 10.5998 56.6178 16.0917 59.7643C21.5835 62.9109 27.8852 64.3582 34.1996 63.9231C40.514 63.488 46.5576 61.1902 51.566 57.3201C65.546 46.5161 68.127 26.4251 57.327 12.4401Z" fill="#FF6C37"/>
<path d="M42.793 20.3879L29.3 33.9879L25.487 30.0679C38.767 16.7879 40.099 17.9879 42.793 20.3879Z" fill="white"/>
<path d="M29.3 34.3601C29.1805 34.3572 29.0664 34.3097 28.98 34.2271L25.14 30.3871C25.0535 30.2976 25.0052 30.178 25.0052 30.0536C25.0052 29.9292 25.0535 29.8096 25.14 29.7201C38.233 16.6271 40.02 17.2401 43.113 20.0401C43.218 20.1241 43.277 20.2521 43.273 20.3871C43.293 20.5171 43.243 20.6501 43.14 20.7341L29.647 34.2281C29.552 34.3151 29.429 34.3611 29.3 34.3601ZM26.153 30.0671L29.3 33.2141L42.1 20.4141C41.658 19.8603 41.0274 19.4888 40.3288 19.3707C39.6301 19.2526 38.9124 19.3962 38.313 19.7741C35.993 20.8141 32.26 23.9871 26.153 30.0671Z" fill="#FF6C37"/>
<path d="M33.167 37.7481L29.487 33.9881L42.98 20.6541C46.607 24.2011 41.22 30.1221 33.167 37.7481Z" fill="white"/>
<path d="M33.167 38.228C33.049 38.2186 32.9369 38.172 32.847 38.095L29.087 34.415C29.0306 34.2782 29.0306 34.1247 29.087 33.988C29.047 33.876 29.047 33.753 29.087 33.641L42.58 20.148C42.775 19.965 43.078 19.965 43.273 20.148C44.158 20.962 44.643 22.12 44.606 23.321C44.606 26.921 40.499 31.454 33.513 38.068C33.4197 38.1604 33.2979 38.217 33.167 38.228ZM30.18 33.988L33.193 37C38.526 31.96 43.62 26.76 43.646 23.24C43.675 22.4938 43.4283 21.763 42.953 21.187L30.18 33.988Z" fill="#FF6C37"/>
<path d="M25.593 30.148L28.26 32.815C28.277 32.83 28.2907 32.8485 28.3 32.8691C28.3093 32.8898 28.3142 32.9123 28.3142 32.935C28.3142 32.9577 28.3093 32.9801 28.3 33.0008C28.2907 33.0215 28.277 33.04 28.26 33.055L22.633 34.255C22.4 34.305 22.163 34.193 22.051 33.983C21.939 33.773 21.981 33.513 22.153 33.348L25.433 30.095C25.433 30.095 25.54 30.095 25.593 30.148Z" fill="white"/>
<path d="M22.5 34.788C22.3222 34.7858 22.148 34.738 21.9939 34.6492C21.8398 34.5605 21.7111 34.4337 21.62 34.281C21.41 33.884 21.485 33.395 21.807 33.081L25.06 29.801C25.1773 29.6962 25.3291 29.6382 25.4865 29.6382C25.6438 29.6382 25.7957 29.6962 25.913 29.801L28.58 32.468C28.738 32.618 28.8 32.845 28.74 33.055C28.68 33.265 28.504 33.432 28.287 33.482L22.66 34.682L22.5 34.788ZM25.487 30.735L22.474 33.748L27.461 32.681L25.487 30.735Z" fill="#FF6C37"/>
<path d="M49.967 12.894C48.037 11.032 45.005 10.954 42.981 12.711C40.957 14.468 40.611 17.484 42.187 19.654C43.763 21.824 46.734 22.432 49.034 21.054L45.407 17.427L49.967 12.894Z" fill="white"/>
<path d="M46.367 22.28C45.2582 22.2658 44.178 21.9256 43.2612 21.3018C42.3443 20.678 41.6313 19.7982 41.211 18.772C40.351 16.674 40.827 14.266 42.411 12.654C43.4786 11.606 44.9149 11.0188 46.411 11.0188C47.9071 11.0188 49.3434 11.606 50.411 12.654C50.513 12.74 50.571 12.867 50.571 13.001C50.5708 13.0669 50.5563 13.132 50.5287 13.1919C50.5011 13.2518 50.461 13.305 50.411 13.348L46.091 17.428L49.371 20.655C49.4241 20.7057 49.464 20.7687 49.4872 20.8385C49.5104 20.9082 49.5162 20.9825 49.504 21.055C49.4961 21.1249 49.4729 21.1922 49.4361 21.2522C49.3993 21.3122 49.3498 21.3633 49.291 21.402C48.4098 21.9528 47.3968 22.2567 46.358 22.282L46.367 22.28ZM46.367 11.933C44.467 11.943 42.767 13.086 42.054 14.833C41.341 16.58 41.729 18.591 43.061 19.933C44.417 21.296 46.461 21.688 48.234 20.92L45.087 17.773C44.982 17.689 44.923 17.561 44.927 17.426C44.931 17.301 44.989 17.184 45.087 17.106L49.247 12.919C48.42 12.285 47.409 11.94 46.367 11.933Z" fill="#FF6C37"/>
<path d="M50.047 12.9741L45.487 17.5071L49.114 21.1341C49.479 20.9246 49.8189 20.6739 50.127 20.3871C52.103 18.2871 52.067 15.0191 50.047 12.9741Z" fill="white"/>
<path d="M49.033 21.5339C48.9731 21.5371 48.9132 21.5269 48.8579 21.5038C48.8025 21.4808 48.753 21.4456 48.713 21.4009L45.086 17.7739C44.981 17.6899 44.922 17.5619 44.926 17.4269C44.93 17.3019 44.988 17.1849 45.086 17.1069L49.619 12.6539C49.6628 12.5879 49.7222 12.5337 49.792 12.4963C49.8618 12.4588 49.9398 12.4392 50.019 12.4392C50.0982 12.4392 50.1762 12.4588 50.246 12.4963C50.3158 12.5337 50.3752 12.5879 50.419 12.6539C50.9512 13.1753 51.3739 13.7976 51.6625 14.4845C51.9512 15.1713 52.0998 15.9089 52.0998 16.6539C52.0998 17.3989 51.9512 18.1364 51.6625 18.8233C51.3739 19.5101 50.9512 20.1325 50.419 20.6539C50.1051 20.9868 49.7459 21.274 49.352 21.5069C49.2528 21.5569 49.1392 21.5665 49.033 21.5339ZM46.1 17.4279L49.113 20.4409C49.3203 20.2956 49.5165 20.1352 49.7 19.9609C50.5857 19.0776 51.0846 17.8788 51.087 16.6279C51.089 15.5084 50.681 14.427 49.94 13.5879L46.1 17.4279Z" fill="#FF6C37"/>
<path d="M43.353 20.9479C42.603 20.2439 41.436 20.2439 40.686 20.9479L28.607 32.9999L30.607 35.0269L43.38 23.8269C43.775 23.4499 43.996 22.9269 43.99 22.3809C43.984 21.8349 43.754 21.3169 43.353 20.9479Z" fill="white"/>
<path d="M30.5 35.508C30.3805 35.5051 30.2664 35.4576 30.18 35.375L28.153 33.348C28.0665 33.2585 28.0182 33.1389 28.0182 33.0145C28.0182 32.8901 28.0665 32.7705 28.153 32.681L40.233 20.654C41.191 19.698 42.743 19.698 43.7 20.654C44.18 21.134 44.44 21.789 44.42 22.467C44.392 23.141 44.094 23.775 43.593 24.227L30.82 35.427C30.727 35.493 30.613 35.522 30.5 35.508ZM29.087 33L30.42 34.36L42.953 23.453C43.263 23.183 43.448 22.797 43.46 22.386C43.472 21.975 43.31 21.573 43.007 21.293C42.424 20.713 41.483 20.713 40.9 21.293L29.087 33Z" fill="#FF6C37"/>
<path d="M19.247 46.734C19.2129 46.7804 19.1945 46.8364 19.1945 46.894C19.1945 46.9516 19.2129 47.0076 19.247 47.054L19.78 49.374C19.826 49.651 19.693 49.927 19.448 50.074C19.3292 50.1435 19.1914 50.1735 19.0545 50.1596C18.9175 50.1458 18.7885 50.0889 18.686 49.997L15.033 46.477L26.42 35H30.367L33.034 37.667C28.8737 41.3044 24.235 44.3551 19.247 46.734Z" fill="white"/>
<path d="M19.007 50.6541C18.705 50.6481 18.407 50.5241 18.207 50.3071L14.714 46.8141C14.609 46.7301 14.55 46.6021 14.554 46.4671C14.558 46.3421 14.616 46.2251 14.714 46.1471L26.18 34.6541C26.2442 34.5859 26.3281 34.5394 26.42 34.5211H30.393C30.4965 34.4845 30.6095 34.4845 30.713 34.5211L33.38 37.1881C33.483 37.2831 33.533 37.4231 33.513 37.5611C33.5149 37.6274 33.5014 37.6932 33.4737 37.7534C33.4459 37.8135 33.4046 37.8665 33.353 37.9081L33.14 38.0951C28.9629 41.5774 24.3674 44.5245 19.46 46.8681L19.967 49.0281C20.0062 49.1947 20.0077 49.368 19.9714 49.5353C19.9351 49.7026 19.8619 49.8596 19.7572 49.995C19.6524 50.1304 19.5188 50.2407 19.366 50.3179C19.2132 50.3951 19.0451 50.4372 18.874 50.4411L19.007 50.6541ZM15.754 46.4671L18.9 49.6401C18.9293 49.6662 18.9672 49.6807 19.0065 49.6807C19.0458 49.6807 19.0837 49.6662 19.113 49.6401C19.1326 49.6129 19.1432 49.5802 19.1432 49.5466C19.1432 49.513 19.1326 49.4803 19.113 49.4531L18.58 47.1331C18.494 46.7901 18.66 46.4331 18.98 46.2801C23.7554 43.9678 28.2325 41.0844 32.313 37.6931L30.126 35.5061H26.553L15.754 46.4671Z" fill="#FF6C37"/>
<path d="M12.287 49.2141L14.954 46.5471L19.061 50.6541L12.528 50.2011C12.298 50.1841 12.103 50.0211 12.048 49.7951C11.993 49.5691 12.09 49.3351 12.288 49.2151L12.287 49.2141Z" fill="white"/>
<path d="M19.14 51.0541L12.633 50.6011C12.247 50.5651 11.915 50.3011 11.779 49.9481C11.643 49.5951 11.726 49.1761 11.993 48.8941L14.66 46.2271C14.7495 46.1406 14.8691 46.0923 14.9935 46.0923C15.1179 46.0923 15.2375 46.1406 15.327 46.2271L19.407 50.3071C19.523 50.4671 19.523 50.6811 19.407 50.8401C19.345 50.9401 19.251 51.0161 19.14 51.0541ZM12.633 49.5611L17.966 49.9081L15.033 47.1611L12.633 49.5611Z" fill="#FF6C37"/>
<path d="M30.74 35.3219L25.353 36.1489L28.473 33.0559L30.74 35.3219Z" fill="white"/>
<path d="M25.353 36.6539C25.17 36.6589 25.003 36.5539 24.926 36.3869C24.8692 36.3097 24.8386 36.2163 24.8386 36.1204C24.8386 36.0246 24.8692 35.9312 24.926 35.8539L28.019 32.7339C28.214 32.5509 28.517 32.5509 28.712 32.7339L30.98 34.9999C31.0253 35.0718 31.0493 35.155 31.0493 35.2399C31.0493 35.3249 31.0253 35.4081 30.98 35.4799C30.9578 35.5675 30.9107 35.6468 30.8446 35.7083C30.7784 35.7699 30.6959 35.8111 30.607 35.8269L25.274 36.6539H25.353ZM28.473 33.7469L26.74 35.4799L29.727 35.0269L28.473 33.7469Z" fill="#FF6C37"/>
<path d="M30.74 35.32L26.98 35.8C26.8794 35.8228 26.7741 35.8126 26.6797 35.7709C26.5853 35.7292 26.5069 35.6582 26.4561 35.5684C26.4052 35.4786 26.3847 35.3748 26.3974 35.2724C26.4102 35.1701 26.4556 35.0745 26.527 35L28.474 33.053L30.74 35.32Z" fill="white"/>
<path d="M26.873 36.3079C26.518 36.3049 26.193 36.1109 26.02 35.8009C25.9182 35.6184 25.8787 35.4076 25.9076 35.2006C25.9364 34.9935 26.0321 34.8016 26.18 34.6539L28.127 32.7069C28.322 32.5239 28.625 32.5239 28.82 32.7069L31.087 34.9739C31.1544 35.0378 31.2018 35.1199 31.2236 35.2101C31.2453 35.3004 31.2403 35.3951 31.2093 35.4826C31.1783 35.5702 31.1225 35.6468 31.0488 35.7033C30.9751 35.7598 30.8866 35.7937 30.794 35.8009L27.061 36.2809L26.873 36.3079ZM26.873 35.3209L29.7 34.9739L28.447 33.7209L26.847 35.3209H26.873ZM50.073 16.0409C50.0228 15.9568 49.9434 15.894 49.8499 15.8645C49.7565 15.835 49.6554 15.8408 49.566 15.8809C49.5219 15.9033 49.4826 15.9343 49.4507 15.9721C49.4188 16.0099 49.3947 16.0537 49.38 16.1009C49.35 16.1959 49.36 16.2989 49.406 16.3879C49.593 16.7809 49.541 17.2459 49.273 17.5879C49.203 17.6539 49.173 17.7449 49.173 17.8409C49.174 17.9347 49.2096 18.0248 49.273 18.0939C49.3414 18.1209 49.4176 18.1209 49.486 18.0939C49.5481 18.1095 49.6133 18.1078 49.6744 18.0889C49.7356 18.0701 49.7905 18.0348 49.833 17.9869C50.0526 17.7181 50.1916 17.3926 50.2341 17.0481C50.2766 16.7035 50.2207 16.355 50.073 16.0409Z" fill="#FF6C37"/>
</g>
<defs>
<clipPath id="clip0_528_8616">
<rect width="64" height="64" fill="white"/>
</clipPath>
</defs>
</svg>
