<svg width="369" height="340" viewBox="0 0 369 340" fill="none" xmlns="http://www.w3.org/2000/svg">
<path d="M216.151 76.4829L221.907 63.3947C217.82 52.6492 217.733 40.6974 221.662 29.8882C225.591 19.079 233.253 10.1939 243.141 4.97921C253.029 -0.235481 264.429 -1.40272 275.1 1.70688C285.771 4.81649 294.942 11.9781 300.81 21.7842C306.677 31.5903 308.818 43.3319 306.811 54.7012C304.804 66.0706 298.795 76.2457 289.964 83.2268C281.132 90.2079 270.118 93.4902 259.086 92.4286C248.053 91.367 237.8 86.0383 230.341 77.4897L216.151 76.4829Z" fill="white"/>
<path d="M99.5008 82.8187C95.8965 75.3676 92.9078 67.6092 90.5674 59.628C88.2382 51.6 87.8608 43.0932 89.4695 34.875C89.7356 33.6425 92.3475 25.2758 93.5619 25.2411C94.4269 25.2411 93.1293 32.8614 93.6451 33.5905C98.6358 40.4296 100.898 49.213 101.281 57.788C101.579 66.1746 100.982 74.5698 99.5008 82.8187Z" fill="#263238"/>
<path d="M152.286 147.496C151.637 141.646 148.51 112.38 148.56 112.38C148.61 112.38 167.524 107.78 166.36 87.7484C165.794 78.0624 163.033 58.2392 160.404 40.2906C159.035 30.984 154.356 22.5573 147.299 16.6896C140.242 10.8218 131.325 7.94379 122.325 8.629L120.479 8.76785C100.516 11.5278 91.7153 30.6741 94.9094 51.3479L109.299 147.496L143.17 145.76L152.286 147.496Z" fill="#FFBF9D"/>
<path d="M148.559 112.293C139.691 112.949 130.829 110.937 123.023 106.496C123.023 106.496 130.06 120.903 149.092 117.622L148.559 112.293Z" fill="#FF9A6C"/>
<path d="M154.665 58.9683C154.726 59.712 154.506 60.4511 154.052 61.0282C153.599 61.6053 152.947 61.9748 152.236 62.0581C151.889 62.1169 151.534 62.1019 151.192 62.014C150.851 61.9262 150.53 61.7673 150.249 61.5468C149.968 61.3263 149.732 61.0489 149.556 60.7311C149.38 60.4132 149.268 60.0617 149.225 59.6974C149.16 58.9527 149.378 58.2112 149.833 57.6331C150.287 57.0549 150.941 56.6866 151.654 56.6076C152.001 56.5488 152.356 56.5638 152.698 56.6516C153.039 56.7395 153.36 56.8984 153.641 57.1189C153.922 57.3394 154.158 57.6168 154.334 57.9346C154.51 58.2524 154.622 58.604 154.665 58.9683Z" fill="#263238"/>
<path d="M156.878 48.8311C156.562 49.2303 154.382 47.7896 151.438 48.0152C148.493 48.2409 146.447 49.9593 146.081 49.6122C145.715 49.265 146.214 48.7443 147.096 47.9631C148.312 46.9433 149.798 46.3374 151.355 46.2273C152.889 46.1075 154.42 46.4963 155.73 47.3382C156.678 47.9978 157.044 48.6401 156.878 48.8311Z" fill="#263238"/>
<path d="M127.881 62.4399C127.942 63.1863 127.72 63.9277 127.263 64.5053C126.805 65.0829 126.15 65.4506 125.436 65.5296C125.09 65.5834 124.738 65.5648 124.399 65.4747C124.06 65.3847 123.742 65.2251 123.464 65.0053C123.185 64.7854 122.951 64.5098 122.775 64.1945C122.6 63.8792 122.486 63.5306 122.441 63.1689C122.376 62.4243 122.594 61.6828 123.049 61.1046C123.503 60.5265 124.158 60.1581 124.87 60.0792C125.217 60.0204 125.572 60.0353 125.914 60.1232C126.255 60.211 126.576 60.37 126.857 60.5905C127.139 60.8109 127.374 61.0883 127.55 61.4061C127.726 61.7239 127.839 62.0755 127.881 62.4399Z" fill="#263238"/>
<path d="M128.081 52.2853C127.765 52.6846 125.569 51.2438 122.625 51.4868C119.68 51.7299 117.634 53.4136 117.268 53.0665C116.902 52.7193 117.401 52.2159 118.299 51.4348C119.503 50.4041 120.987 49.7966 122.541 49.6989C124.077 49.5656 125.612 49.9554 126.917 50.8098C127.881 51.4695 128.231 52.1117 128.081 52.2853Z" fill="#263238"/>
<path d="M140.325 75.1289C141.843 74.5018 143.43 74.0761 145.05 73.8618C145.798 73.7229 146.497 73.5146 146.597 72.9591C146.594 72.144 146.362 71.3476 145.931 70.6678L143.27 64.8528C139.576 56.5729 136.848 49.7337 137.164 49.5948C137.48 49.4559 140.741 56.0347 144.434 64.3147L146.996 70.1645C147.538 71.0763 147.755 72.1574 147.612 73.2195C147.52 73.5056 147.367 73.7664 147.166 73.9827C146.964 74.199 146.719 74.3653 146.447 74.4693C146.039 74.6187 145.614 74.712 145.183 74.747C143.586 75.0883 141.953 75.2166 140.325 75.1289Z" fill="#263238"/>
<path d="M154.182 35.8818C153.75 36.6455 151.654 36.1768 149.192 36.4372C146.729 36.6976 144.75 37.444 144.201 36.7844C143.951 36.4546 144.201 35.7082 145.016 34.9444C146.132 33.9917 147.504 33.4218 148.942 33.3127C150.376 33.1627 151.818 33.4844 153.068 34.2327C154.016 34.8402 154.399 35.5172 154.182 35.8818Z" fill="#263238"/>
<path d="M128.148 45.2032C127.665 45.9323 125.586 45.3421 123.157 45.4636C120.728 45.5851 118.665 46.2274 118.166 45.4636C117.933 45.1338 118.166 44.4048 119.081 43.7278C120.238 42.8333 121.634 42.3413 123.074 42.3218C124.513 42.2538 125.937 42.6541 127.149 43.4674C128.031 44.1444 128.347 44.8387 128.148 45.2032Z" fill="#263238"/>
<path d="M97.5212 66.0505C97.1885 65.929 84.0463 62.9955 85.427 76.6565C86.8078 90.3175 100.932 86.5508 100.915 86.1515C100.898 85.7523 97.5212 66.0505 97.5212 66.0505Z" fill="#FFBF9D"/>
<path d="M95.1257 80.9267C95.1257 80.9267 94.9261 81.1176 94.5601 81.3433C94.0498 81.6253 93.459 81.7054 92.8965 81.5689C91.4658 81.187 90.0684 79.0173 89.7524 76.5698C89.6014 75.4037 89.7038 74.2172 90.0518 73.0981C90.1301 72.6555 90.3103 72.2394 90.5769 71.8856C90.8436 71.5318 91.1886 71.2509 91.5823 71.0671C91.8375 70.9681 92.1176 70.9642 92.3753 71.0559C92.633 71.1476 92.8523 71.3294 92.9963 71.5705C93.2126 71.9351 93.1461 72.2302 93.2292 72.2302C93.3124 72.2302 93.4788 71.9698 93.2292 71.4316C93.1263 71.1 92.9141 70.8172 92.6303 70.6332C92.4389 70.5084 92.2252 70.4256 92.0021 70.3898C91.779 70.354 91.5513 70.3659 91.3327 70.4249C90.8064 70.5932 90.3307 70.9006 89.9518 71.3173C89.5729 71.7339 89.3036 72.2457 89.1701 72.803C88.7319 74.0448 88.5892 75.3791 88.7542 76.6912C89.1202 79.4338 90.7339 81.8987 92.6803 82.2285C93.0445 82.2934 93.418 82.2743 93.7744 82.1723C94.1308 82.0703 94.4615 81.888 94.7431 81.6384C95.1423 81.2565 95.1756 80.944 95.1257 80.9267Z" fill="#FF9A6C"/>
<path d="M149.408 18.6102C151.388 17.1347 144.251 10.7469 138.778 8.90688C130.46 6.11219 118.249 5.2616 111.229 8.28195C102.794 11.9098 96.0404 17.3083 92.5635 26.109C89.2756 35.0567 88.3227 44.7545 89.8019 54.2122C90.0159 57.1277 90.969 59.9313 92.5635 62.3359C94.7261 65.1306 98.4359 66.606 98.7354 70.7894C98.8086 72.3234 99.4604 73.7649 100.549 74.7992C103.244 77.1599 105.889 74.3131 106.97 71.6573C109.249 65.9638 108.867 59.5065 108.451 53.3964C108.381 49.0039 107.622 44.6531 106.205 40.5164C105.306 38.3119 104.042 36.281 103.277 34.0418C102.819 32.9415 102.597 31.7502 102.625 30.5509C102.654 29.3517 102.933 28.1735 103.443 27.0985C103.723 26.6532 104.04 26.2349 104.392 25.8486C106.03 23.9687 108.119 22.5786 110.444 21.8219C112.769 21.0652 115.245 20.9692 117.617 21.5438C125.286 23.3837 138.312 25.9354 141.306 22.9324C145.632 18.6102 146.48 15.9891 146.48 15.9891L149.408 18.6102Z" fill="#263238"/>
<path d="M142.404 83.3568C142.254 82.8708 139.925 83.3568 137.497 82.2806C135.068 81.2044 133.737 79.2082 133.288 79.4339C133.088 79.538 133.138 80.2497 133.67 81.1697C134.423 82.4143 135.528 83.3846 136.831 83.9471C138.133 84.5079 139.572 84.6234 140.94 84.2768C141.972 84.0512 142.487 83.5825 142.404 83.3568Z" fill="#263238"/>
<path d="M107.819 48.8311C104.682 49.2378 101.506 49.1735 98.3862 48.6401C93.2125 48.0846 89.1035 46.9043 89.1867 46.5397C89.2698 46.1752 93.3456 47.182 98.486 47.7549C103.626 48.3277 107.819 48.5533 107.819 48.8311Z" fill="#EBEBEB"/>
<path d="M77.2088 218.162L48.7284 216.634L75.7449 193.305L54.1184 151.645C54.1184 151.645 8.83585 206.896 4.89318 214.76C0.484701 223.578 -3.25835 237.898 8.9523 244.911C17.4365 249.771 84.4953 249.268 84.4953 249.268L77.2088 218.162Z" fill="#FFBF9D"/>
<path d="M115.92 327.71V338.698L198.583 339.965L200.813 304.329L115.92 327.71Z" fill="#263238"/>
<path d="M191.629 122.76C191.629 122.76 246.777 172.995 247.642 171.78C248.507 170.565 265.858 122.76 265.858 122.76L297.3 123.42C297.3 123.42 280.664 195.874 270.45 205.403C260.235 214.933 248.823 211.843 240.988 210.229C233.152 208.615 195.156 172.214 195.156 172.214L191.629 122.76Z" fill="#FFBF9D"/>
<path d="M106.555 121.823L62.3533 137.445L72.0021 174.436L91.4493 233.975L114.224 328.162L242.219 294.348L205.62 175.825L191.646 122.778L179.685 118.16L158.059 121.632L150.639 121.076C150.639 121.076 152.403 130.815 134.952 131.491C124.455 131.873 106.555 121.823 106.555 121.823Z" fill="#E0E0E0"/>
<path d="M202.643 187.42L218.214 197.575L235.798 157.98C235.798 157.98 201.545 121.285 190.349 118.803C179.153 116.32 175.077 119.948 175.077 119.948L202.643 187.42Z" fill="#E0E0E0"/>
<path d="M61.0887 215.315L21.8949 187.681C21.8949 187.681 47.8966 151.228 51.5897 146.767C54.7506 142.798 58.6498 139.538 63.0517 137.185L79.1052 195.822L61.0887 215.315Z" fill="#E0E0E0"/>
<path d="M68.5749 162.164C68.4086 162.164 72.2015 174.853 77.0259 190.371C81.8503 205.889 85.8761 218.422 86.0258 218.37C86.1756 218.318 82.3992 205.698 77.5749 190.18C72.7505 174.662 68.7246 162.112 68.5749 162.164Z" fill="#263238"/>
<path d="M202.643 233.455L165.179 233.281V241.804L165.645 339.531L267.123 339.948L267.289 301.499C267.289 298.028 270.849 295.493 274.609 295.441C276.472 295.429 278.265 296.184 279.6 297.542C282.229 300.307 285.753 301.947 289.481 302.142C290.968 302.177 292.445 301.888 293.819 301.293C295.192 300.697 296.431 299.808 297.455 298.684C298.48 297.559 299.268 296.223 299.768 294.762C300.268 293.301 300.471 291.747 300.361 290.199C300.245 283.256 296.402 279.107 289.099 278.569C283.759 278.17 281.13 281.346 279.117 283.412C278.511 284.071 277.786 284.599 276.984 284.966C276.182 285.332 275.318 285.53 274.443 285.547C273.602 285.621 272.756 285.52 271.953 285.252C271.15 284.984 270.406 284.552 269.763 283.983C269.12 283.414 268.591 282.718 268.206 281.934C267.822 281.151 267.589 280.297 267.522 279.419V234.132H251.568L226.615 233.871C224.913 233.932 223.257 233.287 222.009 232.077C220.762 230.866 220.025 229.19 219.96 227.414C219.976 226.528 220.182 225.656 220.562 224.863C220.942 224.071 221.486 223.376 222.156 222.831C224.369 220.974 227.496 217.624 227.563 213.753C227.663 207.643 222.572 203.338 215.136 203.216C207.7 203.095 202.476 207.296 202.376 213.388C202.376 217.329 205.321 220.714 207.484 222.623C208.135 223.191 208.656 223.903 209.01 224.708C209.364 225.513 209.542 226.39 209.53 227.275C209.385 229.041 208.583 230.677 207.296 231.832C206.008 232.988 204.337 233.57 202.643 233.455Z" fill="#455A64"/>
<path d="M329.39 234.045C327.683 233.93 326.001 234.521 324.709 235.691C323.417 236.86 322.618 238.514 322.486 240.294C322.478 241.18 322.658 242.058 323.015 242.862C323.372 243.667 323.896 244.379 324.549 244.946C326.695 246.855 329.723 250.24 329.656 254.18C329.557 260.273 324.266 264.474 316.897 264.352C309.527 264.231 304.37 259.926 304.47 253.816C304.47 249.893 307.647 246.595 309.86 244.737C310.529 244.191 311.075 243.496 311.457 242.704C311.84 241.912 312.05 241.042 312.072 240.155C312.039 238.684 311.527 237.269 310.62 236.142C309.712 235.016 308.465 234.245 307.082 233.958L275.906 234.079L267.588 234.201L267.522 279.419C267.658 281.184 268.459 282.821 269.751 283.97C271.042 285.119 272.717 285.686 274.409 285.547C275.285 285.529 276.148 285.332 276.95 284.966C277.753 284.599 278.477 284.071 279.084 283.412C281.047 281.346 283.675 278.204 289.065 278.569C296.368 279.107 300.211 283.29 300.328 290.199C300.437 291.746 300.235 293.301 299.735 294.762C299.234 296.223 298.446 297.559 297.422 298.684C296.397 299.808 295.158 300.697 293.785 301.292C292.412 301.888 290.935 302.177 289.448 302.141C285.72 301.947 282.195 300.307 279.566 297.542C278.232 296.184 276.439 295.429 274.575 295.441C271.148 295.441 267.921 297.576 267.339 300.649C267.391 300.941 267.419 301.237 267.422 301.534L267.089 340L369 339.583L367.802 234.288L329.39 234.045Z" fill="#F64848"/>
<path d="M328.908 234.461L367.802 234.218V226.112L367.336 128.402L267.189 127.985L267.006 166.434C267.006 169.906 263.496 172.44 259.786 172.492C257.959 172.485 256.205 171.738 254.895 170.409C252.32 167.642 248.838 165.993 245.147 165.792C238.709 165.896 234.3 170.826 234.4 177.734C234.5 184.643 238.309 188.826 245.529 189.382C250.803 189.781 253.381 186.587 255.344 184.521C255.934 183.863 256.644 183.335 257.433 182.968C258.221 182.602 259.073 182.404 259.936 182.386C261.619 182.257 263.282 182.83 264.56 183.978C265.839 185.127 266.629 186.758 266.756 188.514L267.572 234.149H282.544H305.202C306.046 234.114 306.888 234.254 307.68 234.56C308.472 234.866 309.198 235.333 309.816 235.933C310.435 236.533 310.934 237.255 311.284 238.057C311.634 238.859 311.828 239.725 311.856 240.606C311.738 241.51 311.439 242.378 310.977 243.153C310.516 243.928 309.902 244.592 309.178 245.102C307.802 246.196 306.661 247.578 305.827 249.159C304.993 250.741 304.486 252.486 304.337 254.285C304.237 260.377 309.327 264.7 316.614 264.821C323.9 264.943 329.59 260.568 329.69 254.406C329.69 250.466 326.728 246.82 324.599 244.911C323.955 244.395 323.435 243.729 323.08 242.967C322.725 242.205 322.544 241.367 322.553 240.519C322.569 239.68 322.748 238.852 323.08 238.087C323.413 237.321 323.89 236.635 324.485 236.068C325.079 235.501 325.778 235.067 326.538 234.791C327.298 234.514 328.105 234.402 328.908 234.461Z" fill="#455A64"/>
<g opacity="0.3">
<path d="M205.97 181.31C205.726 180.462 205.324 179.672 204.787 178.986C204.25 178.301 203.588 177.733 202.84 177.315C202.092 176.897 201.271 176.638 200.427 176.552C199.582 176.466 198.729 176.555 197.918 176.814C197.079 177.053 196.297 177.471 195.621 178.041C194.945 178.612 194.39 179.323 193.992 180.13C192.628 182.733 190.898 186.604 185.674 187.524C178.587 188.792 173.912 185.511 172.132 178.55C170.352 171.589 173.397 165.445 179.569 163.726C183.217 163.005 186.991 163.802 190.082 165.948C191.643 166.952 193.521 167.27 195.306 166.833C198.866 165.844 201.694 162.424 200.796 158.883L194.325 131.318L191.53 119.896L93.9444 145.934L118.998 252.34L155.181 243.522C156.871 243.134 158.349 242.074 159.303 240.567C160.256 239.06 160.609 237.225 160.288 235.451C160.088 234.559 159.707 233.722 159.17 232.997C158.634 232.272 157.954 231.677 157.177 231.25C154.648 229.861 150.905 227.188 150.007 223.178C148.626 216.982 152.685 211.409 159.822 209.656C166.959 207.903 172.981 210.993 174.362 217.207C175.26 221.2 173.047 225.331 171.367 227.761C170.855 228.505 170.5 229.354 170.328 230.252C170.156 231.15 170.17 232.076 170.369 232.969C170.724 234.421 171.538 235.705 172.679 236.616C173.82 237.526 175.221 238.008 176.657 237.985L209.247 229.306L216.899 227.188L205.97 181.31Z" fill="black"/>
</g>
<g opacity="0.3">
<path d="M266.607 128.072C273.627 125.052 281.08 131.249 288.1 128.228C289.112 127.64 290.288 127.438 291.427 127.655C292.049 127.954 292.591 128.405 293.009 128.97C293.426 129.536 293.705 130.198 293.823 130.901C294.268 132.818 294.324 134.811 293.986 136.751C293.648 138.692 292.923 140.537 291.86 142.167C289.693 145.425 286.648 147.939 283.11 149.388C280.333 150.727 277.211 151.075 274.226 150.377C269.185 148.885 266.54 133.609 266.607 128.072Z" fill="black"/>
</g>
<path d="M265.243 123.194C266.271 122.599 267.1 121.69 267.622 120.591C268.437 118.247 274.675 117.119 274.675 117.119C275.661 116.548 276.684 116.049 277.736 115.626C279.4 115.019 282.727 117.449 282.727 117.449C286.304 115.383 287.402 116.442 289.548 117.9C290.469 118.416 291.338 119.026 292.143 119.723C292.345 119.481 292.608 119.303 292.902 119.208C293.195 119.113 293.508 119.105 293.806 119.185C294.772 119.319 295.679 119.746 296.415 120.412C297.151 121.079 297.684 121.955 297.949 122.934C298.923 125.935 299.586 129.037 299.928 132.186C299.828 134.824 296.601 141.299 296.601 141.299C296.601 141.299 293.773 143.139 291.926 142.288C290.08 141.438 292.193 135.501 292.193 135.501L290.612 127.464C290.612 127.464 288 145.014 286.703 147.079C285.405 149.145 281.246 148.815 281.246 148.815C277.104 152.53 275.141 149.284 275.141 149.284C275.141 149.284 274.625 149.874 272.795 149.024C270.965 148.173 267.688 127.985 267.688 127.985L262.115 128.697C262.149 127.579 262.454 126.488 263.001 125.526C263.548 124.564 264.319 123.762 265.243 123.194Z" fill="#FFBF9D"/>
<path d="M283.974 122.83C283.905 123.174 283.855 123.521 283.825 123.871C283.825 124.6 283.658 125.607 283.542 126.683C283.326 129.061 283.043 132.359 282.76 135.987C282.625 139.089 282.302 142.18 281.795 145.239C281.608 146.16 281.358 147.064 281.047 147.947C280.913 148.264 280.796 148.589 280.697 148.919C280.697 148.919 280.697 148.919 280.847 148.694C280.997 148.468 281.047 148.312 281.18 147.999C281.549 147.131 281.844 146.231 282.061 145.309C282.638 142.245 282.994 139.141 283.126 136.022C283.425 132.377 283.658 129.079 283.808 126.701L283.974 123.871C284.017 123.525 284.017 123.175 283.974 122.83Z" fill="#FF9A6C"/>
<path d="M275.84 122.795C275.765 123.142 275.725 123.497 275.724 123.854C275.724 124.594 275.674 125.549 275.574 126.718C275.457 129.131 275.324 132.481 275.191 136.178C275.058 139.876 274.975 143.122 274.925 145.639C274.925 146.784 274.925 147.756 274.925 148.503C274.889 148.855 274.889 149.21 274.925 149.562C275 149.214 275.039 148.859 275.041 148.503C275.041 147.75 275.091 146.796 275.191 145.639C275.307 143.226 275.441 139.876 275.574 136.178C275.707 132.481 275.79 129.148 275.84 126.718C275.84 125.572 275.84 124.6 275.84 123.854C275.875 123.502 275.875 123.147 275.84 122.795Z" fill="#FF9A6C"/>
<path d="M93.8448 218.492L40.8765 216.739L33.9727 248.036L90.7672 250.171L93.8448 218.492Z" fill="#FFBF9D"/>
<path d="M17.1369 214.065C17.1369 214.169 18.9834 213.926 21.9446 213.909C25.8385 213.951 29.7267 214.229 33.5896 214.742L45.1182 216.339C46.5988 216.53 47.7966 216.669 48.6284 216.738C49.0587 216.803 49.4956 216.803 49.9259 216.738C49.515 216.6 49.0912 216.507 48.6616 216.461L45.1681 215.87C42.2402 215.384 38.1811 214.673 33.6562 214.135C29.7952 213.617 25.9031 213.397 22.0111 213.475C21.2792 213.475 20.5971 213.562 19.9982 213.614C19.3993 213.666 18.9003 213.718 18.4844 213.787C18.0251 213.815 17.5716 213.908 17.1369 214.065Z" fill="#FF9A6C"/>
<path d="M201.728 177.005C201.486 176.156 201.085 175.365 200.548 174.679C200.011 173.992 199.349 173.424 198.6 173.008C197.851 172.591 197.029 172.334 196.184 172.251C195.339 172.169 194.486 172.262 193.676 172.527C192.839 172.764 192.058 173.182 191.385 173.753C190.712 174.324 190.161 175.036 189.766 175.842C188.386 178.428 186.672 182.299 181.449 183.237C174.362 184.504 169.687 181.223 167.89 174.245C166.094 167.267 169.155 161.157 175.343 159.438C178.989 158.714 182.762 159.505 185.857 161.643C186.627 162.147 187.485 162.487 188.382 162.642C189.279 162.797 190.196 162.764 191.081 162.546C194.624 161.556 197.469 158.119 196.554 154.578L190.066 127.013L187.271 115.591L89.6691 141.629L114.739 248.035L150.905 239.2C152.598 238.816 154.081 237.757 155.038 236.25C155.995 234.742 156.35 232.905 156.029 231.128C155.829 230.239 155.448 229.404 154.911 228.682C154.374 227.96 153.695 227.368 152.918 226.945C150.373 225.539 146.647 222.866 145.748 218.873C144.351 212.676 148.427 207.087 155.563 205.334C162.7 203.581 168.706 206.688 170.103 212.885C171.001 216.895 168.789 221.026 167.109 223.456C166.59 224.197 166.231 225.045 166.056 225.944C165.881 226.843 165.894 227.77 166.094 228.664C166.457 230.111 167.273 231.391 168.412 232.299C169.551 233.208 170.948 233.694 172.382 233.68L204.988 225.001L212.641 222.883L201.728 177.005Z" fill="#F64848"/>
<path d="M77.5581 227.171L91.9813 206.983L103.327 198.165L103.443 204.24C103.443 204.24 125.885 201.879 129.146 202.695C131.125 203.199 134.003 209.014 129.611 210.333C130.657 210.788 131.59 211.486 132.34 212.373C133.089 213.26 133.635 214.314 133.937 215.454C134.619 219.064 132.889 220.765 128.78 222.154C128.78 222.154 133.371 224.688 132.439 227.83C132.055 228.836 131.474 229.746 130.731 230.503C129.989 231.259 129.103 231.845 128.131 232.222C128.131 232.222 130.593 237.065 128.364 238.87C124.588 241.437 120.467 243.403 116.136 244.703L101.064 247.827L91.632 250.639L77.5581 227.171Z" fill="#FFBF9D"/>
<path d="M116.137 213.458C116.137 213.77 119.281 213.336 123.007 212.486C126.734 211.635 129.661 210.75 129.661 210.403C129.661 210.055 126.517 210.541 122.791 211.375C119.064 212.208 116.137 213.058 116.137 213.458Z" fill="#FF9A6C"/>
<path d="M117.8 224.741C117.8 225.053 120.329 224.741 123.34 224.133C126.351 223.525 128.713 222.727 128.663 222.397C128.614 222.067 126.118 222.397 123.124 223.005C120.129 223.612 117.8 224.445 117.8 224.741Z" fill="#FF9A6C"/>
<path d="M118.948 234.287C119.064 234.616 121.11 233.974 123.573 233.332C126.035 232.69 128.131 232.517 128.131 232.187C128.131 231.858 125.951 231.563 123.323 232.187C121.706 232.451 120.192 233.178 118.948 234.287Z" fill="#FF9A6C"/>
<path d="M100.782 205.299C100.782 205.612 103.859 205.143 107.569 204.501C111.279 203.858 114.223 203.303 114.223 202.973C114.223 202.643 111.112 202.73 107.386 203.39C103.66 204.049 100.715 205.004 100.782 205.299Z" fill="#FF9A6C"/>
<path d="M277.684 37.5156C277.684 33.3829 276.039 29.4195 273.11 26.4972C270.181 23.5749 266.209 21.9332 262.067 21.9332C257.925 21.9332 253.952 23.5749 251.023 26.4972C248.095 29.4195 246.449 33.3829 246.449 37.5156C246.449 38.3422 246.778 39.1349 247.364 39.7193C247.95 40.3038 248.744 40.6321 249.573 40.6321C250.401 40.6321 251.196 40.3038 251.781 39.7193C252.367 39.1349 252.696 38.3422 252.696 37.5156C252.696 35.6665 253.246 33.8589 254.275 32.3214C255.305 30.7838 256.769 29.5855 258.481 28.8779C260.193 28.1702 262.077 27.9851 263.895 28.3458C265.713 28.7066 267.382 29.597 268.693 30.9046C270.003 32.2121 270.896 33.878 271.257 35.6916C271.619 37.5053 271.433 39.3851 270.724 41.0935C270.015 42.8019 268.814 44.2621 267.273 45.2894C265.732 46.3167 263.92 46.8651 262.067 46.8651C261.238 46.8651 260.444 47.1934 259.858 47.7779C259.272 48.3623 258.943 49.155 258.943 49.9815V56.2145C258.943 57.041 259.272 57.8337 259.858 58.4182C260.444 59.0026 261.238 59.331 262.067 59.331C262.895 59.331 263.69 59.0026 264.275 58.4182C264.861 57.8337 265.19 57.041 265.19 56.2145V52.7864C268.718 52.0679 271.888 50.1555 274.165 47.3727C276.442 44.59 277.685 41.1078 277.684 37.5156Z" fill="#F64848"/>
<path d="M262.067 71.7969C263.792 71.7969 265.19 70.4016 265.19 68.6804C265.19 66.9593 263.792 65.564 262.067 65.564C260.342 65.564 258.943 66.9593 258.943 68.6804C258.943 70.4016 260.342 71.7969 262.067 71.7969Z" fill="#F64848"/>
</svg>
