<svg width="64" height="64" viewBox="0 0 64 64" fill="none" xmlns="http://www.w3.org/2000/svg">
<g clip-path="url(#clip0_528_8673)">
<path d="M44.0002 7.63636V55.6363C44.0002 61.0072 47.7093 63.9999 51.6366 63.9999C55.273 63.9999 59.273 61.4545 59.273 55.6363V7.99999C59.273 3.07636 55.6366 0 51.6366 0C47.6366 0 44.0002 3.39272 44.0002 7.63636Z" fill="#F9AB00"/>
<path d="M24.0001 31.9999V55.6362C24.0001 61.0071 27.7092 63.9999 31.6365 63.9999C35.2729 63.9999 39.2729 61.4544 39.2729 55.6362V32.3635C39.2729 27.4399 35.6365 24.3635 31.6365 24.3635C27.6365 24.3635 24.0001 27.7562 24.0001 31.9999Z" fill="#E37400"/>
<path d="M11.6364 63.9998C15.8539 63.9998 19.2728 60.5808 19.2728 56.3634C19.2728 52.146 15.8539 48.7271 11.6364 48.7271C7.41893 48.7271 4 52.146 4 56.3634C4 60.5808 7.41893 63.9998 11.6364 63.9998Z" fill="#E37400"/>
</g>
<defs>
<clipPath id="clip0_528_8673">
<rect width="64" height="64" fill="white"/>
</clipPath>
</defs>
</svg>
