<svg width="40" height="40" viewBox="0 0 40 40" fill="none" xmlns="http://www.w3.org/2000/svg">
<rect x="0.5" y="0.5" width="39" height="39" rx="7.5" fill="#484848" stroke="#333333"/>
<g clip-path="url(#clip0_694_1896)">
<path d="M25.4749 9.32006C31.3699 12.3351 33.6949 19.5801 30.6799 25.4751C27.6649 31.3701 20.4349 33.6951 14.5249 30.6801C11.7199 29.2401 9.7249 26.8401 8.7349 24.0801L11.1949 22.5351C11.8699 24.8901 13.4749 26.9601 15.8149 28.1751C20.3299 30.4851 25.8499 28.7001 28.1599 24.1851C30.4849 19.6701 28.6999 14.1501 24.1849 11.8251C19.6699 9.51506 14.1499 11.3001 11.8399 15.8151L14.6599 17.2701L7.2349 21.8901L6.6499 13.1601L9.3199 14.5251C12.3499 8.60006 19.6249 6.33506 25.4749 9.32006ZM18.9349 21.0651C18.6649 20.7951 18.4999 20.4201 18.4999 20.0001C18.4999 19.8951 18.5449 19.8201 18.5599 19.7151H18.5449L19.9999 12.5001L21.4549 19.7151L25.9999 24.5001L19.2499 21.3201L19.2799 21.2901C19.1599 21.2301 19.0399 21.1551 18.9349 21.0651Z" fill="white"/>
</g>
<defs>
<clipPath id="clip0_694_1896">
<rect width="30" height="30" fill="white" transform="translate(5 5)"/>
</clipPath>
</defs>
</svg>
