<svg width="40" height="40" viewBox="0 0 40 40" fill="none" xmlns="http://www.w3.org/2000/svg">
<rect x="0.5" y="0.5" width="39" height="39" rx="7.5" fill="#484848" stroke="#333333"/>
<path d="M19.6925 8C19.383 8 19.0638 8.00967 18.735 8.02901C18.0967 8.0677 17.4197 8.17408 16.7041 8.34816C16.0271 8.52224 15.4468 8.71567 14.9632 8.92843C14.2282 9.25725 13.4836 9.68279 12.7292 10.205C11.8781 10.8046 11.1238 11.53 10.4662 12.381C9.80851 13.2321 9.2766 14.1605 8.87041 15.1663L8.72534 15.5145C8.55126 15.94 8.4352 16.2592 8.37718 16.472C8.12573 17.3424 8 18.2901 8 19.3153C8 20.2631 8.08704 21.1625 8.26112 22.0135C8.68665 23.9478 9.47969 25.6015 10.6402 26.9749C11.646 28.1741 12.9903 29.2186 14.6731 30.1083C15.6015 30.5919 16.6605 30.9159 17.8501 31.0803C19.0397 31.2447 20.2437 31.235 21.4623 31.0513C22.6809 30.8675 23.793 30.5242 24.7988 30.0213C26.5397 29.1315 28.0097 27.7872 29.2089 25.9884C29.8085 25.0986 30.2727 24.1315 30.6015 23.087C30.9691 21.9265 31.1528 20.7273 31.1528 19.4894C31.1528 18.3868 30.9497 17.236 30.5435 16.0367C30.2147 15.0309 29.7698 14.0928 29.2089 13.2224C28.2224 11.6557 26.9845 10.4275 25.4952 9.53772C23.793 8.51257 21.8588 8 19.6925 8ZM18.706 13.5126H20.2727C20.5822 13.5126 20.8627 13.6044 21.1141 13.7882C21.3656 13.972 21.5397 14.2089 21.6364 14.499L24.7118 23.7834C24.8472 24.1702 24.823 24.5426 24.6393 24.9004C24.4555 25.2582 24.1799 25.4952 23.8124 25.6112C23.6576 25.6499 23.5029 25.6692 23.3482 25.6692C23.0387 25.6692 22.7582 25.5822 22.5068 25.4081C22.2553 25.234 22.0812 24.9923 21.9845 24.6828L21.3172 22.5648H17.8356L17.1683 24.6828C17.0716 24.9729 16.8975 25.2099 16.646 25.3936C16.3946 25.5774 16.1141 25.6692 15.8046 25.6692C15.6499 25.6692 15.5048 25.6499 15.3694 25.6112C14.9826 25.4952 14.6973 25.2631 14.5135 24.9149C14.3298 24.5667 14.2959 24.1992 14.412 23.8124L17.3424 14.528C17.4391 14.2186 17.6132 13.972 17.8646 13.7882C18.1161 13.6044 18.3965 13.5126 18.706 13.5126Z" fill="white"/>
</svg>
