<svg width="419" height="374" viewBox="0 0 419 374" fill="none" xmlns="http://www.w3.org/2000/svg">
<path d="M41.6605 220.004C43.1564 218.977 45.0622 218.977 46.6293 219.896C47.05 220.144 47.4811 220.391 47.922 220.617C48.3632 220.853 48.8141 221.067 49.2544 221.271C50.8898 222.026 52.029 223.616 52.1291 225.475L52.4811 231.849L72.3463 230.636L71.9943 224.262C71.894 222.393 72.8225 220.657 74.3724 219.715C75.2288 219.193 76.0531 218.629 76.8556 218.022C78.2978 216.92 80.1879 216.715 81.7838 217.547L87.2335 220.4L96.1657 201.817L90.716 198.964C89.1201 198.132 88.1434 196.418 88.1365 194.557C88.1302 193.518 88.0725 192.492 87.963 191.467C87.7594 189.612 88.5405 187.783 90.0364 186.756L95.1343 183.246L84.1912 165.887L79.0625 169.408C77.5667 170.435 75.6712 170.435 74.1245 169.505C73.7038 169.257 73.2727 169.009 72.8318 168.784C72.3909 168.558 71.9501 168.333 71.5098 168.129C69.864 167.375 68.7245 165.773 68.6242 163.904L68.2722 157.53L48.4069 158.743L48.7687 165.095C48.8691 166.964 47.9405 168.7 46.391 169.653C45.5345 170.175 44.7102 170.739 43.908 171.357C42.4661 172.469 40.5757 172.663 38.9798 171.832L33.5405 168.978L24.6082 187.561L30.0476 190.415C31.6438 191.257 32.6202 192.961 32.6274 194.832C32.6337 195.871 32.6813 196.908 32.8012 197.933C33.0047 199.788 32.2236 201.617 30.7278 202.644L25.6399 206.143L36.583 223.502L41.6809 219.993L41.6605 220.004ZM45.7866 187.058C49.8253 178.655 59.6282 175.25 67.682 179.469C75.7255 183.688 78.9641 193.93 74.9255 202.333C70.8868 210.736 61.1043 214.129 53.0505 209.91C45.0071 205.691 41.748 195.461 45.7866 187.058Z" fill="#3A3A3A"/>
<path d="M27.4247 321.248C30.0007 319.582 33.2251 319.673 35.8361 321.303C36.5371 321.742 37.2556 322.181 37.9916 322.584C38.7276 323.005 39.4811 323.39 40.2171 323.756C42.9508 325.11 44.8083 327.856 44.896 331.005L45.2114 341.806L78.8746 340.708L78.5592 329.907C78.4715 326.74 80.1188 323.847 82.7824 322.328C84.2544 321.486 85.6738 320.57 87.0582 319.582C89.5466 317.788 92.7534 317.531 95.417 319.014L104.512 324.104L120.441 293.092L111.346 288.002C108.683 286.519 107.105 283.572 107.175 280.423C107.211 278.666 107.158 276.926 107.018 275.187C106.755 272.038 108.157 268.981 110.733 267.315L119.512 261.622L101.761 231.726L92.9286 237.438C90.3527 239.104 87.1458 239.013 84.5698 237.365C83.8689 236.926 83.1504 236.486 82.4144 236.084C81.6784 235.681 80.9424 235.278 80.2064 234.912C77.4551 233.557 75.5976 230.793 75.51 227.626L75.1946 216.825L41.5314 217.923L41.8643 228.688C41.952 231.855 40.3047 234.747 37.6411 236.285C36.1691 237.127 34.7497 238.042 33.3653 239.049C30.8769 240.862 27.6701 241.1 25.0064 239.617L15.9291 234.527L0 265.539L9.07732 270.629C11.7409 272.13 13.3181 275.059 13.248 278.226C13.2129 279.984 13.248 281.741 13.4057 283.48C13.6686 286.629 12.2667 289.686 9.69065 291.352L0.928759 297.028L18.6804 326.923L27.4598 321.229L27.4247 321.248ZM35.8537 265.704C43.056 251.681 59.7912 246.39 73.2319 253.915C86.6551 261.439 91.6845 278.922 84.4822 292.945C77.2799 306.968 60.5797 312.241 47.139 304.716C33.7158 297.192 28.6514 279.727 35.8537 265.704Z" fill="#676767"/>
<path d="M129.976 183.07C128.521 210.567 127.47 238.887 130.063 266.33C132.079 287.712 140.683 305.305 161.957 310.559C181.688 315.411 209.779 315.045 226.479 301.388C234.242 295.017 236.958 286.028 236.433 275.959C235.714 261.954 225.095 185.266 221.923 161.339C220.013 146.767 218.155 132.011 213.774 117.933C204.592 88.4041 190.485 87.8549 188.54 87.2508C186.858 86.1341 176.256 81.9235 160.975 87.0128C152.529 89.8138 146.571 95.8002 142.821 103.892C131.833 127.599 131.36 157.312 129.976 183.07Z" fill="#263238"/>
<path d="M193.026 92.1203C209.849 100.34 213.862 119.526 217.928 136.734C223.605 160.68 228.88 184.735 233.033 209.01C235.031 220.69 236.783 232.407 238.203 244.178C239.552 255.437 241.655 267.465 240.936 278.852C239.727 297.671 223.255 306.22 207.291 308.912C206.52 309.04 206.292 307.813 207.063 307.648C216.158 305.763 225.445 303.127 232.21 296.078C240.884 287.035 239.885 275.245 238.851 263.492C237.099 243.501 234.277 223.619 230.755 203.884C227.233 184.131 223.045 164.506 218.559 144.954C214.283 126.354 211.199 101.86 192.921 92.4132C192.746 92.3217 192.851 92.0288 193.026 92.1203Z" fill="#263238"/>
<path d="M135.075 123.974C138.264 109.603 145.414 95.5801 159.924 91.4061C159.959 91.4061 159.959 91.4427 159.924 91.4427C141.191 97.6853 136.635 119.068 134.129 136.936C131.5 155.737 129.573 174.63 128.258 193.577C127.014 211.811 126.12 230.173 126.453 248.462C126.821 268.197 130.239 286.668 141.401 302.925C141.629 303.254 141.191 303.675 140.928 303.346C129.941 290.202 126.313 272.078 125.419 255.107C124.263 232.773 125.647 210.054 127.312 187.774C128.907 166.611 130.449 144.679 135.058 123.974H135.075Z" fill="#263238"/>
<path d="M171.612 213.898C184.265 252.874 212.057 312.701 232.087 310.559C250.382 308.619 305.845 283.721 322.037 271.071C338.334 258.348 295.611 209.633 285.149 215.711C269.36 224.883 234.172 247.309 230.229 246.375C225.305 245.203 218.208 233.432 187.892 199.601C175.485 185.761 166.233 197.294 171.612 213.898Z" fill="#FFBF9D"/>
<path d="M320.705 271.62C327.451 269.076 357.364 254.613 364.83 248.645C372.295 242.677 392.57 223.857 388.785 217.413C384.982 210.969 378.621 215.985 378.621 215.985C378.621 215.985 385.981 206.631 381.6 200.516C377.219 194.401 367.563 202.548 367.563 202.548C367.563 202.548 374.45 192.351 369.649 186.584C364.847 180.818 356.471 190.685 356.471 190.685C356.471 190.685 363.182 181.678 357.312 178.657C350.25 175.033 339.683 193.102 330.956 199.051C328.976 200.406 288.987 223.455 288.987 223.455L320.705 271.62Z" fill="#FFBF9D"/>
<path d="M357.189 189.861C349.374 203.134 343.766 207.527 330.588 214.283C330.325 214.411 330.465 214.85 330.746 214.74C344.222 209.358 352.037 204.891 357.838 190.227C358.118 189.513 357.575 189.239 357.207 189.861H357.189Z" fill="#263238"/>
<path d="M368.142 201.468C358.872 214.502 352.826 219.336 339.525 227.464C339.333 227.574 339.508 227.921 339.701 227.83C353.387 220.983 361.08 216.351 368.702 202.054C369.053 201.413 368.562 200.864 368.142 201.468Z" fill="#263238"/>
<path d="M377.92 216.388C368.072 228.342 361.658 233.926 347.779 240.095C347.446 240.242 347.621 240.754 347.972 240.645C362.709 235.793 370.77 228.892 378.253 216.736C378.761 215.912 378.551 215.637 377.938 216.388H377.92Z" fill="#263238"/>
<path d="M280.575 227.061C280.575 227.061 288.917 209.596 294.191 202.768C299.466 195.939 328.135 178.053 332.183 184.296C337.405 192.369 322.808 206.081 314.817 211.83C314.817 211.83 326.926 230.466 318.497 242.695C310.068 254.906 280.575 227.061 280.575 227.061Z" fill="#FFBF9D"/>
<path d="M332.936 187.024C332.621 197.971 321.668 204.818 314.308 210.988C313.748 211.464 313.923 212.086 314.343 212.47C318.917 220.635 323.088 233.56 319.075 242.622C318.952 242.878 319.303 243.098 319.46 242.842C325.033 233.725 321.914 220.69 316.359 212.068C323.999 205.843 334.688 198.484 333.024 187.005C333.024 186.932 332.919 186.932 332.919 187.005L332.936 187.024Z" fill="#263238"/>
<path d="M277.982 218.201L316.324 280.06C316.324 280.06 246.614 316.582 229.493 312.518C212.355 308.454 183.055 260.764 169.071 217.871C155.087 174.978 182.232 189.44 193.342 202.09C204.452 214.741 228.722 244.105 229.879 243.592C231.035 243.08 278.017 218.201 278.017 218.201H277.982Z" fill="#E0E0E0"/>
<path opacity="0.1" d="M283.239 296.078C262.754 305.323 238.623 314.696 229.493 312.536C212.355 308.472 183.038 260.801 169.054 217.889C162.185 196.836 165.234 189.587 171.437 189.202L283.221 296.078H283.239Z" fill="black"/>
<path d="M295.803 273.268C294.612 271.126 293.385 269.003 292.176 266.879C289.723 262.632 275.055 237.46 269.272 229.826C269.115 229.624 268.817 229.862 268.922 230.082C272.987 238.888 288.18 263.602 290.721 267.685C292.018 269.772 293.315 271.84 294.629 273.909C295.961 275.996 297.503 277.9 298.835 279.987C298.958 280.188 299.291 280.023 299.168 279.804C297.959 277.68 297.012 275.41 295.821 273.268H295.803Z" fill="#263238"/>
<path d="M217.489 292.325L224.762 340.069C224.762 340.069 223.36 340.252 206.625 340.747L201.578 327.035L194.954 341.296L92.8428 341.845L102.568 308.929C112.925 278.594 122.002 224.882 141.489 201.98C156.962 183.764 175.538 184.753 187.559 197.055C190.608 200.167 221.415 245.221 225.533 263.967C228.477 277.368 217.507 292.343 217.507 292.343L217.489 292.325Z" fill="#E0E0E0"/>
<path d="M180.917 285.57C186.91 285.699 192.956 286.083 198.914 287.328C201.876 287.95 204.802 288.737 207.746 289.598C209.201 290.037 210.673 290.403 212.145 290.77C213.652 291.136 215.264 291.465 216.788 291.355C216.929 291.355 216.946 291.612 216.806 291.63C215.334 291.85 213.914 292.033 212.425 291.996C211.006 291.96 209.569 291.74 208.149 291.447C205.135 290.861 202.139 290.092 199.142 289.451C193.079 288.17 187.015 286.907 180.9 286.193C180.619 286.156 180.619 285.552 180.9 285.57H180.917Z" fill="#263238"/>
<path d="M166.933 293.808C171.735 292.655 176.659 291.776 181.548 291.318C184.019 291.08 186.472 291.044 188.961 291.08C190.152 291.08 191.326 291.135 192.518 291.209C193.815 291.282 195.129 291.556 196.426 291.611C196.566 291.611 196.583 291.886 196.443 291.886C195.217 291.886 193.99 292.161 192.763 292.252C191.537 292.344 190.31 292.435 189.083 292.527C186.63 292.71 184.177 292.948 181.706 293.112C176.782 293.442 171.875 293.826 166.968 294.357C166.705 294.394 166.67 293.9 166.916 293.845L166.933 293.808Z" fill="#263238"/>
<path d="M154.351 191.326C157.926 202.584 167.862 224.406 174.994 234.731C184.79 248.956 199.335 261.441 199.335 261.441C199.335 261.441 202.612 251.299 202.612 240.974C202.612 229.935 195.707 217.669 190.433 200.79C188.996 198.813 187.979 197.477 187.541 197.037C178.727 188.049 166.39 185.083 154.351 191.326Z" fill="#EBEBEB"/>
<path d="M199.335 261.441C202.454 270.705 204.68 282.641 201.42 291.501C201.595 303.346 201.701 315.191 201.595 327.035C201.087 315.209 200.807 303.364 200.579 291.52C203.803 281.872 201.771 271.107 199.352 261.441H199.335Z" fill="#263238"/>
<path d="M192.834 271.84C193.167 275.007 197.6 274.494 197.355 271.437C197.092 268.398 192.641 268.654 192.834 271.84ZM192.834 271.84C192.588 268.178 197.81 267.593 198.231 271.364C198.424 275.153 193.184 275.501 192.834 271.84Z" fill="#263238"/>
<path d="M192.834 291.941C193.167 295.108 197.6 294.595 197.355 291.538C197.092 288.499 192.641 288.755 192.834 291.941ZM192.834 291.941C192.588 288.279 197.81 287.694 198.231 291.465C198.424 295.254 193.184 295.602 192.834 291.941Z" fill="#263238"/>
<path d="M192.834 312.06C193.167 315.227 197.6 314.715 197.355 311.657C197.092 308.6 192.641 308.875 192.834 312.06ZM192.834 312.06C192.588 308.399 197.81 307.813 198.231 311.584C198.424 315.374 193.184 315.722 192.834 312.06Z" fill="#263238"/>
<path d="M192.834 332.179C193.167 335.346 197.6 334.834 197.355 331.777C197.092 328.719 192.641 328.994 192.834 332.179ZM192.834 332.179C192.588 328.518 197.81 327.932 198.231 331.703C198.424 335.493 193.184 335.841 192.834 332.179Z" fill="#263238"/>
<path d="M159.1 194.017C159.24 196.708 168.248 215.565 179.621 217.066C183.318 217.542 186.735 196.544 186.735 196.544L187.331 195.061L195.585 174.191L173.89 153.394L170.719 150.593C170.719 150.593 168.826 156.451 166.53 163.793C166.425 164.14 166.32 164.47 166.197 164.836C166.057 165.239 165.917 165.642 165.812 166.026C165.461 167.124 165.093 168.223 164.76 169.358C164.498 170.2 164.252 171.042 164.007 171.939C163.744 172.836 163.499 173.715 163.236 174.612C160.818 183.546 159.048 192.919 159.1 194.054V194.017Z" fill="#FFBF9D"/>
<path d="M166.53 163.774C169.615 182.136 181.653 191.582 187.331 195.061L195.585 174.191L173.89 153.394L170.719 150.593C170.719 150.593 168.826 156.451 166.53 163.793V163.774Z" fill="#263238"/>
<path d="M222.904 129.595C233.804 167.563 213.266 178.676 205.415 181.111C198.301 183.326 173.803 189.935 159.205 153.357C144.608 116.762 158.066 99.4799 174.083 93.4935C190.1 87.5254 212.004 91.6261 222.904 129.595Z" fill="#FFBF9D"/>
<path d="M214.984 123.572C214.09 123.663 213.249 123.608 212.355 123.608C211.356 123.608 210.55 123.718 209.674 123.114C209.201 122.785 209.061 121.943 209.306 121.43C209.919 120.258 211.146 119.929 212.355 119.874C213.669 119.819 214.703 120.112 215.755 120.936C216.771 121.723 216.158 123.425 214.966 123.572H214.984Z" fill="#263238"/>
<path d="M191.677 135.563C192.553 135.38 193.342 135.05 194.183 134.776C195.147 134.465 195.935 134.318 196.601 133.458C196.952 133 196.864 132.14 196.461 131.737C195.55 130.803 194.27 130.876 193.114 131.206C191.835 131.554 190.958 132.176 190.187 133.275C189.434 134.355 190.52 135.783 191.677 135.545V135.563Z" fill="#263238"/>
<path d="M197.565 138.639C197.53 138.547 197.407 138.822 197.425 138.913C198.126 141.513 198.511 144.607 196.461 146.071C196.391 146.126 196.443 146.254 196.514 146.218C199.177 145.083 198.634 140.982 197.565 138.639Z" fill="#263238"/>
<path d="M194.674 136.478C190.573 137.211 192.273 145.742 196.075 145.064C199.826 144.405 198.126 135.874 194.674 136.478Z" fill="#263238"/>
<path d="M193.149 137.284C192.536 137.925 192.01 138.932 191.169 139.207C190.187 139.518 189.259 138.804 188.435 138.071C188.347 137.998 188.295 138.071 188.312 138.2C188.61 139.847 189.557 141.385 191.274 141.257C192.851 141.147 193.657 139.463 193.727 137.724C193.727 137.412 193.394 137.01 193.149 137.266V137.284Z" fill="#263238"/>
<path d="M212.18 134.355C212.18 134.245 212.408 134.446 212.425 134.556C212.846 137.211 213.775 140.195 216.228 140.598C216.298 140.598 216.315 140.744 216.228 140.744C213.354 140.927 212.162 136.954 212.18 134.355Z" fill="#263238"/>
<path d="M213.915 131.114C217.927 129.943 219.89 138.401 216.175 139.499C212.513 140.579 210.567 132.103 213.915 131.114Z" fill="#263238"/>
<path d="M215.737 131.242C216.473 131.535 217.297 132.176 218.085 132.048C218.979 131.883 219.435 130.803 219.803 129.778C219.838 129.668 219.925 129.723 219.943 129.833C220.364 131.444 220.241 133.256 218.821 133.933C217.525 134.556 216.21 133.421 215.474 131.901C215.334 131.627 215.457 131.114 215.755 131.224L215.737 131.242Z" fill="#263238"/>
<path d="M201.315 158.996C201.999 159.545 202.717 160.332 203.664 160.295C204.557 160.259 205.556 159.71 206.345 159.27C206.415 159.234 206.52 159.307 206.467 159.399C205.924 160.515 204.592 161.338 203.383 161.265C202.192 161.21 201.508 160.222 201.088 159.161C201.035 159.014 201.228 158.923 201.315 159.014V158.996Z" fill="#263238"/>
<path d="M210.27 147.389C210.27 147.389 211.479 151.252 211.812 153.119C211.847 153.302 211.426 153.467 210.813 153.614C210.778 153.614 210.778 153.65 210.743 153.614C207.676 154.73 204.294 154.181 201.894 151.856C201.736 151.691 201.929 151.453 202.121 151.545C204.802 152.918 207.484 152.881 210.305 152.405C210.34 151.856 208.009 145.851 208.29 145.778C209.254 145.504 211.304 145.833 212.53 145.979C210.235 137.851 206.695 130.162 204.522 122.034C204.452 121.741 204.838 121.576 204.96 121.833C209.201 129.613 212.057 138.913 214.633 147.243C214.966 148.286 211.041 147.572 210.27 147.389Z" fill="#263238"/>
<path d="M210.445 152.973C210.445 152.973 209.201 155.829 206.993 157.257C206.186 157.788 205.258 158.135 204.206 158.08C202.051 157.989 201.595 156.03 201.613 154.273C201.63 152.826 201.998 151.49 201.998 151.49C201.998 151.49 205.591 153.742 210.445 152.973Z" fill="#263238"/>
<path d="M206.993 157.257C206.186 157.788 205.258 158.136 204.206 158.081C202.051 157.989 201.595 156.03 201.613 154.273C203.856 154.017 206.344 155.078 206.993 157.257Z" fill="#FF9CBD"/>
<path d="M157.979 152.094C164.358 151.454 163.499 137.412 163.499 137.412C163.499 137.412 176.291 135.124 177.29 115.151C177.29 115.151 178.517 124.14 174.294 132.066C174.294 132.066 196.409 125.458 202.612 104.02C202.612 104.02 200.509 114.748 197.548 118.959C197.548 118.959 206.537 114.473 209.814 105.613C209.814 105.613 215.667 116.268 219.225 118.849C219.225 118.849 211.409 77.8229 175.608 88.8803C175.608 88.8803 153.002 94.647 147.955 115.059C142.908 135.472 157.996 152.094 157.996 152.094H157.979Z" fill="#263238"/>
<path d="M164.042 152.46C164.042 152.46 153.528 142.099 148.866 146.273C144.205 150.428 153.79 166.667 160.45 167.728C167.109 168.79 168.16 162.383 168.16 162.383L164.042 152.46Z" fill="#FFBF9D"/>
<path d="M151.723 150.85C151.618 150.85 151.635 151.014 151.723 151.033C156.419 151.93 159.538 155.628 161.992 159.637C160.362 158.246 158.434 157.696 156.612 159.765C156.524 159.875 156.665 160.04 156.77 159.985C158.469 159.198 159.801 159.253 161.308 160.479C162.36 161.34 163.218 162.548 164.06 163.628C164.34 163.994 165.006 163.628 164.761 163.189C164.761 163.152 164.725 163.115 164.708 163.097C163.674 157.312 157.769 150.154 151.723 150.868V150.85Z" fill="#263238"/>
<path d="M138.737 234.878C145.905 278.778 181.18 360.885 204.154 368.611C230.755 377.563 323.123 346.716 341.242 332.839C348.462 327.328 309.997 278.705 301.025 282.147C263.419 296.609 230.071 304.024 225.235 300.582C217.805 295.31 187.454 249.89 167.739 221.716C142.961 186.328 135.513 215.162 138.737 234.86V234.878Z" fill="#FFBF9D"/>
<path d="M338.859 334.157C342.977 332.619 371.261 311.182 379.602 301.113C384.929 294.687 394.077 283.575 401.349 265.89C409.743 245.478 411.092 239.784 411.811 232.809C412.319 227.775 402.628 220.251 389.1 248.682C379.55 268.728 367.476 270.009 358.328 269.826C320.81 269.094 293.333 285.003 293.333 285.003C293.333 285.003 323.053 340.052 338.859 334.157Z" fill="#FFBF9D"/>
<path d="M362.902 269.661C353.456 269.808 384.176 249.78 384.631 238.539C385.104 227.299 374.608 230.832 366.354 237.185C337.668 259.208 316.026 258.128 301.463 279.181C286.919 300.234 362.884 269.661 362.884 269.661H362.902Z" fill="#FFBF9D"/>
<path d="M300.062 281.689C307.93 266.183 324.455 259.739 338.789 252.636C342.452 250.897 346.149 249.194 349.654 247.254C358.328 242.146 366.249 234.933 375.922 231.729C377.832 231.162 380.058 230.759 381.88 231.766C379.97 230.942 377.902 231.528 376.062 232.187C366.634 236.105 359.187 243.446 350.425 248.718C346.833 250.769 343.17 252.508 339.525 254.302C325.121 261.258 309.069 267.153 300.079 281.689H300.062Z" fill="#263238"/>
<path d="M227.268 297.89C234.61 299.977 285.815 285.295 285.815 285.295L314.589 357.974C314.589 357.974 225.428 379.649 204.627 372.125C183.809 364.601 151.407 290.732 140.928 247.803C131.08 207.454 144.205 181.11 171.787 222.923C171.787 222.923 223.43 296.792 227.268 297.89Z" fill="#E0E0E0"/>
<path d="M203.523 369.892C186.087 360.556 164.568 311.731 160.432 302.156C157.786 296.023 155.368 289.781 152.985 283.538C148.236 271.016 143.855 258.348 139.684 245.606C139.614 245.386 139.299 245.478 139.351 245.716C141.647 255.547 144.398 265.304 147.587 274.879C145.467 271.309 143.609 267.574 141.892 263.785C141.804 263.602 141.507 263.748 141.577 263.931C143.259 268.49 145.555 272.755 148.201 276.765C151.478 286.394 155.175 295.877 159.293 305.104C160.485 307.777 185.351 367.585 204.838 373.132C211.619 375.073 234.803 373.316 239.727 372.144C239.938 372.089 239.99 371.814 239.745 371.814C233.051 371.65 209.709 373.242 203.471 369.91L203.523 369.892Z" fill="#263238"/>
<path d="M295.33 349.187C294.472 346.679 293.596 344.171 292.702 341.681C290.914 336.683 280.19 306.953 275.528 297.671C275.406 297.415 275.038 297.616 275.108 297.872C277.719 308.051 289.092 337.379 291.002 342.23C291.983 344.702 292.947 347.173 293.946 349.645C294.945 352.116 296.242 354.478 297.223 356.949C297.328 357.187 297.696 357.077 297.608 356.821C296.75 354.331 296.172 351.713 295.313 349.205L295.33 349.187Z" fill="#263238"/>
<path d="M285.832 285.424C281.592 285.625 243.267 294.925 234.803 296.921C232.805 297.397 230.615 298.166 228.547 297.818C226.339 297.452 224.902 295.548 223.518 293.9C220.767 290.605 190.818 249.231 188.628 247.199C187.804 246.43 187.156 246.284 187.927 247.583C189.259 249.817 218.401 290.696 221.047 293.9C223.5 296.884 225.813 300.033 229.949 299.85C231.772 299.777 283.449 287.657 285.99 286.559C286.533 286.321 286.481 285.406 285.815 285.424H285.832Z" fill="#263238"/>
<g opacity="0.3">
<path d="M394.778 108.304C391.168 155.499 353.527 169.724 353.527 169.724C350.758 176.9 347.148 195.152 347.148 195.152H296.908C296.908 195.152 293.298 176.9 290.529 169.724C290.529 169.724 252.888 155.499 249.278 108.304C246.772 75.5162 269.132 27.0393 321.739 27.021H322.282C374.906 27.021 397.249 75.5162 394.743 108.304H394.778Z" fill="#F64848"/>
</g>
<g opacity="0.8">
<path d="M388.574 108.542C385.28 151.71 350.846 164.726 350.846 164.726C348.322 171.28 345.01 195.153 345.01 195.153H299.063C299.063 195.153 295.768 171.28 293.227 164.726C293.227 164.726 258.793 151.71 255.499 108.542C253.203 78.5555 273.653 34.2161 321.774 34.1978H322.264C370.402 34.1978 390.835 78.5555 388.539 108.542H388.574Z" fill="#F64848"/>
</g>
<path d="M297.68 116.424L292.513 117.433L307.287 200.069L312.455 199.061L297.68 116.424Z" fill="#A6A6A6"/>
<path d="M346.418 116.438L331.698 199.085L336.867 200.09L351.586 117.442L346.418 116.438Z" fill="#A6A6A6"/>
<path d="M322.037 144.699C317.376 144.699 313.345 140.378 310.489 134.959C309.209 136.369 307.772 137.23 306.265 137.23C298.608 137.23 295.593 120.991 295.471 120.296L297.188 119.948C297.959 124.232 301.113 135.38 306.265 135.38C307.404 135.38 308.561 134.557 309.63 133.22C307.299 128.204 305.95 122.584 305.95 118.593C305.95 113.943 307.65 111.27 310.646 111.27C314.081 111.27 316.044 114.108 316.044 119.032C316.044 123.536 314.326 129.541 311.698 133.385C314.396 138.676 318.147 142.85 322.037 142.85C325.033 142.85 328.065 140.36 330.571 135.82C330.764 135.49 330.939 135.143 331.114 134.776C328.24 131.371 326.611 125.989 326.611 120.845C326.611 114.913 328.783 111.234 332.271 111.234C333.69 111.234 334.847 111.966 335.618 113.376C337.843 117.403 336.669 126.923 333.217 134.465C334.514 135.673 336.073 136.406 337.913 136.406C342.312 136.406 346.272 125.183 347.411 120.845L349.094 121.339C348.638 123.06 344.415 138.236 337.896 138.236C335.811 138.236 333.971 137.431 332.393 136.076C332.288 136.296 332.166 136.497 332.06 136.699C329.187 141.898 325.717 144.644 322.019 144.644L322.037 144.699ZM332.271 113.101C329.379 113.101 328.363 117.293 328.363 120.881C328.363 124.762 329.519 129.779 331.938 133.056C334.847 126.245 335.951 117.678 334.111 114.327C333.655 113.485 333.059 113.101 332.288 113.101H332.271ZM310.646 113.101C308.228 113.101 307.702 116.085 307.702 118.593C307.702 122.364 308.894 127.161 310.804 131.499C312.819 128.094 314.291 123.06 314.291 119.032C314.291 116.323 313.66 113.101 310.646 113.101Z" fill="#A6A6A6"/>
<path d="M353.509 195.207H290.564V231.4H353.509V195.207Z" fill="#455A64"/>
<path d="M346.377 231.4C342.68 238.265 335.583 244.398 322.037 244.398C308.491 244.398 301.411 238.265 297.696 231.4H346.36H346.377Z" fill="#455A64"/>
<path d="M346.377 231.4C345.326 233.359 343.994 235.263 342.294 236.965L298.958 233.487C298.502 232.791 298.082 232.114 297.696 231.4H346.36H346.377Z" fill="#37474F"/>
<path d="M355.35 202.109L288.724 208.553V205.386L355.35 198.96V202.109Z" fill="#37474F"/>
<path d="M355.35 211.666L288.724 218.091V214.942L355.35 208.517V211.666Z" fill="#37474F"/>
<path d="M355.35 221.222L288.724 227.647V224.499L355.35 218.054V221.222Z" fill="#37474F"/>
<g opacity="0.5">
<path d="M265.154 97.2649C267.468 97.6677 270.447 85.2372 283.256 70.8296C288.952 64.4405 310.524 56.422 308.964 49.0443C307.404 41.6666 288.163 49.2457 278.473 60.9805C262.894 79.8367 263.034 96.8988 265.154 97.2649Z" fill="white"/>
<path d="M378.691 99.8643C382.932 99.8643 382.949 92.9809 378.691 92.9809C374.433 92.9809 374.433 99.8643 378.691 99.8643Z" fill="white"/>
<path d="M357.925 151.691C360.239 153.54 371.506 142.684 376.588 129.723C380.811 118.977 381.53 105.375 378.691 104.588C375.852 103.8 374.012 122.455 370.613 129.32C366.319 137.998 355.437 149.714 357.925 151.691Z" fill="white"/>
</g>
<path d="M321.213 18.1239C319.899 12.1192 319.794 6.0413 320.898 0C322.212 6.00469 322.317 12.0826 321.213 18.1239Z" fill="#A6A6A6"/>
<path d="M281.592 29.6757C277.579 25.1539 274.582 19.9547 272.637 14.1514C276.65 18.6733 279.647 23.8724 281.592 29.6757Z" fill="#A6A6A6"/>
<path d="M252.818 60.3764C247.193 58.5457 242.094 55.6349 237.625 51.6074C243.268 53.4198 248.332 56.3672 252.818 60.3764Z" fill="#A6A6A6"/>
<path d="M242.584 101.988C236.836 103.36 231.018 103.47 225.235 102.317C230.983 100.945 236.801 100.835 242.584 101.988Z" fill="#A6A6A6"/>
<path d="M253.641 143.38C249.313 147.573 244.336 150.703 238.781 152.735C243.11 148.543 248.086 145.413 253.641 143.38Z" fill="#A6A6A6"/>
<path d="M391.256 141.897C396.881 143.728 401.98 146.639 406.449 150.667C400.806 148.854 395.742 145.907 391.256 141.897Z" fill="#A6A6A6"/>
<path d="M401.49 100.285C407.237 98.9129 413.055 98.8031 418.838 99.956C413.09 101.328 407.273 101.438 401.49 100.285Z" fill="#A6A6A6"/>
<path d="M390.432 58.8935C394.76 54.7012 399.737 51.5707 405.292 49.5386C400.964 53.7309 395.987 56.8614 390.432 58.8935Z" fill="#A6A6A6"/>
<path d="M361.062 28.8334C362.815 22.9569 365.601 17.6295 369.456 12.9612C367.721 18.8561 364.9 24.1468 361.062 28.8334Z" fill="#A6A6A6"/>
</svg>
