<svg width="40" height="40" viewBox="0 0 40 40" fill="none" xmlns="http://www.w3.org/2000/svg">
<rect x="0.5" y="0.5" width="39" height="39" rx="7.5" fill="#484848" stroke="#333333"/>
<path d="M22.5 18.75H15M17.5 23.75H15M25 13.75H15M30 17.5V13.5C30 11.3998 30 10.3497 29.5913 9.54754C29.2318 8.84193 28.6581 8.26825 27.9525 7.90873C27.1502 7.5 26.1002 7.5 24 7.5H16C13.8998 7.5 12.8497 7.5 12.0475 7.90873C11.3419 8.26825 10.7683 8.84193 10.4087 9.54754C10 10.3497 10 11.3998 10 13.5V26.5C10 28.6003 10 29.6502 10.4087 30.4525C10.7683 31.1581 11.3419 31.7318 12.0475 32.0913C12.8497 32.5 13.8998 32.5 16 32.5H20.625M27.5 31.25C27.5 31.25 31.25 29.4626 31.25 26.7815V23.6536L28.5155 22.6765C27.8585 22.4411 27.14 22.4411 26.483 22.6765L23.75 23.6536V26.7815C23.75 29.4626 27.5 31.25 27.5 31.25Z" stroke="white" stroke-width="2" stroke-linecap="round" stroke-linejoin="round"/>
</svg>
