<svg width="64" height="64" viewBox="0 0 64 64" fill="none" xmlns="http://www.w3.org/2000/svg">
<path d="M32.0002 37.6621C35.1566 37.6621 37.7153 35.1034 37.7153 31.9471C37.7153 28.7908 35.1566 26.2321 32.0002 26.2321C28.8439 26.2321 26.2852 28.7908 26.2852 31.9471C26.2852 35.1034 28.8439 37.6621 32.0002 37.6621Z" fill="#00D8FF"/>
<path fill-rule="evenodd" clip-rule="evenodd" d="M32.0003 20.3273C39.6735 20.3273 46.8017 21.4283 52.1764 23.2786C58.652 25.508 62.6336 28.8872 62.6336 31.9471C62.6336 35.1357 58.414 38.7257 51.4599 41.0297C46.2025 42.7716 39.2842 43.6809 32.0003 43.6809C24.5324 43.6809 17.4607 42.8274 12.1441 41.0106C5.41757 38.7114 1.36612 35.075 1.36612 31.9471C1.36612 28.9121 5.16763 25.5589 11.5523 23.3329C16.947 21.4521 24.2512 20.3273 31.9993 20.3273H32.0003Z" stroke="#00D8FF" stroke-width="2.73408"/>
<path fill-rule="evenodd" clip-rule="evenodd" d="M21.8849 26.1706C25.7183 19.5236 30.233 13.8987 34.5209 10.1672C39.6872 5.67119 44.6037 3.91044 47.2542 5.43891C50.0166 7.03185 51.0184 12.4808 49.5403 19.6557C48.4238 25.0803 45.7543 31.5275 42.1154 37.8373C38.3845 44.3066 34.1125 50.0062 29.883 53.7032C24.5311 58.3816 19.3568 60.0747 16.6472 58.5121C14.018 56.9969 13.0125 52.0277 14.2738 45.3847C15.3395 39.7719 18.014 32.8826 21.8837 26.1705L21.8849 26.1706Z" stroke="#00D8FF" stroke-width="2.73408"/>
<path fill-rule="evenodd" clip-rule="evenodd" d="M21.8945 37.8543C18.0503 31.2148 15.433 24.4929 14.3405 18.9145C13.0254 12.1932 13.9552 7.05428 16.6034 5.52137C19.363 3.92375 24.584 5.777 30.0619 10.6409C34.2036 14.3183 38.4564 19.8499 42.1058 26.1538C45.8474 32.6168 48.6517 39.1646 49.7426 44.6751C51.123 51.6485 50.0057 56.9766 47.2987 58.5437C44.672 60.0643 39.8654 58.4544 34.7401 54.0439C30.4097 50.3176 25.7767 44.5597 21.8945 37.8541V37.8543Z" stroke="#00D8FF" stroke-width="2.73408"/>
</svg>
