<svg width="40" height="40" viewBox="0 0 40 40" fill="none" xmlns="http://www.w3.org/2000/svg">
<rect x="0.5" y="0.5" width="39" height="39" rx="7.5" fill="#1A1A1A" stroke="#333333"/>
<path d="M25.5344 18.1085C25.8625 18.4516 26.3031 18.6379 26.7687 18.6379C27.2344 18.6379 27.675 18.4484 28.0031 18.1085L31.6312 14.3371C31.9594 13.9939 32.1406 13.5397 32.1406 13.0527C32.1406 12.5658 31.9594 12.1115 31.6312 11.7683L27.7812 7.76817C27.1219 7.08513 25.9719 7.08513 25.3125 7.76817L21.6875 11.5396C21.3594 11.8827 21.1781 12.337 21.1781 12.8239C21.1781 13.3109 21.3594 13.7652 21.6875 14.1083L25.5344 18.1085ZM22.7437 12.6377L26.3719 8.86625C26.4344 8.80089 26.5094 8.79109 26.5469 8.79109C26.5844 8.79109 26.6594 8.80089 26.7219 8.86625L30.5719 12.8697C30.6344 12.9351 30.6437 13.0135 30.6437 13.0527C30.6437 13.0919 30.6344 13.1704 30.5719 13.2357L26.9469 17.0071C26.8844 17.0725 26.8094 17.0823 26.7719 17.0823C26.7344 17.0823 26.6594 17.0725 26.5969 17.0071L22.7437 13.007C22.6812 12.9416 22.6719 12.8632 22.6719 12.8239C22.6719 12.7847 22.6812 12.703 22.7437 12.6377ZM13.8781 22.2296C13.2187 21.5465 12.0656 21.5465 11.4094 22.2296L10.9312 22.7263C10.4531 23.2263 9.94686 24.112 9.75936 24.7885L8.16249 30.4979C8.02811 30.975 8.08749 31.4195 8.32811 31.7529C8.54686 32.0568 8.89686 32.23 9.28749 32.23C9.44374 32.23 9.60936 32.2039 9.77499 32.1483L15.475 30.3149C16.1187 30.109 16.9656 29.5763 17.4406 29.0828L17.7219 28.7919C18.05 28.4488 18.2312 27.9945 18.2312 27.5076C18.2312 27.0206 18.05 26.5664 17.7219 26.2232L13.8781 22.2296ZM16.6656 27.6939L16.3844 27.9847C16.0844 28.2985 15.4406 28.7004 15.0344 28.8312L11.625 29.926L10.3344 28.3083L11.1969 25.2264C11.3156 24.8048 11.6937 24.1381 11.9906 23.8309L12.4687 23.3342C12.5312 23.2688 12.6062 23.259 12.6437 23.259C12.6812 23.259 12.7562 23.2688 12.8187 23.3342L16.6625 27.3311C16.725 27.3965 16.7344 27.4749 16.7344 27.5141C16.7375 27.5533 16.7281 27.6318 16.6656 27.6939ZM14.125 7.76817C13.4656 7.08513 12.3156 7.08513 11.6562 7.76817L7.80936 11.7683C7.48124 12.1115 7.29999 12.5658 7.29999 13.0527C7.29999 13.5397 7.48124 13.9939 7.80936 14.3371L25.3156 32.5405C25.6437 32.8836 26.0844 33.0699 26.55 33.0699C27.0156 33.0699 27.4562 32.8804 27.7844 32.5405L31.6344 28.537C31.9625 28.1939 32.1437 27.7396 32.1437 27.2527C32.1437 26.7657 31.9625 26.3114 31.6344 25.9683L14.125 7.76817ZM30.5719 27.4357L26.725 31.4391C26.6625 31.5045 26.5875 31.5143 26.55 31.5143C26.5125 31.5143 26.4375 31.5045 26.375 31.4391L8.86874 13.2357C8.80624 13.1704 8.79686 13.0919 8.79686 13.0527C8.79686 13.0135 8.80624 12.9351 8.86874 12.8697L12.7156 8.86625C12.7781 8.80089 12.8531 8.79109 12.8906 8.79109C12.9281 8.79109 13.0031 8.80089 13.0656 8.86625L13.5875 9.40876L11.8031 11.2683C11.5094 11.5723 11.5094 12.0657 11.8031 12.3697C11.95 12.52 12.1406 12.5984 12.3312 12.5984C12.5219 12.5984 12.7156 12.5233 12.8594 12.3697L14.6469 10.5101L15.5156 11.4154L14.7437 12.2193C14.4531 12.5233 14.4531 13.0168 14.7437 13.3207C14.8906 13.471 15.0812 13.5495 15.2719 13.5495C15.4625 13.5495 15.6562 13.4743 15.8 13.3207L16.5719 12.5167L17.4406 13.422L15.6531 15.2816C15.3594 15.5855 15.3594 16.079 15.6531 16.3829C15.8 16.5332 15.9906 16.6117 16.1812 16.6117C16.3719 16.6117 16.5625 16.5365 16.7094 16.3829L18.4969 14.5234L19.3687 15.4286L18.5969 16.2326C18.3062 16.5365 18.3062 17.03 18.5969 17.3339C18.7437 17.4875 18.9344 17.5627 19.125 17.5627C19.3156 17.5627 19.5094 17.4875 19.6531 17.3339L20.425 16.53L21.2969 17.4352L19.5094 19.2948C19.2187 19.5987 19.2187 20.0922 19.5094 20.3962C19.6562 20.5465 19.8469 20.6249 20.0375 20.6249C20.2281 20.6249 20.4219 20.5498 20.5656 20.3962L22.3531 18.5366L23.225 19.4419L22.4531 20.2458C22.1625 20.5498 22.1625 21.0432 22.4531 21.3472C22.6 21.5008 22.7906 21.5759 22.9812 21.5759C23.1719 21.5759 23.3656 21.5008 23.5094 21.3472L24.2812 20.5432L25.15 21.4485L23.3625 23.308C23.0687 23.612 23.0687 24.1055 23.3625 24.4094C23.5094 24.563 23.7 24.6382 23.8906 24.6382C24.0812 24.6382 24.2719 24.563 24.4187 24.4094L26.2062 22.5498L27.075 23.4551L26.3031 24.2591C26.0125 24.563 26.0125 25.0565 26.3031 25.3604C26.45 25.5108 26.6406 25.5892 26.8312 25.5892C27.0219 25.5892 27.2156 25.514 27.3594 25.3604L28.1312 24.5565L29.0031 25.4617L27.2156 27.3213C26.9219 27.6252 26.9219 28.1187 27.2156 28.4226C27.3625 28.573 27.5531 28.6514 27.7437 28.6514C27.9344 28.6514 28.1281 28.5762 28.2719 28.4226L30.0594 26.5631L30.5562 27.0827C30.6187 27.1481 30.6281 27.2265 30.6281 27.2657C30.6281 27.305 30.6344 27.3703 30.5719 27.4357Z" fill="white"/>
</svg>
