<svg width="40" height="40" viewBox="0 0 40 40" fill="none" xmlns="http://www.w3.org/2000/svg">
<rect x="0.5" y="0.5" width="39" height="39" rx="7.5" fill="#484848" stroke="#333333"/>
<path d="M22.5 31.5626H17.5V33.4376H22.5V31.5626ZM8.4375 22.5001V17.5001H6.5625V22.5001H8.4375ZM31.5625 21.9537V22.5001H33.4375V21.9537H31.5625ZM23.614 10.764L28.5625 15.2176L29.8167 13.8239L24.8684 9.37029L23.614 10.764ZM33.4375 21.9537C33.4375 19.8432 33.4564 18.5069 32.9239 17.3113L31.2111 18.0741C31.5436 18.8207 31.5625 19.6776 31.5625 21.9537H33.4375ZM28.5625 15.2176C30.2542 16.7402 30.8786 17.3275 31.2111 18.0741L32.9239 17.3113C32.3914 16.1156 31.3855 15.2357 29.8167 13.8239L28.5625 15.2176ZM17.5373 8.43756C19.5145 8.43756 20.2606 8.45204 20.9256 8.70723L21.5974 6.95669C20.5326 6.54809 19.3725 6.56256 17.5373 6.56256V8.43756ZM24.8684 9.37029C23.5109 8.14854 22.6621 7.36524 21.5974 6.95669L20.9256 8.70723C21.5909 8.96248 22.1519 9.44801 23.614 10.764L24.8684 9.37029ZM17.5 31.5626C15.1165 31.5626 13.4231 31.5606 12.1386 31.3878C10.881 31.2188 10.1564 30.9017 9.62738 30.3727L8.30155 31.6986C9.23701 32.6339 10.4232 33.0491 11.8887 33.2462C13.3273 33.4396 15.1695 33.4376 17.5 33.4376V31.5626ZM6.5625 22.5001C6.5625 24.8306 6.56051 26.6728 6.75391 28.1113C6.95095 29.5768 7.3661 30.7631 8.30155 31.6986L9.62738 30.3727C9.09836 29.8437 8.78128 29.1191 8.6122 27.8616C8.43949 26.5769 8.4375 24.8836 8.4375 22.5001H6.5625ZM22.5 33.4376C24.8305 33.4376 26.6728 33.4396 28.1112 33.2462C29.5767 33.0491 30.763 32.6339 31.6985 31.6986L30.3726 30.3727C29.8436 30.9017 29.119 31.2188 27.8615 31.3878C26.5769 31.5606 24.8835 31.5626 22.5 31.5626V33.4376ZM31.5625 22.5001C31.5625 24.8836 31.5605 26.5769 31.3878 27.8616C31.2188 29.1191 30.9016 29.8437 30.3726 30.3727L31.6985 31.6986C32.6339 30.7631 33.049 29.5768 33.2461 28.1113C33.4395 26.6728 33.4375 24.8306 33.4375 22.5001H31.5625ZM8.4375 17.5001C8.4375 15.1165 8.43949 13.4232 8.6122 12.1386C8.78128 10.881 9.09836 10.1565 9.62738 9.62744L8.30155 8.30161C7.3661 9.23708 6.95095 10.4233 6.75391 11.8888C6.56051 13.3273 6.5625 15.1695 6.5625 17.5001H8.4375ZM17.5373 6.56256C15.1942 6.56256 13.343 6.56059 11.8986 6.7539C10.4279 6.95074 9.23774 7.36544 8.30155 8.30161L9.62738 9.62744C10.1557 9.09916 10.8825 8.78163 12.1473 8.61234C13.4384 8.43954 15.1414 8.43756 17.5373 8.43756V6.56256Z" fill="white"/>
<path d="M21.25 8.125V11.25C21.25 14.1963 21.25 15.6694 22.1652 16.5847C23.0806 17.5 24.5537 17.5 27.5 17.5H32.5" stroke="white" stroke-width="2"/>
<path d="M13.75 22.5L12.5 23.75L13.75 25M19.375 25L20.625 26.25L19.375 27.5M17.5 22.5L15.625 27.5" stroke="white" stroke-width="1.5" stroke-linecap="round" stroke-linejoin="round"/>
</svg>
